<svg width="20" height="26" viewBox="0 0 20 26" fill="none" xmlns="http://www.w3.org/2000/svg">
<path d="M9.75 0C4.37354 0 0 4.37404 0 9.75C0 16.943 8.9957 25.4922 9.37869 25.8529C9.4834 25.9508 9.6167 26 9.75 26C9.8833 26 10.0166 25.9508 10.1214 25.8529C10.5043 25.4922 19.5 16.943 19.5 9.75C19.5 4.37404 15.1265 0 9.75 0ZM9.75 24.7003C8.04776 23.0008 1.08332 15.6829 1.08332 9.75C1.08332 4.97128 4.97128 1.08332 9.75 1.08332C14.5287 1.08332 18.4167 4.97128 18.4167 9.75C18.4167 15.6829 11.4522 23.0008 9.75 24.7003Z" fill="#70B6F9"/>
<path d="M9.75019 4.33331C6.76359 4.33331 4.3335 6.7634 4.3335 9.75C4.3335 12.7366 6.76364 15.1667 9.75019 15.1667C12.7367 15.1667 15.1669 12.7366 15.1669 9.75C15.1669 6.7634 12.7368 4.33331 9.75019 4.33331ZM9.75019 14.0833C7.36027 14.0833 5.41687 12.1394 5.41687 9.75C5.41687 7.36064 7.36032 5.41668 9.75019 5.41668C12.1401 5.41668 14.0835 7.36064 14.0835 9.75C14.0835 12.1394 12.1401 14.0833 9.75019 14.0833Z" fill="#70B6F9"/>
</svg>
