<svg width="24" height="24" viewBox="0 0 24 24" fill="none" xmlns="http://www.w3.org/2000/svg">
<path d="M12.7682 11.6816L12.7678 5.48449C12.7678 5.06019 12.4238 4.71655 11.9999 4.71655C11.5759 4.71655 11.2319 5.06019 11.2319 5.48449L11.2324 11.9994C11.2324 12.2032 11.3135 12.3983 11.4574 12.5427L15.4776 16.5628C15.6277 16.7126 15.8241 16.7874 16.0208 16.7874C16.2172 16.7874 16.4135 16.713 16.5633 16.5628C16.8633 16.2629 16.8633 15.777 16.5633 15.4767L12.7682 11.6816Z" fill="#70B6F9"/>
<path d="M24 11.9998C24 11.9961 23.9995 11.9925 23.9994 11.9888C23.9935 5.37661 18.6129 0 11.9998 0C5.38298 0 0 5.38298 0 11.9998C0 18.6166 5.38298 23.9992 11.9998 23.9992C18.6129 23.9992 23.9935 18.6229 23.9994 12.0108C23.9995 12.0071 24 12.0035 24 11.9998ZM12.7677 22.4354V21.2415C12.7677 20.8172 12.4237 20.4736 11.9998 20.4736C11.5759 20.4736 11.2319 20.8172 11.2319 21.2415V22.4354C6.07283 22.0594 1.94012 17.9263 1.56414 12.7673H2.75808C3.18238 12.7673 3.52602 12.4241 3.52602 11.9998C3.52602 11.5755 3.18238 11.2318 2.75808 11.2318H1.5641C1.93993 6.07264 6.07269 1.93975 11.2319 1.56372V2.75765C11.2319 3.18154 11.5759 3.52559 11.9998 3.52559C12.4241 3.52559 12.7677 3.18158 12.7677 2.75765V1.56372C17.9271 1.93975 22.0595 6.07278 22.4355 11.2318H21.242C20.8177 11.2318 20.4736 11.5751 20.4736 11.9994C20.4736 12.4237 20.8176 12.7673 21.242 12.7673H22.4355C22.0597 17.9265 17.9272 22.0595 12.7677 22.4354Z" fill="#70B6F9"/>
</svg>
