<svg width="26" height="26" viewBox="0 0 26 26" fill="none" xmlns="http://www.w3.org/2000/svg">
<path d="M22.7012 18.1611C24.4989 14.8074 24.4269 10.7535 22.4984 7.46125C20.5333 4.10677 16.9361 2.04679 13.0485 2.04969L13.0483 2.04969C12.717 2.04969 12.4484 1.7811 12.4484 1.44973C12.4484 1.1184 12.7169 0.849827 13.0482 0.849782C13.0482 0.849782 13.0483 0.849782 13.0483 0.849782V1.04978L22.7012 18.1611ZM22.7012 18.1611L19.6232 16.109L19.6226 16.1085C18.9191 15.6434 17.9763 15.7965 17.4562 16.4604L17.4557 16.461L16.0422 18.2805L16.0408 18.2822C15.919 18.4427 15.6978 18.4892 15.5216 18.3915L15.5211 18.3912L15.252 18.2428L15.2511 18.2424L15.2457 18.2394C14.3691 17.7616 13.2746 17.1651 11.0572 14.9469C8.84047 12.7293 8.24232 11.634 7.76456 10.759L7.76112 10.7527L7.76096 10.7524L7.61336 10.4833L7.61337 10.4833L7.61225 10.4813C7.51303 10.3051 7.55872 10.0828 7.7194 9.95999L7.7194 9.95999L7.72078 9.95893L9.53901 8.54426L9.53955 8.54384C10.2033 8.02376 10.3567 7.08114 9.89186 6.37751L9.89138 6.37678L6.65178 1.51898C6.17507 0.802033 5.21876 0.586783 4.48082 1.03034C4.48081 1.03035 4.48079 1.03036 4.48077 1.03037L2.45018 2.25015C1.76776 2.65163 1.2671 3.30156 1.05313 4.06388L1.05312 4.06388L1.05282 4.065C0.294338 6.82861 0.897732 11.4994 7.69933 18.3018L7.84076 18.1604L7.69934 18.3019C10.4221 21.0246 12.8013 22.7514 14.8547 23.7991C11.789 24.3203 8.6346 23.5102 6.19349 21.5539C3.59881 19.4745 2.09253 16.3265 2.10123 13.0014V13.0009C2.10123 12.6695 1.83264 12.4009 1.50127 12.4009C1.16991 12.4009 0.901321 12.6695 0.901321 13.0009L0.901321 13.0011C0.907611 19.7076 6.34156 25.1434 13.0481 25.1519H13.0483C14.2818 25.1524 15.5079 24.9628 16.6834 24.5899C17.7464 24.9785 18.8676 25.1848 19.9996 25.1999L20.0014 25.1999C20.6541 25.2027 21.3042 25.1178 21.9343 24.9475L21.9361 24.947C22.6985 24.7332 23.3485 24.2326 23.7498 23.55C23.75 23.5497 23.7502 23.5493 23.7504 23.549L24.9708 21.5206C24.9708 21.5206 24.9708 21.5206 24.9708 21.5206C25.415 20.7825 25.1999 19.8255 24.4826 19.3486L23.7043 18.8301L22.7012 18.1611ZM1.10132 13.0009C1.10751 19.5972 6.4521 24.9436 13.0484 24.9519L1.10132 13.0009ZM1.10132 13.0009C1.10132 12.78 1.28037 12.6009 1.50127 12.6009C1.72218 12.6009 1.90123 12.78 1.90123 13.0009H1.10132ZM22.7216 22.9344L22.7204 22.9364C22.4772 23.3531 22.0821 23.6595 21.618 23.7913C20.5004 24.0985 18.9715 24.1427 16.9889 23.4308C16.9492 23.4102 16.9074 23.394 16.8642 23.3827C14.6615 22.5627 11.9074 20.8108 8.54686 17.4515C2.06679 10.9717 1.56233 6.74372 2.20986 4.38337C2.34193 3.91932 2.64829 3.5242 3.06487 3.28071L3.06487 3.28072L3.06683 3.27955L5.09828 2.06085L5.0985 2.06071C5.28728 1.94712 5.532 2.00218 5.65395 2.18563L5.65405 2.18578L7.41393 4.82796L7.41398 4.82803L8.89067 7.04282C8.89072 7.04291 8.89078 7.04299 8.89083 7.04307C9.00998 7.22352 8.97082 7.46524 8.80076 7.59886C8.80066 7.59894 8.80057 7.59901 8.80047 7.59909L6.98377 9.01225C6.98355 9.01242 6.98332 9.01259 6.9831 9.01276C6.35133 9.49636 6.17087 10.3707 6.55967 11.0649C6.5598 11.0652 6.55992 11.0654 6.56005 11.0656L6.70332 11.3259C6.70338 11.326 6.70345 11.3262 6.70352 11.3263C7.22259 12.2783 7.86929 13.4605 10.2044 15.7953C12.5399 18.1303 13.7217 18.7769 14.6733 19.2959L14.934 19.4396C14.9342 19.4397 14.9344 19.4398 14.9346 19.4399C15.6288 19.8287 16.5032 19.6484 16.9869 19.0166C16.987 19.0163 16.9872 19.0161 16.9874 19.0159L18.4005 17.1992C18.4006 17.1991 18.4006 17.1991 18.4007 17.199C18.5344 17.029 18.776 16.9898 18.9566 17.1089C18.9567 17.1089 18.9568 17.109 18.9569 17.109L23.8138 20.3483L23.8143 20.3487C23.9977 20.4701 24.0532 20.7143 23.9402 20.9031L22.7216 22.9344Z" fill="#70B6F9" stroke="#70B6F9" stroke-width="0.4"/>
</svg>
