<svg width="346" height="559" viewBox="0 0 346 559" fill="none" xmlns="http://www.w3.org/2000/svg">
<g opacity="0.05" clip-path="url(#clip0)">
<path d="M126.577 37.2034C126.655 38.9725 125.837 42.0684 127.461 41.8863C128.123 41.8213 133.853 42.1855 134.113 41.7042C134.113 41.7042 134.698 39.1025 134.113 38.6082C133.392 37.9879 132.57 37.4952 131.683 37.1513C129.982 37.071 128.277 37.0883 126.577 37.2034Z" fill="white"/>
<path d="M113.727 28.7741C113.727 28.7741 112.922 30.8814 113.727 31.2066C114.533 31.5318 115.598 32.0261 115.52 33.0798C115.442 34.1334 114.377 35.031 116.326 35.2781C118.275 35.5253 119.249 35.8505 119.249 34.6277C119.249 33.405 119.665 32.4294 118.366 31.0505C117.612 30.257 117.495 28.8911 116.625 28.2147C116.403 28.0471 116.148 27.9281 115.877 27.8652C115.606 27.8024 115.325 27.7972 115.052 27.8499C114.779 27.9026 114.52 28.0121 114.292 28.1713C114.063 28.3305 113.871 28.5358 113.727 28.7741Z" fill="white"/>
<path d="M122.913 26.0944C123.316 26.0944 123.797 27.6944 123.797 27.8245C124.656 27.9786 125.536 27.9786 126.395 27.8245C128.071 27.7204 127.98 26.8228 127.98 26.5237C127.98 26.2245 128.305 24.2472 126.772 24.2472H121.445C121.445 24.2472 121.445 25.9253 122.913 26.0944Z" fill="white"/>
<path d="M384.591 303.65C385.448 303.65 386.709 301.907 386.709 301.907C386.709 301.907 389.502 301.738 389.957 301.738C390.423 301.841 390.865 302.036 391.256 302.31C393.569 304.339 394.414 301.296 395.232 300.281C395.719 299.576 395.961 298.731 395.921 297.874C395.921 297.874 395.804 295.689 395.804 294.063C395.804 292.437 395.063 291.982 395.063 291.982C395.063 291.982 395.388 292.385 393.855 290.603C392.322 288.821 394.79 287.637 394.79 287.637C394.79 287.637 402.781 287.351 403.509 287.507C404.236 287.663 404.08 288.209 404.08 288.209C404.08 288.209 404.08 288.391 404.08 288.483C403.989 291.279 405.38 290.486 405.38 290.486C405.38 290.486 409.122 290.317 409.446 290.486C409.771 290.655 409.68 291.787 410.213 292.398C410.746 293.009 413.617 292.645 413.825 292.684C413.898 293.946 413.872 295.212 413.747 296.47C413.747 297.081 414.15 296.873 414.15 296.873C414.15 296.873 417.281 296.951 418.373 296.873C419.464 296.795 422.712 291.058 422.803 290.122C423.399 288.441 424.278 286.874 425.402 285.491C426.392 283.835 427.285 282.124 428.078 280.365C428.078 280.365 428.078 272.118 427.792 272.001C427.507 271.884 427.221 271.143 427.221 271.143V263.871C427.221 262.726 425.804 261.673 425.441 261.465C425.077 261.256 424.947 261.79 424.947 259.969C424.947 258.148 424.063 257.731 423.817 257.562C422.781 256.392 421.966 255.043 421.413 253.582C421.179 252.359 419.191 251.878 419.191 251.878C419.191 251.878 413.422 251.956 412.695 251.878C411.967 251.799 411.993 250.33 411.993 250.33C411.993 250.33 411.915 246.583 411.993 246.258C412.071 245.933 413.214 245.894 413.786 245.894C414.358 245.894 414.514 244.723 414.514 244.723C414.514 244.723 414.358 242.278 414.358 241.432C414.358 240.586 411.759 240.573 411.265 240.456C410.772 240.339 410.044 239.064 410.044 239.064L409.563 233.861C409.563 233.861 409.563 225.614 409.68 223.702C409.871 222.813 410.318 221.999 410.968 221.363C411.617 220.727 412.439 220.296 413.331 220.125C414.436 220.125 414.722 219.799 414.722 219.799V212.45C414.722 211.708 413.656 211.916 413.331 211.916C413.006 211.916 412.409 211.383 412.409 211.058C412.409 210.733 410.291 210.902 409.81 210.772C409.329 210.642 409.433 209.471 409.433 209.393C409.163 209.023 408.8 208.731 408.381 208.547C408.017 208.417 407.939 207.247 407.9 206.466C407.861 205.686 408.303 205.529 408.589 205.451C409.065 205.242 409.484 204.921 409.81 204.515V201.224C409.81 200.938 406.926 200.938 406.432 200.899C405.938 200.86 404.444 199.273 404.288 199.116C404.145 198.981 403.993 198.855 403.833 198.739V192.69C403.833 192.69 403.262 191.025 403.145 190.895C402.996 190.701 402.862 190.497 402.742 190.284V179.11C402.742 178.902 402.664 178.251 402.417 178.212C402.17 178.173 402.131 177.731 402.131 177.731C402.131 177.731 401.923 176.352 401.923 176.066C401.827 175.65 401.599 175.276 401.274 174.999C400.613 175.028 399.953 174.935 399.325 174.726C398.441 174.349 398.48 173.946 398.48 173.946C398.48 173.946 398.272 171.019 398.272 170.616C398.221 170.256 398.097 169.911 397.909 169.601C396.918 169.588 395.929 169.518 394.946 169.393C394.699 169.276 394.453 168.014 394.375 167.728C393.002 167.427 391.594 167.318 390.191 167.403C389.827 167.481 389.385 166.869 389.385 166.869C389.385 166.869 388.97 166.102 388.814 165.737C388.658 165.373 384.591 165.373 384.422 165.373C384.253 165.373 384.188 164.554 384.188 164.554C384.188 164.554 384.188 160.495 384.097 160.287C384.006 160.079 382.031 160.287 381.265 160.092C380.498 159.897 380.199 159.233 379.965 159.116C379.732 158.999 379.797 158.466 379.797 158.466C379.797 158.466 379.641 155.253 379.641 154.928C379.641 154.602 378.861 154.147 378.627 153.952C378.406 152.397 378.432 150.816 378.705 149.269C378.958 149.064 379.189 148.833 379.394 148.58C379.394 148.58 379.602 145.978 379.563 145.692C379.524 145.406 379.887 145.002 379.887 145.002H380.576C381.265 145.002 380.94 144.235 380.94 143.546C381.06 142.898 381.322 142.285 381.706 141.75H384.591C384.591 141.75 386.631 141.555 387.514 141.386C388.398 141.217 388.164 137.276 388.125 137.08C388.086 136.885 388.528 136.469 388.528 136.469C390.204 135.78 390.477 133.139 390.477 132.892C390.477 132.645 390.724 132.606 391.373 131.669C392.023 130.732 391.581 127.155 391.373 127.155C391.165 127.155 390.854 126.544 390.854 126.544C390.731 125.621 390.526 124.712 390.243 123.825C390.091 123.532 390.032 123.199 390.074 122.872C390.116 122.544 390.256 122.237 390.477 121.991C390.854 121.796 390.477 117.815 390.477 117.568C390.477 117.321 391.048 116.918 391.048 116.918C392.556 116.228 391.373 113.627 390.841 113.458C390.308 113.289 385.812 107.591 385.643 107.383C385.448 107.009 385.32 106.604 385.267 106.186C385.267 106.186 385.15 98.5243 385.072 98.3812C384.994 98.2381 381.992 93.6592 381.875 93.4641C381.758 93.269 377.458 93.334 377.458 93.334C377.458 93.334 376.756 92.7096 376.509 92.5405C376.262 92.3714 370.312 92.5405 370.312 92.5405C370.312 92.5405 367.609 89.2625 367.414 88.9893C367.219 88.7161 363.296 88.9893 362.919 88.8332C362.408 88.2381 362.071 87.5134 361.944 86.7389C361.944 86.3616 361.697 84.1372 362.295 84.1372C362.668 84.1431 363.034 84.2414 363.36 84.4234L363.737 85.1389C364.114 85.8413 365.465 86.0885 365.465 86.0885C365.465 86.0885 371.208 86.0885 371.234 85.9714C371.26 85.8543 372.053 85.373 372.053 85.373C372.053 85.373 377.952 85.373 378.9 85.373C379.151 85.4008 379.404 85.3335 379.608 85.1842C379.813 85.035 379.954 84.8147 380.004 84.5665V79.3502C379.943 79.1292 379.817 78.9312 379.644 78.7808C379.471 78.6305 379.257 78.5345 379.03 78.5047C378.575 78.5047 378.575 78.2966 378.575 78.2966C378.575 78.2966 378.458 76.0982 378.406 75.5518C378.354 75.0055 378.133 73.9518 377.848 73.9518C376.676 73.971 375.513 73.7497 374.43 73.3014C373.848 72.6294 373.375 71.87 373.027 71.051C371.704 70.809 370.355 70.7304 369.012 70.8169C368.74 70.8169 368.389 70.1404 368.116 69.2429C367.345 67.8452 366.323 66.6017 365.102 65.5746C364.777 65.5746 363.127 65.1713 363.127 65.1713C363.127 65.1713 360.073 62.2185 359.008 61.9713C358.358 61.8282 358.176 62.4396 358.241 62.9469C358.448 63.624 358.824 64.2373 359.333 64.729C359.715 65.2974 360.15 65.8287 360.632 66.316C361.477 67.0705 360.398 67.6949 360.255 67.851C360.112 68.0071 360.255 71.2071 360.151 71.6494C360.073 72.3128 361.801 72.0656 362.1 72.0266C363.306 71.9161 364.519 71.9161 365.725 72.0266C365.894 72.0266 366.076 72.0266 366.219 72.1177C366.362 72.2087 366.674 73.2104 367.102 73.1844C368.539 73.208 369.972 73.3341 371.39 73.5616C373.365 73.8478 372.689 77.9453 371.819 78.6478C370.838 79.2686 369.705 79.6062 368.545 79.6234C367.544 79.7405 366.895 82.5242 366.05 83.3697C365.205 84.2153 364.751 83.0966 364.751 82.7714C364.361 81.9394 363.829 81.1822 363.179 80.534C362.724 80.1307 359.476 77.7242 358.631 76.9957C357.729 76.2984 356.792 75.6471 355.825 75.0445C355.701 73.9128 355.644 72.7748 355.656 71.6364C355.786 71.2591 357.202 71.3892 357.202 71.3892C359.19 71.2591 357.735 69.438 357.735 69.438L356.136 65.0412C356.136 65.0412 355.448 63.3762 355.032 63.2981C354.616 63.2201 354.265 64.1437 354.265 64.599C354.265 65.0542 353.902 67.3567 353.902 67.3567L350.445 67.4347C350.121 67.4347 349.393 68.3323 349.393 68.3323C347.662 68.4396 345.927 68.4396 344.196 68.3323C343.338 68.1372 333.035 56.9502 333.035 56.9502C332.866 56.4689 327.591 57.0802 327.058 56.7941C326.526 56.5079 327.058 52.0331 326.772 51.7079C325.984 50.849 325.402 49.8213 325.07 48.703C324.746 47.194 323.16 47.5192 322.602 47.5973C322.043 47.6753 321.783 48.742 321.783 48.742C321.783 48.742 319.029 48.664 318.652 49.2233C318.275 49.7827 318.86 51.916 318.379 52.4493C316.765 52.7033 315.121 52.7033 313.507 52.4493C313.149 51.9516 312.657 51.5653 312.09 51.3352C311.522 51.105 310.9 51.0403 310.297 51.1485C309.44 51.1485 307.816 53.1908 307.608 53.2298C307.4 53.2688 304.775 52.9827 304.412 53.3469C304.048 53.7111 301.891 55.9485 300.955 56.1176C300.02 56.2867 298.968 54.2835 298.89 53.9973C298.925 53.3714 299.103 52.762 299.409 52.2152C299.695 51.6038 298.799 50.8233 298.682 50.8233C298.231 51.0651 297.843 51.4083 297.548 51.8259C297.252 52.2435 297.058 52.7241 296.98 53.2298C296.733 54.8168 301.436 59.851 301.397 60.7485C301.358 61.6461 299.331 62.0494 298.604 61.8803C297.876 61.7112 297.214 59.1616 296.2 57.6136C295.187 56.0656 294.615 57.2884 294.056 57.5355C293.498 57.7827 287.885 64.4429 287.885 64.4429C287.885 64.4429 287.677 69.6461 287.677 70.2185C287.677 70.7909 285.156 70.3746 284.831 70.3746C283.723 69.5504 282.681 68.6415 281.713 67.6559C281.134 67.552 280.547 67.4998 279.959 67.4998C279.439 67.4998 275.619 69.1648 275.619 69.1648C275.619 69.1648 269.448 69.0738 269.37 69.1648C269.292 69.2559 268.148 70.2575 268.148 70.2575H263.926C263.432 70.2575 263.562 70.7518 262.782 71.8445C262.003 72.9372 261.73 72.9892 261.119 72.9372C260.074 73.008 259.033 73.1339 258.001 73.3144C257.221 73.3925 257.26 75.3047 257.26 75.3047C256.987 76.3974 259.209 76.7226 259.859 76.6055C260.508 76.4884 261.158 75.7079 261.756 75.1356C262.353 74.5632 263.432 75.786 263.588 76.4364C263.744 77.0868 262.288 78.6738 261.561 78.921C260.771 79.2961 260.011 79.731 259.287 80.2218V82.8234C259.287 82.9405 258.793 83.721 258.313 83.721C257.832 83.721 257.585 83.9551 257.494 85.0218C257.403 86.0885 256.689 85.9063 255.831 85.9974C254.973 86.0885 254.168 85.6722 254.129 85.0998C254.09 84.5275 250.92 84.5665 250.92 84.5665L247.23 80.9502C246.42 80.323 245.549 79.7783 244.631 79.3242L235.172 79.1031C234.259 79.4788 233.327 79.8045 232.379 80.0787C231.69 80.1958 232.015 82.4332 232.015 83.2397C232.015 84.0462 234.159 83.8901 234.445 83.9811C234.73 84.0722 234.523 86.7779 234.523 86.7779H232.989C231.443 86.7779 232.054 86.908 230.989 88.0787C230.623 88.4441 230.128 88.6493 229.611 88.6493C229.095 88.6493 228.599 88.4441 228.234 88.0787C227.909 87.7925 228.962 86.2576 229.533 83.734C230.105 81.2104 228.156 81.0153 226.402 79.9486C225.592 79.4988 224.83 78.967 224.128 78.3616C223.943 77.3408 224.001 76.2907 224.297 75.2963C224.592 74.302 225.118 73.3913 225.83 72.638C226.246 72.1437 230.625 71.051 233.353 71.051C234.151 71.038 234.936 70.8411 235.645 70.4756C236.355 70.1102 236.971 69.586 237.446 68.9437C238.135 66.5112 241.227 66.6282 241.344 65.8217C241.461 65.0152 242.123 62.7648 240.538 61.464C238.953 60.1632 240.941 57.0022 241.955 55.2851C242.252 54.8599 242.383 54.3404 242.323 53.825C242.263 53.3095 242.016 52.834 241.63 52.4884C241.63 52.4884 234.977 52.1241 234.276 52.1241C232.438 52.5704 230.625 53.1132 228.845 53.7502C226.924 54.9728 224.76 55.7628 222.504 56.0656C221.965 56.1322 221.418 56.0677 220.909 55.8775C220.4 55.6872 219.944 55.377 219.581 54.9729C218.687 53.9181 217.695 52.9511 216.618 52.0851C215.378 51.7631 214.114 51.5455 212.837 51.4347C212.837 51.4347 208.94 47.9355 207.64 47.6883C206.341 47.4412 203.872 47.3241 204.028 47.8054C204.142 48.6676 204.181 49.5381 204.145 50.4071C203.639 51.0671 202.973 51.5866 202.209 51.916C200.663 52.7355 201.793 53.7111 200.13 54.6867C198.467 55.6624 197.896 53.9453 197.337 52.7355C196.778 51.5258 198.961 49.8087 199.767 48.742C200.071 48.113 200.162 47.4018 200.026 46.7164C199.89 46.0309 199.534 45.4086 199.013 44.9436C198.682 44.6868 198.295 44.5136 197.883 44.4389C197.471 44.3641 197.048 44.39 196.648 44.5144C195.984 44.6246 195.356 44.8922 194.816 45.2948C194.251 45.7403 193.764 46.2766 193.374 46.8818C192.815 47.7837 192.066 48.5518 191.178 49.1323C189.879 50.1859 188.515 49.2363 187.28 48.5079C186.046 47.7794 186.384 46.4656 187.28 46.2705C188.177 46.0753 189.229 46.2705 189.879 45.8542C190.529 45.4379 193.933 42.407 193.933 41.9517C193.933 41.4965 193.933 41.1713 193.933 40.794C193.933 39.2591 193.777 37.7241 193.712 36.2021C193.712 35.4086 193.621 34.6151 193.595 33.8346C193.595 33.4054 193.751 31.9745 193.387 31.6883C193.266 31.6136 193.13 31.5664 192.989 31.5498C192.848 31.5332 192.705 31.5478 192.57 31.5924C192.435 31.637 192.312 31.7106 192.208 31.8081C192.104 31.9055 192.024 32.0245 191.971 32.1566C191.724 32.6899 191.607 33.2493 191.373 33.7826C190.97 34.7192 190.568 35.6688 190.074 36.5794C189.268 38.1273 186.826 38.7127 185.929 39.181C185.033 39.6493 183.33 40.3127 183.33 40.8851C183.33 41.4574 181.511 45.6461 177.692 46.2054C173.872 46.7648 173.794 45.2298 172.897 44.4233C172.001 43.6168 172.819 42.394 174.196 42.394C175.574 42.394 178.016 42.7973 177.938 41.9908C177.86 41.1843 179.316 40.4428 180.121 38.5696C180.927 36.6964 182.564 36.9436 184.019 36.6964C184.606 36.6699 185.161 36.4191 185.57 35.9958C185.978 35.5724 186.209 35.0085 186.215 34.42C186.814 32.6613 188.059 31.1965 189.697 30.3224C190.671 30.1533 191.074 26.8232 191.971 25.1192C192.867 23.4151 190.749 23.7273 190.749 23.7273C190.749 23.7273 186.696 23.7273 186.449 23.6493C186.202 23.5712 185.643 22.6736 185.072 22.6736C183.316 22.5859 181.574 22.3156 179.874 21.8671C178.584 21.6125 177.363 21.0806 176.298 20.308C175.232 19.5355 174.347 18.5407 173.703 17.3923C173.053 16.4167 171.832 18.1988 171.832 18.1988L166.803 23.324C166.082 23.7089 165.319 24.0101 164.53 24.2216H159.982C159.008 23.6493 155.915 21.2948 155.344 21.0476C154.772 20.8005 151.693 20.7224 149.991 20.4753C148.289 20.2281 146.171 18.2899 145.04 17.2232C143.91 16.1565 137.725 16.6639 137.245 16.0915C136.476 15.3857 135.66 14.7338 134.802 14.1403C134.802 14.1403 124.083 14.1403 123.927 13.8931L123.355 13.0866C122.783 12.2671 119.353 12.5923 119.353 12.5923V5.43781C119.353 5.43781 120.653 5.35977 121.484 5.35977C121.802 5.34118 122.102 5.20639 122.327 4.98098C122.552 4.75557 122.687 4.45523 122.705 4.137C122.061 2.80614 121.313 1.52749 120.471 0.312596C120.068 -0.246755 119.496 0.0784494 118.522 0.312596C117.547 0.546743 118.236 1.86057 118.236 2.18577C117.991 2.79263 117.528 3.28496 116.937 3.56464C116.209 3.9809 115.962 6.33538 115.962 6.33538L116.053 10.8882L114.832 10.8102C114.487 10.7764 114.14 10.8169 113.813 10.9291C113.485 11.0413 113.186 11.2226 112.935 11.4606C113.023 13.1939 113.023 14.9306 112.935 16.6639C112.779 17.5484 113.312 17.7175 113.312 17.7175C115.3 17.6395 115.287 18.3289 115.287 18.3289C115.053 21.5419 115.858 21.62 117.08 21.62C118.301 21.62 117.885 20.5663 118.132 17.8736C118.379 15.1809 122.264 15.6102 122.264 15.6102C122.264 15.6102 131.437 15.6102 131.359 16.5858C131.359 16.5858 131.515 19.8379 132.242 20.8135C132.97 21.7891 138.336 29.9192 138.336 29.9192C138.336 29.9192 141.428 33.2623 141.428 34.5631C141.428 35.8639 141.181 36.1891 141.987 36.7485C142.793 37.3078 144.183 41.1452 145.326 41.1452C146.47 41.1452 146.859 41.7436 146.859 41.9647C146.859 42.1859 147.275 46.1794 146.781 46.5046C146.288 46.8298 144.91 48.3778 143.936 48.2217C142.961 48.0656 142.403 48.2217 142.234 48.6249L142.078 49.0282L132.164 48.9501C132.164 48.9501 131.593 49.1973 131.593 50.251C131.593 51.3046 131.437 52.5274 131.034 52.7745C130.406 52.9875 129.869 53.4097 129.515 53.9708C129.16 54.5319 129.008 55.1979 129.085 55.8575C129.358 58.0298 129.891 58.7323 130.384 58.8884C130.878 59.0445 137.66 58.7843 137.66 58.7843C137.865 58.5274 138.128 58.3224 138.427 58.1859C138.96 57.9128 140.857 57.3274 141.285 57.8607C141.714 58.3941 143.507 60.7876 141.506 61.3859C139.505 61.9843 138.687 62.4656 138.427 63.3892C138.26 65.0314 138.221 66.6841 138.31 68.3323C138.31 68.3323 138.479 68.7095 139.232 68.7095C139.986 68.7095 140.909 68.4364 141.558 69.412C142.208 70.3876 145.729 74.0169 144.274 75.3697C142.819 76.7226 141.935 77.9714 141.779 77.9714C141.623 77.9714 142.26 78.8429 142.26 79.5974C142.26 80.3519 142.429 83.0185 143.13 83.4998C143.832 83.9811 146.651 84.5275 147.197 85.5681C147.743 86.6088 149.627 86.7519 150.497 86.7519C151.368 86.7519 157.968 87.1291 157.968 87.1291C157.968 87.1291 158.67 88.0007 158.67 88.3259C158.67 88.6511 161.165 88.3259 161.645 88.9242C162.126 89.5226 162.945 90.7064 163.269 91.0966C163.594 91.4868 164.192 91.3568 164.738 92.1763C165.283 92.9958 168.194 96.6771 168.194 96.6771C168.194 96.6771 168.895 99.0576 168.895 99.2787C169.049 99.5585 169.259 99.8035 169.511 99.9982C169.764 100.193 170.054 100.333 170.364 100.41C170.909 100.41 171.884 99.8771 172.416 100.684C173.331 102.291 174.093 103.98 174.69 105.731C175.132 107.136 175.834 108.658 176.262 108.71C176.691 108.762 178.861 108.931 178.861 108.931C178.98 109.425 179.037 109.932 179.03 110.44C179.03 110.62 178.994 110.798 178.922 110.963C178.85 111.128 178.745 111.276 178.613 111.398C178.481 111.521 178.326 111.614 178.156 111.673C177.986 111.732 177.806 111.755 177.627 111.741C176.496 111.741 175.963 111.741 175.963 111.741C175.573 111.667 175.225 111.449 174.989 111.129C174.495 110.57 161.632 94.9991 161.632 94.9991C161.632 94.9991 160.619 92.1503 156.435 92.0332C156.435 92.0332 152.693 90.4462 151.966 89.9519C151.238 89.4576 149.614 90.16 149.159 90.6413C148.704 91.1226 148.431 91.1356 148.431 91.1356L140.324 91.0576C140.324 91.0576 135.01 86.7909 134.399 86.6348C133.788 86.4787 131.476 86.7909 130.904 88.0917C130.533 88.65 130.055 89.1286 129.497 89.4994C128.94 89.8702 128.314 90.1258 127.656 90.2511C127.176 90.3853 126.763 90.6916 126.495 91.1114C126.226 91.5313 126.122 92.0354 126.201 92.5275L126.279 94.0755C126.279 94.0755 125.954 94.5178 125.707 94.5178C125.46 94.5178 124.291 94.5177 124.291 95.1291C124.291 95.7405 124.537 102.934 124.537 102.934C124.743 103.288 124.973 103.627 125.226 103.949C125.665 104.751 125.927 105.638 125.993 106.55C126.054 106.946 126.202 107.322 126.427 107.653C126.652 107.984 126.947 108.26 127.292 108.463C128.033 108.749 130.02 112.118 129.566 112.976C129.111 113.835 128.513 118.752 126.967 118.908C126.74 118.913 126.516 118.967 126.31 119.064C126.104 119.162 125.921 119.302 125.773 119.475C125.625 119.648 125.515 119.85 125.45 120.068C125.384 120.287 125.366 120.516 125.395 120.742C125.395 121.224 125.07 127.936 125.07 127.936C125.07 127.936 124.421 129.718 124.369 130.082C124.317 130.446 124.369 134.154 124.369 134.154C124.369 134.154 124.291 134.635 123.433 134.479H121.653C121.653 134.479 120.964 133.789 120.964 133.542C120.964 133.295 121.159 119.519 121.159 119.519C121.499 118.854 121.909 118.226 122.381 117.646C122.628 117.568 126.279 113.627 125.382 112.976C124.486 112.326 117.028 107.006 117.028 107.006C117.028 107.006 114.949 105.002 114.013 107.006C113.569 108.158 113.242 109.352 113.039 110.57C112.956 110.887 112.951 111.22 113.026 111.54C113.101 111.86 113.252 112.156 113.468 112.404C113.922 112.885 117.093 115.617 116.807 116.02C116.521 116.424 116.196 119.767 115.092 120.001C115.092 120.001 112.623 122.121 111.363 121.913C110.102 121.705 106.542 121.536 106.023 119.832C106.023 119.832 103.71 116.215 106.217 113.406C106.217 113.406 107.361 112.872 107.361 112.599C107.361 112.326 107.439 106.784 107.439 106.784C107.432 106.279 107.279 105.786 106.997 105.367C106.5 104.672 106.191 103.861 106.101 103.012C106.101 102.492 102.852 96.508 102.852 96.508C102.852 96.508 100.41 95.8966 99.6041 97.0413L99.1103 97.7308H92.6139C92.6139 97.7308 91.5095 97.9779 91.5095 98.5503C91.5095 99.1226 91.1457 100.215 90.9378 100.215C90.7299 100.215 85.4677 100.085 85.3768 100.541C85.2858 100.996 84.8181 102.089 84.4413 102.089H72.7477C72.5781 101.679 72.2958 101.326 71.9337 101.071C71.5716 100.815 71.1445 100.668 70.7021 100.646C70.2598 100.624 69.8203 100.729 69.4349 100.947C69.0494 101.166 68.7339 101.489 68.525 101.88L66.4591 105.302C66.4591 105.302 63.5747 104.885 63.4188 105.666C62.8313 106.697 62.0239 107.585 61.054 108.267C60.8202 108.345 61.5868 109.438 61.9116 109.438C62.2364 109.438 63.1329 110.739 62.8471 111.103C62.5612 111.467 61.8726 112.69 61.3789 112.69C60.8851 112.69 59.1441 112.248 59.0661 112.69C58.9882 113.132 59.4299 114.563 58.3385 115.175C57.2471 115.786 56.3636 117.75 56.8833 118.375C57.403 118.999 60.9111 123.578 61.3529 123.578C61.7946 123.578 63.3018 123.422 63.3408 124.072C63.3798 124.723 63.7955 125.373 64.0294 125.373C66.4422 125.289 68.8577 125.328 71.2665 125.49C72.5005 126.752 73.578 128.159 74.4757 129.679C74.5056 130.816 74.4622 131.955 74.3458 133.087C74.3458 133.087 73.4103 133.698 73.0465 133.334C72.6827 132.97 68.6159 128.417 68.6159 128.417C68.6159 128.417 67.0828 127.845 66.8749 128.417C66.7912 130.082 66.8173 131.751 66.9528 133.412C66.5892 133.857 66.2508 134.321 65.9394 134.804C65.8224 135.09 65.6146 136.508 66.2642 136.833C66.9139 137.159 66.8749 139.643 66.8749 140.163C66.8749 140.684 66.7579 142.401 67.0438 142.609C67.3296 142.817 68.9408 144.638 67.4855 146.056C67.4855 146.056 66.8359 146.511 66.8749 148.424C66.9139 150.336 66.9528 151.585 66.9528 151.585C66.9528 151.585 66.589 151.949 66.3032 152.196C65.9026 153.047 65.7495 153.994 65.8614 154.928C65.9394 156.02 65.9394 159.559 65.9394 159.559C65.9394 159.559 65.2508 160.976 65.0948 160.976C64.9389 160.976 61.7557 164.684 61.7557 166.31C61.7557 167.936 61.9246 171.227 61.9246 171.227C61.4007 172.291 60.7879 173.31 60.0926 174.271C59.5209 174.843 58.1826 176.586 56.5195 176.625C54.8564 176.664 45.5145 176.339 45.1117 176.833C45.1117 176.833 41.7466 177.484 41.6556 178.251C41.5647 179.019 41.6556 183.259 41.6556 183.259C41.909 183.911 42.1952 184.549 42.5131 185.172C42.6592 185.518 42.893 185.82 43.1915 186.048C43.4901 186.277 43.8429 186.423 44.2152 186.472C44.9948 186.472 51.5302 186.303 51.5302 186.303C52.3911 186.462 53.2149 186.78 53.9599 187.24C54.4926 187.773 58.1046 191.142 58.4295 192.977C58.6399 195.381 58.7093 197.796 58.6374 200.209C58.2806 200.775 57.8717 201.306 57.416 201.796C57.1302 201.952 54.2068 203.578 53.9989 204.801C53.791 206.024 53.6741 205.738 53.5181 205.738C53.3622 205.738 49.0096 205.738 48.9706 205.985C48.9316 206.232 49.1785 211.461 49.1785 211.461C49.1785 211.461 48.8927 214.31 48.4379 214.635C47.9362 215.266 47.6292 216.03 47.5544 216.834C47.5544 217.159 47.9962 225.25 47.4245 225.653C46.8528 226.056 42.5911 228.502 41.1359 228.541C39.3869 228.689 37.6503 228.958 35.9387 229.347C35.497 229.477 33.0933 232.443 32.2487 232.521C31.4042 232.599 23.9982 232.001 23.4785 233.302C22.9588 234.603 20.672 235.409 19.8535 234.395C19.0349 233.38 18.5542 233.172 17.9045 233.172C17.2406 233.036 16.6176 232.746 16.0855 232.326C15.6308 232.04 14.1756 233.016 13.8507 233.627C13.5926 233.952 13.2646 234.214 12.8912 234.394C12.5177 234.574 12.1085 234.668 11.6939 234.668C11.2522 234.59 10.1218 234.668 10.1218 235.279C10.1218 235.89 9.79695 236.125 9.5111 236.125L5.69118 236.255C5.69118 236.255 3.53436 236.411 4.22298 237.022C5.18233 237.799 6.23409 238.455 7.35428 238.973C8.21203 239.417 9.02937 239.935 9.79695 240.521C11.0962 241.328 11.616 241.653 11.9018 243.201C12.1876 244.749 13.6039 247.754 13.6948 248.482C13.7858 249.211 14.8642 252.593 15.6438 253.165C16.2926 253.659 16.7955 254.32 17.099 255.078C17.099 255.312 17.2679 269.139 16.7741 269.139C16.2804 269.139 12.4735 268.814 12.5514 269.256C12.6294 269.699 12.9152 272.834 12.4345 272.873C11.9538 272.912 10.3556 273.692 10.6415 274.265C11.3312 275.399 12.1368 276.458 13.0452 277.426C13.6039 277.92 14.6173 280.769 13.6948 281.055C12.7723 281.341 11.0962 284.346 10.1607 284.346C9.22526 284.346 3.85918 283.735 3.41742 284.346C2.97566 284.957 -0.727325 288.535 0.130208 288.782C0.987742 289.029 2.27404 288.626 2.52091 289.185C2.76777 289.744 4.184 291.787 4.184 292.567C4.184 293.348 3.89816 303.091 3.89816 303.091C3.55159 303.886 3.25648 304.703 3.01464 305.536C3.01464 305.861 2.88471 308.138 3.4564 308.333C4.02809 308.528 4.26196 310.935 4.26196 311.143C4.26196 311.351 4.26196 311.468 5.32738 312.235C7.15926 314.076 8.80441 316.093 10.2387 318.258C10.494 319.101 10.6167 319.979 10.6025 320.86C10.6025 321.185 10.1607 327.728 10.6025 327.975C11.0443 328.222 16.3324 334.115 16.6962 334.597C16.9581 335.482 17.0246 336.414 16.8911 337.328C16.8911 337.328 17.7876 338.213 17.8266 338.46C17.8656 338.707 17.6317 338.954 17.4238 339.436C17.2159 339.917 17.4238 344.275 17.1379 344.392C16.8521 344.509 14.9421 346.07 14.4224 345.862C13.4205 345.755 12.41 345.755 11.4081 345.862C11.4081 345.862 9.55008 346.252 9.62804 347.436C9.706 348.619 9.01737 351.013 8.44568 351.208C7.87399 351.403 7.79604 352.834 7.79604 353.653C7.79604 354.473 7.96494 363.488 7.96494 363.488C8.18873 364.582 8.56947 365.638 9.09533 366.623C9.58906 367.065 15.5918 372.346 16.7741 372.593C17.5347 372.75 18.3106 372.82 19.0869 372.801C19.2428 372.801 22.9848 374.545 22.7769 376.132C22.569 377.719 22.3351 379.865 21.3217 380.112C19.8365 380.741 18.5063 381.686 17.4238 382.883C17.0578 383.782 16.6234 384.652 16.1245 385.484C15.8776 385.563 13.7598 387.553 13.7598 387.553C13.7598 387.553 12.9152 388.567 12.9152 389.14C12.9152 389.712 12.7983 392.574 12.7983 392.574C12.5305 392.935 12.2443 393.283 11.9408 393.615C11.7719 393.719 11.7719 395.566 12.0447 395.67C12.9358 396.065 13.8625 396.374 14.8122 396.593C15.3449 396.593 16.5403 396.372 17.086 397.023C17.6317 397.673 22.0623 402.603 22.0623 402.603C22.0623 402.603 24.336 405.803 24.6609 405.972C24.9857 406.141 26.7137 408.457 27.4154 408.457C28.117 408.457 28.1689 409.654 27.8961 409.758C27.3753 410.282 26.9722 410.912 26.7137 411.605C26.7137 411.93 26.9736 416.535 26.9736 416.535C26.9736 416.535 27.2984 417.628 27.6882 417.836C28.2586 418.321 28.7042 418.937 28.9875 419.631C29.1515 420.28 29.532 420.854 30.0659 421.257C30.7461 421.323 31.4295 421.168 32.0149 420.815C32.1838 420.607 34.9902 418.278 34.9902 418.278C35.4005 418.058 35.8372 417.892 36.2895 417.784H40.889C41.2112 417.979 41.5194 418.196 41.8115 418.434C42.8412 419.293 43.8014 420.233 44.683 421.244C44.7869 421.634 47.0087 421.53 47.4505 421.53C48.0669 421.549 48.6583 421.779 49.1265 422.18C49.5553 422.61 50.3089 424.678 50.6987 424.678C51.0885 424.678 52.2059 425.654 52.2059 425.654H56.3766C56.3766 425.654 57.6759 425.654 57.7798 424.353C57.8838 423.052 57.8448 421.374 58.1696 421.374L64.1204 421.257C64.1204 421.257 64.718 420.281 65.1468 420.398C65.5756 420.515 66.7709 422.024 66.9918 422.35C67.2127 422.675 71.5913 427.553 71.5913 427.553C71.5913 427.553 72.6178 428.528 73.1115 428.528C73.6052 428.528 77.3862 428.528 77.5421 428.854C78.7896 430.082 80.1513 431.188 81.6089 432.158C82.0376 432.314 90.1582 431.663 90.431 432.158C90.7039 432.652 94.0561 436.268 94.7057 436.333C95.3554 436.398 99.0973 436.333 99.4741 436.711C99.8509 437.088 101.579 437.036 101.579 437.738C101.579 438.441 101.371 439.689 101.956 439.846C102.82 439.936 103.691 439.936 104.554 439.846C104.554 439.846 105.152 440.717 104.554 441.263C103.957 441.81 99.734 444.463 99.734 444.463C99.734 444.463 98.9284 445.92 99.0324 446.35C98.9864 447.517 98.843 448.679 98.6036 449.823C98.3827 451.293 95.7322 455.625 95.0305 455.833C94.3289 456.041 87.5596 461.686 87.5596 462.831C87.5596 463.976 87.4427 467.917 87.0139 467.969C86.6183 468.157 86.2682 468.429 85.9879 468.766C85.7075 469.103 85.5034 469.497 85.3898 469.92C85.3898 470.688 85.013 472.418 84.4673 472.639C83.9216 472.86 83.0121 473.342 83.0641 473.94C83.116 474.538 83.4928 477.452 82.8951 477.452C82.2975 477.452 80.0887 477.452 79.8678 477.894C79.5356 478.912 79.3177 479.964 79.2182 481.029C79.2182 481.576 79.491 491.163 79.2182 491.605C78.9453 492.047 72.3449 499.995 72.3449 499.995C72.3449 499.995 70.396 502.168 70.396 502.766C70.396 503.364 69.9022 506.278 70.4999 507.202C71.0976 508.125 72.0201 509.699 72.5008 510.623C72.6555 511.412 72.6442 512.224 72.4674 513.008C72.2907 513.792 71.9524 514.53 71.4744 515.176C70.4273 516.285 69.6492 517.62 69.2006 519.078C69.2006 519.729 69.4215 525.752 69.4215 525.752C69.4215 525.752 69.0447 526.61 68.8238 526.662C68.368 527.239 68.1044 527.944 68.0702 528.678C68.0702 529.381 68.2261 531.111 68.6029 531.163C68.8344 531.255 69.0396 531.403 69.2004 531.594C69.3613 531.785 69.4729 532.012 69.5254 532.256C69.5254 532.581 69.5254 533.231 69.7463 533.335C69.9672 533.439 76.3467 533.335 76.3467 533.335C76.3467 533.335 77.5421 533.66 77.646 533.934C77.75 534.207 78.6725 536.366 79.3741 536.535C80.0757 536.704 85.7666 536.041 85.8705 536.535C86.1854 536.924 86.5331 537.286 86.91 537.615C87.0659 537.615 90.8078 537.615 90.8078 537.615C90.8078 537.615 91.5614 536.535 92.1071 536.535C92.4923 536.569 92.8657 536.685 93.202 536.875C93.5384 537.066 93.8297 537.327 94.0561 537.641C94.264 538.213 94.4329 538.695 94.7577 538.643C95.0825 538.591 97.7331 538.643 97.7331 538.643C97.9271 538.615 98.1046 538.518 98.2334 538.37C98.3622 538.222 98.4336 538.032 98.4347 537.836C98.4347 537.121 99.63 537.342 99.63 537.342H105.854C105.854 537.342 107.153 537.719 107.153 538.096C107.153 538.474 108.452 538.76 108.998 538.695C109.544 538.63 116.573 538.695 116.573 538.695C116.573 538.695 118.47 536.184 117.067 535.378C115.663 534.571 115.222 534.402 115.053 533.426C114.968 532.539 114.968 531.647 115.053 530.76C115.042 530.63 115.003 530.504 114.938 530.392C114.873 530.279 114.783 530.183 114.676 530.109C114.299 529.849 112.948 529.251 113.649 528.275C113.912 527.927 114.258 527.65 114.655 527.47C115.052 527.291 115.488 527.214 115.923 527.247C116.144 527.352 118.626 525.778 118.522 525.023C118.418 524.269 126.811 524.698 126.811 524.698C127.424 525.125 127.957 525.658 128.383 526.272C129.123 528.069 129.735 529.917 130.215 531.8C130.215 531.8 130.982 533.257 131.307 532.932C131.632 532.607 132.983 531.254 132.931 530.656C132.879 530.057 133.087 530.109 133.087 530.109H143.104C143.104 530.109 143.975 529.901 144.027 529.68C144.109 529.442 144.273 529.241 144.49 529.112C144.706 528.984 144.961 528.936 145.209 528.978C145.627 529.012 146.016 529.203 146.301 529.511C146.301 529.511 147.6 531.254 147.925 531.735C148.686 532.647 149.497 533.515 150.354 534.337C151.574 534.576 152.806 534.75 154.044 534.857C155.326 534.984 156.593 535.237 157.825 535.612C158.017 535.742 158.184 535.905 158.319 536.093C158.513 536.384 158.73 536.658 158.969 536.913C160.523 536.858 162.078 536.932 163.62 537.134C163.997 537.394 164.919 537.94 164.919 537.94C164.919 537.94 167.089 538.057 168.337 538.265C169.504 538.543 170.643 538.926 171.741 539.41C172.183 539.566 171.741 539.943 173.04 540.165C174.339 540.386 174.989 540.646 175.158 541.244C175.327 541.843 176.457 542.272 176.665 542.116C177.674 541.095 178.846 540.251 180.134 539.618C181.537 539.137 181.81 538.643 181.81 538.643C181.81 538.643 185.708 538.643 186.358 539.189C187.507 540.045 188.546 541.042 189.45 542.155C189.775 542.87 189.931 543.898 190.256 543.898C190.581 543.898 192.529 543.69 192.854 545.043C193.179 546.396 193.504 548.126 193.504 548.126C193.504 548.126 193.933 549.218 194.154 549.322C194.475 550.074 194.639 550.885 194.634 551.703C194.634 552.353 194.53 553.121 194.803 553.173C195.824 553.813 196.591 554.787 196.973 555.93C197.727 557.778 198.428 558.818 198.649 558.818H209.42C209.42 558.818 210.291 558.428 210.226 557.947C210.161 557.465 210.122 555.072 210.122 555.072C210.469 554.703 210.873 554.391 211.317 554.148C211.967 553.823 213.916 551.547 213.474 550.142C213.227 549.225 212.722 548.399 212.019 547.761C211.934 546.171 211.934 544.578 212.019 542.987C212.019 542.987 211.096 541.296 210.94 541.088C210.836 539.86 210.814 538.625 210.875 537.394C210.875 537.394 211.694 536.21 212.448 536.21H216.787C217.311 536.636 217.732 537.174 218.022 537.784C218.242 538.487 219.217 539.735 219.867 539.735C220.516 539.735 224.739 539.566 225.233 539.943C225.726 540.321 227.234 541.947 227.766 541.947C228.299 541.947 231.274 542.441 231.274 542.441L232.47 542.883L240.434 543.091C240.87 543.346 241.283 543.638 241.669 543.963C242.318 544.509 244.007 548.945 244.436 548.945C244.865 548.945 248.438 548.841 249.205 549.27C249.971 549.7 251.309 550.571 251.478 551.17C251.596 551.551 251.845 551.878 252.18 552.093L262.847 551.872C262.847 551.872 264.731 551.651 264.731 550.727C264.858 549.728 265.098 548.746 265.446 547.8L268.577 544.991C268.577 544.991 269.279 544.991 269.876 544.991C270.474 544.991 271.5 543.143 271.345 542.064C271.189 540.984 271.449 539.891 271.89 539.891L286.832 539.995C287.158 539.67 287.446 539.307 287.69 538.916C287.69 538.76 287.248 538.487 288.716 538.487H296.343C296.343 538.487 297.486 537.186 297.434 537.017C297.279 535.633 297.279 534.237 297.434 532.854C297.707 532.854 301.93 532.854 301.93 532.854C301.93 532.854 302.58 532.633 302.528 532.308C302.476 531.982 302.203 529.823 302.528 529.823C302.852 529.823 311.142 529.654 311.194 529.927C311.246 530.2 312.012 530.578 312.493 531.332C312.974 532.086 312.922 532.204 313.637 532.204C314.351 532.204 317.132 531.865 317.171 532.711C317.21 533.556 323.303 533.075 323.875 533.166C324.23 533.195 324.563 533.352 324.81 533.608C324.966 533.778 325.252 534.142 325.252 534.142C325.252 534.142 332.645 533.856 332.879 534.337C333.604 535.613 334.151 536.983 334.503 538.408C334.743 539.381 335.157 540.302 335.725 541.127C335.971 541.739 338.856 544.132 338.934 545.433C339.012 546.734 338.492 547.839 339.181 548.034C339.869 548.23 341.052 548.724 341.286 548.034C341.929 546.831 342.939 545.865 344.17 545.277C345.313 544.874 348.354 542.922 348.237 542.35C348.12 541.778 348.107 533.244 347.951 533.127C347.795 533.01 342.754 530.239 342.585 528.522C342.059 527.461 341.771 526.298 341.74 525.114C341.74 523.41 341.74 521.537 341.74 521.537C341.74 521.537 341.208 520.769 340.961 520.769C340.717 518.758 340.595 516.734 340.597 514.708C340.597 514.708 340.805 513.524 339.869 513.615C338.758 513.624 337.647 513.568 336.543 513.446L331.463 508.164C331.463 508.164 330.644 506.695 330.813 506.083C330.982 505.472 331.788 505.563 331.866 505.069C331.944 504.574 331.866 500.034 331.866 500.034C332.165 499.407 332.579 498.843 333.087 498.369C333.737 497.875 337.881 495.026 337.518 493.816C337.518 493.816 337.388 492.425 338.037 492.269C338.968 492.156 339.907 492.117 340.844 492.151C340.844 492.151 341.286 491.618 341.286 491.332C341.286 491.046 356.396 491.007 356.396 491.007C356.396 491.007 357.696 490.89 357.929 490.564C359.048 489.835 360.216 489.183 361.425 488.613C361.425 488.613 362.282 487.716 362.243 487.065C362.204 486.415 362.243 481.42 362.243 481.42C362.243 481.42 362.243 480.236 362.763 480.028C363.283 479.82 364.79 478.727 364.751 478.324C364.712 477.92 364.634 473.849 364.634 473.849C364.534 473.613 364.496 473.355 364.523 473.1C364.551 472.845 364.642 472.602 364.79 472.392C365.322 471.781 367.96 468.125 367.96 468.125C367.96 468.125 368.857 467.306 369.259 467.436C369.662 467.566 377.783 467.306 377.783 467.306C378.466 467.001 379.195 466.808 379.939 466.733C380.797 466.733 380.706 465.81 380.667 465.68C380.628 465.55 380.745 456.093 380.745 456.093C380.441 455.183 380.035 454.31 379.537 453.491C378.668 451.541 377.909 449.543 377.263 447.507L370.299 439.338L362.308 432.067C361.83 431.872 361.317 431.775 360.801 431.781C359.904 431.781 357.436 431.702 357.436 431.702C357.436 431.702 357.02 430.597 356.695 430.48C356.37 430.363 352.394 430.48 352.394 430.48C352.394 430.48 351.017 430.194 350.848 429.66C350.679 429.127 348.094 426.408 347.275 426.408C346.457 426.408 343.182 426.291 343.182 426.291C343.182 426.291 342 426.291 341.883 425.81C341.766 425.328 339.116 421.127 338.349 421.088L336.309 420.971C336.309 420.971 335.984 421.205 335.621 420.646C335.257 420.086 327.63 411.449 327.214 410.889C326.798 410.33 317.469 402.551 317.469 402.551C317.469 402.551 316.911 401.862 316.911 401.615C316.911 401.367 317.106 397.426 316.586 397.101C315.15 395.886 313.844 394.526 312.688 393.042C312.61 392.639 312.402 391.013 312.402 390.766C312.311 390.437 312.175 390.122 311.999 389.829C311.87 389.543 311.999 383.247 311.999 383.247C311.999 383.247 311.831 381.296 312.363 381.049C312.896 380.801 314.832 377.302 314.104 376.782C313.377 376.262 312.649 373.647 311.064 373.322C311.064 373.322 309.479 373.53 309.349 373.244C309.219 372.958 309.96 368.288 309.271 368.04C308.582 367.793 306.192 367.182 305.373 365.361C304.202 363.285 302.9 361.287 301.475 359.377C301.475 359.377 298.877 358.727 298.227 358.571C297.577 358.414 293.238 354.746 293.238 354.265C293.238 353.784 293.51 344.262 293.51 344.262C293.51 344.262 293.835 343.572 294.004 343.689C294.735 344.083 295.427 344.544 296.07 345.068C296.409 345.452 296.779 345.809 297.174 346.135C297.287 346.109 297.392 346.058 297.482 345.986C297.572 345.914 297.644 345.822 297.694 345.718C297.824 345.393 298.513 344.014 298.993 344.418C299.909 345.487 300.488 346.804 300.657 348.203C300.657 349.621 300.748 351.572 301.189 351.897C301.189 351.897 301.436 353.003 302.372 353.081C302.372 353.081 306.023 353.81 306.542 353.328C307.144 352.556 307.586 351.672 307.842 350.727C308.387 348.596 309.297 346.575 310.531 344.756C311.376 343.858 317.547 338.33 317.547 338.33C318.021 338.268 318.499 338.242 318.977 338.252C319.301 338.252 324.862 338.447 324.862 338.005C324.862 337.562 324.655 336.457 325.226 335.806C325.798 335.156 325.551 334.505 327.461 334.753C329.371 335 330.06 334.948 330.138 335.728C330.134 335.823 330.154 335.918 330.193 336.005C330.233 336.091 330.293 336.167 330.367 336.227C330.442 336.286 330.529 336.327 330.622 336.347C330.716 336.366 330.812 336.364 330.904 336.34L334.529 336.21C334.529 336.21 336.517 334.258 336.556 333.413C336.913 331.481 337.627 329.632 338.661 327.962C339.518 327.026 343.988 323.162 345.04 323.123C346.093 323.084 348.081 322.681 348.536 322.681C349.599 322.605 350.609 322.19 351.42 321.497C351.979 320.73 352.394 320.079 353.239 319.871C355.104 319.763 356.974 319.763 358.839 319.871C358.839 319.871 359.58 319.299 359.489 318.857C359.419 317.731 359.691 316.611 360.268 315.644C360.987 314.68 361.651 313.677 362.256 312.639C362.256 312.639 363.023 311.741 363.386 311.741L367.986 311.624C369.387 311.023 370.72 310.273 371.962 309.387C373.267 308.55 374.513 307.624 375.691 306.616C376.045 306.203 376.334 305.738 376.548 305.237C376.548 305.237 376.548 304.873 377.159 304.873C378.453 305.015 379.757 305.054 381.057 304.99C381.135 304.795 381.343 303.689 381.343 303.689C381.343 303.689 382.239 303.572 382.642 303.572L384.591 303.65Z" fill="white"/>
<path d="M40.7848 107.122C41.3234 107.785 41.9191 108.398 42.5648 108.956C43.0419 108.894 43.4993 108.726 43.9037 108.465C44.3082 108.204 44.6497 107.857 44.9035 107.447C45.1504 107.148 46.6836 105.613 46.2028 105.275C45.7221 104.937 45.1504 104.352 44.6047 103.909C44.059 103.467 43.5003 102.765 42.8896 102.673C42.279 102.582 39.5634 104.885 39.7064 105.444C39.971 106.059 40.3354 106.626 40.7848 107.122Z" fill="white"/>
<path d="M50.3607 102.127C49.8565 102.391 49.4137 102.759 49.0614 103.207C48.6196 103.922 48.6196 105.405 49.659 105.548C50.3126 105.692 50.9955 105.601 51.5891 105.292C52.1826 104.983 52.6491 104.475 52.9073 103.857C52.9073 103.857 53.1801 101.698 50.3607 102.127Z" fill="white"/>
<path d="M53.453 96.4426C52.8824 96.5858 52.3291 96.7908 51.8029 97.054C51.4932 97.1922 51.2396 97.4318 51.0839 97.7334C50.9282 98.035 50.8796 98.3807 50.9461 98.7136C51.0126 99.0466 51.1903 99.3469 51.4499 99.5654C51.7095 99.7838 52.0356 99.9074 52.3746 99.9157H57.6757C57.8666 99.9185 58.0558 99.8792 58.2298 99.8004C58.4038 99.7217 58.5583 99.6055 58.6823 99.4602C58.8064 99.3149 58.8969 99.144 58.9475 98.9597C58.9981 98.7754 59.0075 98.5822 58.975 98.3938C58.85 97.7264 58.4962 97.1237 57.9745 96.6897C57.4863 96.4382 56.9259 96.3646 56.3894 96.4816C55.4539 96.4946 54.4535 96.4556 53.453 96.4426Z" fill="white"/>
<path d="M65.0427 95.1938C64.369 95.4158 63.678 95.5811 62.9768 95.6881C62.4961 95.6881 61.5216 96.1174 61.4047 96.8198C61.2878 97.5222 61.5736 98.4458 62.2752 98.5499C63.0877 98.6785 63.92 98.5464 64.6529 98.1726C64.8931 97.9605 65.2032 97.8447 65.5235 97.8474H70.2399C70.2399 97.8474 71.7471 97.4442 71.6431 96.9369C71.5392 96.4295 70.8246 94.8165 70.019 94.5434C69.2134 94.2702 65.0427 95.1938 65.0427 95.1938Z" fill="white"/>
<path d="M74.5665 95.7401C74.5665 95.7401 77.7107 95.2458 78.3604 96.1694C78.7937 96.6284 79.3247 96.9838 79.9141 97.209C80.5035 97.4342 81.136 97.5235 81.7645 97.4702C82.539 97.199 83.2412 96.7541 83.8174 96.1694C84.0903 95.7922 85.1167 95.9613 85.6104 95.6621C86.1042 95.3629 87.2346 94.6084 87.1306 94.4913C87.0267 94.3743 86.8578 93.1905 86.1561 92.9694C84.9328 92.7199 83.6755 92.6846 82.4402 92.8653C81.5177 92.8653 80.5952 92.7612 79.6727 92.8653C78.7502 92.9694 78.1265 93.5938 77.269 93.7499C76.6713 93.8669 73.592 94.2442 73.592 94.2442C73.3581 94.2442 72.9553 95.1678 73.0333 95.3499C73.1113 95.532 74.2416 95.7921 74.5665 95.7401Z" fill="white"/>
<path d="M89.7162 91.2783C88.9626 91.8377 88.209 92.6702 88.6378 93.0214C89.0665 93.3726 89.2874 94.8686 89.9371 94.7125C90.5867 94.5564 91.9899 94.4913 92.0939 93.7368C92.1978 92.9824 92.9774 91.9938 92.3667 91.3433C91.9187 90.9554 91.3479 90.7389 90.7556 90.732C90.3721 90.8323 90.0165 91.0192 89.7162 91.2783Z" fill="white"/>
<path d="M96.4985 91.6165C96.4985 91.6165 94.1078 93.0734 94.2247 93.4637C94.3088 93.7126 94.4581 93.9344 94.6569 94.106C94.8557 94.2776 95.0968 94.3927 95.3551 94.4393C95.9008 94.4393 99.253 94.1661 99.253 94.1661C99.253 94.1661 99.9546 93.4117 99.9546 93.0344C99.9546 92.6572 99.7337 91.4474 99.1491 91.1873C98.2429 90.9996 97.2994 91.1524 96.4985 91.6165Z" fill="white"/>
<path d="M123.329 83.2523C122.609 83.8592 121.931 84.5155 121.302 85.2165C121.302 85.3986 121.185 86.5173 121.913 86.5173C122.64 86.5173 125.109 87.1287 125.109 87.1287C125.109 87.1287 126.525 86.4002 126.525 85.971C126.295 84.6531 125.987 83.35 125.603 82.0685C125.486 81.8214 123.914 81.6393 123.914 81.6393L123.329 83.2523Z" fill="white"/>
<path d="M118.846 80.4035C118.846 80.4035 119.938 79.3628 120.587 79.8572C121.087 80.4094 121.436 81.0815 121.601 81.8084L120.639 83.2523C120.144 83.404 119.615 83.404 119.119 83.2523C118.522 82.9401 118.846 80.4035 118.846 80.4035Z" fill="white"/>
<path d="M99.9026 61.8668C99.4885 62.6637 98.978 63.4064 98.3825 64.0782C97.9537 64.3514 97.9017 66.0945 97.9017 66.4717C97.9017 66.849 98.3305 67.9807 98.9022 68.0978C99.4739 68.2148 103.047 68.0978 103.047 68.0978C103.047 68.0978 104.346 67.6034 104.346 67.0701V63.4929C104.346 63.4929 103.424 62.192 102.826 62.075C102.228 61.9579 100.253 61.2685 99.9026 61.8668Z" fill="white"/>
<path d="M138.18 41.3139C138.18 41.3139 137.634 43.057 136.985 43.3822C136.335 43.7074 136.179 44.4099 136.985 44.9562C137.897 45.4773 138.839 45.9463 139.804 46.3611L143.052 45.5416C143.052 45.5416 144.235 45.7107 143.858 44.6831C143.326 43.734 142.731 42.8214 142.078 41.9513C141.736 41.2492 141.354 40.5673 140.934 39.9091C140.726 39.5839 138.18 38.8294 138.18 41.3139Z" fill="white"/>
<path d="M254.519 76.384C254.519 76.384 253.648 79.3628 252.674 79.2067C251.699 79.0506 249.373 80.1563 249.75 80.8328C250.452 82.1336 252.985 81.3791 252.985 81.3791C253.285 81.8688 253.525 82.3929 253.7 82.9401C253.7 83.2653 255.272 83.4344 255.272 83.4344C255.608 82.8302 255.828 82.1684 255.922 81.4832C255.929 80.6092 256.021 79.738 256.195 78.8815C256.364 78.2311 255.818 75.8376 254.519 76.384Z" fill="white"/>
<path d="M238.433 40.6115C238.433 40.6115 239.953 39.5318 240.603 40.6115C241.253 41.6912 241.798 42.992 242.175 43.1091C243.643 44.1617 245.002 45.3602 246.229 46.6863C246.944 47.5448 248.568 50.5888 247.203 50.5888C245.839 50.5888 244.072 50.966 243.903 50.2636C243.87 49.7942 243.69 49.3473 243.389 48.9856C243.088 48.624 242.682 48.3658 242.227 48.2473C241.032 48.0392 239.148 48.4164 238.706 47.2196C238.264 46.0229 236.757 45.2684 237.199 44.3448C237.641 43.4213 238.433 40.6115 238.433 40.6115Z" fill="white"/>
<path d="M300.475 45.1123C300.475 45.1123 300.475 43.5383 301.124 43.5383C301.774 43.5383 304.593 43.1611 305.022 43.8635C305.451 44.566 305.945 45.1644 306.321 45.1644C306.698 45.1644 313.74 45.1644 313.74 45.1644C313.74 45.1644 316.716 46.6863 315.364 46.8424C314.013 46.9985 309.024 47.1676 309.024 47.1676C309.024 47.1676 309.245 48.7936 308.439 48.8457C307.14 48.9367 305.841 48.8457 304.541 48.8457C303.58 48.8457 301.488 49.392 300.721 48.6375C299.955 47.8831 300.475 46.0489 300.475 45.1123Z" fill="white"/>
<path d="M328.721 39.4147C328.721 39.4147 328.565 42.1855 329.215 42.2895C329.864 42.3936 334.412 42.4066 334.412 42.7318C334.412 43.057 334.412 44.618 334.958 44.5139C335.503 44.4099 336.413 44.5139 336.361 43.4343C336.309 42.3546 336.907 41.1058 336.14 40.6635C335.373 40.2212 333.541 39.805 333.762 38.8294C333.762 38.8294 333.269 37.0342 334.685 37.1383C335.75 37.1983 336.795 37.4587 337.764 37.9058C338.977 38.1662 340.214 38.2927 341.454 38.283C342.156 38.283 343.559 39.7399 343.663 40.1822C343.767 40.6245 344.378 42.7839 345.508 42.3416C346.09 42.0615 346.564 41.5981 346.857 41.0224C347.15 40.4467 347.247 39.7905 347.132 39.1546C346.183 37.6108 345.096 36.1566 343.884 34.8099C343.315 34.4384 342.663 34.2149 341.987 34.1594C340.688 34.1594 339.492 34.2375 338.258 34.1594C337.602 34.18 336.945 34.1408 336.296 34.0424C335.75 33.8733 335.516 33.2619 335.166 32.8456C334.464 32.0001 333.697 31.3627 333.632 30.244C333.632 29.4115 333.632 28.5659 333.632 27.7334C333.934 27.388 334.358 27.1734 334.815 27.135C335.529 27.2001 336.257 27.135 336.972 27.135C337.686 27.135 338.531 26.9009 339.012 27.3822C339.739 28.1237 340.311 29.0733 340.947 29.8667C341.428 30.4521 342.169 31.4798 342.987 31.5578C344.079 31.6619 348.574 31.4537 349.055 31.5578C349.536 31.6619 353.278 34.0554 353.447 35.031C353.616 36.0066 353.771 40.3383 353.771 40.6635C353.771 40.9887 352.953 41.47 352.901 42.0684C352.849 42.6668 353.174 44.1367 353.771 44.1367C353.771 44.1367 354.746 45.0473 354.746 45.4375C354.833 46.7407 355.284 47.9934 356.045 49.0538C356.968 49.9383 358.475 51.5644 358.319 52.8001C358.163 54.0359 358.852 56.3254 358.098 56.1693C357.344 56.0132 353.719 54.101 353.447 53.3465C353.174 52.592 353.174 49.6131 352.147 49.444C351.121 49.2749 345.586 48.9627 345.43 49.444C345.246 50.1886 345.211 50.9622 345.326 51.7205C345.43 52.4879 345.157 54.7644 344.352 54.6993C343.24 54.7753 342.136 54.9406 341.051 55.1936C340.868 55.8882 340.51 56.5242 340.012 57.0408C339.089 57.7042 336.647 57.6912 336.335 56.2993C336.218 55.753 336.543 55.4668 335.789 55.4668C334.321 55.4668 331.58 54.2701 331.606 52.4619C331.671 51.9569 331.861 51.4762 332.158 51.0629C332.455 50.6496 332.85 50.3168 333.308 50.0944C333.957 49.8083 335.257 49.0148 334.607 48.0912C334.421 47.6594 334.149 47.2703 333.807 46.9481C333.465 46.6259 333.061 46.3774 332.619 46.218C331.489 45.9839 327.227 45.5416 327.214 45.5416C325.317 45.3725 324.875 42.4587 324.161 41.0798C323.797 40.3904 324.381 40.1692 324.771 39.6359L327.37 36.2277C328.097 35.2391 328.578 36.2277 328.76 36.9562C328.877 37.7726 328.864 38.6024 328.721 39.4147Z" fill="white"/>
</g>
<defs>
<clipPath id="clip0">
<rect width="428" height="559" fill="white"/>
</clipPath>
</defs>
</svg>
