<svg width="64" height="64" viewBox="0 0 64 64" fill="none" xmlns="http://www.w3.org/2000/svg">
<circle cx="32" cy="32" r="32" fill="#16263E"/>
<path d="M48.6328 16.0404C48.7317 15.4407 48.702 14.6184 48.1406 14.3756C47.6856 14.1788 47.2079 14.4891 46.8818 14.8636C46.2412 15.6039 45.0883 16.635 43.2339 17.3433C42.0596 17.7917 41.241 18.3935 40.6706 19.002C40.6556 18.5703 40.6123 18.139 40.5398 17.7133C40.4422 17.1405 39.6266 17.1157 39.4908 17.6773C39.2554 18.65 38.9155 19.5494 38.5143 20.3727C38.2605 17.8957 36.5517 17.1276 36.4127 13.9846C36.4127 12.8145 35.2702 12.2519 34.4055 13.8152C32.3841 17.4803 32.7977 21.0545 36.4868 23.4916C34.8872 25.4226 33.5618 26.2556 32.8101 26.8665C32.9783 25.8485 32.9043 24.3694 31.8586 22.6355C30.9738 21.1685 30.6332 19.8967 30.5096 18.4165C30.4303 17.0494 29.2468 16.7379 28.4062 18.2849C26.2238 22.2983 26.7298 26.1231 30.6034 28.7234C29.606 29.6258 28.3188 30.8723 27.0072 32.3671C27.1056 31.2443 26.9142 29.7384 25.8693 28.007C24.6842 26.0429 24.3678 24.2829 24.311 23.1524C24.2843 22.6231 24.0887 22.0282 23.5763 21.8946C22.9431 21.7295 22.4386 22.3815 22.0686 22.9738C22.06 22.9868 22.052 23.0002 22.0446 23.0139C19.5103 27.6772 20.1511 32.108 24.8413 35.0795C23.8942 36.3951 23.1087 37.6969 22.4951 38.9722C22.3022 37.8513 21.7672 36.4948 20.5217 35.0816C17.4018 31.542 18.3548 29.1505 16.9355 29.0432C16.2562 28.9925 15.8565 29.7697 15.5831 30.4577C15.5775 30.4711 15.5724 30.4847 15.5678 30.4985C13.7271 36.0834 15.4183 40.663 21.1414 42.8449C20.7501 44.6905 20.7555 46.4623 21.1606 48.1369C21.3447 48.8974 22.0191 49.4284 22.8007 49.4284C23.8914 49.4284 24.7003 48.4086 24.4424 47.3428C23.9221 45.1921 24.3827 42.9528 25.342 40.8217C26.9868 42.1987 28.685 43.0116 30.3968 43.237C30.6894 43.2758 30.9593 43.0697 30.998 42.7758C31.0366 42.4823 30.8301 42.2132 30.5367 42.1745C29.0275 41.9757 27.5109 41.2432 26.0223 39.995C26.6782 39.259 28.5212 37.7239 31.9778 38.5564C35.4447 39.3914 37.7879 38.6017 38.1725 38.5446C37.5944 39.4654 35.2865 41.5254 32.8507 42.0691C32.5619 42.1335 32.38 42.42 32.4444 42.7088C32.5089 42.9977 32.7953 43.1794 33.0841 43.115C35.4781 42.5807 37.4012 40.9935 38.5935 39.7553C38.6015 39.747 38.6093 39.7385 38.6168 39.7297C39.0997 39.1652 39.6072 38.4429 39.2431 37.8643C38.9497 37.3979 38.2896 37.3964 37.7559 37.5364C36.5684 37.8478 34.6457 38.0966 32.2288 37.5145C29.8029 36.9301 28.0475 37.4016 26.93 37.9779C27.8526 36.5821 28.9116 35.2841 29.9413 34.1516C34.1984 37.7771 38.6413 37.0845 42.352 33.2298C42.362 33.2195 42.3715 33.2088 42.3806 33.1975C42.8344 32.6657 43.3057 31.9866 42.9568 31.4319C42.2388 30.2908 40.6838 32.1133 36.4373 31.0907C35.1509 30.7808 34.0671 30.7905 33.1797 30.9551C34.7917 29.5227 35.3119 29.2946 36.6539 27.9434C37.8918 28.8739 39.1478 29.446 40.3928 29.6434C40.4213 29.6479 40.4495 29.6501 40.4774 29.6501C40.7363 29.6501 40.9642 29.462 41.006 29.1981C41.0523 28.9058 40.8529 28.6312 40.5606 28.5849C39.5233 28.4204 38.4619 27.9429 37.3995 27.1634C37.936 26.5343 39.3195 25.374 41.9681 25.8602C44.04 26.2407 45.6886 25.9681 46.7467 25.6491C46.3817 26.1745 44.7993 27.8882 42.8308 28.4477C42.5461 28.5287 42.3809 28.825 42.4618 29.1097C42.5427 29.3943 42.839 29.5595 43.1238 29.4785C45.0479 28.9316 46.5392 27.5559 47.4512 26.4983C48.6017 25.1644 47.8939 24.1599 46.5668 24.5826C45.6346 24.8824 44.1136 25.1644 42.1616 24.806C40.8922 24.573 39.8595 24.6729 39.046 24.9096C39.467 24.205 39.787 23.5224 40.0272 22.8713C44.9761 23.4149 47.8605 20.6715 48.6328 16.0404ZM43.6163 18.3445C45.5845 17.5927 46.8514 16.5033 47.5897 15.6812C47.5862 15.7401 47.5808 15.8062 47.5731 15.8801C47.0704 18.8713 45.408 22.2696 40.39 21.8317C40.5213 21.0154 41.1005 19.3052 43.6163 18.3445ZM21.2279 41.7283C15.2528 39.2972 15.3821 34.5 16.58 30.8512C16.6815 30.5965 16.7673 30.4237 16.8343 30.3077C16.955 30.6509 17.3546 33.1093 19.7178 35.7903C22.0699 38.4591 21.5716 40.8066 21.2279 41.7283ZM35.3354 14.3484C35.3435 14.3355 35.3516 14.323 35.3594 14.3109C35.4402 15.3189 35.7481 16.7635 36.6919 18.3497C37.9091 20.3956 37.4109 21.9088 37.0504 22.5797C33.2915 20.0756 34.0177 16.7461 35.3354 14.3484ZM29.3383 18.8143C29.3785 18.7501 29.4155 18.6936 29.4495 18.644C29.5253 19.7467 29.8529 21.3855 30.9407 23.1891C32.3322 25.4963 31.7341 27.2012 31.3358 27.9235C27.1135 25.1797 27.8936 21.4805 29.3383 18.8143ZM22.977 23.5426C23.0804 23.3771 23.1669 23.2551 23.2371 23.1654C23.3681 24.5985 23.5977 26.3174 24.9516 28.5609C26.618 31.322 25.8305 33.3446 25.3667 34.1446C20.39 30.9607 21.2953 26.6466 22.977 23.5426ZM36.1864 32.1325C38.1696 32.6102 40.0925 32.5931 41.8079 32.148C41.8207 32.1447 41.8341 32.1415 41.8478 32.1385C41.7837 32.2323 41.6937 32.3513 41.5675 32.4995C39.1163 35.0396 35.277 37.2051 30.7401 33.424C32.8519 31.1334 36.1149 32.1325 36.1864 32.1325ZM33.8957 28.9477C33.8644 28.972 30.721 31.418 27.8433 34.9513C24.9539 38.4988 22.3263 43.1536 23.4008 47.5951C23.4395 47.7552 23.4137 47.9208 23.3279 48.0614C23.0444 48.5259 22.3324 48.4221 22.2024 47.885C21.0343 43.0575 23.7139 38.0926 26.8372 34.2313C29.9703 30.3579 33.1819 27.9612 33.8261 27.4163C35.8039 26.1104 38.1197 23.6255 39.4695 20.8603C39.0746 23.0798 37.7047 25.9855 33.8957 28.9477Z" fill="#70B6F9"/>
</svg>
