<svg width="64" height="64" viewBox="0 0 64 64" fill="none" xmlns="http://www.w3.org/2000/svg">
<circle cx="32" cy="32" r="32" fill="#16263E"/>
<path d="M40.8 35.4375H25.8125C25.4 35.4375 25.125 35.7125 25.125 36.125C25.125 36.5375 25.4 36.8125 25.8125 36.8125H40.8C41.2125 36.8125 41.4875 36.5375 41.4875 36.125C41.4875 35.7125 41.1437 35.4375 40.8 35.4375Z" fill="#70B6F9"/>
<path d="M52.625 38.1875H48.5C48.9125 37.6375 49.1875 36.8812 49.1875 36.125C49.1875 35.575 49.05 35.025 48.775 34.5438C48.5688 34.2 48.1562 34.0625 47.8125 34.2687C47.4688 34.475 47.3312 34.8875 47.5375 35.2313C47.7437 35.4375 47.8125 35.7812 47.8125 36.125C47.8125 37.2937 46.9187 38.1875 45.75 38.1875C44.5812 38.1875 43.6875 37.2937 43.6875 36.125C43.6875 34.9562 44.5812 34.0625 45.75 34.0625C46.1625 34.0625 46.4375 33.7875 46.4375 33.375C46.4375 32.9625 46.1625 32.6875 45.75 32.6875C43.825 32.6875 42.3125 34.2 42.3125 36.125C42.3125 36.8812 42.5875 37.6375 43 38.1875C42.5875 38.1875 42.3125 38.4625 42.3125 38.875C42.3125 39.2875 42.5875 39.5625 43 39.5625H52.625C53.0375 39.5625 53.3125 39.2875 53.3125 38.875C53.3125 38.4625 53.0375 38.1875 52.625 38.1875Z" fill="#70B6F9"/>
<path d="M40.25 38.1875H38.875C38.4625 38.1875 38.1875 38.4625 38.1875 38.875C38.1875 39.2875 38.4625 39.5625 38.875 39.5625H40.25C40.6625 39.5625 40.9375 39.2875 40.9375 38.875C40.9375 38.4625 40.6625 38.1875 40.25 38.1875Z" fill="#70B6F9"/>
<path d="M36.125 38.1875H23.75C24.1625 37.6375 24.4375 36.8812 24.4375 36.125C24.4375 35.575 24.3 35.025 24.0938 34.5438C23.9563 34.2 23.475 34.0625 23.2 34.2687C22.8563 34.4062 22.7187 34.8875 22.925 35.1625C23.0625 35.4375 23.1313 35.7812 23.1313 36.125C23.1313 37.2937 22.2375 38.1875 21.0688 38.1875C19.9 38.1875 19.0063 37.2937 19.0063 36.125C19.0063 34.9562 19.9 34.0625 21.0688 34.0625C21.4812 34.0625 21.7563 33.7875 21.7563 33.375C21.7563 32.9625 21.4812 32.6875 21.0688 32.6875C19.1438 32.6875 17.6313 34.2 17.6313 36.125C17.6313 36.8812 17.9063 37.6375 18.3188 38.1875H11.375C10.9625 38.1875 10.6875 38.4625 10.6875 38.875C10.6875 39.2875 10.9625 39.5625 11.375 39.5625H36.125C36.5375 39.5625 36.8125 39.2875 36.8125 38.875C36.8125 38.4625 36.5375 38.1875 36.125 38.1875Z" fill="#70B6F9"/>
<path d="M15.5 31.3125C15.0875 31.3125 14.8125 31.5875 14.8125 32V33.375C14.8125 33.7875 15.0875 34.0625 15.5 34.0625C15.9125 34.0625 16.1875 33.7875 16.1875 33.375V32.6875H16.875C17.2875 32.6875 17.5625 32.4125 17.5625 32C17.5625 31.5875 17.2875 31.3125 16.875 31.3125H15.5Z" fill="#70B6F9"/>
<path d="M30.625 31.3125C30.2125 31.3125 29.9375 31.5875 29.9375 32C29.9375 32.4125 30.2125 32.6875 30.625 32.6875H32C32.4125 32.6875 32.6875 32.4125 32.6875 32C32.6875 31.5875 32.4125 31.3125 32 31.3125H30.625Z" fill="#70B6F9"/>
<path d="M12.75 36.8125H16.1875C16.6 36.8125 16.875 36.5375 16.875 36.125C16.875 35.7125 16.6 35.4375 16.1875 35.4375H12.75C12.3375 35.4375 12.0625 35.1625 12.0625 34.75V33.375C12.0625 32.9625 12.3375 32.6875 12.75 32.6875C13.1625 32.6875 13.4375 32.4125 13.4375 32V30.35C13.4375 29.8688 13.6437 29.525 14.0563 29.3188L18.9375 26.3625C19.35 26.0875 19.8313 25.95 20.3125 25.8813V28.5625H16.875C16.4625 28.5625 16.1875 28.8375 16.1875 29.25C16.1875 29.6625 16.4625 29.9375 16.875 29.9375H23.1313C23.5437 29.9375 23.8188 29.6625 23.8188 29.25C23.8188 28.8375 23.5437 28.5625 23.1313 28.5625H21.6875V25.8125H28.5625V28.5625H25.8125C25.4 28.5625 25.125 28.8375 25.125 29.25C25.125 29.6625 25.4 29.9375 25.8125 29.9375H38.875C39.2875 29.9375 39.5625 29.6625 39.5625 29.25C39.5625 28.8375 39.2875 28.5625 38.875 28.5625H29.9375V25.8125H34.8875C35.575 25.8125 36.1938 25.95 36.8125 26.3625L38.05 27.1187C38.3937 27.325 38.8062 27.1875 39.0125 26.9125C39.2188 26.5688 39.0813 26.1563 38.8063 25.95L37.5 25.125C36.675 24.6438 35.85 24.4375 34.8875 24.4375H20.8625C19.9 24.4375 19.0063 24.7125 18.25 25.125L13.3688 28.0812C12.5438 28.5625 12.0625 29.3875 12.0625 30.35V31.45C11.2375 31.725 10.6875 32.4812 10.6875 33.375V34.75C10.6875 35.9187 11.5812 36.8125 12.75 36.8125Z" fill="#70B6F9"/>
<path d="M50.7001 30.7628L43.2751 28.5628L41.1438 27.2565C40.8001 27.0503 40.3876 27.1878 40.1813 27.4628C39.9751 27.8065 40.1126 28.219 40.3876 28.4253L42.6563 29.8003L50.2876 32.069C51.1813 32.2753 51.8688 33.169 51.8688 34.1315V35.4378H50.5626C50.1501 35.4378 49.8751 35.7128 49.8751 36.1253C49.8751 36.5378 50.1501 36.8128 50.5626 36.8128H52.6251C53.0376 36.8128 53.3126 36.5378 53.3126 36.1253V34.2003C53.3126 32.5503 52.2126 31.1065 50.7001 30.7628Z" fill="#70B6F9"/>
<path d="M41.625 31.3125H34.75C34.3375 31.3125 34.0625 31.5875 34.0625 32C34.0625 32.4125 34.3375 32.6875 34.75 32.6875H41.625C42.0375 32.6875 42.3125 32.4125 42.3125 32C42.3125 31.5875 42.0375 31.3125 41.625 31.3125Z" fill="#70B6F9"/>
<path d="M45.75 36.8125C46.1297 36.8125 46.4375 36.5047 46.4375 36.125C46.4375 35.7453 46.1297 35.4375 45.75 35.4375C45.3703 35.4375 45.0625 35.7453 45.0625 36.125C45.0625 36.5047 45.3703 36.8125 45.75 36.8125Z" fill="#70B6F9"/>
<path d="M21 36.8125C21.3797 36.8125 21.6875 36.5047 21.6875 36.125C21.6875 35.7453 21.3797 35.4375 21 35.4375C20.6203 35.4375 20.3125 35.7453 20.3125 36.125C20.3125 36.5047 20.6203 36.8125 21 36.8125Z" fill="#70B6F9"/>
</svg>
