<svg width="64" height="64" viewBox="0 0 64 64" fill="none" xmlns="http://www.w3.org/2000/svg">
<circle cx="32" cy="32" r="32" fill="#16263E"/>
<path d="M42.4106 41.7321H33.1785C32.0648 41.7321 29.2859 41.5441 27.5494 39.8076C26.0026 38.2599 23.9464 35.5591 23.9464 29.9821C23.9464 29.5188 24.3224 29.1428 24.7856 29.1428C25.2489 29.1428 25.6249 29.5188 25.6249 29.9821C25.6249 34.8801 27.2876 37.1714 28.7362 38.6208C30.0295 39.9142 32.2738 40.0535 33.1785 40.0535H42.4106C46.3091 40.0535 48.2856 38.9238 48.2856 36.6964C48.2856 28.0492 37.7853 27.4835 37.3388 27.4634L13.8749 27.4642C13.4116 27.4642 13.0356 27.0882 13.0356 26.6249C13.0356 26.1616 13.4116 25.7856 13.8749 25.7856H37.3749C37.5361 25.7915 49.9642 26.4378 49.9642 36.6964C49.9642 38.5772 48.9831 41.7321 42.4106 41.7321Z" fill="#70B6F9"/>
<path d="M32.3393 44.2502C31.876 44.2502 31.5 43.875 31.5 43.4109V41.7324C31.5 41.2682 31.876 40.8931 32.3393 40.8931C32.8034 40.8931 33.1786 41.2682 33.1786 41.7324V43.4109C33.1786 43.875 32.8034 44.2502 32.3393 44.2502Z" fill="#70B6F9"/>
<path d="M42.4106 44.2502C41.9465 44.2502 41.5713 43.875 41.5713 43.4109V41.7324C41.5713 41.2682 41.9465 40.8931 42.4106 40.8931C42.8747 40.8931 43.2499 41.2682 43.2499 41.7324V43.4109C43.2499 43.875 42.8747 44.2502 42.4106 44.2502Z" fill="#70B6F9"/>
<path d="M49.1249 45.0892H25.6249C25.1616 45.0892 24.7856 44.7141 24.7856 44.2499C24.7856 43.7858 25.1616 43.4106 25.6249 43.4106H49.1249C49.5891 43.4106 49.9642 43.7858 49.9642 44.2499C49.9642 44.7141 49.5891 45.0892 49.1249 45.0892Z" fill="#70B6F9"/>
<path d="M17.2321 24.1073H13.8749C13.4116 24.1073 13.0356 23.7313 13.0356 23.268C13.0356 22.8047 13.4116 22.4287 13.8749 22.4287H17.2321C17.6954 22.4287 18.0714 22.8047 18.0714 23.268C18.0714 23.7313 17.6954 24.1073 17.2321 24.1073Z" fill="#70B6F9"/>
<path d="M49.1248 24.1073H23.9462C23.4829 24.1073 23.1069 23.7313 23.1069 23.268C23.1069 22.8047 23.4829 22.4287 23.9462 22.4287H49.1248C49.5889 22.4287 49.9641 22.8047 49.9641 23.268C49.9641 23.7313 49.5889 24.1073 49.1248 24.1073Z" fill="#70B6F9"/>
<path d="M36.5356 26.625C36.0715 26.625 35.6963 26.249 35.6963 25.7857V21.5893C35.6963 21.126 36.0715 20.75 36.5356 20.75C36.9997 20.75 37.3749 21.126 37.3749 21.5893V25.7857C37.3749 26.249 36.9997 26.625 36.5356 26.625Z" fill="#70B6F9"/>
<path d="M48.2859 37.5355H39.893C39.4289 37.5355 39.0537 37.1603 39.0537 36.6962C39.0537 36.2321 39.4289 35.8569 39.893 35.8569H48.2859C48.75 35.8569 49.1251 36.2321 49.1251 36.6962C49.1251 37.1603 48.75 37.5355 48.2859 37.5355Z" fill="#70B6F9"/>
</svg>
