<svg width="64" height="64" viewBox="0 0 64 64" fill="none" xmlns="http://www.w3.org/2000/svg">
<circle cx="32" cy="32" r="32" fill="#16263E"/>
<path d="M23.3212 37.549C28.8469 42.326 35.4154 45.7413 42.4997 47.521L47.3484 48.7333C47.3875 48.7432 47.4277 48.7482 47.468 48.7483C47.5496 48.7463 47.6298 48.7269 47.7032 48.6913C47.7767 48.6556 47.8416 48.6047 47.8937 48.5418C47.9599 48.4605 48.0029 48.3629 48.0181 48.2592C48.0333 48.1555 48.0201 48.0496 47.98 47.9528C45.4028 41.7091 41.4188 36.1448 36.3384 31.6933L35.115 30.6199C35.0297 30.5449 34.9234 30.4979 34.8106 30.4854L26.4461 29.5582V25.4999C26.4462 25.3588 26.3923 25.2229 26.2955 25.1202L17.4384 15.7095C17.3876 15.6556 17.3265 15.6124 17.2587 15.5825C17.1909 15.5527 17.1178 15.5367 17.0437 15.5356C16.8946 15.5364 16.7515 15.5945 16.644 15.6978L14.9833 17.3586C14.8817 17.4602 14.8236 17.5974 14.8214 17.7411C14.8191 17.8848 14.8728 18.0238 14.9711 18.1286L23.1247 26.8285V31.0356C23.1246 31.1385 23.1532 31.2394 23.2073 31.3269C23.2614 31.4144 23.3388 31.4851 23.4308 31.5311L23.939 31.7852L23.1313 37.0408C23.1179 37.1346 23.1283 37.2303 23.1614 37.3191C23.1946 37.4079 23.2495 37.4869 23.3212 37.549ZM17.0232 16.8841L23.2426 23.4921L22.3497 24.3828L16.1452 17.7621L17.0232 16.8841ZM23.1092 25.191L24.0015 24.2987L25.339 25.7214V29.9285C25.339 30.0607 25.3863 30.1885 25.4724 30.2889L27.0096 32.0824L24.2318 30.6935V26.6071C24.2317 26.4664 24.1781 26.331 24.0818 26.2284L23.1092 25.191ZM28.9665 34.3017C29.0809 34.3589 29.2115 34.3748 29.3362 34.3467C29.461 34.3185 29.5721 34.248 29.6507 34.1472C29.7294 34.0463 29.7707 33.9214 29.7677 33.7936C29.7647 33.6657 29.7175 33.5429 29.6341 33.4459L27.3445 30.7749L34.5155 31.5693L35.6088 32.5292C40.2874 36.6292 44.0156 41.7002 46.5335 47.3887L42.7693 46.4476C35.9516 44.7353 29.622 41.4704 24.2744 36.9079L24.9819 32.3055L28.9665 34.3017Z" fill="#70B6F9"/>
</svg>
