<svg width="148" height="27" viewBox="0 0 148 27" fill="none" xmlns="http://www.w3.org/2000/svg">
<g opacity="0.7">
<path d="M33.1998 15.6416C33.1998 16.7537 33.2339 17.8684 33.1998 18.9804C33.1106 21.5088 32.1506 23.5887 29.84 24.8188C28.9797 25.2778 27.9883 25.4981 27.0519 25.8049C25.5989 26.2823 24.062 26.2298 22.6299 26.0095C20.655 25.7079 18.6328 25.2489 17.2034 23.5834C16.2777 22.513 15.6867 21.1942 15.5038 19.7909C15.1576 17.4015 15.3386 15.0122 15.3622 12.6281C15.3779 10.9993 15.7687 9.38104 16.8677 8.06703C17.6756 7.09156 18.7283 6.34842 19.918 5.91372C21.8195 5.21344 23.7971 5.14524 25.7668 5.29212C27.3037 5.4049 28.8407 5.71963 30.1704 6.60351C31.1725 7.2621 31.9781 8.17915 32.5021 9.25777C33.0081 10.3211 33.251 11.4905 33.2102 12.6674C33.1893 13.6457 33.1998 14.6397 33.1998 15.6416ZM20.891 15.6784H20.9566C20.9566 16.3813 20.9277 17.0842 20.9566 17.7766C20.9554 18.3377 21.0313 18.8963 21.1822 19.4368C21.3329 19.9572 21.6527 20.4124 22.0912 20.7307C22.5296 21.0489 23.0615 21.212 23.603 21.1941C24.1275 21.2098 24.6731 21.1678 25.2055 21.1941C26.1392 21.2491 27.4611 20.1843 27.566 18.949C27.6526 17.8631 27.7339 16.7721 27.7339 15.6836C27.7339 14.527 27.6604 13.3651 27.5555 12.2137C27.4946 11.8287 27.3466 11.4627 27.1228 11.1436C26.5589 10.2466 25.6383 9.97642 24.66 9.93445C24.1002 9.95336 23.5427 10.0139 22.9919 10.1154C22.15 10.2072 21.1822 11.1881 21.1218 12.0379C21.0379 13.2575 20.9671 14.464 20.891 15.6705V15.6784Z" fill="white"/>
<path d="M82.815 17.4777H73.3415C71.6078 17.4436 71.8255 17.656 71.9383 19.3136C71.9598 19.6749 72.0781 20.0237 72.2806 20.3236C72.4832 20.6235 72.7626 20.8635 73.0897 21.0184C73.5462 21.2407 74.0414 21.3725 74.548 21.4066C75.4901 21.4722 76.4357 21.4722 77.3779 21.4066C78.3221 21.3305 79.2585 21.1443 80.1948 20.9791C80.6302 20.9056 81.0603 20.8007 81.5062 20.7168C81.7685 20.6696 81.855 20.785 81.9022 21.0447C82.1042 22.1803 82.3507 23.3055 82.537 24.4543C82.5288 24.5573 82.495 24.6566 82.4387 24.7432C82.3823 24.8297 82.3052 24.9008 82.2144 24.95C81.6642 25.1224 81.1046 25.2634 80.5384 25.3723C79.4237 25.6162 78.3117 25.9991 77.1891 26.0463C75.4948 26.1197 73.7795 26.3296 72.1009 25.7499C71.3954 25.506 70.6505 25.3513 69.9738 25.047C69.4206 24.7927 68.9087 24.4567 68.4552 24.0504C67.3563 23.0773 66.8055 21.8053 66.4803 20.3785C65.9111 17.9104 66.0764 15.4109 66.1524 12.9324C66.2027 11.7436 66.4546 10.5721 66.8973 9.46768C67.3185 8.27373 68.1382 7.26136 69.2185 6.60097C70.1443 6.04232 71.1226 5.55186 72.2452 5.48104C73.1448 5.42334 74.0418 5.29745 74.9414 5.27909C76.3105 5.25024 77.6927 5.37613 78.9359 5.95315C80.423 6.64294 81.5875 7.67632 82.154 9.34441C82.8648 11.4453 82.815 13.6091 82.815 15.786C82.815 16.363 82.815 16.9531 82.815 17.4777ZM74.6555 13.3835C75.1171 13.3835 75.5787 13.3835 76.0403 13.3835C77.5432 13.3835 77.5825 13.6458 77.4566 11.8098C77.4015 10.9941 77.0711 10.2755 76.1793 9.87421C75.5813 9.61193 75.0122 9.66963 74.4299 9.65914C73.2575 9.63816 72.434 10.1837 72.0694 11.3036C71.9094 11.7888 71.9383 12.3527 71.8885 12.8616C71.8491 13.2655 72.0642 13.4045 72.4445 13.3861C73.1815 13.373 73.9185 13.3809 74.6555 13.3835Z" fill="white"/>
<path d="M37.0325 10.2754C36.8489 9.16337 36.6679 8.0382 36.4764 6.91827C36.4371 6.69271 36.2404 6.35962 36.3191 6.28093C36.535 6.11563 36.7896 6.0082 37.0587 5.96882C38.2267 5.66139 39.4243 5.48025 40.6309 5.42853C41.8059 5.41279 42.9914 5.22657 44.156 5.27116C45.4486 5.29211 46.7359 5.44325 47.9983 5.72228C48.7799 5.88768 49.5032 6.25849 50.0938 6.7965C50.6844 7.33451 51.1208 8.02025 51.3581 8.78307C51.4984 9.25457 51.5864 9.74009 51.6204 10.2308C52.0873 15.1669 51.7201 20.1161 51.8407 25.0575C51.8407 25.464 51.6965 25.6004 51.3004 25.582C50.1175 25.5663 48.9399 25.5532 47.7492 25.582C47.2246 25.5977 47.0436 25.3512 46.9623 24.9158C46.8574 24.4123 46.7001 24.3362 46.2227 24.5119C44.8693 25.0207 43.5422 25.6371 42.1469 25.9676C41.175 26.1908 40.1604 26.1418 39.2146 25.8259C37.5544 25.2856 36.5709 24.1369 36.0804 22.5422C35.9046 21.9013 35.8164 21.2396 35.8181 20.5751C35.7814 19.0959 35.6896 17.5956 36.2483 16.1767C36.6548 15.1433 37.4364 14.485 38.475 14.0785C40.0487 13.4516 41.7141 13.7165 43.3429 13.6667C44.0956 13.6431 44.851 13.6667 45.6064 13.6667C45.9421 13.6667 46.1781 13.5093 46.1598 13.1998C46.1336 12.5057 46.0529 11.8146 45.9185 11.1331C45.748 10.3462 45.0661 10.084 44.3894 9.95545C43.759 9.80554 43.1121 9.73679 42.4643 9.75088C41.381 9.80333 40.3057 9.97644 39.2251 10.0866C38.5065 10.1705 37.7983 10.2151 37.0325 10.2754ZM43.7075 16.953C43.0727 16.953 42.438 16.9373 41.8033 16.953C41.048 16.9767 40.3398 17.4776 40.3083 18.0389C40.2567 18.8249 40.2567 19.6134 40.3083 20.3994C40.366 21.1679 40.9404 21.6321 41.7246 21.64C42.9862 21.64 44.2425 21.6741 45.4621 21.2177C45.9027 21.0551 46.1598 20.8505 46.1703 20.4125C46.1912 19.4526 46.1834 18.4952 46.1703 17.5274C46.1806 17.4457 46.1716 17.3627 46.1439 17.2851C46.1162 17.2075 46.0707 17.1375 46.0109 17.0808C45.9511 17.0241 45.8789 16.9823 45.7999 16.9587C45.721 16.9352 45.6376 16.9305 45.5565 16.9452C44.9402 16.953 44.3238 16.953 43.7075 16.953Z" fill="white"/>
<path d="M84.8613 24.9264C85.1525 23.4917 85.4226 22.1462 85.698 20.7876C86.9412 21.0499 88.1582 21.4092 89.3961 21.5273C90.6341 21.6453 91.8904 21.8105 93.11 21.404C94.1591 21.0552 94.4948 18.8494 93.3723 18.2881C92.6329 17.9572 91.8703 17.681 91.0904 17.4619C89.9181 17.0764 88.7011 16.7984 87.5733 16.3132C86.9313 16.0668 86.3814 15.6277 85.9991 15.0561C85.6168 14.4846 85.4209 13.8086 85.4383 13.1212C85.4226 12.358 85.1944 11.5816 85.2836 10.8368C85.4016 9.84012 85.3964 8.81199 85.8842 7.86254C86.1591 7.31961 86.5498 6.84369 87.0289 6.46843C87.5079 6.09317 88.0636 5.82773 88.6565 5.69087C90.6577 5.16631 92.7139 5.19779 94.7623 5.27385C95.5256 5.30008 96.2914 5.39187 97.052 5.47843C97.5241 5.53553 97.9919 5.62314 98.4526 5.7407C98.5279 5.77074 98.5947 5.81869 98.6473 5.88039C98.6998 5.94209 98.7365 6.01568 98.7542 6.09478C98.7542 6.60098 98.6782 7.1098 98.6467 7.616C98.6082 8.22973 98.5785 8.84171 98.5575 9.45195C98.5392 10.0499 98.4526 10.1837 97.8677 10.1208C96.9052 10.0158 95.9583 9.79029 94.9958 9.71423C94.0055 9.61593 93.0084 9.6054 92.0163 9.68275C91.1009 9.77193 90.5318 10.3358 90.5528 11.3351C90.5738 12.2924 91.1088 12.8353 92.032 12.9927C92.8289 13.1478 93.6169 13.3457 94.3925 13.5855C95.1809 13.7885 95.9568 14.0372 96.7163 14.3303C97.8126 14.7814 98.7909 15.424 99.0768 16.6908C99.2083 17.2744 99.2734 17.8709 99.2709 18.4691C99.2709 19.6336 99.3653 20.8296 99.1345 21.9521C98.8277 23.4471 98.0408 24.6195 96.4672 25.2831C94.4424 26.1355 92.3677 26.1958 90.2774 26.0489C89.0001 25.9598 87.749 25.5401 86.4848 25.2621C85.9629 25.1362 85.4383 25.0392 84.8613 24.9264Z" fill="white"/>
<path d="M54.6362 11.4741C54.6362 8.11691 54.6362 4.75974 54.6362 1.40258C54.6362 0.912116 54.749 0.728522 55.2788 0.683934C55.9682 0.586622 56.6513 0.449128 57.3246 0.272157C57.5082 0.235438 57.7023 0.253797 57.8885 0.232815C58.4795 0.164622 59.0687 0.0911844 59.6562 0.0125009C60.1126 -0.0478232 60.3014 0.104298 60.291 0.597382C60.2647 2.05303 60.291 3.50867 60.291 4.96432C60.291 5.61215 60.3513 5.66723 61.0017 5.66723C62.0981 5.66723 63.197 5.68296 64.2933 5.66723C64.6999 5.66723 64.8546 5.79837 64.8179 6.19178C64.734 7.38253 64.6596 8.5724 64.5949 9.7614C64.5766 10.105 64.3746 10.1312 64.1097 10.1312C63.0606 10.1312 62.0115 10.1312 60.9624 10.1312C60.3355 10.1312 60.2752 10.1889 60.2752 10.8C60.2752 13.9474 60.2752 17.0991 60.2752 20.2552C60.2625 20.4053 60.2823 20.5563 60.3332 20.6981C60.3841 20.8399 60.4649 20.969 60.5701 21.0768C60.6754 21.1845 60.8026 21.2684 60.9432 21.3226C61.0837 21.3767 61.2343 21.4 61.3847 21.3908C62.028 21.3728 62.6694 21.3115 63.3045 21.2072C63.9078 21.1128 64.0914 21.2597 64.1701 21.8708C64.2855 22.8098 64.4691 23.7435 64.5818 24.685C64.6527 25.2804 64.4927 25.4247 63.9261 25.5663C62.3944 25.9492 60.8365 26.2666 59.2681 26.0358C57.6996 25.805 56.1522 25.367 55.2631 23.8353C54.8175 23.0244 54.5991 22.1083 54.631 21.1836C54.6467 17.9497 54.6362 14.7132 54.6362 11.4741Z" fill="white"/>
<path d="M13.1622 10.2623C11.439 10.2125 9.87055 10.1338 8.30475 10.1338C6.73895 10.1338 5.63476 11.2144 5.61377 12.7854C5.59017 14.6686 5.55345 16.5544 5.61377 18.4375C5.66623 19.8565 6.6183 21.2256 8.3677 21.1862C9.29354 21.1652 10.222 21.202 11.1452 21.1626C11.5506 21.107 11.9519 21.0246 12.3465 20.9161C13.0153 20.8007 13.212 20.9528 13.2959 21.6347C13.4375 22.8124 13.5818 23.9952 13.6972 25.1729C13.684 25.2541 13.6504 25.3307 13.5995 25.3954C13.5485 25.4601 13.482 25.5108 13.4061 25.5427C11.345 26.0593 9.21096 26.2207 7.09565 26.02C5.91539 25.8915 4.75874 25.4404 3.61783 25.0496C2.98814 24.8348 2.41218 24.4867 1.92923 24.0291C1.44628 23.5715 1.0677 23.0152 0.81932 22.398C0.398071 21.4528 0.147656 20.4405 0.0796944 19.408C-0.0225942 16.8953 -0.0304626 14.3722 0.0796944 11.857C0.158378 9.88202 0.821943 8.05656 2.47168 6.82123C3.20606 6.30333 4.02927 5.92463 4.90038 5.70392C6.5561 5.27757 8.2709 5.1278 9.97547 5.26067C10.9564 5.32099 11.9268 5.50721 12.8999 5.64097C13.1831 5.68032 13.5739 5.64097 13.7156 5.80883C13.8572 5.97669 13.6788 6.33339 13.6421 6.61665C13.4795 7.85723 13.3116 9.09781 13.1622 10.2623Z" fill="white"/>
<path d="M116.872 25.5821C116.384 25.5821 115.907 25.6057 115.438 25.5663C115.317 25.5663 115.175 25.3565 115.118 25.2122C115.084 25.0624 115.079 24.9077 115.102 24.7559C115.102 20.2324 115.102 15.709 115.102 11.1856C115.102 10.7056 115.16 10.223 114.805 9.7719C114.152 8.94048 113.09 8.91687 112.122 9.07686C111.354 9.20538 110.598 9.42307 109.846 9.62764C109.258 9.79026 108.673 9.96598 108.104 10.1863C107.475 10.4328 106.874 10.7554 106.245 11.0099C106.099 11.0615 105.976 11.1618 105.897 11.2937C105.817 11.4256 105.785 11.5811 105.807 11.7337C105.807 12.1796 105.807 12.6255 105.807 13.0714C105.807 17.0108 105.807 20.9511 105.807 24.8923C105.807 25.5742 105.791 25.5899 105.119 25.5899C103.958 25.5899 104.07 25.6817 104.07 24.5408C104.07 16.8141 104.07 9.08735 104.07 1.36062V0.311508C104.495 0.227579 104.959 0.130536 105.424 0.0492298C105.733 -0.00847145 105.812 0.177747 105.812 0.440025C105.812 1.12457 105.812 1.81174 105.812 2.49629C105.812 4.46688 105.812 6.43746 105.812 8.40805C105.806 8.59579 105.818 8.78366 105.846 8.96932C105.901 9.28144 106.019 9.38635 106.371 9.2316C107.241 8.85655 108.136 8.5287 109.033 8.22445C109.738 7.98578 110.462 7.79956 111.183 7.61859C112.579 7.26714 113.987 7.12813 115.327 7.77858C115.72 7.97417 116.058 8.26294 116.312 8.61959C116.567 8.97625 116.731 9.38991 116.788 9.82435C116.826 10.0962 116.839 10.371 116.828 10.6453C116.828 15.2719 116.828 19.8976 116.828 24.5224C116.825 24.8214 116.854 25.1545 116.872 25.5821Z" fill="white"/>
<path d="M142.429 17.1341C140.782 17.1341 139.135 17.1341 137.487 17.1341C136.845 17.1341 136.779 17.2022 136.779 17.8448C136.779 18.7864 136.748 19.7306 136.805 20.6722C136.895 22.1252 137.498 23.295 138.875 23.9454C139.336 24.1732 139.836 24.3103 140.349 24.3493C142.009 24.4333 143.672 24.4306 145.311 24.0687C145.854 23.948 146.4 23.8222 146.948 23.7304C147.058 23.712 147.273 23.8038 147.297 23.8903C147.395 24.211 147.456 24.5419 147.478 24.8765C147.478 24.9631 147.299 25.1178 147.179 25.1388C145.998 25.4011 144.818 25.6791 143.627 25.8443C142.578 25.9886 141.506 26.1486 140.48 26.0148C138.982 25.8207 137.456 25.4483 136.404 24.2208C135.953 23.6963 135.67 23.0117 135.368 22.3849C134.938 21.4695 135.053 20.4755 135.053 19.4998C135.053 17.0318 134.951 14.5585 135.124 12.1009C135.176 11.2663 135.45 10.4608 135.919 9.76872C136.389 9.07662 137.035 8.52333 137.792 8.16675C139.217 7.45081 140.82 7.16468 142.405 7.34319C143.848 7.49007 145.351 7.72612 146.389 8.91686C146.853 9.44142 147.152 10.1102 147.504 10.7266C148.128 11.8308 147.984 13.0451 147.989 14.2359C147.989 14.958 147.989 15.6775 147.989 16.3944C147.989 17.1393 147.989 17.1393 147.221 17.1393C145.622 17.1393 144.025 17.1375 142.429 17.1341ZM141.479 15.6233C142.833 15.6233 144.189 15.6233 145.542 15.6233C145.901 15.6233 146.255 15.5682 146.276 15.0988C146.339 13.6982 146.276 12.3029 145.773 10.9757C145.628 10.5793 145.395 10.2207 145.093 9.92683C144.79 9.63297 144.424 9.41143 144.023 9.27881C142.53 8.82244 140.938 8.79608 139.431 9.20275C137.986 9.58043 136.826 11.1148 136.808 12.5625C136.792 13.3336 136.787 14.1021 136.79 14.8732C136.79 15.5368 136.876 15.6233 137.527 15.6233C138.838 15.6417 140.157 15.6259 141.479 15.6233V15.6233Z" fill="white"/>
<path d="M133.931 7.94641C133.9 8.24435 133.889 8.54398 133.897 8.8434C133.944 9.33911 133.724 9.45451 133.265 9.43353C132.528 9.39154 131.79 9.3968 131.054 9.44926C129.829 9.5568 128.762 9.99218 128.169 11.1593C128.063 11.3708 127.989 11.5972 127.951 11.8308C127.537 14.485 127.789 17.1576 127.76 19.8224C127.739 21.5272 127.841 23.232 127.922 24.9394C127.949 25.4771 127.749 25.6161 127.243 25.6004C125.814 25.5558 126.026 25.7577 126.023 24.3572C126.023 19.0277 126.023 13.699 126.023 8.3713C126.023 8.1641 126.139 7.78904 126.231 7.77855C126.633 7.73285 127.04 7.75591 127.434 7.84674C127.518 7.86772 127.492 8.28475 127.542 8.51293C127.594 8.69767 127.657 8.879 127.731 9.05584C127.899 8.97192 128.124 8.92733 128.229 8.79357C128.691 8.20344 129.341 8.03034 130.026 7.93329C130.627 7.82748 131.236 7.76698 131.846 7.75232C132.531 7.75756 133.22 7.87559 133.931 7.94641Z" fill="white"/>
<path d="M120.537 16.6488C120.537 13.8896 120.537 11.141 120.537 8.37392C120.537 7.89133 120.663 7.70774 121.171 7.7261C122.422 7.77593 122.26 7.56348 122.26 8.82504C122.26 14.1703 122.26 19.5155 122.26 24.8608C122.26 25.5873 122.26 25.5873 121.515 25.5899C120.545 25.5899 120.545 25.5899 120.545 24.6142C120.538 21.9547 120.535 19.2996 120.537 16.6488Z" fill="white"/>
</g>
</svg>
