<svg width="64" height="64" viewBox="0 0 64 64" fill="none" xmlns="http://www.w3.org/2000/svg">
<circle cx="32" cy="32" r="32" fill="#16263E"/>
<path d="M48.7614 38.5314H48.7214V35.2949C48.7214 27.2176 43.0785 20.2168 35.2413 18.4817C35.1996 18.0641 35.0209 17.6756 34.7238 17.3681C34.3667 16.9985 33.8871 16.7949 33.3731 16.7949H29.6269C29.1129 16.7949 28.6333 16.9985 28.2762 17.3681C27.9792 17.6756 27.8004 18.0641 27.7587 18.4817C19.9215 20.2168 14.2786 27.2176 14.2786 35.2949V38.5314H14.2386C13.5556 38.5314 13 39.0871 13 39.77V40.585C13 41.1244 13.3412 41.5982 13.8489 41.7642C18.6633 43.3384 24.932 44.2053 31.5 44.2053C38.068 44.2053 44.3367 43.3384 49.1511 41.7642C49.6588 41.5982 50 41.1244 50 40.585V39.77C50 39.0871 49.4443 38.5314 48.7614 38.5314ZM29.1384 18.2009C29.2675 18.0673 29.441 17.9936 29.6269 17.9936H33.3731C33.5589 17.9936 33.7324 18.0672 33.8616 18.2009C33.9907 18.3346 34.0583 18.5106 34.0519 18.6963L33.5008 34.679C33.4881 35.0468 33.1899 35.335 32.822 35.335H30.1781C29.8101 35.335 29.512 35.0468 29.4993 34.6791L28.9482 18.6964C28.9417 18.5105 29.0092 18.3346 29.1384 18.2009ZM48.8013 40.5851C48.8013 40.6012 48.7943 40.6198 48.7786 40.6249C44.0812 42.1607 37.9449 43.0066 31.5 43.0066C25.0551 43.0066 18.9188 42.1607 14.2214 40.6248C14.2058 40.6197 14.1987 40.6012 14.1987 40.585V39.77C14.1987 39.748 14.2167 39.7301 14.2387 39.7301H37.2538C37.5848 39.7301 37.8532 39.4618 37.8532 39.1307C37.8532 38.7997 37.5848 38.5313 37.2538 38.5313H15.4773V35.2949C15.4773 29.2712 18.8505 23.8914 23.9437 21.1618L25.2442 30.2657C25.287 30.5647 25.5433 30.7804 25.8368 30.7804C25.865 30.7804 25.8936 30.7784 25.9223 30.7743C26.25 30.7275 26.4778 30.4239 26.4309 30.0963L25.0759 20.6108C25.9389 20.233 26.8438 19.9289 27.7835 19.706L28.3013 34.7205C28.3364 35.7372 29.1608 36.5337 30.1782 36.5337H32.822C33.8394 36.5337 34.6638 35.7372 34.6989 34.7205L35.2167 19.7061C36.1564 19.929 37.0613 20.2332 37.9243 20.6109L36.5693 30.0963C36.5225 30.4241 36.7502 30.7276 37.0779 30.7744C37.1067 30.7785 37.1352 30.7805 37.1634 30.7805C37.4569 30.7805 37.7133 30.5647 37.756 30.2658L39.0565 21.1619C44.1497 23.8914 47.5229 29.2711 47.5229 35.2949V38.5314H43.6469C43.3159 38.5314 43.0475 38.7997 43.0475 39.1308C43.0475 39.4618 43.3159 39.7301 43.6469 39.7301H48.7615C48.7836 39.7301 48.8015 39.7481 48.8015 39.7701V40.5851H48.8013Z" fill="#70B6F9"/>
<path d="M41.09 38.5312H39.8113C39.4803 38.5312 39.2119 38.7996 39.2119 39.1306C39.2119 39.4616 39.4802 39.73 39.8113 39.73H41.09C41.4209 39.73 41.6893 39.4617 41.6893 39.1306C41.6893 38.7996 41.421 38.5312 41.09 38.5312Z" fill="#70B6F9"/>
<path d="M26.9791 33.9314L26.7963 32.6524C26.7495 32.3247 26.4461 32.097 26.1182 32.1438C25.7905 32.1906 25.5628 32.4942 25.6096 32.8219L25.7923 34.1008C25.8351 34.3998 26.0914 34.6155 26.385 34.6155C26.4131 34.6155 26.4417 34.6135 26.4704 34.6094C26.7982 34.5626 27.0259 34.259 26.9791 33.9314Z" fill="#70B6F9"/>
<path d="M36.882 32.1438C36.5543 32.0969 36.2507 32.3248 36.2039 32.6524L36.0212 33.9314C35.9745 34.2591 36.2022 34.5626 36.5298 34.6094C36.5585 34.6135 36.5871 34.6155 36.6153 34.6155C36.9088 34.6155 37.1652 34.3997 37.208 34.1008L37.3907 32.8219C37.4373 32.4942 37.2096 32.1906 36.882 32.1438Z" fill="#70B6F9"/>
</svg>
