<svg width="64" height="64" viewBox="0 0 64 64" fill="none" xmlns="http://www.w3.org/2000/svg">
<circle cx="32" cy="32" r="32" fill="#16263E"/>
<g clip-path="url(#clip0)">
<path d="M30.2158 21.6198L32.887 22.0908C32.9342 22.0991 32.9814 22.1032 33.0282 22.1032C33.1917 22.1032 33.351 22.0533 33.4876 21.9576C33.6634 21.8344 33.7808 21.6502 33.8181 21.4388L34.2891 18.7676C34.3264 18.5561 34.2791 18.3428 34.1559 18.167C34.0328 17.9911 33.8485 17.8738 33.6371 17.8365L30.9659 17.3655C30.7542 17.3281 30.5412 17.3756 30.3653 17.4987C30.1894 17.6218 30.0721 17.8061 30.0347 18.0175L29.5637 20.6887C29.5264 20.9002 29.5737 21.1135 29.6969 21.2893C29.8201 21.4652 30.0044 21.5825 30.2158 21.6198ZM31.0706 18.5058L33.1487 18.8723L32.7822 20.9505L30.7042 20.584L31.0706 18.5058Z" fill="#70B6F9"/>
<path d="M36.1789 22.6711L38.8502 23.1421C38.8973 23.1504 38.9445 23.1546 38.9914 23.1546C39.1548 23.1546 39.3141 23.1046 39.4507 23.0089C39.6266 22.8858 39.7439 22.7016 39.7812 22.4902L40.2523 19.8189C40.3292 19.3824 40.0368 18.9647 39.6003 18.8878L36.929 18.4168C36.7176 18.3794 36.5044 18.4267 36.3286 18.5499C36.1527 18.673 36.0352 18.8573 35.998 19.0687L35.5269 21.7399C35.4501 22.1766 35.7425 22.5943 36.1789 22.6711ZM37.0339 19.5573L39.112 19.9237L38.7455 22.0019L36.6675 21.6354L37.0339 19.5573Z" fill="#70B6F9"/>
<path d="M28.8989 24.46L28.4279 27.1312C28.3907 27.3427 28.438 27.556 28.5611 27.7318C28.6843 27.9076 28.8685 28.025 29.0799 28.0623L31.7511 28.5332C31.7981 28.5416 31.8449 28.5455 31.8911 28.5455C32.2736 28.5455 32.6136 28.2708 32.6823 27.8813L33.1534 25.21C33.1906 24.9986 33.1433 24.7853 33.0202 24.6095C32.8971 24.4336 32.7128 24.3162 32.5014 24.279L29.8301 23.808C29.6187 23.7703 29.4054 23.8179 29.2297 23.9411C29.0537 24.0642 28.9363 24.2485 28.8989 24.46ZM29.9347 24.9485L32.0129 25.3149L31.6464 27.3931L29.5684 27.0266L29.9347 24.9485Z" fill="#70B6F9"/>
<path d="M34.8618 25.5113L34.3908 28.1824C34.3536 28.3939 34.4009 28.6072 34.524 28.783C34.6472 28.9589 34.8314 29.0762 35.0428 29.1135L37.714 29.5845C37.7612 29.5928 37.8084 29.5969 37.8552 29.5969C38.0187 29.5969 38.178 29.547 38.3146 29.4513C38.4904 29.3281 38.6078 29.1439 38.6451 28.9325L39.1161 26.2613C39.193 25.8248 38.9006 25.4071 38.464 25.3302L35.7928 24.8592C35.5812 24.8216 35.3681 24.8692 35.1922 24.9924C35.0164 25.1156 34.8991 25.2999 34.8618 25.5113ZM35.8976 25.9997L37.9757 26.3662L37.6092 28.4443L35.5312 28.0778L35.8976 25.9997Z" fill="#70B6F9"/>
<path d="M48.6486 47.475L43.7126 45.3712L45.0238 42.4977C45.1326 42.2592 45.1032 41.9804 44.9469 41.7698C44.7907 41.5592 44.5323 41.4499 44.2726 41.4854L40.931 41.9356L41.5883 36.5305C41.6206 36.2647 41.504 36.0046 41.2839 35.8519C41.1037 35.727 40.8805 35.6938 40.675 35.7532L43.8955 17.4892C43.9875 16.9627 43.6341 16.4582 43.1069 16.3646L40.929 15.9806L41.3228 13.7475C41.4157 13.22 41.0622 12.7153 40.5349 12.6224L32.2307 11.1581C31.7034 11.0643 31.1987 11.4186 31.1057 11.9459L30.7119 14.1793L28.5345 13.7955C28.2786 13.7501 28.0204 13.8072 27.8076 13.9564C27.5948 14.1053 27.4531 14.3283 27.4085 14.5831L25.9081 23.0908C25.8551 23.3913 26.0557 23.6779 26.3562 23.7308C26.6566 23.7843 26.9432 23.5832 26.9962 23.2827L28.4735 14.9066L42.784 17.4296L39.4435 36.3746L34.7236 38.8235L34.0817 36.8114C33.989 36.5208 33.6782 36.3606 33.3874 36.453C33.0968 36.5457 32.9363 36.8565 33.0291 37.1473L33.8098 39.5943C33.8745 39.7968 34.0242 39.9596 34.2208 40.0408C34.4173 40.1222 34.6382 40.1126 34.8273 40.0146L40.4035 37.1214L39.774 42.2969C39.7469 42.52 39.8231 42.7385 39.983 42.8963C40.1429 43.0543 40.3627 43.1275 40.5849 43.0973L43.7291 42.6737L42.5435 45.2717C42.4635 45.4473 42.4576 45.651 42.5273 45.831C42.597 46.0108 42.7388 46.1574 42.9162 46.2329L46.4814 47.7524H41.7584C41.6967 47.7048 41.6251 47.6671 41.5453 47.6432L39.0553 46.8968L39.5598 46.1192C39.6872 45.9228 39.6911 45.6765 39.5699 45.4767C39.4429 45.2671 39.1962 45.1477 38.9419 45.1715L37.2896 45.3281L37.6019 43.5219C37.6392 43.3065 37.5598 43.0932 37.3896 42.9511C37.2074 42.799 36.9528 42.7562 36.7257 42.8392L33.4585 44.0313L32.1329 41.1094C32.0079 40.8338 31.7313 40.6555 31.4287 40.6554C31.1261 40.6554 30.8495 40.8335 30.7245 41.1089L29.3542 44.1246L25.8476 42.8398C25.6201 42.7563 25.3653 42.7989 25.1829 42.9511C25.0126 43.0931 24.933 43.3065 24.9703 43.5221L25.2826 45.328L23.6304 45.1714C23.3752 45.1478 23.1292 45.2671 23.0022 45.4767C22.881 45.6767 22.885 45.9229 23.0124 46.1192L23.5632 46.9683L21.3119 47.6431C21.2321 47.667 21.1606 47.7047 21.099 47.7523H16.3759L19.5332 46.4066C19.7107 46.331 19.8525 46.1844 19.9223 46.0046C19.992 45.8247 19.9861 45.6208 19.906 45.4453L18.6412 42.6735L21.7852 43.0972C22.008 43.1275 22.2273 43.054 22.3872 42.8962C22.5472 42.7383 22.6234 42.5199 22.5962 42.2968L21.967 37.1234L27.9516 40.2415C28.1404 40.3399 28.3615 40.3497 28.5583 40.2686C28.7551 40.1876 28.9052 40.0248 28.97 39.8221L31.4282 32.1295L32.2444 34.6876C32.3371 34.9783 32.6478 35.1386 32.9386 35.046C33.2293 34.9532 33.3897 34.6424 33.297 34.3518L32.1144 30.6452C32.0188 30.3454 31.7431 30.144 31.4285 30.144C31.114 30.144 30.8383 30.3453 30.7427 30.6448L28.0567 39.0504L24.5392 37.2177L26.5418 25.8608C26.5947 25.5604 26.3941 25.2737 26.0936 25.2208C25.7932 25.1675 25.5066 25.3685 25.4537 25.6689L23.5117 36.6824L21.8294 35.8059C21.5916 35.6819 21.307 35.6998 21.0868 35.8526C20.8664 36.0052 20.7496 36.2653 20.782 36.5313L21.4393 41.9359L18.0978 41.4856C17.838 41.4512 17.5796 41.5596 17.4233 41.77C17.2671 41.9805 17.2377 42.2594 17.3465 42.498L18.7369 45.545L14.2087 47.4751C13.8903 47.6108 13.7163 47.9424 13.7856 48.2814C13.8548 48.6205 14.1449 48.8573 14.491 48.8573H31.0665C31.3716 48.8573 31.6189 48.61 31.6189 48.3049C31.6189 47.9997 31.3716 47.7524 31.0665 47.7524H24.6813C24.7859 47.6799 24.8661 47.5788 24.9105 47.4578C24.9766 47.2779 24.9543 47.082 24.8496 46.9209L24.4874 46.3627L25.7722 46.4844C25.9809 46.5035 26.1877 46.4274 26.3252 46.2789C26.4555 46.1382 26.5116 45.9503 26.4792 45.7636L26.1994 44.1455L29.3518 45.3006C29.6798 45.421 30.045 45.2755 30.1836 44.9702L31.4284 42.2309L32.6284 44.8764C32.767 45.1816 33.1323 45.3268 33.4595 45.2073L36.3731 44.1441L36.0931 45.7634C36.0607 45.9503 36.1168 46.1382 36.247 46.2789C36.3845 46.4275 36.5914 46.5036 36.8 46.4844L38.0848 46.3627L37.769 46.8493C37.6642 47.0108 37.6421 47.2067 37.7082 47.3865C37.7703 47.5553 37.9017 47.6857 38.0722 47.7524H33.6445C33.3394 47.7524 33.0921 47.9997 33.0921 48.3049C33.0921 48.61 33.3394 48.8573 33.6445 48.8573H48.3663C48.7124 48.8573 49.0025 48.6205 49.0718 48.2814C49.141 47.9423 48.967 47.6108 48.6486 47.475ZM32.1706 12.2695L40.2114 13.6873L39.8409 15.7887L31.8 14.3711L32.1706 12.2695Z" fill="#70B6F9"/>
</g>
<defs>
<clipPath id="clip0">
<rect width="37.7143" height="37.7143" fill="white" transform="translate(12.5713 11.1431)"/>
</clipPath>
</defs>
</svg>
