<svg width="64" height="64" viewBox="0 0 64 64" fill="none" xmlns="http://www.w3.org/2000/svg">
<circle cx="32" cy="32" r="32" fill="#16263E"/>
<g clip-path="url(#clip0)">
<path d="M44.0006 43.4282C44.3396 43.4282 44.6711 43.5288 44.953 43.7171C45.2349 43.9055 45.4546 44.1732 45.5844 44.4865C45.7141 44.7997 45.748 45.1444 45.6819 45.4769C45.6158 45.8095 45.4525 46.1149 45.2127 46.3547C44.973 46.5944 44.6675 46.7577 44.335 46.8239C44.0025 46.89 43.6578 46.8561 43.3445 46.7263C43.0313 46.5966 42.7635 46.3768 42.5752 46.0949C42.3868 45.813 42.2863 45.4816 42.2863 45.1425C42.2863 44.6879 42.4669 44.2518 42.7884 43.9303C43.1099 43.6088 43.5459 43.4282 44.0006 43.4282ZM44.0006 45.7139C44.1136 45.7139 44.2241 45.6804 44.318 45.6176C44.412 45.5548 44.4852 45.4656 44.5285 45.3612C44.5717 45.2568 44.5831 45.1419 44.561 45.031C44.539 44.9202 44.4845 44.8184 44.4046 44.7384C44.3247 44.6585 44.2229 44.6041 44.112 44.5821C44.0012 44.56 43.8863 44.5713 43.7819 44.6146C43.6775 44.6578 43.5882 44.7311 43.5254 44.825C43.4626 44.919 43.4291 45.0295 43.4291 45.1425C43.4291 45.2941 43.4893 45.4394 43.5965 45.5466C43.7037 45.6537 43.849 45.7139 44.0006 45.7139Z" fill="#70B6F9"/>
<path d="M29.1431 46.8568C28.8041 46.8568 28.4726 46.7563 28.1907 46.5679C27.9088 46.3795 27.6891 46.1118 27.5593 45.7985C27.4296 45.4853 27.3956 45.1406 27.4618 44.8081C27.5279 44.4755 27.6912 44.1701 27.931 43.9303C28.1707 43.6906 28.4762 43.5273 28.8087 43.4612C29.1412 43.395 29.4859 43.429 29.7992 43.5587C30.1124 43.6885 30.3801 43.9082 30.5685 44.1901C30.7569 44.472 30.8574 44.8035 30.8574 45.1425C30.8574 45.5972 30.6768 46.0332 30.3553 46.3547C30.0338 46.6762 29.5978 46.8568 29.1431 46.8568ZM29.1431 44.5711C29.0301 44.5711 28.9196 44.6046 28.8257 44.6674C28.7317 44.7302 28.6585 44.8194 28.6152 44.9238C28.572 45.0282 28.5606 45.1431 28.5827 45.254C28.6047 45.3648 28.6592 45.4667 28.7391 45.5466C28.819 45.6265 28.9208 45.6809 29.0317 45.703C29.1425 45.725 29.2574 45.7137 29.3618 45.6704C29.4662 45.6272 29.5555 45.5539 29.6183 45.46C29.6811 45.366 29.7146 45.2555 29.7146 45.1425C29.7146 44.991 29.6544 44.8456 29.5472 44.7384C29.44 44.6313 29.2947 44.5711 29.1431 44.5711Z" fill="#70B6F9"/>
<path d="M40.0002 43.4282C40.3033 43.4282 40.594 43.5486 40.8083 43.763C41.0227 43.9773 41.1431 44.268 41.1431 44.5711V45.7139C41.1431 46.017 41.0227 46.3077 40.8083 46.5221C40.594 46.7364 40.3033 46.8568 40.0002 46.8568H33.1431C32.84 46.8568 32.5493 46.7364 32.3349 46.5221C32.1206 46.3077 32.0002 46.017 32.0002 45.7139V44.5711C32.0002 44.268 32.1206 43.9773 32.3349 43.763C32.5493 43.5486 32.84 43.4282 33.1431 43.4282H40.0002ZM40.0002 45.7139V44.5711H33.1431V45.7139H40.0002Z" fill="#70B6F9"/>
<path d="M15.3802 30.1712C15.3983 29.9875 15.461 29.8109 15.5627 29.6569C15.6645 29.5028 15.8023 29.376 15.9642 29.2872L15.0014 17.2512C14.9769 16.9461 15.0159 16.6392 15.1159 16.3499C15.2159 16.0606 15.3747 15.7951 15.5823 15.5702C15.7899 15.3453 16.0419 15.1658 16.3223 15.043C16.6027 14.9203 16.9055 14.8569 17.2116 14.8569H20.4974C21.0241 14.8559 21.5407 15.0016 21.9894 15.2775L30.6379 20.5592C31.0523 20.8168 31.3946 21.1753 31.6328 21.6011C31.8711 22.0269 31.9975 22.5062 32.0002 22.9941V23.9729L32.9425 24.5604C33.3546 24.8158 33.6945 25.1725 33.9297 25.5965C34.1649 26.0206 34.2875 26.4978 34.2859 26.9827V30.2855H38.2859C38.7406 30.2855 39.1766 30.4661 39.4981 30.7876C39.8196 31.1091 40.0002 31.5451 40.0002 31.9998V34.2855H41.7145V33.7141C41.5629 33.7141 41.4176 33.6539 41.3104 33.5467C41.2033 33.4396 41.1431 33.2942 41.1431 33.1427C41.1431 32.9911 41.2033 32.8458 41.3104 32.7386C41.4176 32.6314 41.5629 32.5712 41.7145 32.5712H42.8574C43.0089 32.5712 43.1542 32.6314 43.2614 32.7386C43.3686 32.8458 43.4288 32.9911 43.4288 33.1427C43.4288 33.2942 43.3686 33.4396 43.2614 33.5467C43.1542 33.6539 43.0089 33.7141 42.8574 33.7141V34.2855H44.5716V33.0444C44.571 32.8192 44.6151 32.5961 44.7013 32.388C44.7875 32.18 44.9142 31.9911 45.0739 31.8324L45.3105 31.5958C45.4183 31.4917 45.5626 31.4341 45.7124 31.4354C45.8623 31.4367 46.0056 31.4968 46.1115 31.6028C46.2175 31.7087 46.2776 31.852 46.2789 32.0019C46.2802 32.1517 46.2226 32.296 46.1185 32.4038L45.8819 32.6404C45.7748 32.7475 45.7145 32.8928 45.7145 33.0444V34.2855H48.0002C48.3033 34.2855 48.594 34.4059 48.8083 34.6202C49.0227 34.8346 49.1431 35.1253 49.1431 35.4284V38.8569C49.1431 39.16 49.0227 39.4507 48.8083 39.6651C48.594 39.8794 48.3033 39.9998 48.0002 39.9998H42.2859V41.1427H44.0002C44.7952 41.1418 45.5724 41.3782 46.2323 41.8214C46.8923 42.2647 47.405 42.8947 47.705 43.6309C48.0049 44.3672 48.0785 45.1762 47.9162 45.9544C47.7539 46.7327 47.3631 47.4448 46.7939 47.9998H48.5716C48.7232 47.9998 48.8685 48.06 48.9757 48.1672C49.0829 48.2743 49.1431 48.4197 49.1431 48.5712C49.1431 48.7228 49.0829 48.8681 48.9757 48.9753C48.8685 49.0825 48.7232 49.1427 48.5716 49.1427H24.0002C23.8487 49.1427 23.7033 49.0825 23.5961 48.9753C23.489 48.8681 23.4288 48.7228 23.4288 48.5712C23.4288 48.4197 23.489 48.2743 23.5961 48.1672C23.7033 48.06 23.8487 47.9998 24.0002 47.9998H26.3494C25.7801 47.4448 25.3894 46.7327 25.2271 45.9544C25.0648 45.1762 25.1383 44.3672 25.4383 43.6309C25.7383 42.8947 26.251 42.2647 26.911 41.8214C27.5709 41.3782 28.3481 41.1418 29.1431 41.1427H32.0002V39.9998H31.4288C30.9741 39.9998 30.5381 39.8192 30.2166 39.4977C29.8951 39.1762 29.7145 38.7402 29.7145 38.2855V28.5952C29.7145 28.5033 29.6924 28.4126 29.6499 28.331C29.6074 28.2495 29.5459 28.1794 29.4705 28.1267L19.4288 21.0975V29.3015C19.6019 29.401 19.7459 29.5443 19.8462 29.717C19.9465 29.8897 19.9996 30.0858 20.0002 30.2855V31.9998C20.0011 32.7573 20.3024 33.4835 20.8381 34.0191C21.3737 34.5547 22.0999 34.856 22.8574 34.8569H23.4288C23.7319 34.8569 24.0226 34.9773 24.2369 35.1917C24.4512 35.406 24.5716 35.6967 24.5716 35.9998C24.5716 36.606 24.3308 37.1874 23.9022 37.616C23.4735 38.0447 22.8921 38.2855 22.2859 38.2855H17.6059C16.8771 38.2849 16.1784 37.9951 15.6631 37.4798C15.1477 36.9645 14.858 36.2657 14.8574 35.5369C14.8574 35.4455 14.8619 35.3535 14.8705 35.2632L15.3802 30.1712ZM17.2111 15.9998C17.0628 15.9998 16.9161 16.0305 16.7803 16.09C16.6445 16.1495 16.5224 16.2364 16.4219 16.3454C16.3213 16.4544 16.2445 16.583 16.1961 16.7232C16.1477 16.8633 16.1289 17.012 16.1408 17.1598L17.0991 29.1427H18.2859V17.0741C18.2855 16.7892 18.1721 16.5161 17.9706 16.3147C17.7691 16.1134 17.4959 16.0001 17.2111 15.9998ZM30.8574 22.9941C30.8555 22.7013 30.7794 22.4138 30.6363 22.1584C30.4932 21.903 30.2878 21.688 30.0391 21.5335L21.3911 16.2512C21.1224 16.0859 20.8129 15.9988 20.4974 15.9998H19.2128L30.8574 23.2604V22.9941ZM38.8574 31.9998C38.8574 31.8482 38.7971 31.7029 38.69 31.5957C38.5828 31.4886 38.4375 31.4284 38.2859 31.4284H37.7145V36.5712H38.8574V31.9998ZM48.0002 37.7141H43.4288C43.2772 37.7141 43.1319 37.6539 43.0247 37.5467C42.9176 37.4396 42.8574 37.2942 42.8574 37.1427C42.8574 36.9911 42.9176 36.8458 43.0247 36.7386C43.1319 36.6314 43.2772 36.5712 43.4288 36.5712H48.0002V35.4284H40.0002V38.8569H48.0002V37.7141ZM26.2859 45.1427C26.2868 45.9001 26.5881 46.6263 27.1238 47.162C27.6594 47.6976 28.3856 47.9989 29.1431 47.9998H44.0002C44.758 47.9998 45.4847 47.6988 46.0205 47.163C46.5563 46.6271 46.8574 45.9004 46.8574 45.1427C46.8574 44.3849 46.5563 43.6582 46.0205 43.1223C45.4847 42.5865 44.758 42.2855 44.0002 42.2855H29.1431C28.3856 42.2864 27.6594 42.5877 27.1238 43.1234C26.5881 43.659 26.2868 44.3852 26.2859 45.1427ZM41.1431 41.1427V39.9998H33.1431V41.1427H41.1431ZM31.4288 38.8569H38.8574V37.7141H37.7145C37.4114 37.7141 37.1207 37.5937 36.9064 37.3793C36.692 37.165 36.5716 36.8743 36.5716 36.5712V31.4284H35.4288V35.9998C35.4288 36.4545 35.2482 36.8905 34.9267 37.212C34.6052 37.5335 34.1692 37.7141 33.7145 37.7141H30.8574V38.2855C30.8574 38.4371 30.9176 38.5824 31.0247 38.6896C31.1319 38.7967 31.2772 38.8569 31.4288 38.8569ZM30.8574 36.5712H33.7145C33.866 36.5712 34.0114 36.511 34.1186 36.4039C34.2257 36.2967 34.2859 36.1513 34.2859 35.9998V31.4284H33.7145C33.1694 31.43 32.6362 31.5876 32.1777 31.8824C31.7192 32.1772 31.3547 32.5971 31.1271 33.0924L32.7842 33.7547C32.9077 33.8039 33.0102 33.8946 33.074 34.0113C33.1379 34.1279 33.159 34.2632 33.1338 34.3937C33.1087 34.5243 33.0387 34.642 32.9361 34.7265C32.8335 34.8111 32.7046 34.8572 32.5716 34.8569C32.499 34.8572 32.427 34.8434 32.3596 34.8164L30.8642 34.2181C30.8642 34.2409 30.8574 34.2627 30.8574 34.2855V36.5712ZM30.1259 27.1901C30.3517 27.3484 30.536 27.5587 30.6633 27.8033C30.7906 28.0479 30.8572 28.3195 30.8574 28.5952V31.4918C31.4707 30.8639 32.2742 30.456 33.1431 30.3312V26.9827C33.1442 26.692 33.0708 26.4059 32.9298 26.1517C32.7889 25.8975 32.5851 25.6837 32.3379 25.5307L19.4288 17.4815V19.7021L30.1259 27.1901ZM17.6059 37.1427H22.2859C22.589 37.1427 22.8797 37.0222 23.094 36.8079C23.3084 36.5936 23.4288 36.3029 23.4288 35.9998H22.8574C21.7969 35.9984 20.7803 35.5766 20.0304 34.8267C19.2806 34.0769 18.8587 33.0602 18.8574 31.9998V30.2855H16.5145L16.0054 35.3775C16.0008 35.4305 15.9991 35.4837 16.0002 35.5369C16.0008 35.9626 16.1702 36.3707 16.4712 36.6717C16.7722 36.9727 17.1803 37.142 17.6059 37.1427Z" fill="#70B6F9"/>
<path d="M15.429 48H21.7147C21.8663 48 22.0116 48.0602 22.1188 48.1674C22.2259 48.2745 22.2861 48.4199 22.2861 48.5714C22.2861 48.723 22.2259 48.8683 22.1188 48.9755C22.0116 49.0827 21.8663 49.1429 21.7147 49.1429H15.429C15.2774 49.1429 15.1321 49.0827 15.0249 48.9755C14.9178 48.8683 14.8576 48.723 14.8576 48.5714C14.8576 48.4199 14.9178 48.2745 15.0249 48.1674C15.1321 48.0602 15.2774 48 15.429 48Z" fill="#70B6F9"/>
</g>
<defs>
<clipPath id="clip0">
<rect width="34.2857" height="34.2857" fill="white" transform="matrix(-1 0 0 1 49.1431 14.8569)"/>
</clipPath>
</defs>
</svg>
