<svg width="64" height="64" viewBox="0 0 64 64" fill="none" xmlns="http://www.w3.org/2000/svg">
<circle cx="32" cy="32" r="32" fill="#16263E"/>
<path d="M28.1232 32.2398C27.9963 32.2397 27.8719 32.205 27.7634 32.1394C27.6548 32.0738 27.5662 31.9797 27.5072 31.8675C27.4482 31.7552 27.421 31.6289 27.4285 31.5023C27.436 31.3757 27.4779 31.2535 27.5497 31.149L30.9679 26.177C31.0726 26.0248 31.2334 25.9203 31.415 25.8867C31.5966 25.853 31.7842 25.8929 31.9364 25.9975C32.0886 26.1021 32.1931 26.2629 32.2267 26.4445C32.2604 26.6261 32.2205 26.8137 32.1159 26.9659L28.6977 31.9379C28.6337 32.0311 28.548 32.1074 28.4478 32.16C28.3477 32.2126 28.2363 32.24 28.1232 32.2398Z" fill="#70B6F9"/>
<path d="M27.4105 51.7854C27.31 51.7854 27.2107 51.7636 27.1194 51.7215C27.0282 51.6794 26.9471 51.6181 26.8817 51.5417C26.8164 51.4653 26.7684 51.3757 26.741 51.279C26.7136 51.1823 26.7074 51.0809 26.7229 50.9816L28.9907 36.464H21.8391C21.7122 36.464 21.5877 36.4294 21.4791 36.3638C21.3704 36.2982 21.2818 36.2042 21.2227 36.0919C21.1636 35.9796 21.1363 35.8533 21.1438 35.7266C21.1513 35.5999 21.1932 35.4777 21.2651 35.3731L36.5865 13.0874C36.6759 12.9574 36.8069 12.8616 36.9579 12.8157C37.1089 12.7698 37.271 12.7766 37.4177 12.835C37.5643 12.8933 37.6868 12.9997 37.7651 13.1368C37.8433 13.2738 37.8727 13.4334 37.8484 13.5893L35.5803 28.1069H42.7319C42.8588 28.1069 42.9833 28.1415 43.0919 28.2071C43.2005 28.2727 43.2892 28.3667 43.3483 28.479C43.4074 28.5913 43.4347 28.7176 43.4272 28.8443C43.4197 28.971 43.3778 29.0932 43.3059 29.1978L27.9845 51.4835C27.9204 51.5765 27.8347 51.6527 27.7347 51.7053C27.6347 51.7579 27.5235 51.7854 27.4105 51.7854ZM23.1629 35.0712H29.8045C29.905 35.0711 30.0044 35.0929 30.0957 35.1349C30.1871 35.1769 30.2682 35.2382 30.3336 35.3146C30.399 35.391 30.447 35.4807 30.4744 35.5774C30.5019 35.6742 30.508 35.7757 30.4924 35.875L28.5711 48.1713L41.4081 29.4997H34.7665C34.666 29.4998 34.5666 29.478 34.4752 29.436C34.3839 29.394 34.3027 29.3327 34.2374 29.2563C34.172 29.1799 34.1239 29.0902 34.0965 28.9935C34.0691 28.8967 34.063 28.7952 34.0786 28.6958L35.9999 16.3999L23.1629 35.0712Z" fill="#70B6F9"/>
</svg>
