<svg width="38" height="38" viewBox="0 0 38 38" fill="none" xmlns="http://www.w3.org/2000/svg">
<circle cx="18.9999" cy="19" r="18.9091" fill="#095AA6"/>
<path d="M23.5606 18.8334H19.6212V14.8939C19.6212 14.6764 19.4449 14.5 19.2273 14.5C19.0097 14.5 18.8334 14.6764 18.8334 14.8939V18.8333H14.8939C14.6764 18.8334 14.5 19.0097 14.5 19.2273C14.5 19.4449 14.6764 19.6212 14.8939 19.6212H18.8333V23.5606C18.8333 23.7782 19.0097 23.9546 19.2273 23.9546C19.4448 23.9546 19.6212 23.7782 19.6212 23.5606V19.6212H23.5606C23.7782 19.6212 23.9545 19.4449 23.9545 19.2273C23.9545 19.0097 23.7782 18.8334 23.5606 18.8334Z" fill="white"/>
<path fill-rule="evenodd" clip-rule="evenodd" d="M14.8939 18.3333H18.3334V14.8939C18.3334 14.4002 18.7336 14 19.2273 14C19.721 14 20.1212 14.4002 20.1212 14.8939V18.3334H23.5606C24.0544 18.3334 24.4545 18.7336 24.4545 19.2273C24.4545 19.721 24.0543 20.1212 23.5606 20.1212H20.1212V23.5606C20.1212 24.0543 19.721 24.4546 19.2273 24.4546C18.7336 24.4546 18.3333 24.0543 18.3333 23.5606V20.1212H14.8939C14.4002 20.1212 14 19.721 14 19.2273C14 18.7336 14.4003 18.3334 14.8939 18.3333ZM23.5606 18.8334C23.7782 18.8334 23.9545 19.0097 23.9545 19.2273C23.9545 19.4449 23.7782 19.6212 23.5606 19.6212H19.6212V23.5606C19.6212 23.7782 19.4448 23.9546 19.2273 23.9546C19.0097 23.9546 18.8333 23.7782 18.8333 23.5606V19.6212H14.8939C14.6764 19.6212 14.5 19.4449 14.5 19.2273C14.5 19.0097 14.6764 18.8334 14.8939 18.8333H18.8334V14.8939C18.8334 14.6764 19.0097 14.5 19.2273 14.5C19.4449 14.5 19.6212 14.6764 19.6212 14.8939V18.8334H23.5606Z" fill="white"/>
</svg>
