<svg width="37" height="37" viewBox="0 0 37 37" fill="none" xmlns="http://www.w3.org/2000/svg">
<g clip-path="url(#clip0)">
<path d="M31.4503 30.8333C31.8162 30.8333 32.1739 30.9418 32.4781 31.145C32.7823 31.3483 33.0194 31.6372 33.1595 31.9753C33.2995 32.3133 33.3361 32.6853 33.2647 33.0442C33.1934 33.403 33.0172 33.7327 32.7584 33.9914C32.4997 34.2501 32.1701 34.4263 31.8112 34.4977C31.4523 34.5691 31.0804 34.5325 30.7423 34.3924C30.4043 34.2524 30.1154 34.0153 29.9121 33.7111C29.7088 33.4068 29.6003 33.0491 29.6003 32.6833C29.6003 32.1926 29.7952 31.722 30.1421 31.3751C30.4891 31.0282 30.9596 30.8333 31.4503 30.8333ZM31.4503 33.2999C31.5723 33.2999 31.6915 33.2638 31.7929 33.196C31.8943 33.1282 31.9733 33.0319 32.02 32.9192C32.0667 32.8066 32.0789 32.6826 32.0551 32.5629C32.0313 32.4433 31.9726 32.3334 31.8863 32.2472C31.8001 32.161 31.6902 32.1022 31.5706 32.0784C31.451 32.0546 31.327 32.0669 31.2143 32.1135C31.1016 32.1602 31.0053 32.2392 30.9376 32.3407C30.8698 32.4421 30.8336 32.5613 30.8336 32.6833C30.8336 32.8468 30.8986 33.0037 31.0142 33.1193C31.1299 33.2349 31.2867 33.2999 31.4503 33.2999Z" fill="#70B6F9"/>
<path d="M15.4166 34.5333C15.0507 34.5333 14.693 34.4248 14.3888 34.2215C14.0846 34.0182 13.8474 33.7293 13.7074 33.3912C13.5674 33.0532 13.5308 32.6812 13.6021 32.3223C13.6735 31.9635 13.8497 31.6338 14.1085 31.3751C14.3672 31.1164 14.6968 30.9402 15.0557 30.8688C15.4145 30.7974 15.7865 30.8341 16.1246 30.9741C16.4626 31.1141 16.7515 31.3512 16.9548 31.6554C17.1581 31.9597 17.2666 32.3174 17.2666 32.6833C17.2666 33.1739 17.0717 33.6445 16.7247 33.9914C16.3778 34.3383 15.9073 34.5333 15.4166 34.5333ZM15.4166 32.0666C15.2946 32.0666 15.1754 32.1028 15.074 32.1705C14.9726 32.2383 14.8936 32.3346 14.8469 32.4473C14.8002 32.5599 14.788 32.6839 14.8118 32.8036C14.8356 32.9232 14.8943 33.0331 14.9806 33.1193C15.0668 33.2055 15.1767 33.2643 15.2963 33.2881C15.4159 33.3119 15.5399 33.2997 15.6526 33.253C15.7653 33.2063 15.8616 33.1273 15.9293 33.0259C15.9971 32.9244 16.0333 32.8052 16.0333 32.6833C16.0333 32.5197 15.9683 32.3629 15.8527 32.2472C15.737 32.1316 15.5802 32.0666 15.4166 32.0666Z" fill="#70B6F9"/>
<path d="M27.1334 30.8333C27.4605 30.8333 27.7742 30.9632 28.0055 31.1945C28.2368 31.4258 28.3667 31.7395 28.3667 32.0666V33.2999C28.3667 33.627 28.2368 33.9407 28.0055 34.172C27.7742 34.4033 27.4605 34.5332 27.1334 34.5332H19.7334C19.4063 34.5332 19.0926 34.4033 18.8613 34.172C18.63 33.9407 18.5 33.627 18.5 33.2999V32.0666C18.5 31.7395 18.63 31.4258 18.8613 31.1945C19.0926 30.9632 19.4063 30.8333 19.7334 30.8333H27.1334ZM27.1334 33.2999V32.0666H19.7334V33.2999H27.1334Z" fill="#70B6F9"/>
<path d="M0.564251 16.5267C0.583775 16.3284 0.651382 16.1379 0.761208 15.9716C0.871033 15.8054 1.01976 15.6684 1.19448 15.5727L0.155399 2.58384C0.129005 2.25455 0.171085 1.92337 0.278984 1.61115C0.386883 1.29893 0.55827 1.01243 0.782341 0.769704C1.00641 0.526978 1.27832 0.33328 1.58094 0.200811C1.88356 0.0683416 2.21032 -2.88973e-05 2.54066 5.48617e-06H6.0865C6.65493 -0.00107028 7.21243 0.156083 7.69662 0.453872L17.0299 6.15372C17.477 6.43174 17.8464 6.81858 18.1035 7.27809C18.3606 7.73761 18.497 8.2548 18.5 8.78134V9.83769L19.5169 10.4716C19.9617 10.7473 20.3284 11.1322 20.5822 11.5898C20.836 12.0474 20.9684 12.5624 20.9667 13.0857V16.65H25.2833C25.774 16.65 26.2445 16.8449 26.5915 17.1919C26.9384 17.5388 27.1333 18.0094 27.1333 18.5V20.9667H28.9833V20.35C28.8198 20.35 28.6629 20.285 28.5473 20.1694C28.4316 20.0537 28.3667 19.8969 28.3667 19.7333C28.3667 19.5698 28.4316 19.4129 28.5473 19.2973C28.6629 19.1816 28.8198 19.1167 28.9833 19.1167H30.2167C30.3802 19.1167 30.5371 19.1816 30.6527 19.2973C30.7684 19.4129 30.8333 19.5698 30.8333 19.7333C30.8333 19.8969 30.7684 20.0537 30.6527 20.1694C30.5371 20.285 30.3802 20.35 30.2167 20.35V20.9667H32.0667V19.6273C32.066 19.3842 32.1135 19.1435 32.2066 18.919C32.2996 18.6944 32.4363 18.4906 32.6087 18.3193L32.864 18.064C32.9803 17.9517 33.1361 17.8895 33.2978 17.8909C33.4595 17.8923 33.6141 17.9572 33.7285 18.0715C33.8428 18.1859 33.9077 18.3405 33.9091 18.5022C33.9105 18.6639 33.8483 18.8197 33.736 18.936L33.4807 19.1913C33.365 19.3069 33.3 19.4637 33.3 19.6273V20.9667H35.7667C36.0938 20.9667 36.4075 21.0966 36.6388 21.3279C36.8701 21.5592 37 21.8729 37 22.2V25.9C37 26.2271 36.8701 26.5408 36.6388 26.7721C36.4075 27.0034 36.0938 27.1333 35.7667 27.1333H29.6V28.3667H31.45C32.3079 28.3658 33.1466 28.6208 33.8588 29.0992C34.571 29.5775 35.1244 30.2574 35.4481 31.052C35.7718 31.8465 35.8511 32.7195 35.676 33.5594C35.5008 34.3992 35.0792 35.1678 34.4649 35.7667H36.3833C36.5469 35.7667 36.7037 35.8316 36.8194 35.9473C36.935 36.0629 37 36.2198 37 36.3833C37 36.5469 36.935 36.7037 36.8194 36.8194C36.7037 36.935 36.5469 37 36.3833 37H9.86667C9.70312 37 9.54626 36.935 9.43062 36.8194C9.31497 36.7037 9.25 36.5469 9.25 36.3833C9.25 36.2198 9.31497 36.0629 9.43062 35.9473C9.54626 35.8316 9.70312 35.7667 9.86667 35.7667H12.4018C11.7875 35.1678 11.3658 34.3992 11.1907 33.5594C11.0155 32.7195 11.0949 31.8465 11.4186 31.052C11.7423 30.2574 12.2956 29.5775 13.0078 29.0992C13.72 28.6208 14.5587 28.3658 15.4167 28.3667H18.5V27.1333H17.8833C17.3927 27.1333 16.9221 26.9384 16.5752 26.5915C16.2282 26.2445 16.0333 25.774 16.0333 25.2833V14.8259C16.0334 14.7267 16.0095 14.6289 15.9636 14.5408C15.9178 14.4528 15.8514 14.3771 15.77 14.3202L4.93333 6.73462V15.5881C5.12021 15.6955 5.27556 15.8501 5.38379 16.0365C5.49203 16.2229 5.54935 16.4345 5.55 16.65V18.5C5.55098 19.3175 5.87614 20.1011 6.45417 20.6792C7.03219 21.2572 7.81588 21.5824 8.63333 21.5833H9.25C9.5771 21.5833 9.8908 21.7133 10.1221 21.9446C10.3534 22.1759 10.4833 22.4896 10.4833 22.8167C10.4833 23.4709 10.2235 24.0983 9.76086 24.5609C9.29827 25.0235 8.67087 25.2833 8.01667 25.2833H2.96617C2.17969 25.2827 1.42561 24.97 0.869492 24.4139C0.313366 23.8577 0.000652313 23.1036 0 22.3172C0 22.2185 0.0049324 22.1192 0.014183 22.0218L0.564251 16.5267ZM2.54005 1.23334C2.38003 1.23333 2.22175 1.26647 2.07517 1.33066C1.9286 1.39485 1.79691 1.48871 1.6884 1.60631C1.57989 1.72392 1.49691 1.86272 1.4447 2.01398C1.39249 2.16524 1.37217 2.32567 1.38503 2.48517L2.41918 15.4167H3.7V2.39267C3.69951 2.08524 3.57713 1.79055 3.35968 1.57322C3.14223 1.35589 2.84748 1.23367 2.54005 1.23334ZM17.2667 8.78134C17.2646 8.4654 17.1826 8.15513 17.0282 7.8795C16.8737 7.60387 16.652 7.37186 16.3836 7.20514L7.05096 1.50467C6.761 1.32622 6.42698 1.23225 6.0865 1.23334H4.70023L17.2667 9.06871V8.78134ZM25.9 18.5C25.9 18.3365 25.835 18.1796 25.7194 18.064C25.6037 17.9483 25.4469 17.8833 25.2833 17.8833H24.6667V23.4333H25.9V18.5ZM35.7667 24.6667H30.8333C30.6698 24.6667 30.5129 24.6017 30.3973 24.4861C30.2816 24.3704 30.2167 24.2136 30.2167 24.05C30.2167 23.8865 30.2816 23.7296 30.3973 23.614C30.5129 23.4983 30.6698 23.4333 30.8333 23.4333H35.7667V22.2H27.1333V25.9H35.7667V24.6667ZM12.3333 32.6833C12.3343 33.5008 12.6595 34.2845 13.2375 34.8625C13.8155 35.4405 14.5992 35.7657 15.4167 35.7667H31.45C32.2678 35.7667 33.052 35.4418 33.6302 34.8636C34.2085 34.2854 34.5333 33.5011 34.5333 32.6833C34.5333 31.8656 34.2085 31.0813 33.6302 30.5031C33.052 29.9249 32.2678 29.6 31.45 29.6H15.4167C14.5992 29.601 13.8155 29.9262 13.2375 30.5042C12.6595 31.0822 12.3343 31.8659 12.3333 32.6833ZM28.3667 28.3667V27.1333H19.7333V28.3667H28.3667ZM17.8833 25.9H25.9V24.6667H24.6667C24.3396 24.6667 24.0259 24.5367 23.7946 24.3054C23.5633 24.0741 23.4333 23.7604 23.4333 23.4333V17.8833H22.2V22.8167C22.2 23.3073 22.0051 23.7779 21.6581 24.1248C21.3112 24.4718 20.8407 24.6667 20.35 24.6667H17.2667V25.2833C17.2667 25.4469 17.3316 25.6037 17.4473 25.7194C17.5629 25.835 17.7198 25.9 17.8833 25.9ZM17.2667 23.4333H20.35C20.5135 23.4333 20.6704 23.3684 20.786 23.2527C20.9017 23.1371 20.9667 22.9802 20.9667 22.8167V17.8833H20.35C19.7618 17.8851 19.1863 18.0551 18.6916 18.3733C18.1968 18.6915 17.8034 19.1446 17.5577 19.6791L19.3461 20.3938C19.4794 20.4469 19.59 20.5448 19.6589 20.6707C19.7277 20.7966 19.7505 20.9425 19.7234 21.0834C19.6962 21.2243 19.6207 21.3513 19.51 21.4426C19.3993 21.5338 19.2602 21.5836 19.1167 21.5833C19.0383 21.5836 18.9606 21.5688 18.8879 21.5396L17.2741 20.8939C17.2741 20.9186 17.2667 20.942 17.2667 20.9667V23.4333ZM16.4773 13.3095C16.7209 13.4804 16.9199 13.7074 17.0572 13.9713C17.1946 14.2352 17.2665 14.5284 17.2667 14.8259V17.9518C17.9286 17.2742 18.7957 16.8339 19.7333 16.6993V13.0857C19.7345 12.772 19.6553 12.4632 19.5032 12.1889C19.3511 11.9146 19.1312 11.6838 18.8645 11.5187L4.93333 2.83236V5.22872L16.4773 13.3095ZM2.96617 24.05H8.01667C8.34377 24.05 8.65747 23.9201 8.88877 23.6888C9.12006 23.4575 9.25 23.1438 9.25 22.8167H8.63333C7.48893 22.8152 6.39182 22.3599 5.58261 21.5507C4.7734 20.7415 4.31813 19.6444 4.31667 18.5V16.65H1.78833L1.23888 22.1451C1.23396 22.2023 1.23211 22.2598 1.23333 22.3172C1.23399 22.7765 1.41676 23.2169 1.74159 23.5417C2.06642 23.8666 2.50679 24.0494 2.96617 24.05Z" fill="#70B6F9"/>
<path d="M0.616609 35.7666H7.39994C7.56349 35.7666 7.72034 35.8316 7.83598 35.9472C7.95163 36.0629 8.0166 36.2197 8.0166 36.3833C8.0166 36.5468 7.95163 36.7037 7.83598 36.8193C7.72034 36.935 7.56349 36.9999 7.39994 36.9999H0.616609C0.453059 36.9999 0.296206 36.935 0.180559 36.8193C0.0649118 36.7037 -5.72205e-05 36.5468 -5.72205e-05 36.3833C-5.72205e-05 36.2197 0.0649118 36.0629 0.180559 35.9472C0.296206 35.8316 0.453059 35.7666 0.616609 35.7666Z" fill="#70B6F9"/>
</g>
<defs>
<clipPath id="clip0">
<rect width="37" height="37" fill="white" transform="matrix(-1 0 0 1 37 0)"/>
</clipPath>
</defs>
</svg>
