<svg width="20" height="20" viewBox="0 0 20 20" fill="none" xmlns="http://www.w3.org/2000/svg">
<g opacity="0.7">
<path d="M6.875 11.875V16.875C6.875 17.0408 6.94085 17.1997 7.05806 17.3169C7.17527 17.4342 7.33424 17.5 7.5 17.5H12.5C12.6658 17.5 12.8247 17.4342 12.9419 17.3169C13.0592 17.1997 13.125 17.0408 13.125 16.875V11.875H6.875ZM11.25 16.25H8.75C8.58424 16.25 8.42527 16.1842 8.30806 16.0669C8.19085 15.9497 8.125 15.7908 8.125 15.625C8.125 15.4592 8.19085 15.3003 8.30806 15.1831C8.42527 15.0658 8.58424 15 8.75 15H11.25C11.4158 15 11.5747 15.0658 11.6919 15.1831C11.8092 15.3003 11.875 15.4592 11.875 15.625C11.875 15.7908 11.8092 15.9497 11.6919 16.0669C11.5747 16.1842 11.4158 16.25 11.25 16.25ZM11.25 14.375H8.75C8.58424 14.375 8.42527 14.3092 8.30806 14.1919C8.19085 14.0747 8.125 13.9158 8.125 13.75C8.125 13.5842 8.19085 13.4253 8.30806 13.3081C8.42527 13.1908 8.58424 13.125 8.75 13.125H11.25C11.4158 13.125 11.5747 13.1908 11.6919 13.3081C11.8092 13.4253 11.875 13.5842 11.875 13.75C11.875 13.9158 11.8092 14.0747 11.6919 14.1919C11.5747 14.3092 11.4158 14.375 11.25 14.375Z" fill="white"/>
<path d="M16.25 6.25H3.75C3.50368 6.24967 3.25972 6.29795 3.03208 6.39206C2.80445 6.48617 2.59762 6.62427 2.42344 6.79844C2.24927 6.97262 2.11117 7.17945 2.01706 7.40708C1.92295 7.63471 1.87467 7.87868 1.875 8.125V13.125C1.87645 13.6218 2.07446 14.0979 2.42578 14.4492C2.7771 14.8005 3.25317 14.9985 3.75 15H5.625V11.25C5.62548 11.0844 5.69148 10.9257 5.80859 10.8086C5.9257 10.6915 6.08439 10.6255 6.25 10.625H13.75C13.9156 10.6255 14.0743 10.6915 14.1914 10.8086C14.3085 10.9257 14.3745 11.0844 14.375 11.25V15H16.25C16.7468 14.9985 17.2229 14.8005 17.5742 14.4492C17.9255 14.0979 18.1236 13.6218 18.125 13.125V8.125C18.1253 7.87868 18.0771 7.63471 17.9829 7.40708C17.8888 7.17945 17.7507 6.97262 17.5766 6.79844C17.4024 6.62427 17.1956 6.48617 16.9679 6.39206C16.7403 6.29795 16.4963 6.24967 16.25 6.25ZM15 9.375C14.9177 9.37593 14.836 9.3604 14.7597 9.32932C14.6835 9.29824 14.6142 9.25224 14.556 9.19401C14.4978 9.13579 14.4518 9.06652 14.4207 8.99027C14.3896 8.91403 14.3741 8.83234 14.375 8.75C14.375 8.62639 14.4117 8.50555 14.4803 8.40277C14.549 8.29999 14.6466 8.21988 14.7608 8.17258C14.875 8.12527 15.0007 8.11289 15.1219 8.13701C15.2432 8.16113 15.3545 8.22065 15.4419 8.30806C15.5294 8.39547 15.5889 8.50683 15.613 8.62807C15.6371 8.74931 15.6247 8.87497 15.5774 8.98918C15.5301 9.10338 15.45 9.20099 15.3472 9.26967C15.2445 9.33835 15.1236 9.375 15 9.375Z" fill="white"/>
<path d="M14.375 3.125V5.625H5.625V3.125C5.62548 2.95939 5.69148 2.80069 5.80859 2.68359C5.92569 2.56648 6.08439 2.50048 6.25 2.5H13.75C13.9156 2.50048 14.0743 2.56648 14.1914 2.68359C14.3085 2.80069 14.3745 2.95939 14.375 3.125Z" fill="white"/>
</g>
</svg>
