<svg width="37" height="37" viewBox="0 0 37 37" fill="none" xmlns="http://www.w3.org/2000/svg">
<g clip-path="url(#clip0)">
<path d="M36.4121 0.00127011C36.3601 0.000502849 36.3083 0.00638518 36.258 0.019045L29.0242 1.82761C28.5744 1.94027 28.4192 2.50037 28.747 2.82837L31.0076 5.08923L24.4419 11.6549C23.8143 12.2576 24.7434 13.1866 25.346 12.559L31.9117 5.99332L34.1725 8.25393C34.5006 8.58168 35.0606 8.42656 35.1733 7.97669L36.9819 0.742956C37.075 0.369939 36.7965 0.00728032 36.4121 0.00127011ZM0.623938 0.00178162C0.224962 -0.0161211 -0.0786174 0.355361 0.0183132 0.742828L1.82687 7.97669C1.93953 8.42656 2.49963 8.58168 2.82764 8.25393L5.0885 5.99332L11.6542 12.559C12.2569 13.1866 13.1859 12.2575 12.5583 11.6549L5.99259 5.08923L8.2532 2.82837C8.58094 2.50037 8.42583 1.94027 7.97596 1.82761L0.74184 0.019045C0.703221 0.00945423 0.663707 0.00357189 0.623938 0.00178162ZM1.41741 1.41827L6.66381 2.72978L2.72892 6.66467L1.41741 1.41827ZM35.5825 1.41827L34.271 6.66467L30.3361 2.72978L35.5825 1.41827ZM34.2463 2.44743C34.2174 2.44666 34.1887 2.44973 34.1607 2.45663L31.8096 2.99909C31.3942 3.09499 31.538 3.71814 31.9535 3.62223L34.3045 3.07952C34.6738 2.99998 34.624 2.4583 34.2463 2.44743ZM2.7761 2.44768C2.3857 2.43208 2.3137 2.99653 2.69541 3.07952L5.04643 3.62223C5.4619 3.71814 5.60576 3.09499 5.19029 2.99909L2.83928 2.45663C2.81869 2.45165 2.79746 2.44858 2.7761 2.44768ZM24.8872 24.2488C24.3132 24.2491 24.0304 24.9467 24.4419 25.3467L31.0076 31.9127L28.747 34.1733C28.4192 34.5013 28.5744 35.0614 29.0242 35.174L36.258 36.9826C36.6949 37.0918 37.0908 36.6962 36.9817 36.2591L35.1732 29.0253C35.1081 28.7652 34.8775 28.5803 34.6095 28.5736C34.4461 28.5695 34.288 28.6325 34.1724 28.7481L31.9118 31.0087L25.3458 24.4427C25.2255 24.3186 25.0599 24.2486 24.8872 24.2488ZM12.0937 24.249C11.9276 24.254 11.7699 24.3234 11.6541 24.4426L5.08824 31.0085L2.82764 28.7478C2.71357 28.6338 2.55833 28.5707 2.39708 28.573C2.12649 28.577 1.89248 28.7626 1.82687 29.0251L0.0183132 36.2589C-0.0907657 36.6959 0.304885 37.0916 0.74184 36.9825L7.97583 35.1739C8.4257 35.0613 8.58082 34.5012 8.25307 34.1731L5.99246 31.9125L12.5582 25.3466C12.9765 24.9402 12.6767 24.2318 12.0937 24.249ZM2.72892 30.3371L6.66381 34.2719L1.41741 35.5834L2.72892 30.3371ZM34.271 30.3371L35.5825 35.5832L30.3361 34.2717L34.271 30.3371ZM5.13211 33.3702C5.10321 33.3694 5.07443 33.3725 5.04643 33.3794L2.69541 33.9219C2.26882 34.0106 2.41703 34.652 2.83928 34.5448L5.19029 34.0023C5.55973 33.9228 5.50985 33.381 5.13211 33.3702ZM31.8903 33.3705C31.4999 33.3549 31.4279 33.9193 31.8096 34.0023L34.1607 34.5448C34.5829 34.652 34.7311 34.0106 34.3045 33.9219L31.9535 33.3794C31.9328 33.3743 31.9117 33.3714 31.8903 33.3705Z" fill="#70B6F9"/>
</g>
<defs>
<clipPath id="clip0">
<rect width="37" height="37" fill="white"/>
</clipPath>
</defs>
</svg>
