<svg width="126" height="32" viewBox="0 0 126 32" fill="none" xmlns="http://www.w3.org/2000/svg">
<g opacity="0.7">
<path d="M89.7142 28.6309C89.685 28.8372 89.6716 29.0212 89.6312 29.2006C89.5751 29.4249 89.4989 29.6492 89.4293 29.8735C89.4293 29.9049 89.4092 29.9363 89.4024 29.9677C89.3172 30.3086 89.232 30.6405 89.1512 30.9904C89.138 31.0646 89.1298 31.1395 89.1265 31.2147C89.1086 31.439 89.0346 31.5153 88.7968 31.5153H0C0.0403724 31.2439 -0.0695302 30.9792 0.118874 30.746C0.136818 30.7235 0.118874 30.6832 0.13906 30.6518C0.222048 30.34 0.311765 30.0282 0.388024 29.7165C0.444096 29.4922 0.475497 29.2679 0.53157 29.0324C0.594371 28.77 0.668387 28.512 0.740161 28.2518C0.740161 28.2249 0.760347 28.2025 0.764833 28.1778C0.861278 27.7292 0.948751 27.2807 1.05641 26.8321C1.11024 26.6078 1.19996 26.3835 1.2807 26.1749C1.2818 26.1615 1.2818 26.148 1.2807 26.1345C1.37266 25.6859 1.45565 25.2374 1.56107 24.8112C1.6149 24.5869 1.70461 24.3626 1.78536 24.1383C1.78663 24.1257 1.78663 24.1129 1.78536 24.1002C1.87507 23.6628 1.95358 23.2187 2.06348 22.7859C2.16217 22.3956 2.28777 22.0143 2.41561 21.6308C2.41668 21.6113 2.41668 21.5919 2.41561 21.5724C2.46272 21.2988 2.4986 21.0207 2.5614 20.7493C2.61075 20.525 2.69598 20.3321 2.76551 20.1235C2.76551 20.0921 2.77897 20.0607 2.7857 20.0293C2.88214 19.5807 2.95391 19.1322 3.08176 18.7015C3.18177 18.4024 3.26047 18.0966 3.31726 17.7864C3.36677 17.5802 3.43509 17.379 3.52137 17.1853C3.53707 17.136 3.53707 17.0821 3.55053 17.0306L3.79949 16.1334C3.79949 16.1065 3.79949 16.0818 3.81519 16.0549C3.86005 15.788 3.89145 15.5166 3.95874 15.2542C4.05967 14.8572 4.18303 14.4692 4.29517 14.0722C4.36022 13.8277 4.39835 13.5765 4.45891 13.3298C4.51947 13.083 4.61367 12.7825 4.6832 12.5066C4.7303 12.3361 4.77067 12.1612 4.81553 11.9885C4.89627 11.6745 4.98375 11.3627 5.05776 11.0465C5.11608 10.7997 5.15421 10.5463 5.21477 10.2996C5.27533 10.0529 5.35383 9.81511 5.42336 9.57288C5.42336 9.5482 5.43906 9.52129 5.44354 9.49662C5.54223 9.04804 5.63643 8.6174 5.73512 8.18003C5.81362 7.84135 5.89661 7.50715 5.9796 7.16848C6.06259 6.8298 6.15006 6.50906 6.23305 6.17711C6.31604 5.84516 6.40575 5.47508 6.49547 5.12518C6.57397 4.80893 6.65696 4.49268 6.7377 4.17868C6.81845 3.86467 6.91489 3.5058 7.00012 3.15591C7.08535 2.80601 7.15713 2.48303 7.24909 2.14211C7.30965 1.91782 7.39936 1.69353 7.47338 1.45578C7.52945 1.26289 7.57207 1.06551 7.61692 0.870382C7.66851 0.646091 7.71337 0.408342 7.76496 0.177322C7.76496 0.150407 7.80084 0.105549 7.81654 0.107792C8.04084 0.123492 8.24494 -0.105285 8.48942 0.0606909C8.53203 0.0780228 8.57817 0.0849429 8.62399 0.0808771C8.69128 0.0808771 8.75632 0.0808771 8.82361 0.0808771H124.58C124.959 0.0808771 125.338 0.0225614 125.717 0.00461811C125.812 0.00461811 125.982 0.0360188 125.991 0.0763912C126.007 0.215517 126.001 0.356366 125.973 0.493573C125.973 0.567589 125.924 0.637119 125.906 0.717864C125.832 1.00271 125.76 1.28981 125.682 1.57466C125.639 1.75185 125.592 1.92679 125.549 2.10398C125.491 2.35967 125.444 2.61761 125.379 2.87106C125.314 3.12451 125.24 3.31964 125.168 3.54393C125.168 3.56187 125.157 3.57982 125.152 3.6C125.105 3.86467 125.067 4.13382 125.006 4.39848C124.955 4.62277 124.876 4.83136 124.809 5.04892C124.809 5.08033 124.782 5.10948 124.775 5.14088C124.722 5.40779 124.679 5.67694 124.612 5.9416C124.556 6.13323 124.491 6.32189 124.417 6.50682C124.417 6.53597 124.401 6.56962 124.394 6.60102C124.311 6.9397 124.224 7.27389 124.145 7.6193C124.087 7.86378 124.049 8.11274 123.988 8.35498C123.928 8.59721 123.836 8.87757 123.764 9.13775C123.721 9.29027 123.676 9.44279 123.643 9.58633C123.584 9.84875 123.544 10.1157 123.481 10.3736C123.418 10.6315 123.326 10.8895 123.257 11.1496C123.201 11.3739 123.167 11.5982 123.109 11.8225C123.051 12.0468 122.968 12.3115 122.898 12.5559C122.886 12.6003 122.876 12.6452 122.869 12.6905C122.831 12.949 122.779 13.2052 122.712 13.4576C122.606 13.7835 122.522 14.1162 122.461 14.4534C122.367 14.8484 122.254 15.2384 122.122 15.622C122.073 15.7902 122.037 15.9607 121.999 16.1311C121.943 16.3711 121.9 16.6156 121.837 16.8556C121.774 17.0956 121.687 17.3535 121.613 17.6025C121.561 17.7842 121.516 17.9681 121.476 18.152C121.42 18.3942 121.38 18.641 121.319 18.8832C121.258 19.1254 121.173 19.3789 121.095 19.6256C121.09 19.6448 121.086 19.6643 121.084 19.6839C120.989 20.1011 120.902 20.5183 120.803 20.9355C120.725 21.2719 120.637 21.6083 120.55 21.9448C120.462 22.2812 120.386 22.5661 120.305 22.8778C120.216 23.2232 120.126 23.5709 120.038 23.9185C119.951 24.2662 119.886 24.5533 119.798 24.865C119.691 25.2553 119.574 25.6411 119.455 26.0314C119.408 26.1928 119.368 26.3588 119.33 26.5226C119.271 26.7738 119.224 27.025 119.161 27.2739C119.128 27.4085 119.074 27.5386 119.02 27.6956C118.964 27.6956 118.885 27.6956 118.809 27.6956C117.973 27.6956 117.138 27.6956 116.304 27.6956C116.122 27.6956 116.08 27.6261 116.122 27.4713C116.201 27.1999 116.293 26.9308 116.371 26.6571C116.418 26.4934 116.461 26.3252 116.495 26.157C116.548 25.8945 116.58 25.6276 116.647 25.3697C116.75 24.9682 116.871 24.5757 116.988 24.1742C117.055 23.9185 117.087 23.6539 117.152 23.3982C117.217 23.1425 117.302 22.8823 117.376 22.6221C117.43 22.4292 117.477 22.2319 117.531 22.0367C117.603 21.7833 117.679 21.5298 117.755 21.2764C117.755 21.2629 117.769 21.2517 117.771 21.2405C117.818 20.9893 117.858 20.7358 117.912 20.4846C117.957 20.2783 118.015 20.0742 118.067 19.8678C118.145 19.565 118.219 19.2623 118.305 18.9707C118.367 18.7464 118.446 18.5086 118.515 18.2776C118.522 18.2587 118.527 18.2392 118.529 18.2193C118.578 17.9591 118.614 17.6967 118.677 17.441C118.74 17.1853 118.827 16.9924 118.901 16.7681C118.975 16.5438 119.007 16.2904 119.067 16.0549C119.128 15.8194 119.217 15.5233 119.291 15.2587C119.339 15.0904 119.381 14.92 119.419 14.7518C119.475 14.4961 119.52 14.2404 119.583 13.9869C119.646 13.7335 119.727 13.5114 119.807 13.2714C119.813 13.26 119.818 13.248 119.821 13.2355C119.868 13.0113 119.904 12.769 119.96 12.538C120.016 12.307 120.099 12.0266 120.171 11.7709C120.218 11.6027 120.269 11.4345 120.31 11.264C120.368 11.0397 120.411 10.7953 120.471 10.562C120.532 10.3287 120.615 10.0708 120.696 9.82408C120.743 9.64913 120.79 9.47419 120.828 9.297C120.886 9.03682 120.924 8.77216 120.989 8.51422C121.054 8.25629 121.142 8.03424 121.214 7.79201C121.263 7.635 121.308 7.47575 121.341 7.31427C121.395 7.05409 121.429 6.78718 121.494 6.527C121.559 6.26683 121.651 6.02011 121.718 5.76441C121.786 5.50872 121.815 5.2934 121.875 5.06014C121.936 4.82688 122.019 4.58913 122.086 4.35138C122.133 4.18092 122.167 4.00821 122.209 3.83551C122.266 3.59776 122.331 3.36001 122.38 3.12002C122.411 2.95629 122.342 2.88227 122.156 2.89573C121.631 2.89573 121.108 2.89573 120.586 2.89573H10.2636C10.1223 2.89573 10.0572 2.96077 10.0258 3.10432C9.96974 3.35104 9.88002 3.59103 9.81498 3.83775C9.74993 4.08447 9.71405 4.29755 9.65573 4.52408C9.58396 4.81118 9.50097 5.09827 9.43144 5.38312V5.4033C9.3821 5.66797 9.33948 5.93487 9.28116 6.1973C9.23631 6.39467 9.17126 6.5898 9.11295 6.78494C9.09276 6.85222 9.06585 6.91727 9.0479 6.9868C8.96716 7.28511 8.8909 7.58566 8.82361 7.88396C8.81707 7.90303 8.81183 7.92251 8.80791 7.94228C8.75632 8.20021 8.71819 8.46264 8.65315 8.72057C8.58811 8.97851 8.50736 9.16915 8.42886 9.39344C8.37503 9.57961 8.33241 9.76801 8.2898 9.95866C8.23597 10.2076 8.1956 10.4588 8.13279 10.7033C8.06999 10.9478 7.98925 11.1766 7.9085 11.4143C7.8614 11.5825 7.8143 11.7507 7.77617 11.9212C7.7201 12.1702 7.68197 12.4236 7.61917 12.6703C7.55637 12.9171 7.46889 13.1727 7.39488 13.424C7.39567 13.4367 7.39567 13.4494 7.39488 13.4621C7.34778 13.72 7.31189 13.9802 7.24909 14.2336C7.1504 14.6306 7.0248 15.0231 6.92611 15.4179C6.85882 15.6758 6.80723 15.9383 6.73995 16.1939C6.67266 16.4496 6.60537 16.6605 6.53584 16.8937C6.52628 16.9187 6.51804 16.9442 6.51117 16.97C6.46183 17.2369 6.4237 17.5083 6.36089 17.773C6.30482 17.9972 6.21286 18.2215 6.1523 18.4458C6.09175 18.6701 6.04913 18.9101 5.98857 19.1411C5.92801 19.3722 5.83605 19.6637 5.76428 19.9262C5.71942 20.0899 5.67681 20.2536 5.63868 20.4174C5.57588 20.682 5.52429 20.9512 5.457 21.2136C5.38971 21.476 5.3157 21.7025 5.25065 21.9448C5.24409 21.9631 5.23885 21.9818 5.23495 22.0008C5.18337 22.2543 5.14524 22.51 5.08244 22.7612C5.01963 23.0124 4.92992 23.3152 4.85814 23.5911L4.60918 24.4613C4.6081 24.474 4.6081 24.4868 4.60918 24.4994C4.55984 24.7641 4.52171 25.0333 4.45891 25.2934C4.39611 25.5536 4.30639 25.7712 4.23462 26.0134C4.16284 26.2556 4.13817 26.4441 4.0821 26.6571C4.01032 26.9375 3.92734 27.2156 3.85781 27.4937C3.85781 27.5117 3.85781 27.5319 3.85781 27.552C3.79052 27.8481 3.7322 28.1487 3.65146 28.4492C3.61557 28.5838 3.68286 28.6085 3.77482 28.6129C3.95201 28.6129 4.13144 28.6129 4.31087 28.6129H89.4428C89.5415 28.6174 89.6491 28.6264 89.7142 28.6309Z" fill="white"/>
<path d="M59.6101 12.159H62.4137C62.3756 12.325 62.3397 12.4775 62.3083 12.63C62.2432 12.9261 62.1804 13.2221 62.1154 13.5272L62.176 13.5586C62.2724 13.4644 62.3711 13.3746 62.4653 13.2782C62.6537 13.0853 62.8645 12.9171 63.0619 12.7421C63.2593 12.5672 63.4881 12.4752 63.681 12.3115C63.7583 12.2558 63.8449 12.2141 63.9366 12.1881C64.1071 12.1298 64.2821 12.0827 64.4525 12.0289C64.9757 11.8939 65.5185 11.8522 66.0562 11.9055C66.336 11.9136 66.6133 11.962 66.8793 12.0491C67.1671 12.1509 67.428 12.3166 67.6424 12.5338C67.8569 12.7509 68.0193 13.0139 68.1174 13.3029C68.162 13.3899 68.217 13.4712 68.2812 13.5451C68.5279 13.2984 68.7499 13.0472 69.0034 12.8319C69.2114 12.6646 69.4327 12.5146 69.665 12.3833C69.8669 12.2599 70.0777 12.159 70.2841 12.0356C70.296 12.0337 70.3081 12.0337 70.32 12.0356C71.0044 11.8617 71.7167 11.8266 72.4148 11.9324C72.8905 11.9925 73.3413 12.1792 73.7202 12.473C73.9241 12.6436 74.1077 12.837 74.2675 13.0494C74.4247 13.2621 74.5188 13.5147 74.5389 13.7784C74.5748 14.3191 74.5748 14.8615 74.5389 15.4022C74.4982 15.6375 74.4297 15.8672 74.3348 16.0863C74.33 16.0987 74.3263 16.1115 74.3236 16.1244C74.2765 16.3712 74.2406 16.6201 74.1823 16.8624C74.1239 17.1046 74.0387 17.358 73.958 17.6048C73.9503 17.6223 73.9435 17.6403 73.9378 17.6586C73.8862 17.9345 73.8458 18.2126 73.7808 18.4817C73.7269 18.706 73.6395 18.9303 73.5699 19.1546C73.5641 19.1728 73.5603 19.1916 73.5587 19.2107C73.5094 19.4686 73.469 19.7266 73.4107 19.98C73.33 20.3389 73.2335 20.6955 73.146 21.0544C73.1145 21.2309 73.0726 21.4054 73.0204 21.577C72.8993 21.905 72.8165 22.2459 72.7737 22.593C72.7614 22.7315 72.7185 22.8656 72.6481 22.9855C72.6119 23.0285 72.5674 23.0637 72.5173 23.0891C72.4673 23.1145 72.4126 23.1297 72.3565 23.1335C72.0829 23.1335 71.807 23.0999 71.5311 23.0932C71.1341 23.0932 70.7349 23.0932 70.3379 23.0932C70.2617 23.0932 70.1809 23.1268 70.1136 23.1201C70.0463 23.1134 69.849 23.1201 69.7996 23.0461C69.7503 22.9721 69.7839 22.8218 69.7996 22.7164C69.8184 22.644 69.8416 22.5728 69.8691 22.5033C69.9499 22.205 70.0261 21.9044 70.1046 21.6061C70.1046 21.5927 70.1046 21.5814 70.1046 21.568C70.1562 21.3101 70.1944 21.0476 70.2594 20.7919C70.3245 20.5363 70.3985 20.3434 70.4702 20.1191C70.4771 20.1002 70.4816 20.0807 70.4837 20.0608C70.5353 19.8028 70.5779 19.5404 70.6429 19.2825C70.708 19.0245 70.7887 18.7935 70.8672 18.549V18.5109C70.9143 18.2575 70.9547 18.0018 71.0108 17.7506C71.096 17.376 71.1992 17.0059 71.2844 16.6291C71.3951 16.2849 71.4644 15.9288 71.4908 15.5682C71.4522 15.2488 71.3588 14.9385 71.2149 14.6509C71.179 14.5656 71.0399 14.5028 70.9368 14.4647C70.5846 14.3032 70.1852 14.2777 69.8153 14.3929C69.6381 14.458 69.4542 14.5006 69.2748 14.5634C68.9481 14.6862 68.6681 14.9081 68.4741 15.1981C68.2968 15.4624 68.1387 15.739 68.0008 16.0258C67.9327 16.1733 67.8822 16.3284 67.8505 16.4878C67.7922 16.7368 67.7541 16.988 67.6913 17.2347C67.6285 17.4814 67.5522 17.7057 67.4804 17.9412C67.4804 17.9614 67.4804 17.9816 67.467 17.9995C67.384 18.3382 67.292 18.6724 67.2158 19.0133C67.1552 19.278 67.1216 19.5494 67.0565 19.814C67.0027 20.0383 66.922 20.2626 66.8524 20.4712C66.8451 20.49 66.8398 20.5096 66.8367 20.5295C66.7403 20.9781 66.6528 21.4446 66.5451 21.8999C66.4958 22.1108 66.4083 22.3149 66.3455 22.5235C66.3234 22.6062 66.3114 22.6913 66.3096 22.7769C66.2939 23.0461 66.2513 23.0909 65.971 23.0909H63.9523C63.8348 23.0961 63.7178 23.1104 63.6024 23.1335C63.4634 23.1605 63.3782 23.0999 63.4006 22.9676C63.423 22.7769 63.4701 22.5885 63.5105 22.4001C63.5509 22.2117 63.6024 21.9852 63.6495 21.7811C63.7079 21.5321 63.7662 21.2854 63.8267 21.0409C63.8985 20.7493 63.968 20.4577 64.051 20.1684C64.1183 19.9239 64.1923 19.6795 64.2641 19.435C64.2732 19.4102 64.28 19.3847 64.2843 19.3587C64.3617 18.8503 64.481 18.3492 64.6409 17.8605C64.7149 17.5801 64.7508 17.2885 64.8181 17.0059C64.8764 16.7682 64.9594 16.5371 65.0289 16.3016V16.2837C65.1018 15.9718 65.1402 15.6529 65.1433 15.3327C65.1443 15.0996 65.0592 14.8744 64.9044 14.7002C64.7497 14.5259 64.536 14.4149 64.3045 14.3884C64.0573 14.3285 63.8022 14.3081 63.5486 14.3279C63.3243 14.3638 63.1 14.4894 62.8533 14.532C62.5595 14.5813 62.4047 14.828 62.1984 14.9806C62.0663 15.1079 61.9611 15.2605 61.8889 15.4291C61.693 15.7822 61.5558 16.1647 61.4829 16.5618C61.3999 16.9723 61.2586 17.3715 61.1487 17.7797C61.0814 18.0354 61.0455 18.2978 60.9805 18.5535C60.9154 18.8092 60.8302 19.0514 60.7562 19.3004C60.7113 19.4641 60.6822 19.6324 60.6463 19.7983C60.588 20.0518 60.5364 20.3075 60.4713 20.5609C60.4063 20.8144 60.3166 21.1172 60.2471 21.3953C60.2022 21.5545 60.1573 21.7138 60.1237 21.8775C60.0699 22.1287 60.0273 22.3844 59.9734 22.6356C59.933 22.815 59.9331 23.0349 59.6953 23.0842C59.5919 23.0878 59.4883 23.0825 59.3858 23.0685L57.3851 23.1134C57.3254 23.119 57.2653 23.119 57.2057 23.1134C56.941 23.0707 56.9253 23.0192 57.0262 22.7724C57.0867 22.6094 57.1325 22.4412 57.1631 22.27C57.2191 22.0211 57.2617 21.7699 57.3223 21.5209C57.3829 21.2719 57.4793 20.9759 57.5466 20.7022C57.6027 20.4779 57.6363 20.2536 57.6924 20.0294C57.7597 19.7669 57.8382 19.5045 57.9167 19.2443C57.9167 19.2129 57.9369 19.1815 57.9436 19.1479C57.9929 18.8877 58.0311 18.6208 58.0961 18.3629C58.1993 17.9591 58.3204 17.5599 58.4325 17.1607C58.446 17.1091 58.4325 17.053 58.4527 17.0037L58.677 16.1424C58.677 16.111 58.6972 16.0796 58.7039 16.0482C58.7847 15.7387 58.8654 15.4314 58.9439 15.1219C58.9439 15.0837 58.9439 15.0411 58.9574 15.003L59.1817 14.1215L59.2019 14.043C59.2557 13.7582 59.3005 13.4711 59.3701 13.1885C59.4284 12.9485 59.5226 12.7197 59.5944 12.482C59.6097 12.375 59.615 12.2669 59.6101 12.159Z" fill="white"/>
<path d="M22.8732 8.36843C22.8261 8.50973 22.7857 8.63534 22.7431 8.76094C22.7354 8.77905 22.7294 8.79781 22.7252 8.81701C22.6758 9.08168 22.6354 9.34858 22.5816 9.611C22.5368 9.81959 22.4762 10.0259 22.4246 10.2323C22.3461 10.5396 22.2743 10.8491 22.2003 11.1541C22.1375 11.3784 22.0613 11.6184 21.9917 11.8517C21.9826 11.8764 21.9759 11.9019 21.9715 11.9279C21.8908 12.2464 21.8078 12.5672 21.7473 12.8879C21.6867 13.2086 21.6127 13.5608 21.5387 13.9107C21.6598 13.9107 21.7293 13.9241 21.7988 13.9241C23.5393 13.9241 25.2821 13.9241 27.0248 13.9241C27.2087 13.9241 27.2671 13.8501 27.2985 13.6707C27.3523 13.3589 27.4532 13.0539 27.5227 12.7443C27.5631 12.5806 27.6057 12.4169 27.6416 12.2532C27.6977 12.0064 27.7426 11.7552 27.8054 11.5107C27.8682 11.2663 27.9534 10.9949 28.0296 10.7369C28.0296 10.719 28.0296 10.6988 28.0296 10.6786C28.0767 10.4117 28.1126 10.1426 28.1732 9.88015C28.2539 9.52577 28.3504 9.17588 28.4423 8.82374C28.4677 8.69334 28.5075 8.5662 28.5612 8.44469C28.5849 8.41478 28.6148 8.39044 28.6489 8.37338C28.683 8.35633 28.7205 8.34698 28.7586 8.346C29.3081 8.346 29.8599 8.346 30.4094 8.346H31.5017C31.5645 8.346 31.6295 8.346 31.7035 8.3617C31.625 8.63534 31.5465 8.89103 31.4792 9.14672C31.4277 9.33737 31.3918 9.53026 31.3447 9.71866C31.2707 10.0013 31.1899 10.2839 31.1204 10.5642C31.1204 10.6024 31.1204 10.645 31.1024 10.6831C31.0217 10.9949 30.9409 11.3066 30.858 11.6184C30.858 11.6431 30.8467 11.6678 30.8423 11.6947C30.7929 11.9661 30.7593 12.2397 30.6942 12.5066C30.5933 12.9148 30.4699 13.314 30.3578 13.72C30.295 13.9645 30.2524 14.2135 30.1896 14.4557C30.1268 14.6979 30.0393 14.976 29.9653 15.2385C29.9204 15.4067 29.8823 15.5771 29.8442 15.7498C29.7881 16.0168 29.741 16.2859 29.6759 16.5506C29.6109 16.8152 29.5324 17.044 29.4517 17.2885C29.4454 17.3076 29.4401 17.3271 29.4359 17.3468C29.3866 17.607 29.3552 17.8716 29.2902 18.1273C29.1803 18.5557 29.0457 18.9752 28.9335 19.4013C28.873 19.6256 28.8461 19.8723 28.7877 20.1056C28.7294 20.3388 28.6464 20.6237 28.5635 20.8816L28.5433 20.9579C28.4491 21.4065 28.3616 21.8349 28.2562 22.27C28.2018 22.5166 28.1267 22.7582 28.0319 22.9922C28.0016 23.0312 27.9628 23.0627 27.9185 23.0845C27.8742 23.1063 27.8256 23.1177 27.7762 23.1178C27.6012 23.1178 27.4241 23.0819 27.2469 23.0797C26.6772 23.0797 26.1075 23.0797 25.5378 23.0797C25.4713 23.0752 25.4046 23.0752 25.3382 23.0797C24.9793 23.1268 24.8896 22.9967 25.0084 22.6423C25.1049 22.353 25.1654 22.0502 25.2462 21.7452C25.318 21.4895 25.3942 21.2383 25.4705 20.9826C25.4726 20.9639 25.4726 20.9451 25.4705 20.9265C25.5647 20.4779 25.6544 20.0293 25.7553 19.5942C25.8316 19.2578 25.9213 18.9213 26.0043 18.5849C26.1344 18.0713 26.2622 17.5576 26.3923 17.044C26.426 16.9117 26.4753 16.7838 26.5022 16.6515C26.5291 16.5192 26.4506 16.4452 26.3004 16.4519C26.0492 16.4519 25.798 16.4519 25.5445 16.4519H21.1282C20.8658 16.4519 20.8456 16.4967 20.7963 16.7592C20.7469 17.0216 20.6572 17.2414 20.5854 17.4836L20.572 17.5397C20.5226 17.7954 20.4823 18.0511 20.4217 18.3045C20.3611 18.558 20.2804 18.7755 20.2109 19.011C20.1985 19.0421 20.1895 19.0745 20.1839 19.1075C20.1346 19.3677 20.0987 19.6323 20.0314 19.888C19.9327 20.2805 19.8071 20.6641 19.7017 21.0543C19.6299 21.3235 19.5963 21.6038 19.529 21.8752C19.4617 22.1466 19.3787 22.4135 19.3047 22.6804V22.7208C19.2801 22.8442 19.3473 23.0191 19.1387 23.0438C19.0048 23.0606 18.87 23.0696 18.735 23.0707C18.6229 23.0707 18.5107 23.0707 18.3986 23.0707C17.9029 23.0707 17.405 23.0707 16.9093 23.0707C16.6671 23.0707 16.4226 23.0999 16.1826 23.1201C16.0413 23.1335 15.9583 23.0685 15.9942 22.9406C16.057 22.6199 16.14 22.3036 16.2185 21.9851C16.2611 21.8147 16.3104 21.6465 16.3486 21.4738C16.4091 21.2226 16.454 20.9669 16.519 20.7157C16.5841 20.4644 16.6648 20.2155 16.7433 19.9665C16.7859 19.8207 16.8375 19.6794 16.8712 19.5314C16.9295 19.2645 16.9699 18.9931 17.0371 18.7284C17.0955 18.5041 17.1784 18.2799 17.2614 18.0556C17.2614 18.0286 17.2614 18.004 17.2771 17.9771C17.3242 17.7393 17.3556 17.4993 17.4207 17.2661C17.5239 16.8825 17.645 16.5057 17.7616 16.1222C17.8311 15.871 17.867 15.6108 17.9321 15.3596C17.9859 15.151 18.0621 14.9491 18.1294 14.745C18.1382 14.72 18.1457 14.6946 18.1519 14.6688C18.2506 14.2336 18.3313 13.7918 18.4524 13.3634C18.5444 13.0314 18.6386 12.7062 18.7014 12.3653C18.7709 11.984 18.9257 11.6184 19.0266 11.2438C19.0939 11.0039 19.132 10.7594 19.1993 10.5216C19.2666 10.2839 19.3496 10.073 19.4236 9.83081C19.4729 9.66483 19.5133 9.49661 19.5514 9.32615C19.6075 9.0727 19.6636 8.8215 19.7084 8.56581C19.7101 8.53375 19.7183 8.50237 19.7324 8.47354C19.7465 8.44472 19.7663 8.41906 19.7906 8.3981C19.8149 8.37714 19.8433 8.36132 19.8738 8.3516C19.9044 8.34187 19.9367 8.33844 19.9686 8.34151H22.7117C22.7659 8.34817 22.8198 8.35715 22.8732 8.36843V8.36843Z" fill="white"/>
<path d="M98.1969 18.5019L96.8355 19.6233C96.8005 19.6496 96.774 19.6854 96.7592 19.7265C96.7076 19.9217 96.6695 20.119 96.6201 20.3142C96.5394 20.6416 96.4497 20.9691 96.3734 21.2966C96.3174 21.5343 96.286 21.7743 96.2299 22.0098C96.1738 22.2453 96.0908 22.4786 96.0235 22.7118C96.0034 22.7683 95.9906 22.8271 95.9854 22.8868C95.9854 23.0819 95.8441 23.1268 95.6893 23.1111C95.2408 23.1111 94.8056 23.0729 94.3638 23.0729C94.0296 23.0729 93.6909 23.1111 93.3567 23.1133C93.2648 23.1133 93.1145 23.0707 93.0898 23.0079C93.0651 22.9451 93.1055 22.7836 93.1234 22.676C93.1234 22.649 93.1683 22.6288 93.175 22.5997C93.2154 22.4517 93.2513 22.3014 93.2894 22.1511C93.3769 21.8012 93.4733 21.4536 93.5541 21.1014C93.6146 20.8457 93.6438 20.5833 93.7066 20.3276C93.7694 20.0719 93.8591 19.8409 93.9309 19.5942C93.9802 19.4125 94.0161 19.2286 94.0565 19.0424C94.1126 18.78 94.1552 18.5154 94.2225 18.2552C94.2898 17.995 94.3683 17.7886 94.4468 17.5554C94.4478 17.5419 94.4478 17.5284 94.4468 17.515C94.4916 17.2616 94.5275 17.0036 94.5881 16.7524C94.6486 16.5012 94.7316 16.2567 94.8124 16.01C94.8204 15.992 94.8264 15.9732 94.8303 15.9539C94.8819 15.696 94.9223 15.4358 94.9851 15.1824C95.0479 14.9289 95.1331 14.7338 95.1981 14.5095C95.2475 14.3346 95.2856 14.1574 95.3237 13.9802C95.3798 13.7245 95.4224 13.4688 95.4875 13.2176C95.5525 12.9664 95.6333 12.7197 95.7118 12.4729C95.7118 12.4595 95.7118 12.4483 95.7118 12.4348C95.7611 12.1679 95.7992 11.8988 95.862 11.6341C95.9114 11.4098 95.9899 11.1855 96.0549 10.9792C96.0549 10.9545 96.0751 10.9298 96.0818 10.9052C96.1357 10.6382 96.1783 10.3691 96.2456 10.1044C96.3017 9.88014 96.3846 9.65585 96.4564 9.43156C96.462 9.41314 96.4664 9.39442 96.4699 9.37549C96.5215 9.07494 96.582 8.77663 96.6224 8.47832C96.6403 8.35721 96.7054 8.33926 96.7973 8.33926H99.4597C99.5143 8.34582 99.5678 8.35939 99.6189 8.37964C99.5885 8.44623 99.5615 8.51436 99.5382 8.58374C99.4552 8.89551 99.3722 9.20503 99.2959 9.51903C99.2376 9.74333 99.1995 9.9878 99.1412 10.2211C99.0829 10.4543 99.0044 10.7347 98.9348 10.9904C98.9261 11.0075 98.9194 11.0256 98.9146 11.0442C98.8608 11.3044 98.8182 11.5646 98.7532 11.8225C98.6881 12.0804 98.6029 12.3137 98.5289 12.5582C98.528 12.5709 98.528 12.5836 98.5289 12.5963C98.4818 12.8699 98.4459 13.1436 98.3831 13.4127C98.3337 13.6258 98.253 13.8322 98.1857 14.0407C98.1857 14.0587 98.1678 14.0766 98.1633 14.0946C98.1094 14.3592 98.0668 14.6261 98.0018 14.8886C97.9367 15.151 97.847 15.3618 97.7887 15.6018C97.7635 15.7379 97.753 15.8762 97.7573 16.0145C97.7573 16.0145 97.8605 16.0437 97.8829 16.0145C98.5423 15.4381 99.2017 14.8639 99.8544 14.2807C100.395 13.7963 100.927 13.3006 101.465 12.8139C101.689 12.6053 101.929 12.4034 102.165 12.2016C102.207 12.1647 102.259 12.1419 102.315 12.1365C103.436 12.1365 104.558 12.1365 105.693 12.1365C105.725 12.1432 105.758 12.1522 105.789 12.1634C105.659 12.2868 105.554 12.3877 105.439 12.4954C105.074 12.8213 104.707 13.1443 104.336 13.4643C104.172 13.6056 103.997 13.738 103.831 13.8793C103.542 14.1237 103.255 14.3749 102.963 14.6194C102.672 14.8639 102.306 15.1577 101.983 15.4358C101.66 15.714 101.312 16.0257 100.998 16.3375C100.975 16.3726 100.958 16.4121 100.95 16.4537C100.941 16.4953 100.941 16.5381 100.949 16.5797C100.972 16.6803 101.006 16.7781 101.05 16.8713C101.093 16.9857 101.131 17.0956 101.173 17.2145C101.285 17.5173 101.398 17.8178 101.514 18.1116C101.566 18.2552 101.62 18.3987 101.662 18.5468C101.718 18.7329 101.754 18.928 101.817 19.112C101.909 19.3789 102.017 19.639 102.113 19.9037C102.183 20.0899 102.245 20.2805 102.313 20.4689C102.38 20.6573 102.463 20.8525 102.537 21.0476C102.584 21.1777 102.624 21.3123 102.665 21.4468C102.763 21.7631 102.86 22.0793 102.961 22.3956C103.024 22.5907 103.093 22.7814 103.165 22.9877C103.089 23.1537 102.923 23.138 102.759 23.1268C102.595 23.1156 102.366 23.0819 102.171 23.0797C101.687 23.0797 101.202 23.0797 100.72 23.0797C100.433 23.0797 100.146 23.0797 99.8589 23.0797C99.7243 23.0797 99.6727 23.0393 99.6481 22.8935C99.5981 22.6827 99.5328 22.4758 99.4529 22.2745C99.4036 22.1197 99.352 21.9649 99.3072 21.8079C99.2466 21.5837 99.204 21.3594 99.1345 21.153C99.0358 20.8457 98.9102 20.5452 98.8092 20.2401C98.7554 20.0854 98.7061 19.9306 98.6657 19.7736C98.6367 19.5425 98.5771 19.3162 98.4885 19.1008C98.3741 18.9123 98.4795 18.6297 98.1969 18.5019Z" fill="white"/>
<path d="M80.8663 21.8797C80.5949 22.0816 80.3661 22.2655 80.1216 22.427C79.9088 22.5611 79.6887 22.6831 79.4622 22.7926C79.2649 22.8935 79.0585 22.9743 78.8567 23.064C78.4818 23.2285 78.0773 23.3147 77.6679 23.3174C77.392 23.3174 77.1072 23.4386 76.8448 23.3959C76.427 23.3473 76.0166 23.2487 75.6224 23.1021C75.2784 22.9484 74.9778 22.7119 74.7476 22.4135C74.5619 22.219 74.4466 21.9679 74.4202 21.7003C74.371 21.4879 74.3388 21.2719 74.3237 21.0543C74.3529 20.7157 74.465 20.3815 74.5166 20.0473C74.5732 19.771 74.6675 19.5038 74.797 19.2533C74.9864 18.8163 75.2608 18.4213 75.6044 18.0915C75.813 17.8941 76.0104 17.6832 76.2369 17.5083C76.4046 17.3908 76.5862 17.2944 76.7775 17.2212C77.0197 17.118 77.2732 17.0373 77.5199 16.9364C77.8723 16.7965 78.2449 16.714 78.6234 16.6919C78.9899 16.6476 79.3532 16.5802 79.7112 16.49H79.7493C80.1755 16.4384 80.5994 16.3779 81.0233 16.333C81.4123 16.3101 81.7873 16.1796 82.1066 15.9562C82.2212 15.8415 82.3153 15.708 82.3847 15.5615C82.4924 15.3955 82.396 14.7047 82.2524 14.5656C82.0746 14.4171 81.8599 14.3195 81.6311 14.283C81.3041 14.1938 80.9632 14.1672 80.6263 14.2045C80.3231 14.2453 80.0285 14.3346 79.7538 14.4692C79.4668 14.5965 79.2263 14.8097 79.0652 15.0792C78.992 15.1934 78.9268 15.3126 78.8701 15.4359C78.8006 15.613 78.7176 15.7252 78.4955 15.7207C77.7217 15.7207 76.9457 15.7207 76.1719 15.7207C76.0967 15.7158 76.0218 15.7068 75.9476 15.6938C75.9992 15.5233 76.0396 15.3686 76.0979 15.2205C76.1672 15.0289 76.2496 14.8423 76.3446 14.662C76.4648 14.4507 76.5989 14.2477 76.7461 14.0542C76.9264 13.798 77.1258 13.5558 77.3427 13.3298C77.5602 13.1259 77.7968 12.9434 78.0492 12.7847C78.3184 12.6098 78.6077 12.4595 78.8925 12.3092C79.0023 12.2511 79.1192 12.2073 79.2402 12.1791C79.4892 12.1231 79.7448 12.0894 79.996 12.0289C80.8214 11.8337 81.6603 11.9167 82.4969 11.9145C82.8812 11.9208 83.2612 11.9968 83.6183 12.1388C83.8904 12.2127 84.1542 12.3141 84.4056 12.4416C84.7416 12.6296 85.02 12.9056 85.2108 13.24C85.3502 13.5015 85.436 13.7881 85.4634 14.083C85.4907 14.378 85.459 14.6755 85.3701 14.9581C85.2983 15.216 85.2602 15.4807 85.1974 15.7409C85.1346 16.0011 85.0561 16.2702 84.9843 16.5349C84.9843 16.5595 84.9663 16.5842 84.9619 16.6089C84.8654 17.0328 84.7734 17.4567 84.677 17.8806C84.6164 18.2289 84.5302 18.5723 84.4191 18.9079C84.3596 19.1044 84.3213 19.3066 84.3047 19.5112C84.2733 19.6111 84.2367 19.7091 84.1948 19.805C84.1118 20.0921 84.0266 20.377 83.9548 20.6663C83.8024 21.1978 83.7529 21.7536 83.809 22.3036C83.8225 22.3844 83.9122 22.4494 83.9481 22.5279C84.0007 22.6413 84.0405 22.7602 84.0669 22.8823C84.0894 23.0034 84.0064 23.064 83.892 23.0707C83.7193 23.0707 83.5488 23.0842 83.3761 23.0864C82.9926 23.0864 82.6068 23.0864 82.2233 23.0864C81.8397 23.0864 81.4876 23.1201 81.1175 23.1268C80.9941 23.1268 80.8932 23.0819 80.8932 22.916C80.8932 22.6648 80.8932 22.4135 80.8932 22.1623C80.9022 22.0749 80.8775 21.9964 80.8663 21.8797ZM78.4888 21.2719C78.9489 21.2715 79.4038 21.1736 79.8233 20.9848C80.0109 20.927 80.1864 20.8359 80.3415 20.7157C80.689 20.4644 80.9839 20.1474 81.2095 19.7826C81.3369 19.5412 81.4428 19.2891 81.5257 19.029C81.5864 18.7851 81.6336 18.538 81.667 18.2888C81.667 18.2709 81.685 18.2552 81.6894 18.2372C81.7119 18.1498 81.7321 18.0623 81.7523 17.9748C81.6451 17.9664 81.5373 17.9717 81.4315 17.9905C81.2072 18.0511 81.0121 18.161 80.7945 18.2148C80.4401 18.2888 80.0768 18.327 79.7179 18.3785C79.6521 18.386 79.5869 18.398 79.5228 18.4144C79.1886 18.5199 78.8499 18.6387 78.5225 18.7329C78.2954 18.7927 78.0914 18.9193 77.9371 19.0963C77.7128 19.3497 77.4705 19.5987 77.4593 19.9733C77.447 20.0244 77.4257 20.073 77.3965 20.1168C77.3526 20.2805 77.353 20.4529 77.3975 20.6165C77.442 20.78 77.5291 20.9288 77.65 21.0476C77.7679 21.1389 77.9028 21.2057 78.0468 21.2442C78.1908 21.2828 78.3411 21.2922 78.4888 21.2719V21.2719Z" fill="white"/>
<path d="M36.7724 21.873C36.5369 22.0457 36.344 22.1937 36.1422 22.3216C35.9403 22.4494 35.7721 22.5458 35.5792 22.6647C35.2944 22.824 35.0005 22.972 34.7112 23.1133H34.6731C34.3905 23.1649 34.1101 23.221 33.8275 23.2658C33.5296 23.3348 33.2249 23.3701 32.9191 23.3712C32.4613 23.3392 32.0092 23.2503 31.5734 23.1066C31.3022 23.0085 31.0552 22.8534 30.849 22.6519C30.6428 22.4503 30.4821 22.2069 30.3779 21.938C30.2523 21.607 30.2003 21.2527 30.2254 20.8996C30.25 20.4904 30.3338 20.0869 30.4743 19.7018C30.6602 19.1421 30.9664 18.63 31.3715 18.2013C31.6036 17.9485 31.8548 17.7138 32.1229 17.4993C32.3796 17.3367 32.6506 17.1978 32.9326 17.0844C33.1165 16.9991 33.3049 16.9184 33.4978 16.8601C33.655 16.8016 33.8171 16.7573 33.9822 16.7277C34.3299 16.6717 34.6776 16.6358 35.0252 16.5842C35.5029 16.5124 35.9807 16.4339 36.4562 16.3599C36.542 16.3446 36.6291 16.3371 36.7164 16.3375C37.1063 16.3318 37.4898 16.2375 37.8378 16.0616C37.9707 15.9776 38.0814 15.863 38.1608 15.7274C38.3671 15.4515 38.3245 15.1241 38.2774 14.8302C38.2559 14.7517 38.219 14.6782 38.169 14.6139C38.1189 14.5496 38.0567 14.4959 37.9858 14.4557C37.4813 14.1954 36.9051 14.1087 36.3463 14.209C36.063 14.249 35.7908 14.3459 35.5461 14.4939C35.3013 14.642 35.089 14.838 34.922 15.0702C34.8471 15.1814 34.791 15.3042 34.7561 15.4336C34.7403 15.5155 34.6951 15.5888 34.629 15.6397C34.5629 15.6905 34.4804 15.7153 34.3972 15.7095C33.6234 15.7095 32.8473 15.7095 32.0735 15.7095C31.9971 15.703 31.9218 15.6872 31.8492 15.6624C31.8675 15.5864 31.8899 15.5115 31.9165 15.4381C31.9659 15.308 32.0376 15.1846 32.0803 15.0523C32.2014 14.6575 32.4683 14.3525 32.6724 14.0093C32.9716 13.5609 33.3457 13.1671 33.7781 12.8453C34.0393 12.6623 34.3218 12.5116 34.6192 12.3967C34.7314 12.3428 34.8435 12.307 34.9691 12.2643C35.171 12.1881 35.3729 12.1133 35.5747 12.0401C35.5941 12.039 35.6136 12.039 35.633 12.0401C36.3795 11.9131 37.1375 11.8665 37.8939 11.901C38.0929 11.895 38.2921 11.9002 38.4905 11.9167C38.7786 11.9402 39.0644 11.9867 39.3451 12.0558C39.7565 12.1591 40.1467 12.3337 40.4979 12.5716C40.8289 12.8089 41.0831 13.138 41.2291 13.5181C41.3466 13.8462 41.3836 14.1978 41.3368 14.5431C41.3006 14.8279 41.2444 15.1097 41.1685 15.3865C41.1042 15.6855 41.0295 15.9846 40.9442 16.2836C40.8792 16.5281 40.7962 16.7681 40.72 17.0103C40.72 17.0305 40.72 17.0507 40.72 17.0687C40.6213 17.5172 40.5271 17.9838 40.4239 18.4368C40.3499 18.7598 40.2669 19.0783 40.1861 19.399C40.1165 19.7504 40.0281 20.0978 39.9215 20.4398C39.7274 20.9971 39.6406 21.5861 39.6658 22.1758C39.663 22.2478 39.6777 22.3195 39.7085 22.3847C39.7394 22.4499 39.7855 22.5067 39.843 22.5503C39.9043 22.5965 39.9466 22.6635 39.9619 22.7387C39.9772 22.8139 39.9644 22.8921 39.926 22.9585C39.8968 23.0326 39.7376 23.0909 39.6366 23.0909C38.7395 23.0909 37.8602 23.0909 36.9743 23.0909C36.8218 23.0909 36.7612 23.046 36.7657 22.8868C36.7792 22.5571 36.7724 22.2363 36.7724 21.873ZM37.6427 17.8649C37.1941 18.0286 36.7769 18.2305 36.3104 18.2395H36.2924C35.8887 18.3202 35.4872 18.3987 35.0858 18.4839C34.9041 18.5221 34.7224 18.5669 34.5452 18.623C34.4375 18.6537 34.3348 18.6998 34.2402 18.7598C33.9366 18.9348 33.6832 19.1851 33.5045 19.4865C33.3518 19.7367 33.2646 20.0214 33.2511 20.3142C33.249 20.4884 33.2907 20.6603 33.3722 20.8143C33.4288 20.9333 33.5138 21.0365 33.6199 21.1148C33.7259 21.193 33.8496 21.2439 33.98 21.2629C34.4521 21.3183 34.9305 21.2661 35.3796 21.1104C35.6763 21.0089 35.9589 20.8702 36.2207 20.6977C36.5806 20.4646 36.881 20.1504 37.0977 19.7803C37.2168 19.5644 37.3188 19.3394 37.4027 19.1075C37.5014 18.7979 37.5687 18.4772 37.6382 18.1587C37.6501 18.0612 37.6516 17.9627 37.6427 17.8649V17.8649Z" fill="white"/>
<path d="M48.1556 21.7429C47.9784 21.9089 47.8349 22.0636 47.6712 22.1915C47.4578 22.367 47.233 22.5281 46.9983 22.6737C46.7176 22.8408 46.427 22.9906 46.128 23.1223C45.9531 23.1977 45.7679 23.2468 45.5785 23.2681C45.1072 23.335 44.6324 23.3739 44.1565 23.3847C43.8667 23.3437 43.5804 23.2815 43.2997 23.1986C42.9826 23.1329 42.6876 22.9869 42.4429 22.7746C42.1951 22.5672 41.994 22.3096 41.853 22.0188C41.5166 21.3953 41.5974 20.7246 41.6288 20.0697C41.6695 19.7752 41.7409 19.4858 41.8418 19.2062C41.853 19.1546 41.853 19.1008 41.8687 19.0492C41.9428 18.7711 42.0213 18.4929 42.093 18.2148L42.1065 18.1587C42.1514 17.8851 42.1917 17.6092 42.2456 17.3378C42.2814 17.1606 42.3465 16.9902 42.3891 16.813C42.4766 16.4676 42.5506 16.1177 42.6426 15.7723C42.6986 15.548 42.7794 15.3506 42.8489 15.1398C42.8489 15.1151 42.8489 15.0859 42.8624 15.0613C42.961 14.5925 43.0552 14.126 43.1584 13.6572C43.2324 13.323 43.3109 12.9843 43.3962 12.6569C43.4388 12.4954 43.4993 12.3361 43.5599 12.1522H46.4555C46.4106 12.3047 46.3703 12.4348 46.3321 12.5649C46.3241 12.59 46.3174 12.6154 46.312 12.6412C46.2626 12.9126 46.2222 13.1884 46.1594 13.4598C46.0966 13.7312 46.0092 13.9578 45.9351 14.209C45.888 14.3772 45.8499 14.5499 45.8073 14.7181C45.7221 15.0366 45.6368 15.3551 45.5538 15.6736C45.5538 15.7117 45.5539 15.7521 45.5382 15.7902C45.4641 16.0796 45.3879 16.3689 45.3139 16.656C45.3139 16.6829 45.3139 16.7076 45.2982 16.7345C45.2174 17.0754 45.1322 17.4074 45.0559 17.7595C44.9954 18.0219 44.9483 18.2888 44.8877 18.5535C44.8271 18.8182 44.7419 19.1209 44.6634 19.4058C44.6513 19.464 44.6461 19.5235 44.6477 19.583C44.6354 19.7969 44.6751 20.0107 44.7634 20.206C44.8517 20.4013 44.9859 20.5723 45.1546 20.7044C45.3042 20.8032 45.4779 20.859 45.657 20.8659C46.0208 20.8861 46.3855 20.8861 46.7493 20.8659C46.89 20.8506 47.0264 20.8079 47.1508 20.7403C47.6398 20.5089 48.0626 20.1579 48.3799 19.7198C48.5036 19.5226 48.6109 19.3155 48.7007 19.1008C48.8267 18.8247 48.9142 18.5326 48.9608 18.2328C49.0393 17.8447 49.1851 17.4702 49.3018 17.0866C49.313 17.0507 49.3018 17.0081 49.3219 16.97C49.396 16.6919 49.4745 16.416 49.5462 16.1379C49.5462 16.1177 49.5462 16.0975 49.5462 16.0796C49.6449 15.6108 49.7369 15.1398 49.8401 14.6733C49.9025 14.3214 49.9872 13.9738 50.0935 13.6325C50.2051 13.3122 50.2884 12.9828 50.3425 12.6479C50.3829 12.4811 50.4362 12.3176 50.5017 12.159H53.4265L53.2941 12.5492C53.2871 12.5674 53.2819 12.5861 53.2784 12.6053C53.2224 12.8812 53.1797 13.1593 53.1125 13.4307C53.0541 13.655 52.9689 13.8793 52.8882 14.1148C52.8871 14.1215 52.8871 14.1283 52.8882 14.135C52.8411 14.3951 52.8029 14.6598 52.7424 14.92C52.6818 15.1802 52.6078 15.3686 52.5383 15.5928C52.5302 15.611 52.5235 15.6298 52.5181 15.6489C52.4643 15.9226 52.4216 16.1984 52.3544 16.4698C52.2983 16.6941 52.2131 16.9184 52.1301 17.1427L52.1166 17.201C52.0673 17.4814 52.0291 17.764 51.9686 18.0421C51.8878 18.401 51.8093 18.7621 51.6949 19.1097C51.5798 19.4285 51.4986 19.7586 51.4527 20.0944C51.4088 20.2988 51.3433 20.498 51.2576 20.6887C51.2503 20.7138 51.2443 20.7393 51.2396 20.765C51.1836 21.0521 51.1387 21.3414 51.0669 21.6263C51.0109 21.8506 50.9144 22.0749 50.8426 22.3171C50.7888 22.5122 50.7596 22.7141 50.7103 22.9092C50.6968 22.9631 50.6475 23.0438 50.6094 23.046C50.3716 23.0662 50.1294 23.0707 49.8894 23.073C49.5328 23.073 49.1762 23.073 48.8173 23.073C48.593 23.073 48.3687 23.1088 48.1444 23.1111C48.0968 23.1078 48.0511 23.0915 48.0121 23.064C47.9731 23.0365 47.9425 22.9988 47.9235 22.9551C47.9045 22.9113 47.8979 22.8632 47.9045 22.8159C47.911 22.7687 47.9304 22.7241 47.9605 22.6872C47.9605 22.6872 47.9874 22.6737 47.9897 22.6647C48.0614 22.3799 48.2633 22.104 48.1556 21.7429Z" fill="white"/>
<path d="M57.4365 8.34149C57.8469 8.34149 58.2574 8.34149 58.6678 8.34149C58.8204 8.34149 58.8787 8.38635 58.8428 8.53438C58.7665 8.8596 58.6858 9.18258 58.6185 9.50556C58.5736 9.68948 58.5243 9.8734 58.4839 10.0573C58.4301 10.3153 58.392 10.5777 58.3269 10.8311C58.2619 11.0846 58.1744 11.3111 58.1026 11.5511C58.0533 11.726 58.0174 11.9032 57.977 12.0804C57.921 12.3339 57.8761 12.5896 57.811 12.8408C57.746 13.092 57.663 13.3297 57.5868 13.5742C57.5855 13.5801 57.5855 13.5862 57.5868 13.5921C57.5419 13.8164 57.5015 14.0564 57.4522 14.2874C57.4028 14.5185 57.3356 14.7966 57.275 15.05C57.2548 15.1375 57.2257 15.2227 57.1987 15.3102C57.1202 15.5861 57.044 15.862 56.9744 16.1378C56.9744 16.1625 56.9632 16.1894 56.9587 16.2141C56.9116 16.4653 56.8735 16.7165 56.813 16.9632C56.7031 17.4118 56.5752 17.8447 56.4631 18.2866C56.4025 18.5266 56.3666 18.771 56.3061 19.011C56.2455 19.251 56.1625 19.4843 56.0952 19.722C56.0489 19.891 56.0063 20.0592 55.9674 20.2267C55.9091 20.4846 55.8642 20.7448 55.7992 21.0027C55.7341 21.2607 55.6579 21.4805 55.5861 21.7205C55.5861 21.7451 55.5726 21.772 55.5681 21.7967C55.5233 22.0636 55.4829 22.3283 55.4268 22.5929C55.3965 22.7282 55.3537 22.8603 55.299 22.9877C55.288 23.0069 55.2732 23.0236 55.2554 23.0367C55.2377 23.0498 55.2174 23.0591 55.1958 23.064C55.1216 23.0753 55.0466 23.0806 54.9715 23.0797C54.2179 23.0954 53.4665 23.1178 52.7129 23.1223C52.6561 23.1251 52.5993 23.1162 52.546 23.0961C52.4928 23.0761 52.4442 23.0453 52.4034 23.0056C52.3608 22.9406 52.4213 22.7971 52.4505 22.6916C52.4954 22.5234 52.5626 22.3619 52.6008 22.1915C52.6658 21.9111 52.7062 21.6218 52.7757 21.3414C52.834 21.0969 52.9193 20.8592 53 20.6192C53.0056 20.6 53.01 20.5805 53.0135 20.5609C53.0651 20.285 53.1099 20.0091 53.1682 19.7355C53.1974 19.6009 53.2602 19.4731 53.2916 19.3385C53.3255 19.126 53.3712 18.9156 53.4284 18.7082C53.5381 18.3786 53.6191 18.0402 53.6706 17.6967C53.7397 17.3497 53.8304 17.0074 53.942 16.6717C54.0499 16.3516 54.1302 16.023 54.182 15.6893C54.2284 15.479 54.2914 15.2728 54.3704 15.0725C54.3704 15.0411 54.3906 15.0097 54.3996 14.9783C54.496 14.5297 54.57 14.0811 54.6979 13.6325C54.7973 13.2976 54.8789 12.9577 54.9424 12.6142C55.0029 12.2688 55.1083 11.9414 55.1936 11.5892C55.2788 11.2371 55.3371 10.9164 55.4493 10.5799C55.5614 10.2435 55.6242 9.90704 55.705 9.57061C55.7857 9.23417 55.8956 8.89773 55.9562 8.5456C55.959 8.51609 55.9676 8.48742 55.9815 8.46127C55.9955 8.43511 56.0145 8.41198 56.0374 8.39321C56.0604 8.37444 56.0868 8.3604 56.1152 8.35191C56.1436 8.34342 56.1734 8.34064 56.2029 8.34374C56.6201 8.34374 57.0372 8.34374 57.4544 8.34374L57.4365 8.34149Z" fill="white"/>
<path d="M90.4793 13.8232C90.6318 13.6236 90.7709 13.415 90.9391 13.2311C91.0922 13.067 91.2596 12.9169 91.4393 12.7825C91.695 12.5896 91.9619 12.4057 92.2332 12.2374C92.427 12.1388 92.6298 12.0592 92.8388 11.9997C93.2874 11.8337 93.7225 11.9167 94.1622 11.8943C94.2219 11.8905 94.2818 11.8905 94.3416 11.8943C94.3102 12.1186 94.4066 12.3429 94.2362 12.5672C94.2137 12.5941 94.225 12.6434 94.2137 12.6815C94.1375 12.9888 94.0567 13.2939 93.9894 13.6011C93.9715 13.6729 93.9737 13.7469 93.958 13.8254C93.9132 14.0497 93.8706 14.274 93.81 14.4983C93.7682 14.6076 93.7148 14.7121 93.6508 14.8101C93.2672 14.8101 92.8456 14.7921 92.4239 14.8101C92.15 14.8152 91.8785 14.8621 91.6187 14.9491C91.3627 15.0706 91.1161 15.2108 90.8808 15.3686C90.4322 15.6175 90.1787 16.0414 89.932 16.4676C89.8064 16.7364 89.7116 17.0185 89.6494 17.3087C89.5761 17.5464 89.5014 17.7842 89.4251 18.0219C89.4117 18.0668 89.4072 18.1139 89.396 18.1587C89.3152 18.4638 89.2367 18.7688 89.1582 19.0761C89.147 19.114 89.1402 19.1532 89.138 19.1927C89.1064 19.4944 89.0308 19.7898 88.9137 20.0697C88.8591 20.2447 88.8156 20.423 88.7837 20.6035C88.7276 20.8637 88.6805 21.1283 88.6154 21.3863C88.5504 21.6442 88.4674 21.9021 88.3911 22.1601C88.3863 22.1785 88.3826 22.1973 88.3799 22.2162C88.3351 22.4584 88.2947 22.7029 88.2409 22.9429C88.2409 22.9877 88.1758 23.0281 88.131 23.0528C87.9313 23.1672 87.7228 23.0797 87.5164 23.0774H85.6279C85.3296 23.0774 85.2488 22.9429 85.3632 22.6535C85.4103 22.5347 85.4283 22.4023 85.4664 22.279C85.5359 22.0547 85.6099 21.8304 85.6907 21.6061C85.6907 21.6061 85.6907 21.5837 85.7019 21.5702C85.7512 21.31 85.7916 21.0476 85.8477 20.7874C85.9038 20.5272 85.9666 20.3007 86.0271 20.0585C86.0518 19.9643 86.0787 19.8723 86.1056 19.7781C86.1774 19.5359 86.2469 19.2936 86.3299 19.0537C86.3299 19.0335 86.3456 19.0155 86.3501 18.9976C86.3994 18.7262 86.4376 18.4526 86.5004 18.1834C86.5632 17.9143 86.6349 17.6989 86.7045 17.4589C86.7179 17.4141 86.7336 17.3715 86.7448 17.3266C86.8233 17.0216 86.9041 16.7165 86.9826 16.4093C86.9938 16.3666 86.9826 16.3173 86.9961 16.2724C87.0656 15.9988 87.1374 15.7252 87.2069 15.4515C87.2562 15.2564 87.3101 15.0635 87.3527 14.8661C87.4132 14.6015 87.4581 14.3323 87.5231 14.0677C87.5882 13.803 87.6712 13.5428 87.7474 13.2782C87.7968 13.0942 87.8371 12.9058 87.8842 12.7174C87.9313 12.529 87.9605 12.3877 88.0166 12.2285C88.0278 12.1926 88.1063 12.1589 88.1556 12.1589C88.9765 12.1589 89.7974 12.1589 90.6228 12.1589C90.7843 12.1589 90.8269 12.2217 90.7552 12.3653C90.7338 12.4134 90.718 12.4638 90.7081 12.5156C90.652 12.7802 90.6004 13.0471 90.5399 13.3118C90.5107 13.4419 90.4613 13.5697 90.4322 13.6976C90.4317 13.7402 90.4409 13.7824 90.4591 13.8209L90.4793 13.8232Z" fill="white"/>
<path d="M105.955 19.7422C106.155 19.7057 106.361 19.7185 106.555 19.7795C106.749 19.8406 106.925 19.948 107.068 20.0925C107.211 20.2371 107.316 20.4143 107.375 20.6089C107.434 20.8035 107.445 21.0095 107.406 21.2091C107.366 21.5601 107.244 21.8967 107.049 22.1915C106.771 22.6535 106.354 22.8846 105.928 23.1223C105.647 23.2671 105.327 23.3219 105.014 23.2794C104.7 23.2369 104.407 23.0991 104.174 22.8846C103.992 22.7051 103.788 22.5078 103.824 22.2117C103.824 22.1534 103.786 22.0906 103.768 22.03C103.745 21.9771 103.733 21.9197 103.734 21.8618C103.791 21.6375 103.876 21.4379 103.918 21.2203C103.979 20.9153 104.203 20.7157 104.367 20.4824C104.469 20.3492 104.595 20.2365 104.739 20.1505C105.125 19.8992 105.513 19.6705 105.955 19.7422ZM105.058 20.543C104.908 20.5048 104.708 20.6484 104.589 20.8615C104.475 21.0781 104.376 21.3031 104.295 21.5343C104.149 21.9358 104.295 22.2207 104.519 22.5145C104.591 22.6159 104.689 22.6956 104.803 22.7447C104.917 22.7937 105.043 22.8103 105.165 22.7926C105.315 22.795 105.465 22.7898 105.614 22.7769C105.767 22.735 105.917 22.6825 106.063 22.6199L106.051 22.5571C105.984 22.5441 105.917 22.5276 105.852 22.5078C105.814 22.4965 105.76 22.4763 105.746 22.4472C105.65 22.2274 105.564 22.0029 105.491 21.7743C105.45 21.633 105.363 21.6442 105.266 21.6465C105.17 21.6487 105.121 21.6801 105.105 21.7967C105.072 22.0107 105.027 22.2226 104.97 22.4315C104.963 22.4516 104.951 22.4695 104.935 22.4836C104.919 22.4977 104.899 22.5075 104.878 22.5122C104.791 22.5122 104.634 22.5122 104.625 22.4898C104.599 22.3837 104.599 22.2729 104.625 22.1668C104.653 22.0649 104.687 21.9646 104.726 21.8663C104.744 21.7967 104.742 21.7227 104.759 21.6532C104.831 21.3751 104.91 21.0992 104.984 20.8233C105.008 20.7336 105.031 20.6484 105.06 20.543H105.058ZM105.883 21.6936C105.964 21.9179 106.04 22.1108 106.107 22.3104C106.113 22.3353 106.125 22.3583 106.142 22.3773C106.16 22.3963 106.181 22.4107 106.205 22.4192C106.229 22.4277 106.255 22.43 106.281 22.4259C106.306 22.4217 106.33 22.4113 106.35 22.3956C106.682 22.061 106.905 21.6331 106.989 21.1687C107.003 21.1242 107.003 21.0764 106.989 21.0319C106.843 20.7224 106.787 20.359 106.388 20.211C106.123 20.1101 105.491 20.0944 105.266 20.2761C105.253 20.2931 105.243 20.313 105.237 20.3343C105.232 20.3556 105.231 20.3778 105.235 20.3994C105.24 20.4168 105.249 20.4326 105.261 20.4456C105.274 20.4585 105.29 20.4681 105.307 20.4734C105.365 20.4707 105.422 20.4647 105.479 20.4555C105.605 20.4555 105.733 20.4555 105.856 20.4555C105.945 20.4782 106.036 20.4947 106.128 20.5048C106.289 20.4914 106.451 20.5676 106.469 20.6865C106.512 20.88 106.488 21.0825 106.401 21.2607C106.253 21.431 106.079 21.5771 105.885 21.6936H105.883ZM105.704 20.7381C105.372 20.7762 105.374 20.7045 105.331 21.0723C105.333 21.085 105.333 21.0977 105.331 21.1104C105.322 21.1422 105.321 21.1759 105.328 21.2081C105.336 21.2404 105.352 21.2701 105.375 21.2942C105.397 21.3184 105.426 21.3361 105.458 21.3455C105.49 21.355 105.523 21.3559 105.556 21.3482C105.677 21.3257 105.8 21.3011 105.921 21.2697C105.966 21.2601 106.007 21.238 106.04 21.206C106.073 21.1739 106.096 21.1332 106.107 21.0885C106.117 21.0439 106.115 20.9972 106.1 20.9538C106.085 20.9104 106.058 20.8722 106.022 20.8435C105.924 20.7908 105.817 20.7551 105.706 20.7381H105.704Z" fill="white"/>
<path d="M114.568 30.331C115.081 30.5149 114.973 30.9164 114.96 31.2798C114.96 31.3224 114.884 31.3695 114.834 31.3986C114.785 31.4278 114.758 31.3986 114.718 31.3986C114.269 31.3986 114.269 31.3986 114.238 30.9501C114.238 30.8677 114.206 30.7886 114.149 30.7297C114.091 30.6709 114.013 30.6372 113.931 30.636C113.747 30.6226 113.56 30.636 113.377 30.636C113.264 30.636 113.206 30.6831 113.211 30.802C113.221 30.9513 113.221 31.1013 113.211 31.2506C113.211 31.3044 113.125 31.347 113.078 31.3941C113.078 31.3941 113.065 31.3941 113.058 31.3941C112.477 31.4345 112.473 31.4345 112.473 30.8581C112.473 30.165 112.473 29.4697 112.473 28.7767C112.473 28.5726 112.535 28.503 112.742 28.5008C113.251 28.5008 113.762 28.4739 114.269 28.5008C114.364 28.4962 114.458 28.511 114.547 28.5445C114.636 28.578 114.717 28.6294 114.785 28.6954C114.852 28.7615 114.906 28.8408 114.942 28.9285C114.978 29.0162 114.996 29.1103 114.994 29.2051C114.994 29.3352 114.994 29.4675 114.994 29.5998C115.007 29.71 114.99 29.8219 114.943 29.9227C114.896 30.0234 114.822 30.1089 114.729 30.1695C114.672 30.2202 114.618 30.2741 114.568 30.331ZM113.67 30.008C113.744 30.008 113.816 30.008 113.895 30.008C113.968 30.02 114.042 30.0034 114.103 29.9616C114.164 29.9198 114.207 29.8561 114.222 29.7837C114.263 29.6841 114.272 29.5738 114.245 29.4692C114.219 29.3646 114.16 29.2712 114.076 29.2028C113.834 29.066 113.576 29.1288 113.323 29.149C113.28 29.149 113.229 29.2477 113.211 29.3082C113.2 29.3826 113.2 29.4582 113.211 29.5325C113.199 30.0035 113.199 30.0035 113.682 30.0192L113.67 30.008Z" fill="white"/>
<path d="M96.2456 30.3355L96.4452 30.4252C96.6359 30.5127 96.7862 31.1833 96.6292 31.3381C96.5942 31.3736 96.5484 31.3965 96.4991 31.4031C96.4004 31.4031 96.3017 31.4031 96.2008 31.4031C95.9518 31.4031 95.9047 31.3583 95.8845 31.1071C95.8733 30.9478 95.898 30.7617 95.7163 30.6876C95.5933 30.6476 95.4642 30.6302 95.335 30.6361C94.9066 30.6361 94.9537 30.6091 94.9515 31.0218C94.9515 31.3987 94.9515 31.4009 94.5724 31.4009C94.1507 31.4009 94.2046 31.439 94.2023 31.0308C94.2023 30.2832 94.2023 29.5296 94.2023 28.77C94.2023 28.5053 94.2023 28.5031 94.467 28.5031C94.8909 28.5031 95.3148 28.5031 95.7365 28.5031C96.0247 28.5001 96.3054 28.595 96.5327 28.7722C96.5863 28.8237 96.6291 28.8853 96.6587 28.9534C96.6884 29.0216 96.7042 29.0949 96.7054 29.1692C96.7485 29.4349 96.7207 29.7072 96.6247 29.9587C96.5327 30.1359 96.3421 30.1538 96.2456 30.3355ZM95.3798 30.0193C95.8643 30.0193 95.9361 29.9475 95.8733 29.4608C95.872 29.4549 95.872 29.4487 95.8733 29.4428C95.8733 29.2342 95.7387 29.1602 95.5503 29.1513H95.3911C94.9156 29.1513 94.9425 29.1266 94.9425 29.5864C94.9425 30.0462 94.9492 30.0036 95.3798 30.0193Z" fill="white"/>
<path d="M117.685 31.4009C117.506 31.4009 117.329 31.4009 117.149 31.4009C117.054 31.4026 116.959 31.3829 116.871 31.3433C116.784 31.3037 116.707 31.2451 116.645 31.1718C116.584 31.0985 116.539 31.0124 116.515 30.9197C116.491 30.827 116.488 30.7301 116.506 30.6361C116.506 30.5979 116.542 30.5351 116.566 30.5329C116.696 30.5194 116.831 30.5329 116.963 30.5149C117.029 30.5049 117.096 30.5205 117.151 30.5585C117.205 30.5964 117.243 30.6539 117.257 30.719C117.257 30.719 117.273 30.7504 117.277 30.7504C117.502 30.7123 117.692 30.9568 117.93 30.8133C118.024 30.7549 118.181 30.8133 118.188 30.6069C118.188 30.331 118.143 30.2548 117.865 30.2503C117.641 30.2503 117.416 30.2503 117.192 30.2503C117.103 30.2521 117.014 30.236 116.93 30.203C116.847 30.17 116.771 30.1207 116.707 30.058C116.644 29.9954 116.593 29.9206 116.558 29.8381C116.523 29.7555 116.506 29.6669 116.506 29.5774C116.506 29.4451 116.506 29.3127 116.506 29.1804C116.503 29.0104 116.568 28.8464 116.686 28.7242C116.804 28.6019 116.966 28.5313 117.136 28.5277C117.5 28.5076 117.864 28.5076 118.228 28.5277C118.32 28.5276 118.411 28.5462 118.495 28.5823C118.579 28.6185 118.655 28.6715 118.718 28.7381C118.781 28.8047 118.83 28.8834 118.861 28.9695C118.893 29.0556 118.906 29.1472 118.901 29.2387C118.901 29.3598 118.85 29.4025 118.735 29.3957C118.621 29.389 118.495 29.3957 118.376 29.3957C118.257 29.3957 118.168 29.3957 118.141 29.2455C118.131 29.222 118.116 29.201 118.097 29.1843C118.078 29.1675 118.055 29.1555 118.031 29.149C117.814 29.1344 117.595 29.1344 117.378 29.149C117.21 29.1692 117.259 29.3284 117.255 29.4406C117.25 29.5527 117.291 29.6357 117.419 29.6402C117.546 29.6447 117.672 29.6402 117.795 29.6649C118.08 29.7008 118.367 29.7344 118.648 29.7905C118.694 29.8002 118.737 29.8192 118.776 29.8461C118.814 29.8731 118.847 29.9076 118.872 29.9475C118.971 30.0954 119.031 30.2658 119.046 30.4429C119.062 30.6201 119.033 30.7983 118.962 30.9613C118.814 31.3022 118.547 31.3785 118.237 31.4099C118.059 31.4188 117.88 31.4188 117.701 31.4099L117.685 31.4009Z" fill="white"/>
<path d="M99.5026 28.512C99.6416 28.512 99.7807 28.512 99.9175 28.512C99.9774 28.5087 100.036 28.5281 100.082 28.5663C100.129 28.6046 100.159 28.6589 100.166 28.7183C100.247 29.0324 100.33 29.3464 100.429 29.6536C100.575 30.1022 100.734 30.5508 100.877 30.9994C100.887 31.0241 100.893 31.0497 100.898 31.0756C100.965 31.3762 100.947 31.4009 100.642 31.4076C100.561 31.4076 100.483 31.4076 100.404 31.4076C100.375 31.4121 100.344 31.4102 100.315 31.402C100.287 31.3939 100.26 31.3797 100.237 31.3603C100.214 31.341 100.195 31.3171 100.183 31.29C100.17 31.263 100.163 31.2335 100.162 31.2035C100.162 31.1592 100.153 31.1154 100.135 31.0749C100.117 31.0345 100.091 30.9984 100.058 30.969C100.024 30.9397 99.9853 30.9178 99.943 30.9048C99.9006 30.8919 99.856 30.8882 99.8121 30.894H99.2267C99.1844 30.8872 99.1412 30.89 99.1002 30.9021C99.0592 30.9142 99.0214 30.9353 98.9895 30.9639C98.9577 30.9925 98.9327 31.0279 98.9163 31.0674C98.8999 31.1069 98.8925 31.1496 98.8947 31.1923C98.879 31.3381 98.8185 31.4166 98.6704 31.4031C98.5224 31.3897 98.4058 31.4031 98.2757 31.4031C98.1456 31.4031 98.103 31.347 98.1344 31.2326C98.2039 30.9904 98.2802 30.7482 98.3587 30.5082C98.4058 30.3557 98.4596 30.2032 98.5 30.0596C98.6031 29.6649 98.7041 29.2679 98.7983 28.8709C98.8678 28.586 98.953 28.512 99.2469 28.512C99.3321 28.512 99.4173 28.512 99.5048 28.512H99.5026ZM99.5183 30.3871C99.5929 30.3918 99.6679 30.3918 99.7425 30.3871C99.8951 30.3714 99.9511 30.2794 99.8928 30.1426C99.7704 29.9023 99.69 29.6429 99.6551 29.3755C99.6551 29.3351 99.5811 29.2566 99.5586 29.2634C99.5021 29.2804 99.4545 29.3191 99.4263 29.371C99.4081 29.434 99.3961 29.4986 99.3904 29.5639C99.3366 29.7478 99.2783 29.9295 99.2222 30.1134C99.202 30.1852 99.1549 30.2682 99.1773 30.322C99.1998 30.3759 99.2985 30.3803 99.3657 30.3938C99.4167 30.3976 99.4679 30.3954 99.5183 30.3871V30.3871Z" fill="white"/>
<path d="M108.642 29.9519C108.642 29.5505 108.642 29.1467 108.642 28.743C108.642 28.5793 108.689 28.503 108.866 28.5053C109.405 28.5053 109.941 28.5053 110.477 28.5053C110.569 28.5053 110.715 28.5636 110.737 28.6286C110.778 28.7593 110.778 28.8994 110.737 29.0301C110.719 29.0817 110.553 29.1019 110.452 29.1041C110.163 29.1041 109.871 29.1041 109.58 29.1041C109.391 29.1041 109.32 29.2051 109.355 29.3957C109.355 29.4383 109.335 29.4966 109.355 29.5258C109.376 29.5549 109.461 29.6693 109.517 29.6693C109.813 29.6693 110.109 29.6559 110.414 29.6559C110.638 29.6559 110.665 29.7321 110.67 30.0237C110.67 30.2121 110.58 30.248 110.423 30.248C110.138 30.248 109.853 30.248 109.569 30.248C109.416 30.248 109.324 30.3938 109.331 30.6226C109.331 30.7706 109.443 30.7796 109.555 30.7796C109.887 30.7796 110.228 30.7796 110.549 30.7796C110.726 30.7796 110.773 30.8379 110.773 31.0039C110.773 31.4525 110.829 31.4031 110.371 31.4076C109.869 31.4076 109.364 31.4076 108.862 31.4076C108.689 31.4076 108.638 31.3605 108.638 31.1833C108.649 30.7728 108.638 30.3624 108.638 29.9519H108.642Z" fill="white"/>
<path d="M91.0421 31.4054V30.3445C91.0421 30.0147 91.0421 29.685 91.0421 29.3531C91.0421 29.1961 90.9905 29.1288 90.8178 29.1288C90.6451 29.1288 90.468 29.1288 90.2952 29.1288C90.2481 28.5389 90.2526 28.4918 90.7977 28.5008C91.3068 28.5008 91.8159 28.5008 92.3251 28.5008C92.5494 28.5008 92.6279 28.586 92.5875 28.8036C92.5225 29.1333 92.5225 29.1333 92.186 29.1288C92.133 29.1243 92.0798 29.1243 92.0268 29.1288C91.9905 29.1269 91.9543 29.1333 91.9208 29.1473C91.8873 29.1613 91.8574 29.1827 91.8333 29.2098C91.8092 29.2369 91.7915 29.2691 91.7815 29.304C91.7715 29.3389 91.7695 29.3756 91.7756 29.4114C91.7756 30.0058 91.7756 30.6001 91.7756 31.2057C91.7756 31.3583 91.7352 31.43 91.5759 31.4076C91.4167 31.3852 91.2485 31.4054 91.0421 31.4054Z" fill="white"/>
<path d="M105.103 29.952C105.103 29.5482 105.103 29.1468 105.103 28.743C105.103 28.5748 105.157 28.4918 105.327 28.5075C105.399 28.5075 105.473 28.5075 105.552 28.5075C105.796 28.5075 105.854 28.5658 105.854 28.8103C105.854 29.3867 105.854 29.9609 105.854 30.5374C105.854 30.7146 105.908 30.7818 106.092 30.7729C106.35 30.7594 106.61 30.7729 106.868 30.7729C106.989 30.7729 107.027 30.82 107.036 30.9344C107.075 31.4099 107.077 31.4099 106.608 31.4099C106.18 31.4099 105.749 31.4099 105.318 31.4099C105.168 31.4099 105.108 31.3672 105.112 31.208C105.112 30.7908 105.112 30.3736 105.112 29.9564L105.103 29.952Z" fill="white"/>
<path d="M102.56 29.9542C102.56 29.5438 102.56 29.1355 102.56 28.7251C102.56 28.5726 102.604 28.4829 102.784 28.5008H102.804C103.293 28.5008 103.331 28.5008 103.322 28.9942C103.309 29.7142 103.322 30.4342 103.322 31.1519C103.322 31.3471 103.255 31.4031 103.069 31.4031C102.575 31.4031 102.573 31.4031 102.571 30.9187V29.9475L102.56 29.9542Z" fill="white"/>
</g>
</svg>
