<svg width="40" height="30" viewBox="0 0 40 30" fill="none" xmlns="http://www.w3.org/2000/svg">
<path d="M38.6609 23.6825H38.6177V20.1836C38.6177 11.4514 32.5173 3.88297 24.0446 2.00711C23.9996 1.55562 23.8063 1.13562 23.4852 0.803203C23.0991 0.403672 22.5806 0.183594 22.025 0.183594H17.975C17.4194 0.183594 16.9009 0.403672 16.5148 0.803203C16.1938 1.13562 16.0004 1.55562 15.9554 2.00711C7.48273 3.88297 1.38227 11.4514 1.38227 20.1836V23.6825H1.33906C0.600625 23.6825 0 24.2832 0 25.0216V25.9026C0 26.4857 0.368828 26.998 0.917734 27.1774C6.1225 28.8792 12.8995 29.8164 20 29.8164C27.1005 29.8164 33.8775 28.8792 39.0823 27.1774C39.6312 26.998 40 26.4857 40 25.9026V25.0216C40 24.2832 39.3993 23.6825 38.6609 23.6825ZM17.4469 1.70359C17.5865 1.55914 17.7741 1.47945 17.975 1.47945H22.0249C22.2259 1.47945 22.4134 1.55898 22.553 1.70359C22.6927 1.84812 22.7658 2.03836 22.7588 2.23914L22.163 19.5177C22.1493 19.9154 21.827 20.2269 21.4291 20.2269H18.5709C18.1731 20.2269 17.8508 19.9154 17.837 19.5178L17.2413 2.23922C17.2342 2.03828 17.3073 1.84812 17.4469 1.70359ZM38.7041 25.9027C38.7041 25.9202 38.6966 25.9402 38.6796 25.9458C33.6013 27.6061 26.9674 28.5205 20 28.5205C13.0326 28.5205 6.39867 27.6061 1.32047 25.9456C1.30352 25.9401 1.29594 25.9201 1.29594 25.9026V25.0216C1.29594 24.9977 1.31531 24.9784 1.33914 24.9784H26.2203C26.5781 24.9784 26.8683 24.6883 26.8683 24.3304C26.8683 23.9726 26.5782 23.6824 26.2203 23.6824H2.6782V20.1836C2.6782 13.6715 6.32484 7.85547 11.831 4.90453L13.237 14.7466C13.2832 15.0698 13.5603 15.303 13.8777 15.303C13.9081 15.303 13.939 15.3009 13.9701 15.2965C14.3244 15.2459 14.5705 14.9177 14.5199 14.5634L13.0551 4.30891C13.988 3.90047 14.9663 3.57164 15.9822 3.3307L16.542 19.5626C16.5798 20.6617 17.4711 21.5228 18.571 21.5228H21.4292C22.5291 21.5228 23.4203 20.6617 23.4583 19.5626L24.018 3.33078C25.0339 3.5718 26.0123 3.90062 26.9452 4.30898L25.4803 14.5635C25.4298 14.9178 25.6759 15.2459 26.0302 15.2966C26.0613 15.3009 26.0921 15.3031 26.1226 15.3031C26.4398 15.3031 26.717 15.0698 26.7633 14.7467L28.1692 4.90461C33.6754 7.85547 37.322 13.6714 37.322 20.1836V23.6825H33.1318C32.774 23.6825 32.4838 23.9726 32.4838 24.3305C32.4838 24.6883 32.7739 24.9784 33.1318 24.9784H38.6611C38.6849 24.9784 38.7043 24.9978 38.7043 25.0216V25.9027H38.7041Z" fill="#70B6F9"/>
<path d="M30.3672 23.6826H28.9849C28.6271 23.6826 28.3369 23.9727 28.3369 24.3306C28.3369 24.6884 28.627 24.9785 28.9849 24.9785H30.3672C30.725 24.9785 31.0152 24.6885 31.0152 24.3306C31.0152 23.9727 30.7251 23.6826 30.3672 23.6826Z" fill="#70B6F9"/>
<path d="M15.1126 18.7096L14.915 17.327C14.8644 16.9727 14.5364 16.7265 14.1819 16.7771C13.8276 16.8277 13.5815 17.1559 13.6321 17.5102L13.8296 18.8928C13.8758 19.216 14.1529 19.4492 14.4703 19.4492C14.5008 19.4492 14.5316 19.447 14.5627 19.4427C14.917 19.392 15.1632 19.0638 15.1126 18.7096Z" fill="#70B6F9"/>
<path d="M25.818 16.7774C25.4637 16.7267 25.1356 16.973 25.0849 17.3272L24.8874 18.7099C24.8369 19.0642 25.0831 19.3923 25.4373 19.4429C25.4683 19.4473 25.4992 19.4495 25.5297 19.4495C25.847 19.4495 26.1242 19.2162 26.1704 18.8931L26.3679 17.5104C26.4184 17.1562 26.1722 16.828 25.818 16.7774Z" fill="#70B6F9"/>
</svg>
