<svg width="64" height="64" viewBox="0 0 64 64" fill="none" xmlns="http://www.w3.org/2000/svg">
<circle cx="32" cy="32" r="32" fill="#16263E"/>
<g clip-path="url(#clip0)">
<path d="M46.6512 22.5171H37.2362V20.5417C37.2362 18.9334 35.9278 17.625 34.3195 17.625H28.6805C27.0722 17.625 25.7638 18.9334 25.7638 20.5417V22.5171H16.3488C15.0535 22.5171 14 23.5782 14 24.8823V45.0096C14 46.3139 15.0535 47.375 16.3488 47.375H46.6515C47.9465 47.375 49.0003 46.3139 49.0003 45.0099V24.8823C49 23.5782 47.9465 22.5171 46.6512 22.5171ZM26.9305 20.5417C26.9305 19.5765 27.7153 18.7917 28.6805 18.7917H34.3195C35.2847 18.7917 36.0695 19.5765 36.0695 20.5417V22.5171H26.9305V20.5417ZM15.1667 24.8823C15.1667 24.2213 15.6969 23.6838 16.3488 23.6838H46.6515C47.3031 23.6838 47.8336 24.2213 47.8336 24.8823V29.0898L35.3433 33.4587V32.0908C35.3433 31.7688 35.082 31.5075 34.76 31.5075H28.3693C28.0473 31.5075 27.7859 31.7688 27.7859 32.0908V33.4678L15.1667 29.089V24.8823ZM34.1766 32.6741V35.8661H28.9526V32.6741H34.1766ZM46.6512 46.2083H16.3488C15.6969 46.2083 15.1667 45.6708 15.1667 45.0099V30.3239L27.7859 34.703V36.4498C27.7859 36.7718 28.0473 37.0331 28.3693 37.0331H34.76C35.082 37.0331 35.3433 36.7718 35.3433 36.4498V34.6948L47.8333 30.3259V45.0099C47.8333 45.6708 47.3031 46.2083 46.6512 46.2083Z" fill="#70B6F9"/>
</g>
<defs>
<clipPath id="clip0">
<rect width="35" height="35" fill="white" transform="translate(14 15)"/>
</clipPath>
</defs>
</svg>
