<svg width="130" height="34" viewBox="0 0 130 34" fill="none" xmlns="http://www.w3.org/2000/svg">
<g opacity="0.7">
<path d="M0.00244141 0.616745L4.83214 0.63335C5.1168 0.63335 5.12391 0.63335 5.12391 0.934613C5.12391 3.08141 5.12391 5.2282 5.12391 7.375C5.12391 7.61221 5.12391 7.84943 5.10968 8.08664C5.11337 8.15664 5.13201 8.22503 5.16433 8.28722C5.19665 8.34942 5.24192 8.40397 5.29708 8.44721C5.3208 8.4733 5.38722 8.49465 5.40857 8.48042C5.61969 8.33098 5.8237 8.50414 6.03245 8.48042C6.2412 8.4567 6.48315 8.48042 6.70851 8.48042H14.8829C14.9863 8.45811 15.0873 8.42553 15.1842 8.38316C15.2488 8.36659 15.3165 8.36659 15.3811 8.38316C15.6183 8.47093 15.763 8.38316 15.763 8.11037V5.18313C15.763 3.75035 15.763 2.31916 15.763 0.889542C15.763 0.635722 15.763 0.623861 16.0239 0.623861H20.7327C21.0102 0.623861 21.0149 0.623861 21.0149 0.910892C21.0149 2.28674 21.0149 3.66338 21.0149 5.0408C21.0149 10.1789 21.0149 15.3185 21.0149 20.4598C21.0149 20.6235 21.0149 20.7871 21.0149 20.9508C21.0149 21.1145 20.9675 21.1596 20.8109 21.1596C19.1868 21.1596 17.5627 21.1596 15.9385 21.1596C15.7345 21.1596 15.7511 21.0362 15.7511 20.9034C15.7511 19.692 15.7511 18.479 15.7511 17.2645V12.2853C15.7511 11.977 15.6397 11.8655 15.3408 11.8655H5.57225C5.21405 11.8655 5.12628 11.9532 5.12628 12.3067C5.12628 15.1675 5.12628 18.0291 5.12628 20.8915C5.12628 21.0813 5.08121 21.1524 4.87484 21.1501C3.25229 21.1501 1.62736 21.1501 0.00481356 21.1501L0.00244141 0.616745Z" fill="white"/>
<path d="M129.047 21.1453C127.207 21.1453 125.365 21.1453 123.523 21.1453C123.383 21.1453 123.352 21.0884 123.286 20.9579C123.122 20.5452 123.198 20.1253 123.198 19.7125C123.198 13.5687 123.198 7.42481 123.198 1.28095C123.204 1.103 123.23 0.926313 123.276 0.75433C123.304 0.623861 123.416 0.616745 123.535 0.616745H128.609H129.038L129.047 21.1453Z" fill="white"/>
<path d="M116.684 33.9834C116.684 33.936 116.684 33.8885 116.684 33.8411C116.684 33.5635 116.684 33.5635 116.921 33.3667C117.075 33.4449 117.383 33.4212 117.419 33.2931C117.454 33.1232 117.447 32.9471 117.398 32.7807C117.352 32.6099 117.232 32.4605 117.16 32.2921C117.035 31.9552 116.937 31.6065 116.807 31.2697C116.733 31.0972 116.649 30.9292 116.555 30.7668C116.399 30.8106 116.241 30.8455 116.081 30.8712C115.962 30.883 115.908 30.9233 115.91 31.0443C115.91 31.4523 115.91 31.8603 115.91 32.2707C115.912 32.3132 115.925 32.3544 115.948 32.3901C115.971 32.4257 116.004 32.4545 116.042 32.4734C116.08 32.4923 116.122 32.5007 116.165 32.4976C116.207 32.4945 116.248 32.48 116.283 32.4557C116.56 32.6574 116.603 32.8922 116.397 33.1033C116.35 33.1494 116.289 33.1771 116.223 33.1816C116.006 33.1892 115.788 33.1836 115.571 33.165C115.458 33.1413 115.353 33.0862 115.269 33.0062C115.185 32.9261 115.126 32.8242 115.097 32.7119C114.904 32.1806 115.035 31.6397 114.995 31.1036C114.995 30.9542 114.964 30.8522 114.779 30.8664C114.738 30.8664 114.696 30.819 114.651 30.7952C114.606 30.7715 114.537 30.7241 114.485 30.7288C114.432 30.7336 114.397 30.8047 114.385 30.8522C114.288 31.3029 114.005 31.5282 113.571 31.6801C113.185 31.8129 112.81 31.7536 112.43 31.7749C112.255 31.7749 112.193 31.8342 112.193 32.0122C112.205 32.3039 112.193 32.5957 112.193 32.8899C112.193 33.1271 112.153 33.1674 111.923 33.1698H111.555C111.478 33.1698 111.403 33.139 111.349 33.0843C111.294 33.0296 111.263 32.9554 111.263 32.878C111.263 31.7204 111.263 30.5628 111.263 29.4028C111.263 29.2391 111.341 29.1656 111.5 29.1656C112.136 29.1656 112.772 29.1419 113.398 29.1822C113.63 29.2295 113.847 29.3293 114.034 29.474C114.132 29.538 114.213 29.6238 114.272 29.7246C114.331 29.8255 114.365 29.9386 114.373 30.0551C114.394 30.2283 114.492 30.2923 114.658 30.2591C114.987 30.2164 114.985 30.2212 114.992 29.8867C114.992 29.7254 114.935 29.5475 115.123 29.4289C115.293 29.3398 115.489 29.3106 115.678 29.3459C115.75 29.3807 115.809 29.4365 115.849 29.506C115.888 29.5755 115.905 29.6553 115.898 29.7349C115.898 30.3184 115.825 30.2307 116.406 30.2496C116.61 30.2496 116.814 30.2496 117.018 30.2496C117.317 30.2496 117.395 30.3493 117.452 30.6339C117.514 30.8765 117.594 31.1143 117.689 31.3456C117.708 31.4025 117.711 31.4666 117.734 31.5235C117.782 31.6445 117.836 31.7607 117.893 31.8817C117.893 31.9054 117.957 31.9315 117.972 31.9244C118.002 31.9039 118.024 31.8738 118.036 31.839C118.154 31.3978 118.259 30.9542 118.391 30.5177C118.404 30.4365 118.447 30.3632 118.512 30.3128C118.577 30.2625 118.658 30.239 118.74 30.2473C118.828 30.2473 118.92 30.2473 119.006 30.2473C119.091 30.2473 119.267 30.2852 119.269 30.3161C119.273 30.4529 119.257 30.5895 119.222 30.7217C119.202 30.7838 119.176 30.8441 119.146 30.902C119.046 31.1558 118.944 31.412 118.852 31.6706C118.783 31.8675 118.733 32.0715 118.664 32.2683C118.596 32.4652 118.501 32.6811 118.427 32.8875C118.403 32.9444 118.391 33.0037 118.368 33.0583C118.252 33.3334 118.131 33.611 118.014 33.8838C117.995 33.9265 117.931 33.9478 117.889 33.9787L116.684 33.9834ZM112.774 29.9508C112.651 29.9508 112.537 29.9508 112.407 29.9508C112.276 29.9508 112.21 30.0148 112.212 30.1476C112.212 30.373 112.212 30.5984 112.212 30.8213C112.212 30.9423 112.257 31.0159 112.39 31.0159C112.627 31.0159 112.881 31.0159 113.123 31.0159C113.254 30.9941 113.373 30.9237 113.455 30.8187C113.537 30.7137 113.577 30.5816 113.566 30.4488C113.555 30.3159 113.495 30.1919 113.397 30.1015C113.299 30.011 113.171 29.9606 113.038 29.9602L112.774 29.9508Z" fill="white"/>
<path d="M79.1394 33.9834V33.369C79.5142 33.5493 79.6969 33.369 79.8511 33.1318C79.7609 32.8685 79.6779 32.6123 79.5854 32.3609C79.5119 32.1593 79.4241 31.9624 79.3482 31.7631C79.3292 31.7204 79.3102 31.6753 79.296 31.6326C79.2391 31.4452 79.1916 31.2531 79.1228 31.0704C79.0785 30.9884 79.0235 30.9126 78.9592 30.8451L78.9188 30.9281C78.8084 30.9682 78.6923 30.9906 78.5749 30.9945C78.3986 30.9932 78.2289 31.061 78.102 31.1834C77.9752 31.3058 77.9014 31.4731 77.8964 31.6492C77.9202 32.0572 77.8964 32.4653 77.8964 32.8756C77.8964 33.1247 77.8514 33.1745 77.6023 33.1745C77.4861 33.1745 77.3651 33.1745 77.256 33.1745C77.2202 33.1772 77.1844 33.1724 77.1507 33.1602C77.117 33.1481 77.0863 33.1289 77.0605 33.1041C77.0347 33.0792 77.0145 33.0492 77.0012 33.0159C76.9879 32.9827 76.9817 32.947 76.9832 32.9112C76.9832 32.0928 76.9832 31.2768 76.9832 30.4584C76.9788 30.4314 76.9809 30.4037 76.9892 30.3776C76.9975 30.3515 77.0118 30.3277 77.0309 30.3081C77.05 30.2885 77.0735 30.2737 77.0994 30.2648C77.1253 30.2558 77.1529 30.2531 77.18 30.2568C77.3485 30.2341 77.5192 30.2341 77.6877 30.2568C77.7992 30.2829 77.8869 30.4039 77.9961 30.494C78.0764 30.3851 78.1857 30.3009 78.3115 30.251C78.4373 30.2011 78.5746 30.1875 78.7077 30.2117C78.9924 30.226 79.2794 30.2378 79.5641 30.2473C79.5888 30.2436 79.614 30.2451 79.6382 30.2516C79.6623 30.2581 79.6849 30.2695 79.7044 30.285C79.724 30.3006 79.7402 30.32 79.7519 30.3421C79.7637 30.3642 79.7708 30.3884 79.7728 30.4133C79.8191 30.6108 79.8762 30.8056 79.9436 30.9969L80.214 31.8011C80.2345 31.8455 80.2583 31.8883 80.2852 31.9292C80.3184 31.8955 80.3464 31.8572 80.3682 31.8153C80.4844 31.4737 80.6054 31.1297 80.7074 30.7858C80.7405 30.6613 80.7842 30.5399 80.8379 30.4228C80.8568 30.3841 80.8833 30.3496 80.916 30.3215C80.9486 30.2934 80.9866 30.2722 81.0277 30.2592C81.2179 30.2437 81.4091 30.2437 81.5994 30.2592C81.6515 30.2592 81.7322 30.3019 81.7417 30.3398C81.7497 30.4099 81.7399 30.4809 81.7132 30.5462C81.6848 30.6245 81.6326 30.6933 81.6041 30.7715C81.5377 30.9542 81.4784 31.1416 81.4096 31.3266C81.3835 31.3978 81.336 31.4642 81.3123 31.5377C81.2518 31.8041 81.1518 32.06 81.0158 32.2968C81.0067 32.3156 81.0003 32.3356 80.9968 32.3561C80.9011 32.7103 80.7854 33.0587 80.6505 33.3999C80.5532 33.6181 80.4916 33.8957 80.2069 33.9858L79.1394 33.9834Z" fill="white"/>
<path d="M0.00237215 29.1584H0.476802C0.692668 29.1584 0.773321 29.2367 0.775693 29.4526C0.775693 29.7989 0.775693 30.1476 0.775693 30.494C0.775693 30.6434 0.813647 30.7122 0.984442 30.7051C1.3118 30.6909 1.63916 30.6885 1.96651 30.7051C2.14442 30.7051 2.20373 30.6363 2.20373 30.4821C2.20373 30.1619 2.20373 29.8416 2.20373 29.5332C2.19782 29.4853 2.20276 29.4367 2.21817 29.3909C2.23358 29.3451 2.25908 29.3034 2.29278 29.2688C2.32648 29.2341 2.36751 29.2075 2.41287 29.1909C2.45822 29.1743 2.50672 29.1681 2.55481 29.1727H2.83946C3.13598 29.1727 3.14547 29.1727 3.14547 29.4834C3.14547 30.354 3.14547 31.227 3.14547 32.0928C3.14547 32.2897 3.14547 32.4889 3.14547 32.6858C3.15673 32.7827 3.17497 32.8786 3.20003 32.9729C3.14784 33.1531 2.99365 33.2101 2.78253 33.1769C2.70758 33.1697 2.63213 33.1697 2.55718 33.1769C2.50902 33.1828 2.46013 33.1779 2.41416 33.1623C2.36819 33.1468 2.32632 33.1211 2.29166 33.0871C2.25701 33.0531 2.23047 33.0118 2.21401 32.9661C2.19755 32.9205 2.1916 32.8717 2.19661 32.8234C2.19661 32.4557 2.19661 32.0857 2.19661 31.7204C2.19661 31.5472 2.14205 31.4832 1.9594 31.4832C1.64333 31.5 1.3266 31.5 1.01054 31.4832C0.81602 31.4832 0.773321 31.5496 0.773321 31.7204C0.773321 32.1023 0.773321 32.4842 0.773321 32.8637C0.773321 33.101 0.711645 33.1721 0.47443 33.1674H0L0.00237215 29.1584Z" fill="white"/>
<path d="M129.047 33.1674C128.865 33.1674 128.68 33.1674 128.497 33.1674C128.424 33.1699 128.354 33.1435 128.3 33.0939C128.289 33.0731 128.274 33.0552 128.255 33.0417C128.236 33.0282 128.213 33.0194 128.19 33.0162C128.167 33.0129 128.143 33.0153 128.121 33.023C128.099 33.0307 128.079 33.0437 128.063 33.0607C127.876 33.2362 127.648 33.1959 127.432 33.203C127.263 33.2228 127.091 33.1998 126.933 33.1359C126.776 33.0721 126.636 32.9695 126.528 32.8377C126.367 32.6894 126.269 32.4846 126.255 32.266C126.255 32.2114 126.206 32.1521 126.182 32.0952C126.154 32.0432 126.135 31.9872 126.125 31.9292C126.125 31.8011 126.125 31.6706 126.125 31.5425C126.152 31.2886 126.239 31.0447 126.379 30.8309C126.456 30.6439 126.586 30.4838 126.754 30.3707C126.827 30.3161 126.913 30.2788 127.003 30.2615C127.253 30.2422 127.504 30.2358 127.755 30.2426C127.84 30.2426 127.921 30.3161 128.006 30.3446C128.072 30.3712 128.144 30.381 128.215 30.373C128.243 30.373 128.267 30.2734 128.267 30.2212C128.267 29.9342 128.267 29.6495 128.267 29.3625C128.267 29.2297 128.319 29.1656 128.462 29.1704C128.658 29.1704 128.858 29.1704 129.055 29.1704L129.047 33.1674ZM127.034 31.6659C127.034 31.9031 127.005 32.1403 127.195 32.3443C127.385 32.5483 127.771 32.6527 127.971 32.4487C128.145 32.2848 128.251 32.0611 128.267 31.8224C128.29 31.5889 128.241 31.3539 128.127 31.1487C128.095 31.077 128.046 31.0141 127.985 30.9653C127.923 30.9166 127.851 30.8835 127.774 30.8688C127.681 30.8484 127.586 30.8497 127.494 30.8726C127.402 30.8956 127.317 30.9395 127.246 31.0009C127.174 31.0623 127.117 31.1395 127.081 31.2265C127.044 31.3135 127.028 31.4079 127.034 31.5022C127.036 31.5567 127.034 31.6113 127.034 31.6659Z" fill="white"/>
<path d="M84.0948 33.9834L83.7936 33.4425C83.7866 33.424 83.7811 33.405 83.777 33.3856C83.7224 33.2371 83.6757 33.0859 83.637 32.9325C83.5136 32.3063 83.3618 31.6777 83.4804 31.0348C83.4961 30.7915 83.5472 30.5517 83.6323 30.3232C83.7864 30.029 83.7817 29.6708 84.0308 29.417C84.1227 29.299 84.2022 29.1718 84.268 29.0375L84.3154 29.1015H84.8136C84.8355 29.1721 84.8412 29.2467 84.8302 29.3197C84.7649 29.4877 84.6896 29.6517 84.6048 29.8108C84.593 29.8345 84.5693 29.8535 84.5645 29.8796C84.4852 30.1632 84.4288 30.4527 84.3961 30.7454C84.37 31.3432 84.3842 31.9315 84.3961 32.5411C84.4147 32.6522 84.4491 32.76 84.4981 32.8614C84.5114 32.8844 84.5232 32.9081 84.5337 32.9325C84.5953 33.1697 84.6499 33.4354 84.7211 33.6845C84.7624 33.788 84.8149 33.8866 84.8776 33.9787L84.0948 33.9834Z" fill="white"/>
<path d="M107.84 33.9834C107.947 33.7011 108.063 33.4212 108.156 33.1318C108.196 33.0061 108.156 32.8542 108.21 32.7285C108.433 32.1355 108.331 31.5211 108.308 30.9186C108.262 30.5708 108.177 30.2294 108.054 29.9009C108.006 29.7301 107.926 29.5688 107.881 29.3957C107.869 29.2956 107.869 29.1945 107.881 29.0944C108.068 29.1157 108.21 29.1371 108.355 29.1442C108.424 29.1448 108.492 29.1684 108.546 29.2113C108.601 29.2542 108.64 29.3141 108.656 29.3814C108.737 29.5878 108.853 29.7799 108.924 29.9887C109.003 30.2277 109.065 30.4718 109.109 30.7193C109.127 30.9097 109.163 31.0979 109.216 31.2815C109.277 31.3932 109.304 31.5207 109.292 31.6475C109.28 31.7743 109.231 31.8947 109.15 31.9932C109.125 32.0415 109.117 32.0963 109.126 32.1497C109.143 32.5888 109.045 33.0247 108.841 33.4141C108.77 33.5683 108.72 33.7343 108.647 33.8885C108.623 33.9383 108.55 33.9644 108.497 34L107.84 33.9834Z" fill="white"/>
<path d="M97.9725 10.8905V0.953597C97.9725 0.619124 97.9725 0.621496 98.3117 0.621496H102.916C103.22 0.621496 103.222 0.621496 103.222 0.929876V8.0226C103.221 8.11783 103.228 8.21298 103.241 8.30726C103.262 8.48043 103.381 8.51127 103.504 8.43298C103.538 8.40078 103.583 8.38283 103.63 8.38283C103.677 8.38283 103.722 8.40078 103.756 8.43298C103.811 8.45805 103.872 8.46709 103.931 8.45908H113.408C113.645 8.45908 113.752 8.34047 113.752 8.0653V1.02002C113.752 0.545587 113.752 0.623868 114.143 0.623868C115.685 0.623868 117.227 0.623868 118.769 0.623868C118.973 0.623868 119.018 0.695033 119.035 0.88006C119.051 1.06509 119.134 1.25012 119.035 1.44463C119.011 1.4897 119.068 1.57036 119.073 1.63678C119.081 1.72276 119.081 1.80935 119.073 1.89534C119.073 1.92618 119.032 1.95939 119.04 1.98548C119.123 2.38875 118.987 2.7849 119.018 3.18816C119.049 3.59143 119.018 4.01841 119.018 4.43354C119.018 4.84867 119.018 5.2804 119.018 5.70264V6.94328C119.018 7.36077 119.018 7.7759 119.018 8.19103V9.43878C119.018 12.6823 119.018 15.9242 119.018 19.1646C119.018 19.3401 119.087 19.5157 119.104 19.6936C119.111 19.8276 119.104 19.962 119.082 20.0945C119.082 20.2202 118.983 20.3696 119.03 20.4598C119.127 20.6543 119.047 20.8109 119.018 20.9888C118.997 21.1145 118.942 21.143 118.828 21.143C117.198 21.143 115.568 21.143 113.937 21.143C113.719 21.143 113.74 21.0149 113.74 20.8773V12.1952C113.74 11.9058 113.705 11.8679 113.408 11.8655H112.182C109.28 11.8655 106.38 11.8655 103.483 11.8655C103.296 11.8655 103.217 11.9366 103.21 12.1027C103.21 12.1976 103.21 12.2948 103.21 12.3897C103.21 15.2173 103.21 18.0449 103.21 20.8725C103.21 21.1358 103.21 21.1453 102.933 21.1453C101.35 21.1453 99.7682 21.1453 98.1884 21.1453C98.001 21.1453 97.9512 21.0694 97.9512 20.9081C97.9512 20.5808 97.9512 20.2534 97.9512 19.9284V10.8905H97.9725Z" fill="white"/>
<path d="M61.6071 0.633352H64.615C64.8855 0.633352 64.978 0.714006 65.0681 0.965453C65.1377 1.12814 65.217 1.28657 65.3053 1.43988C65.3717 1.57035 65.4382 1.70082 65.4951 1.83603C65.6161 2.13255 65.7181 2.43381 65.8509 2.72322C65.9838 3.01262 66.1261 3.21662 66.2494 3.46807C66.3301 3.63412 66.3728 3.81915 66.444 3.98994C66.5151 4.16074 66.6029 4.33153 66.6812 4.49996C66.7405 4.61856 66.8093 4.73717 66.8615 4.85103C66.935 5.01946 66.9895 5.19737 67.0655 5.36342C67.1414 5.52947 67.2505 5.72161 67.3359 5.90427C67.3881 6.01102 67.4284 6.12251 67.4735 6.234C67.5446 6.41191 67.6063 6.59456 67.687 6.7701C67.7676 6.94564 67.872 7.11407 67.9574 7.2896C68.0238 7.42244 68.076 7.56477 68.14 7.69999C68.2278 7.88501 68.3298 8.0653 68.4152 8.25032C68.5006 8.43535 68.5267 8.56345 68.5955 8.72475C68.7378 9.03788 68.8944 9.34389 69.0367 9.65938C69.1102 9.8278 69.1553 10.0081 69.2289 10.1789C69.3403 10.4446 69.4661 10.7079 69.5847 10.9712C69.6772 11.1704 69.765 11.3721 69.8551 11.5713C69.9808 11.8441 70.1066 12.1146 70.2275 12.3874C70.3129 12.5795 70.3841 12.7788 70.4648 12.9685C70.5454 13.1583 70.6474 13.3125 70.7328 13.4857C70.7992 13.6232 70.8372 13.7727 70.9155 13.9032C71.0791 14.1807 71.0791 14.5413 71.3496 14.7642C71.3672 14.7855 71.3765 14.8125 71.3757 14.8402C71.4065 15.2031 71.6603 15.4735 71.786 15.789C71.786 15.8127 71.824 15.8365 71.824 15.8578C71.824 16.1401 72.0043 16.3322 72.13 16.5695C72.2557 16.8067 72.3459 17.1079 72.4668 17.3712C72.5441 17.5198 72.6296 17.664 72.723 17.803C72.7349 17.8267 72.7586 17.8457 72.7634 17.8694C72.8487 18.2373 72.9981 18.5874 73.2046 18.9036C73.3018 19.091 73.3279 19.3164 73.411 19.5133C73.5153 19.7505 73.6482 19.9877 73.762 20.2249C73.8474 20.4005 73.9281 20.5784 73.9993 20.7563C74.0182 20.799 74.0348 20.8417 74.0514 20.8844C74.068 20.9271 74.1131 21.041 74.1416 21.1216C74.065 21.1507 73.9854 21.1714 73.9044 21.1833C73.0172 21.1833 72.13 21.1833 71.2428 21.1833C70.396 21.1833 69.5515 21.1833 68.7046 21.1833C68.6281 21.1906 68.5513 21.173 68.4855 21.1333C68.4197 21.0936 68.3685 21.0338 68.3393 20.9627C68.261 20.8085 68.2207 20.6353 68.1495 20.474C68.0214 20.1799 67.8815 19.8905 67.7486 19.5963C67.7249 19.5418 67.7202 19.4777 67.6988 19.4231C67.6111 19.2191 67.5185 19.0175 67.4308 18.8135C67.4094 18.7637 67.3999 18.7091 67.381 18.6617C67.3383 18.5621 67.2932 18.4648 67.2505 18.3675C67.2505 18.3486 67.2244 18.3296 67.2268 18.313C67.2386 17.9666 66.9895 17.7152 66.9018 17.3997C66.8406 17.1785 66.7538 16.9651 66.6432 16.764C66.4772 16.4485 66.0929 16.4959 65.813 16.5623C65.775 16.5623 65.7371 16.5979 65.7038 16.5955C65.5474 16.5623 65.3889 16.5393 65.2294 16.5268C62.556 16.5268 59.8802 16.5268 57.2068 16.5268C57.0188 16.5366 56.8358 16.5911 56.6731 16.6857C56.6371 16.7044 56.6093 16.7356 56.5948 16.7735C56.5284 16.9609 56.4786 17.1577 56.405 17.3404C56.3315 17.5231 56.2176 17.7271 56.1298 17.9216C56.0682 18.0544 56.0184 18.192 55.9614 18.3272C55.8618 18.5644 55.7527 18.8016 55.6602 19.0531C55.5866 19.2476 55.5416 19.454 55.4633 19.6461C55.3399 19.9521 55.2023 20.251 55.0671 20.5523C54.9891 20.6724 54.9277 20.8024 54.8845 20.939C54.856 21.1596 54.7208 21.1501 54.5666 21.1501H49.8816C49.699 21.1501 49.5139 21.1501 49.3289 21.1501C49.2696 21.1501 49.1795 21.1216 49.1628 21.0813C49.1522 21.0158 49.1648 20.9487 49.1984 20.8915C49.2933 20.6733 49.4712 20.4906 49.4712 20.2344C49.4712 20.2202 49.4712 20.2012 49.4712 20.1941C49.6528 19.9811 49.7777 19.7257 49.8342 19.4516C49.903 19.2693 49.9822 19.0911 50.0714 18.9179C50.1686 18.7186 50.2778 18.5241 50.3679 18.3225C50.4841 18.0687 50.579 17.8077 50.6929 17.5539C50.7664 17.3855 50.8589 17.2289 50.9301 17.0629C51.0013 16.8968 51.0748 16.7379 51.1483 16.5884C51.2859 16.2967 51.433 16.0073 51.5635 15.7107C51.6465 15.5233 51.7034 15.3264 51.7793 15.1343C51.8363 14.9872 51.8979 14.8425 51.9644 14.7002C52.0521 14.5057 52.147 14.3159 52.2372 14.1238C52.2965 14.0052 52.3581 13.8866 52.4103 13.7632C52.5621 13.4264 52.7068 13.0848 52.8563 12.7479C52.8966 12.6578 52.9607 12.5771 53.001 12.4894C53.1457 12.1833 53.288 11.8773 53.4209 11.569C53.4968 11.3958 53.549 11.2108 53.6296 11.0376C53.7601 10.7482 53.9071 10.4683 54.04 10.1789C54.1135 10.0223 54.1728 9.86101 54.2416 9.70445C54.3104 9.54789 54.3579 9.43403 54.4172 9.30119C54.5666 8.96671 54.7089 8.62987 54.8631 8.30014C54.9865 8.0392 55.1288 7.78776 55.2522 7.52682C55.3328 7.3584 55.385 7.17811 55.4633 7.00969C55.5416 6.84127 55.6459 6.64201 55.7361 6.45935C55.7601 6.42626 55.7763 6.38813 55.7835 6.34786C55.7863 6.20198 55.8419 6.06206 55.9401 5.95408C56.0032 5.83904 56.0534 5.71731 56.0895 5.59115C56.1725 5.41798 56.2651 5.24718 56.3528 5.07639C56.4121 4.95778 56.4738 4.83917 56.5236 4.72294C56.5948 4.54266 56.647 4.35526 56.7229 4.17972C56.7988 4.00418 56.9055 3.84524 56.9814 3.67208C57.0574 3.49891 57.1143 3.30677 57.1855 3.12648C57.2566 2.9462 57.323 2.81336 57.3966 2.65205C57.4701 2.49075 57.5579 2.30809 57.6338 2.13492C57.7097 1.96176 57.7927 1.82654 57.871 1.66049C57.9493 1.49444 58.011 1.40193 58.0679 1.26672C58.1262 1.09024 58.1935 0.916849 58.2695 0.747216C58.2983 0.711443 58.3343 0.682167 58.3752 0.661315C58.4161 0.640462 58.4609 0.628507 58.5067 0.626236C59.4414 0.626236 60.376 0.626236 61.3106 0.626236L61.6071 0.633352ZM61.638 13.1393C62.6817 13.1393 63.7255 13.1393 64.7692 13.1393C64.8665 13.1393 65.0325 13.0966 65.0444 13.0468C65.0587 12.9175 65.0458 12.7866 65.0064 12.6625C64.9807 12.6011 64.9506 12.5417 64.9163 12.4846C64.8475 12.3043 64.7929 12.1193 64.7194 11.9414C64.5818 11.6045 64.4324 11.2724 64.2924 10.9356C64.2189 10.7577 64.1572 10.575 64.0837 10.3971C64.0101 10.2192 63.9105 10.0199 63.8322 9.83018C63.7539 9.6404 63.7089 9.48147 63.6401 9.3083C63.5713 9.13514 63.4693 8.90741 63.3839 8.70815C63.3246 8.56819 63.2676 8.43061 63.2131 8.29065C63.1585 8.15069 63.0826 7.94432 63.0138 7.77115C62.9284 7.55766 62.8383 7.34416 62.7505 7.1283C62.7315 7.07848 62.7078 7.03104 62.6888 6.98123C62.6034 6.77248 62.5204 6.56135 62.435 6.35023C62.4137 6.29567 62.3947 6.23874 62.371 6.18418L61.9938 5.30174C61.9392 5.17602 61.8871 5.04792 61.8278 4.92694C61.7993 4.86764 61.7495 4.77275 61.7115 4.77513C61.6717 4.77464 61.6322 4.78313 61.5961 4.79996C61.5599 4.8168 61.528 4.84155 61.5028 4.87238C61.4333 5.01597 61.3739 5.16419 61.3249 5.31598C61.2284 5.57375 61.1288 5.83231 61.026 6.09167C61.0103 6.12116 60.9929 6.14968 60.9738 6.17707C60.8481 6.438 60.7105 6.6942 60.5966 6.96225C60.5183 7.1449 60.4756 7.34416 60.4092 7.53394C60.3072 7.81859 60.1981 8.10088 60.0913 8.38554C60.0913 8.40926 60.07 8.43298 60.0605 8.45907C59.9751 8.66308 59.8873 8.86946 59.8043 9.07346C59.7877 9.11853 59.7806 9.16597 59.7616 9.20867C59.6738 9.40082 59.5742 9.58822 59.4936 9.78273C59.4129 9.97725 59.3655 10.1457 59.2896 10.3212C59.1591 10.6296 59.012 10.9285 58.8863 11.2369C58.8104 11.4219 58.7629 11.6188 58.6918 11.8038C58.642 11.939 58.5684 12.0647 58.5115 12.1976C58.4166 12.4087 58.2529 12.5914 58.2506 12.8452C58.2482 13.099 58.2506 13.1417 58.5281 13.1417L61.638 13.1393Z" fill="white"/>
<path d="M84.7807 0C85.8103 0 86.8398 0 87.8645 0C88.1079 0.00680969 88.3484 0.0541094 88.5762 0.139957C88.8727 0.237215 89.1929 0.260936 89.4966 0.346334C89.6614 0.411257 89.8202 0.490639 89.971 0.583549C90 0.6002 90.0311 0.612961 90.0635 0.621503C90.4549 0.659458 90.7752 0.880068 91.1025 1.05323C91.3397 1.18133 91.6102 1.29045 91.8497 1.42092C92.0875 1.56409 92.3157 1.72257 92.5329 1.89535C92.7744 2.07284 93.0064 2.26287 93.228 2.46466C93.3827 2.62503 93.5277 2.79455 93.6621 2.9723C93.6763 2.98654 93.6787 3.01975 93.6929 3.02449C93.9728 3.10277 94.0131 3.40404 94.1934 3.57957C94.3476 3.76696 94.4782 3.97249 94.5825 4.19159C94.675 4.34815 94.7793 4.4976 94.8647 4.66602C94.926 4.78874 94.9806 4.91464 95.0284 5.04319C95.1233 5.26617 95.2206 5.48915 95.3107 5.71688C95.3822 5.88696 95.4432 6.06124 95.4934 6.23875C95.5503 6.45699 95.5811 6.68235 95.6309 6.90296C95.6926 7.17813 95.6309 7.25641 95.3629 7.25641H90.2058C90.1371 7.25641 90.0683 7.25641 90.0018 7.25641C89.9779 7.25803 89.954 7.25432 89.9317 7.24554C89.9094 7.23676 89.8894 7.22313 89.8731 7.20564C89.8567 7.18816 89.8444 7.16725 89.8372 7.14443C89.8299 7.12162 89.8278 7.09748 89.831 7.07375C89.831 6.88872 89.8121 6.70607 89.8049 6.52104C89.7615 6.04088 89.5984 5.57927 89.3305 5.1784C89.0221 4.70925 88.6179 4.31069 88.1444 4.00893C87.9192 3.85955 87.6719 3.74667 87.4115 3.67446C87.0319 3.54874 86.6381 3.47757 86.2586 3.37082C85.3358 3.11226 84.4107 3.30678 83.4903 3.25222C83.431 3.25222 83.3693 3.29492 83.31 3.32101C83.2507 3.3471 83.227 3.38269 83.1867 3.38031C82.8613 3.38203 82.5393 3.44562 82.2378 3.56771C82.0866 3.6202 81.9385 3.68118 81.7942 3.75037C81.6044 3.83814 81.4194 3.93302 81.2367 4.03265C81.1712 4.07671 81.1086 4.12505 81.0493 4.17736C80.829 4.32686 80.6182 4.49007 80.4184 4.66602C80.2309 4.86397 80.0648 5.08102 79.9226 5.31362C79.795 5.51582 79.6801 5.72576 79.5786 5.94224C79.4033 6.23259 79.2662 6.54433 79.1706 6.86975C79.1018 7.2232 78.9025 7.55055 78.9618 7.93247C78.9618 8.01312 78.8978 8.10801 78.867 8.19815C78.8413 8.25948 78.8245 8.32419 78.8171 8.39029C78.8171 8.68918 78.8172 8.99045 78.8053 9.28934C78.8206 9.54477 78.7909 9.80091 78.7175 10.0461C78.6511 10.224 78.7484 10.4612 78.7745 10.6723C78.7886 10.7452 78.7981 10.8188 78.8029 10.8929C78.8029 11.4907 78.8029 12.079 78.8243 12.691C78.8449 12.7976 78.8808 12.9007 78.931 12.997C78.9482 13.0404 78.9594 13.0858 78.9642 13.1322C78.9642 13.2271 78.9642 13.322 78.9642 13.4169C78.985 13.7621 79.0736 14.0999 79.2252 14.4108C79.2436 14.4552 79.2533 14.5027 79.2536 14.5508C79.2739 14.8098 79.3696 15.0571 79.5288 15.2624C79.6521 15.4783 79.766 15.7084 79.8965 15.9124C80.0469 16.1197 80.2135 16.3148 80.3946 16.4959C80.5727 16.6763 80.762 16.845 80.9616 17.0012C81.1447 17.1599 81.3462 17.2961 81.5617 17.4068C81.8796 17.5492 82.2402 17.6061 82.5462 17.765C82.8996 17.9477 83.2815 17.8243 83.6184 17.9335C84.1308 18.0995 84.6432 18.0307 85.1508 18.0236C85.5884 18.0068 86.0236 17.9496 86.4507 17.8528C86.7653 17.7876 87.0721 17.6898 87.3664 17.561C87.5767 17.452 87.7781 17.3267 87.9689 17.1862C88.1312 17.1024 88.286 17.0048 88.4315 16.8945C88.8404 16.533 89.1838 16.1036 89.4468 15.6253C89.525 15.4806 89.5535 15.3099 89.6318 15.1509C89.767 14.8947 89.7314 14.5911 89.8263 14.3468C89.9876 13.9435 89.9212 13.5473 89.9473 13.1607C89.9473 13.0278 89.9971 12.9662 90.1418 12.9662C91.8758 12.9662 93.6075 12.9662 95.3415 12.9662C95.3823 12.9633 95.4231 12.9692 95.4613 12.9837C95.4995 12.9981 95.5341 13.0206 95.5627 13.0497C95.5914 13.0788 95.6134 13.1137 95.6272 13.1522C95.641 13.1906 95.6463 13.2315 95.6428 13.2722C95.6587 13.5584 95.6531 13.8455 95.6262 14.1309C95.5669 14.5247 95.4625 14.9113 95.3724 15.3027C95.3155 15.54 95.2561 15.7938 95.1826 16.0357C95.1265 16.1916 95.0624 16.3444 94.9905 16.4936C94.9027 16.7047 94.822 16.9205 94.7272 17.1293C94.6749 17.2266 94.617 17.3209 94.554 17.4116C94.4472 17.5895 94.3452 17.7698 94.2337 17.9406C94.1939 17.9846 94.1475 18.0222 94.0962 18.0521C94.0582 18.0805 93.9989 18.1019 93.9871 18.1375C93.8613 18.5123 93.5126 18.6949 93.2754 18.9653C93.0975 19.1599 92.9006 19.3354 92.7108 19.5204C92.6934 19.5403 92.6714 19.5558 92.6468 19.5655C92.3885 19.6599 92.148 19.797 91.9351 19.9711C91.6809 20.1154 91.4188 20.2453 91.15 20.3602C91.0147 20.4266 90.8772 20.4859 90.7467 20.5594C90.5349 20.6851 90.3042 20.7756 90.0635 20.8275C89.8189 20.8938 89.5807 20.9819 89.3519 21.0908C89.3258 21.0908 89.3021 21.1121 89.276 21.1192C89.0957 21.1643 88.9154 21.2165 88.7327 21.2497C88.3627 21.3161 87.9902 21.3683 87.6202 21.4347C87.4447 21.4656 87.2715 21.5178 87.096 21.5581C87.0366 21.5703 86.9762 21.5766 86.9157 21.5771C85.475 21.5771 84.0351 21.5771 82.596 21.5771C82.5147 21.5591 82.4353 21.5337 82.3588 21.5012C82.233 21.4727 82.1073 21.4514 81.9792 21.4324C81.5922 21.4021 81.2078 21.345 80.8287 21.2616C80.4539 21.1525 80.0744 21.0623 79.702 20.9485C79.4189 20.8408 79.1431 20.7148 78.8765 20.5713C78.7009 20.493 78.5135 20.4384 78.3451 20.353C78.1292 20.2416 77.93 20.1158 77.7188 19.9877C77.5694 19.9023 77.4057 19.8359 77.2658 19.7505C77.1258 19.6651 76.9716 19.4872 76.8079 19.3781C76.2701 18.982 75.7804 18.5242 75.3491 18.0141C75.1451 17.7699 74.9633 17.5079 74.8058 17.2313C74.6398 16.9656 74.507 16.6786 74.3314 16.42C74.1762 16.1984 74.0681 15.9473 74.0135 15.6823C73.9792 15.5994 73.9371 15.52 73.8878 15.4451C73.7906 15.2221 73.6957 14.9967 73.6079 14.769C73.5842 14.7073 73.596 14.6314 73.5771 14.5674C73.5517 14.4955 73.5207 14.4257 73.4846 14.3586C73.4703 14.3302 73.4419 14.3064 73.4324 14.2756C73.3791 14.0954 73.3356 13.9125 73.3019 13.7276C73.2355 13.3291 73.2141 12.9235 73.1169 12.5416C72.8797 11.5619 73.0149 10.5703 72.9888 9.58586C73.0016 9.455 73.0295 9.32606 73.0718 9.20157C73.1044 9.09062 73.1212 8.97562 73.1216 8.85998C73.0789 8.45671 73.2497 8.0914 73.3043 7.70711C73.3301 7.49623 73.3754 7.28818 73.4395 7.08561C73.513 6.8484 73.6221 6.64914 73.7147 6.4309C73.7306 6.40072 73.7403 6.36764 73.7431 6.33364C73.7703 6.10897 73.8562 5.89542 73.9922 5.71451C74.0752 5.5532 74.1274 5.37766 74.2081 5.21636C74.2887 5.05505 74.4144 4.83681 74.5307 4.65416C74.6683 4.43592 74.8153 4.2248 74.9624 4.01131C75.017 3.93065 75.0763 3.85474 75.1356 3.77409C75.4326 3.33955 75.7842 2.94493 76.1817 2.59988C76.4189 2.41248 76.63 2.21322 76.8625 2.02819C77.095 1.84316 77.3678 1.62729 77.6334 1.44464C77.7785 1.36306 77.9291 1.29172 78.0842 1.23115C78.2028 1.17659 78.3214 1.11728 78.4329 1.05561C78.6843 0.922766 78.9334 0.785182 79.1848 0.654713C79.2323 0.630992 79.294 0.64048 79.3438 0.621503C79.4387 0.588293 79.5312 0.545594 79.6261 0.505268C79.645 0.505268 79.6616 0.483919 79.6806 0.476802C79.9178 0.417498 80.155 0.362939 80.3923 0.294147C80.6674 0.215866 80.9379 0.116235 81.213 0.0379544C81.3126 0.0152532 81.4146 0.00568329 81.5167 0.0094886H84.7902L84.7807 0Z" fill="white"/>
<path d="M43.1327 0.633342C46.6467 0.633342 50.1606 0.633342 53.6745 0.633342C53.8714 0.633342 53.9355 0.695018 53.9331 0.889534C53.9331 1.86923 53.9331 2.8513 53.9331 3.83337C53.9331 4.14412 53.9212 4.14887 53.6081 4.14887H46.0742C45.5997 4.14887 45.5997 4.14887 45.5997 4.6233C45.5997 10.0603 45.5997 15.498 45.5997 20.9366C45.5997 21.1382 45.5049 21.1548 45.3483 21.1548C43.7795 21.1548 42.2107 21.1548 40.642 21.1548C40.5257 21.1548 40.4047 21.1548 40.2933 21.1548C40.1153 21.1548 40.0442 21.0979 40.0442 20.9034C40.0442 18.8681 40.0442 16.8304 40.0442 14.7927C40.0442 11.3436 40.0442 7.89528 40.0442 4.44776C40.0442 4.15361 40.0228 4.13226 39.731 4.13463H32.6502C32.3086 4.13463 32.3086 4.13463 32.3086 3.79779C32.3086 2.82521 32.3086 1.85025 32.3086 0.875301C32.3086 0.680785 32.3726 0.614365 32.5695 0.614365C36.0898 0.614365 39.6101 0.614365 43.1303 0.614365L43.1327 0.633342Z" fill="white"/>
<path d="M30.7547 10.9119C30.7547 14.2329 30.7547 17.5587 30.7547 20.8892C30.7547 21.1003 30.693 21.1501 30.4866 21.1477C28.7739 21.1477 27.0612 21.1477 25.3486 21.1477C25.052 21.1477 25.0449 21.1477 25.0449 20.837C25.0449 14.2139 25.0449 7.59009 25.0449 0.96547C25.0449 0.619136 25.0449 0.621509 25.396 0.623881H30.4368C30.7523 0.623881 30.7523 0.623881 30.7523 0.934632V10.9119H30.7547Z" fill="white"/>
<path d="M57.1117 31.6136C57.1323 31.5821 57.1497 31.5488 57.1639 31.514C57.228 31.2768 57.2754 31.0396 57.3513 30.8213C57.4272 30.6031 57.5221 30.3943 57.6075 30.1808C57.6186 30.1558 57.6266 30.1295 57.6312 30.1026C57.6786 29.8616 57.7412 29.6239 57.8186 29.3909C57.8475 29.3347 57.8884 29.2856 57.9384 29.2471C57.9885 29.2086 58.0464 29.1815 58.108 29.1679C58.3806 29.1525 58.6538 29.1525 58.9264 29.1679C58.9618 29.1638 58.9976 29.1677 59.0313 29.1793C59.0649 29.1909 59.0956 29.21 59.1208 29.2351C59.1461 29.2601 59.1655 29.2906 59.1774 29.3241C59.1893 29.3577 59.1935 29.3935 59.1897 29.4289C59.1897 30.5865 59.1897 31.7441 59.1897 32.9017C59.1738 32.9764 59.1328 33.0433 59.0735 33.0915C58.965 33.1555 58.8405 33.1875 58.7146 33.1838C58.5886 33.18 58.4663 33.1406 58.3618 33.0701C58.3155 33.0083 58.2891 32.9338 58.2859 32.8566C58.2859 32.3039 58.2859 31.7536 58.2859 31.1961C58.2859 31.0989 58.2693 31.0016 58.2551 30.8664C58.2029 30.9138 58.1745 30.9257 58.1697 30.9447C58.1033 31.1653 58.0487 31.3906 57.9704 31.6089C57.8922 31.8271 57.7878 32.0287 57.7071 32.2422C57.6269 32.4292 57.5634 32.6229 57.5174 32.821C57.4652 33.0749 57.3798 33.1721 57.1188 33.1721C56.948 33.1721 56.763 33.2101 56.6444 33.0274C56.6326 33.0061 56.6088 32.9871 56.6017 32.9634C56.54 32.7522 56.54 32.4889 56.4096 32.3442C56.2008 32.107 56.355 31.8058 56.1391 31.5851C56.0205 31.4642 56.0158 31.2293 55.9612 31.0467C55.9446 30.9921 55.9256 30.9376 55.909 30.8854H55.8521C55.8352 30.9699 55.8241 31.0555 55.8189 31.1416C55.8189 31.7204 55.8189 32.2992 55.8189 32.878C55.8189 33.1531 55.7952 33.1769 55.5153 33.1721H55.1666C54.9104 33.1721 54.8843 33.1484 54.8843 32.8946C54.8843 32.0975 54.8843 31.3005 54.8843 30.5034C54.8843 30.15 54.8843 29.7918 54.8843 29.4407C54.8843 29.2035 54.9246 29.1584 55.1713 29.1584H55.985C56.1415 29.1584 56.2222 29.2201 56.253 29.3957C56.324 29.6454 56.4112 29.8902 56.5139 30.1286C56.5139 30.1595 56.5377 30.1903 56.5472 30.2235C56.6468 30.5034 56.7464 30.781 56.8437 31.0633C56.855 31.1091 56.8613 31.156 56.8626 31.2032C56.8935 31.4357 56.8935 31.4357 57.1117 31.6136Z" fill="white"/>
<path d="M86.7046 29.1632C86.7662 29.1691 86.8281 29.1691 86.8897 29.1632C86.9726 29.1478 87.0584 29.1635 87.1305 29.2073C87.2027 29.251 87.2563 29.3197 87.2811 29.4004C87.3712 29.5878 87.4163 29.7966 87.4898 29.9911C87.5634 30.1856 87.6582 30.3872 87.7413 30.5865C87.7522 30.6112 87.7617 30.6366 87.7697 30.6624C87.8622 30.9115 87.9619 31.1582 88.052 31.4096C88.1422 31.6611 88.1849 31.8556 88.2631 32.0738C88.3414 32.2921 88.4529 32.5056 88.5217 32.7285C88.5553 32.8579 88.5618 32.9927 88.5407 33.1247C88.5407 33.1532 88.3889 33.1698 88.3035 33.1745C88.1535 33.1864 88.0028 33.1864 87.8528 33.1745C87.8144 33.1712 87.7773 33.1598 87.7437 33.1409C87.7102 33.1221 87.681 33.0964 87.6582 33.0654C87.5835 32.9028 87.5239 32.7337 87.4803 32.5601C87.4759 32.5184 87.4632 32.4779 87.443 32.4411C87.4227 32.4043 87.3954 32.3719 87.3624 32.3459C87.3295 32.3198 87.2917 32.3006 87.2513 32.2893C87.2108 32.278 87.1685 32.2749 87.1269 32.2802C86.8351 32.2802 86.541 32.2802 86.2468 32.2802C86.2065 32.2773 86.1661 32.2825 86.1278 32.2954C86.0896 32.3083 86.0543 32.3288 86.024 32.3555C85.9938 32.3822 85.9692 32.4147 85.9516 32.4511C85.934 32.4874 85.9239 32.5269 85.9218 32.5672C85.8809 32.7476 85.8197 32.9227 85.7392 33.0891C85.7149 33.1154 85.6856 33.1365 85.653 33.1512C85.6204 33.1658 85.5851 33.1738 85.5494 33.1745C85.3914 33.1854 85.2329 33.1854 85.075 33.1745C84.9943 33.1745 84.852 33.1389 84.8496 33.1105C84.8426 32.9797 84.8546 32.8487 84.8852 32.7214C84.9103 32.6502 84.9429 32.5818 84.9824 32.5174C85.0251 32.4249 85.0678 32.3348 85.1082 32.2423C85.12 32.2114 85.1272 32.1782 85.139 32.1474C85.2268 31.9102 85.3146 31.6729 85.4 31.4357C85.4711 31.2412 85.528 31.0443 85.6016 30.8522C85.6751 30.66 85.7866 30.4086 85.8815 30.188C85.8815 30.169 85.8981 30.1524 85.9052 30.1334C85.9669 29.9104 86.0357 29.6898 86.0926 29.4668C86.1045 29.3773 86.1502 29.2957 86.2203 29.2388C86.2905 29.1819 86.3797 29.154 86.4698 29.1608H86.6951L86.7046 29.1632ZM86.6264 30.4679C86.5481 30.6814 86.4769 30.8806 86.4034 31.0775C86.3654 31.1772 86.318 31.2744 86.2871 31.3788C86.2871 31.4225 86.3031 31.4647 86.3322 31.4974C86.4603 31.654 86.643 31.6018 86.8066 31.6065C86.9703 31.6113 87.0676 31.5259 87.0249 31.3361C86.9822 31.1463 86.8944 30.9874 86.8731 30.8071C86.8763 30.731 86.8537 30.656 86.8089 30.5944C86.7641 30.5328 86.6998 30.4882 86.6264 30.4679V30.4679Z" fill="white"/>
<path d="M22.9764 31.5496C23.0339 31.6606 23.0611 31.7849 23.0553 31.9098C23.0495 32.0348 23.0108 32.156 22.9432 32.2612C22.8774 32.3877 22.8021 32.509 22.7179 32.6241C22.5594 32.7801 22.3871 32.9214 22.2031 33.0464C21.8426 33.3002 21.4227 33.1911 21.0171 33.2006C20.8355 33.2023 20.656 33.1632 20.4917 33.086C20.3274 33.0088 20.1827 32.8955 20.0682 32.7546C19.9496 32.6241 19.831 32.5008 19.7029 32.3703C19.6799 32.3461 19.6614 32.318 19.6483 32.2873C19.4033 31.7205 19.3491 31.0894 19.4941 30.4892C19.5828 30.0661 19.833 29.6942 20.1915 29.4526C20.4562 29.2495 20.7808 29.1402 21.1143 29.1418C21.3515 29.1418 21.6053 29.1561 21.8497 29.1418C21.9928 29.1485 22.1326 29.1866 22.2593 29.2534C22.386 29.3202 22.4964 29.4142 22.5827 29.5285C22.7084 29.6661 22.8199 29.8132 22.9409 29.9602C22.9778 30.0083 23.0052 30.0631 23.0215 30.1215C23.1093 30.4916 23.0618 30.5509 22.6847 30.5461H22.3549C22.2174 30.5461 22.1177 30.5058 22.0988 30.3469C22.0483 30.2461 21.9765 30.1574 21.8885 30.087C21.8004 30.0165 21.6982 29.966 21.5887 29.9389C21.444 29.9389 21.3017 29.9389 21.1594 29.9389C20.8652 29.9389 20.711 30.1405 20.564 30.3493C20.2627 30.7739 20.3742 31.2554 20.4264 31.7061C20.4904 32.2399 21.1973 32.5981 21.7097 32.3798C21.807 32.3412 21.8939 32.2807 21.9639 32.2029C22.0339 32.1251 22.0849 32.0322 22.113 31.9315C22.1747 31.6943 22.2601 31.6207 22.521 31.6089C22.6633 31.597 22.8128 31.5709 22.9764 31.5496Z" fill="white"/>
<path d="M13.3073 31.1653V29.5309C13.3073 29.2723 13.4188 29.1656 13.675 29.1656C14.2159 29.1656 14.2159 29.1656 14.2159 29.704C14.2159 29.8748 14.2159 30.0433 14.2159 30.214C14.2159 30.2781 14.2325 30.3801 14.2657 30.392C14.3002 30.4029 14.3367 30.4058 14.3725 30.4005C14.4082 30.3951 14.4423 30.3817 14.4721 30.3611C14.6073 30.1998 14.7828 30.2235 14.9465 30.2188C15.075 30.2045 15.2047 30.2045 15.3332 30.2188C15.4602 30.2354 15.5813 30.2825 15.6862 30.356C15.7911 30.4295 15.8767 30.5273 15.9357 30.641C16.0386 30.8517 16.0852 31.0854 16.0709 31.3195C16.0709 31.8366 16.0709 32.3537 16.0709 32.8732C16.0709 33.1318 16.0377 33.165 15.7744 33.165H15.4802C15.4368 33.1687 15.3931 33.1628 15.3523 33.1477C15.3114 33.1326 15.2744 33.1087 15.2438 33.0777C15.2133 33.0467 15.1899 33.0093 15.1754 32.9682C15.1609 32.9271 15.1557 32.8834 15.16 32.84C15.16 32.3087 15.1458 31.7773 15.16 31.2459C15.1646 31.1692 15.1439 31.093 15.1011 31.0292C15.0582 30.9653 14.9956 30.9173 14.9228 30.8925C14.846 30.8526 14.7585 30.8384 14.673 30.8521C14.5876 30.8657 14.5088 30.9065 14.4483 30.9684C14.374 31.033 14.3144 31.1129 14.2735 31.2025C14.2326 31.2921 14.2113 31.3894 14.2111 31.4879C14.2325 31.9623 14.2111 32.4368 14.2111 32.9112C14.2111 33.1128 14.1257 33.1769 13.9407 33.1626C13.8387 33.1626 13.7367 33.1626 13.6347 33.1626C13.3975 33.1626 13.3002 33.0559 13.2979 32.8282C13.2979 32.2707 13.2979 31.7109 13.2979 31.1534L13.3073 31.1653Z" fill="white"/>
<path d="M65.993 31.1701C65.993 30.5992 65.993 30.0267 65.993 29.4526C65.993 29.2154 66.0286 29.168 66.2729 29.1632H66.5599C66.6048 29.1589 66.6501 29.1645 66.6926 29.1796C66.7351 29.1947 66.7738 29.2189 66.8059 29.2506C66.8381 29.2823 66.8628 29.3206 66.8785 29.3629C66.8942 29.4052 66.9005 29.4504 66.8968 29.4953C66.8968 29.7325 66.8968 29.9697 66.8968 30.207C66.8968 30.3872 67.0059 30.4608 67.134 30.354C67.4021 30.1405 67.7009 30.2141 67.9903 30.2307C68.339 30.2473 68.5075 30.4513 68.6285 30.7763C68.887 31.4879 68.6878 32.1996 68.7518 32.9112C68.7494 32.9572 68.7309 33.0008 68.6996 33.0346C68.6078 33.1049 68.5008 33.1529 68.3871 33.1748C68.2735 33.1966 68.1563 33.1916 68.0449 33.1603C67.9732 33.1158 67.9157 33.0517 67.8792 32.9757C67.8426 32.8996 67.8285 32.8147 67.8385 32.7309C67.8504 32.2423 67.8385 31.7512 67.8385 31.2602C67.8422 31.1802 67.8193 31.1012 67.7734 31.0355C67.7275 30.9699 67.6611 30.9213 67.5847 30.8973C67.5009 30.8592 67.4079 30.8463 67.3169 30.8602C67.2259 30.8741 67.1409 30.9142 67.0723 30.9755C67.019 31.0211 66.9765 31.0779 66.9478 31.1419C66.919 31.2059 66.9049 31.2755 66.9063 31.3456C66.9063 31.82 66.8944 32.2945 66.8897 32.7689C66.8897 33.0868 66.8066 33.165 66.4935 33.1674C65.8981 33.1674 65.993 33.1532 65.9859 32.655C65.9788 32.1569 65.993 31.6658 65.993 31.1701Z" fill="white"/>
<path d="M9.74965 31.9813C9.74965 32.3016 9.74965 32.6195 9.74965 32.9302C9.74965 33.0986 9.70458 33.1888 9.51243 33.1674C9.39627 33.1615 9.27989 33.1615 9.16373 33.1674C9.16373 33.1674 9.13289 33.1674 9.12577 33.1674C8.84586 32.9302 8.58018 33.1674 8.30738 33.1864C8.11084 33.203 7.91325 33.203 7.71672 33.1864C7.05489 33.1247 6.85088 32.5815 6.98372 32.0383C7.00618 31.9439 7.04992 31.856 7.11159 31.7812C7.17326 31.7063 7.25124 31.6466 7.33954 31.6065C7.55108 31.5318 7.77094 31.4833 7.99426 31.4618C8.22308 31.4238 8.44897 31.3699 8.67032 31.3005C8.732 31.2816 8.78418 31.163 8.79604 31.0823C8.8079 31.0016 8.83637 30.8807 8.68693 30.8664C8.66652 30.8635 8.64658 30.8579 8.62762 30.8498C8.54697 30.8095 8.41887 30.7146 8.39041 30.7383C8.23622 30.8712 7.97765 30.8427 7.88751 31.0728C7.86996 31.0982 7.84706 31.1194 7.82042 31.135C7.79378 31.1506 7.76405 31.1601 7.73332 31.163C7.6049 31.1784 7.47509 31.1784 7.34666 31.163C7.26126 31.163 7.10945 31.1203 7.10945 31.0823C7.08665 30.9583 7.1041 30.8303 7.15926 30.717C7.26559 30.5454 7.41746 30.4066 7.59796 30.3161C7.77846 30.2257 7.98052 30.1871 8.18166 30.2046C8.28794 30.1962 8.39253 30.1731 8.49241 30.1358C8.52367 30.129 8.55603 30.129 8.58729 30.1358C8.7486 30.1714 8.90753 30.2236 9.06172 30.2497C9.16714 30.2749 9.26639 30.3211 9.3536 30.3855C9.4408 30.4499 9.51418 30.5312 9.56937 30.6245C9.83979 30.9756 9.669 31.3812 9.71644 31.7584C9.72169 31.8373 9.72169 31.9166 9.71644 31.9956L9.74965 31.9813ZM8.81502 32.1071C8.81687 32.0395 8.81131 31.9718 8.79842 31.9054C8.79842 31.8722 8.69641 31.8295 8.69404 31.8319C8.55883 32.0027 8.36431 31.922 8.19826 31.9434C8.12586 31.9496 8.05688 31.977 7.99993 32.0221C7.94298 32.0672 7.90058 32.1281 7.87802 32.1972C7.80211 32.4344 7.90174 32.5364 8.14133 32.5744C8.54222 32.6361 8.84823 32.4463 8.81502 32.1071V32.1071Z" fill="white"/>
<path d="M61.1638 30.207C61.3654 30.2212 61.5433 30.2307 61.7189 30.2473C61.8724 30.2579 62.0169 30.3238 62.1256 30.4329C62.2342 30.5419 62.2996 30.6867 62.3095 30.8403C62.3261 31.106 62.3095 31.3717 62.3095 31.6374C62.3233 31.7482 62.3464 31.8577 62.3783 31.9647C62.3783 31.979 62.3973 31.9956 62.3949 32.0027C62.1814 32.3205 62.4851 32.6171 62.4329 32.9349C62.4044 33.1057 62.3522 33.1911 62.1957 33.1721C61.9917 33.1508 61.7639 33.2575 61.586 33.0559C61.5552 33.0203 61.4295 33.0274 61.3749 33.0559C60.9882 33.2931 60.5708 33.2243 60.1699 33.146C60.0003 33.091 59.859 32.9718 59.7761 32.8139C59.6751 32.6148 59.6331 32.3909 59.6551 32.1687C59.6747 32.0564 59.7167 31.9491 59.7787 31.8533C59.8406 31.7575 59.9212 31.6752 60.0157 31.6113C60.1909 31.5137 60.3893 31.4654 60.5897 31.4713C60.8641 31.4286 61.1358 31.3699 61.4034 31.2958C61.4532 31.2815 61.4888 31.1416 61.4935 31.0586C61.4847 30.9866 61.4491 30.9205 61.3939 30.8735C61.336 30.8273 61.2722 30.789 61.2041 30.7597C61.1756 30.7454 61.1329 30.7288 61.1116 30.7407C60.9382 30.8158 60.778 30.9184 60.6372 31.0443C60.6033 31.0877 60.5596 31.1223 60.5097 31.1454C60.4598 31.1685 60.4051 31.1794 60.3501 31.1772C60.2712 31.1826 60.1919 31.1826 60.1129 31.1772C60.018 31.1653 59.8544 31.1511 59.8472 31.1155C59.809 30.9697 59.8295 30.8147 59.9042 30.6838C60.1936 30.1334 60.7154 30.2568 61.1638 30.207ZM60.4521 32.3419C60.5779 32.4202 60.6253 32.6076 60.8341 32.5672C60.9977 32.534 61.1946 32.5815 61.3275 32.5056C61.4239 32.4338 61.4904 32.3291 61.5145 32.2114C61.5386 32.0937 61.5184 31.9713 61.4579 31.8675C61.2826 31.9014 61.105 31.9228 60.9266 31.9315C60.8595 31.9354 60.7943 31.9553 60.7365 31.9895C60.6788 32.0238 60.63 32.0714 60.5945 32.1284C60.5412 32.1982 60.492 32.271 60.4474 32.3466L60.4521 32.3419Z" fill="white"/>
<path d="M101.542 31.5401C101.592 31.9837 101.649 32.4249 101.689 32.8685C101.716 33.1603 101.689 33.1864 101.388 33.1722C101.213 33.1722 101.013 33.2457 100.862 33.0607C100.828 33.0204 100.688 33.0251 100.624 33.0607C100.245 33.2979 99.8296 33.241 99.4382 33.1556C99.2831 33.104 99.1477 33.0056 99.0508 32.8739C98.954 32.7422 98.9003 32.5837 98.8974 32.4202C98.8594 31.9695 99.1085 31.7252 99.4264 31.5235C99.5426 31.45 99.7324 31.4974 99.8842 31.4713C99.9838 31.4547 100.076 31.3954 100.174 31.3741C100.293 31.3504 100.413 31.3337 100.534 31.3243C100.648 31.3243 100.757 31.3243 100.757 31.1558C100.757 30.9874 100.788 30.8973 100.601 30.857C100.515 30.838 100.43 30.7265 100.363 30.7383C100.226 30.7488 100.098 30.8097 100.003 30.9091C99.8249 31.1867 99.5734 31.1962 99.2912 31.1725C99.2129 31.1725 99.0729 31.1345 99.0706 31.1013C99.044 30.9731 99.0573 30.8398 99.1085 30.7194C99.2034 30.5652 99.2935 30.3802 99.5118 30.3398C99.5924 30.3133 99.6716 30.2824 99.749 30.2473C99.8937 30.2046 100.041 30.169 100.188 30.1335C100.221 30.1275 100.255 30.1275 100.287 30.1335C100.499 30.169 100.707 30.2188 100.918 30.2426C101.01 30.2449 101.1 30.2658 101.184 30.3039C101.267 30.3421 101.342 30.3967 101.403 30.4646C101.465 30.5324 101.512 30.612 101.542 30.6986C101.572 30.7852 101.584 30.877 101.578 30.9684V31.5401H101.542ZM99.7229 32.3253C99.8273 32.5815 100.031 32.61 100.266 32.5625H100.328C100.719 32.5934 100.826 32.1545 100.741 31.8912C100.741 31.8627 100.66 31.8367 100.622 31.8414C100.476 31.8786 100.328 31.9079 100.178 31.9292C100.105 31.9353 100.035 31.959 99.9728 31.9982C99.9109 32.0375 99.8593 32.0911 99.8225 32.1545C99.7851 32.2089 99.7518 32.266 99.7229 32.3253V32.3253Z" fill="white"/>
<path d="M107.584 31.8556C107.584 32.228 107.584 32.6028 107.584 32.9776C107.584 33.1128 107.553 33.184 107.404 33.1745C107.254 33.165 107.145 33.1745 107.015 33.1745C106.974 33.1745 106.915 33.1745 106.896 33.1603C106.718 32.9705 106.566 33.1128 106.377 33.1484C106.043 33.2125 105.7 33.2125 105.366 33.1484C105.253 33.1264 105.15 33.0705 105.07 32.9883C104.99 32.9061 104.937 32.8014 104.918 32.6882C104.896 32.572 104.797 32.451 104.809 32.3538C104.829 32.08 104.955 31.8248 105.16 31.6421C105.349 31.4713 105.563 31.5022 105.779 31.4713C105.92 31.4419 106.059 31.4047 106.196 31.3598C106.26 31.3432 106.329 31.3432 106.396 31.329C106.462 31.3147 106.633 31.3764 106.633 31.2175C106.633 31.0586 106.709 30.9328 106.509 30.8403C106.386 30.7834 106.308 30.6624 106.161 30.7976C106.061 30.8648 105.958 30.9266 105.852 30.9827C105.727 31.0752 105.632 31.2199 105.442 31.1772C105.333 31.1641 105.223 31.1641 105.115 31.1772C104.956 31.1772 104.913 31.1036 104.925 30.9637C105.02 30.7328 105.177 30.5325 105.378 30.3849C105.869 30.1121 106.393 30.2212 106.906 30.2497C107.081 30.276 107.243 30.363 107.361 30.4955C107.48 30.628 107.549 30.7978 107.556 30.9755C107.539 31.2673 107.556 31.5615 107.556 31.8556H107.584ZM106.109 32.5672C106.536 32.5435 106.533 32.5435 106.664 32.1592C106.675 32.1237 106.728 32.0928 106.725 32.0644C106.722 32.0051 106.702 31.9481 106.666 31.9007C106.648 31.8801 106.626 31.8637 106.601 31.8526C106.576 31.8416 106.549 31.8361 106.521 31.8366C106.403 31.8556 106.284 31.9054 106.17 31.9268C106.043 31.9384 105.92 31.9843 105.817 32.0596C105.648 32.1924 105.724 32.3253 105.734 32.4534C105.734 32.4937 105.876 32.534 105.959 32.5578C106.008 32.5709 106.058 32.578 106.109 32.5791V32.5672Z" fill="white"/>
<path d="M75.6079 31.9457H74.8322C74.6543 31.9457 74.5784 32.0786 74.6638 32.2257C74.7533 32.3573 74.8815 32.4579 75.0306 32.5136C75.1797 32.5692 75.3425 32.5772 75.4964 32.5364C75.586 32.4926 75.6665 32.4322 75.7336 32.3585C75.8403 32.2541 76.3788 32.1545 76.469 32.2589C76.4936 32.2991 76.5082 32.3447 76.5115 32.3918C76.5148 32.4388 76.5067 32.486 76.4879 32.5293C76.4072 32.6876 76.2934 32.8267 76.1543 32.9372C76.0151 33.0477 75.8539 33.127 75.6814 33.1698C75.3575 33.2125 75.029 33.2077 74.7065 33.1555C74.5105 33.1025 74.3341 32.9937 74.1988 32.8424C74.0369 32.6896 73.9121 32.5018 73.834 32.2933C73.7559 32.0849 73.7265 31.8613 73.7481 31.6397C73.7826 31.286 73.9204 30.9503 74.1443 30.6743C74.6187 30.0646 75.2212 30.1998 75.8048 30.2805C75.933 30.3074 76.0521 30.367 76.1506 30.4534C76.2491 30.5398 76.3236 30.6502 76.367 30.7739C76.4573 30.9262 76.5366 31.0847 76.6042 31.2483C76.6374 31.4531 76.6422 31.6614 76.6184 31.8675C76.6184 31.9007 76.4856 31.9457 76.412 31.9481C76.1463 31.9481 75.8807 31.9481 75.615 31.9481L75.6079 31.9457ZM74.659 31.329C74.9603 31.329 75.2639 31.329 75.5675 31.329C75.7407 31.329 75.7621 31.2436 75.6909 31.1274C75.6197 31.0111 75.5177 30.8569 75.3256 30.8664C75.2165 30.8664 75.1073 30.8664 75.0006 30.8664C74.9482 30.8748 74.8981 30.8934 74.8529 30.9212C74.8077 30.949 74.7685 30.9854 74.7374 31.0283C74.7064 31.0713 74.6841 31.12 74.6718 31.1716C74.6596 31.2231 74.6577 31.2766 74.6661 31.329H74.659Z" fill="white"/>
<path d="M70.6308 31.7085V30.6055C70.6308 30.29 70.6735 30.2426 70.9795 30.2497C71.1455 30.2497 71.3306 30.1904 71.4539 30.3754C71.4861 30.3924 71.5219 30.4013 71.5583 30.4013C71.5947 30.4013 71.6305 30.3924 71.6627 30.3754C71.8999 30.1643 72.1988 30.2165 72.4787 30.2165C72.6585 30.2033 72.8374 30.2528 72.9849 30.3566C73.1323 30.4604 73.2393 30.612 73.2876 30.7858C73.3602 30.9847 73.3948 31.1956 73.3896 31.4073C73.3896 31.8817 73.3896 32.3561 73.3896 32.8306C73.3963 32.8758 73.3924 32.9221 73.3781 32.9655C73.3638 33.009 73.3396 33.0486 73.3074 33.081C73.2751 33.1135 73.2357 33.138 73.1924 33.1526C73.149 33.1672 73.1028 33.1714 73.0575 33.165C72.4929 33.165 72.4692 33.2671 72.4811 32.5981C72.4811 32.1616 72.4811 31.7252 72.4811 31.2911C72.4811 31.0088 72.3364 30.8712 72.0778 30.8664C71.7267 30.8664 71.5749 30.9732 71.563 31.2816C71.5417 31.7916 71.5369 32.3016 71.5275 32.814C71.5275 33.0512 71.416 33.165 71.1693 33.1674C70.6284 33.1674 70.6284 33.1674 70.6284 32.6195L70.6308 31.7085Z" fill="white"/>
<path d="M23.4698 31.7085C23.467 31.5497 23.4781 31.391 23.503 31.2341C23.5619 30.9845 23.6902 30.7567 23.873 30.577C24.2621 30.1951 24.7531 30.2235 25.2441 30.2425C25.438 30.2504 25.6273 30.3042 25.7964 30.3994C25.9655 30.4947 26.1095 30.6287 26.2167 30.7905C26.3218 30.9449 26.3885 31.1222 26.4112 31.3076C26.448 31.5704 26.448 31.8371 26.4112 32.0999C26.358 32.2852 26.2781 32.4618 26.174 32.6242C25.8727 33.2267 25.32 33.2267 24.7507 33.2219C24.5433 33.2198 24.3395 33.1672 24.1569 33.0689C23.9742 32.9706 23.8182 32.8293 23.7022 32.6574C23.5125 32.3796 23.4299 32.0425 23.4698 31.7085V31.7085ZM24.2597 31.6516C24.3138 31.807 24.359 31.9654 24.3949 32.126C24.4122 32.2078 24.4472 32.2848 24.4972 32.3518C24.5473 32.4187 24.6114 32.474 24.685 32.5137C24.7585 32.5534 24.8399 32.5766 24.9233 32.5818C25.0068 32.5869 25.0903 32.5739 25.1682 32.5435C25.3049 32.4253 25.4154 32.2798 25.4926 32.1164C25.5698 31.953 25.612 31.7753 25.6166 31.5946C25.6166 31.5686 25.5976 31.5448 25.5881 31.5187C25.5679 31.4372 25.5401 31.3578 25.5051 31.2815C25.4292 31.1463 25.3627 30.9423 25.2512 30.9115C25.0462 30.8473 24.8251 30.8582 24.6274 30.9423C24.5121 31.0196 24.418 31.1246 24.3538 31.2477C24.2895 31.3708 24.2572 31.508 24.2597 31.6468V31.6516Z" fill="white"/>
<path d="M46.6746 31.7085C46.6746 31.6065 46.6746 31.5045 46.6746 31.4025C46.6875 31.1838 46.7594 30.9726 46.8826 30.7913C47.0058 30.6101 47.1757 30.4655 47.3744 30.373C47.7974 30.187 48.2716 30.1526 48.717 30.2758C48.9422 30.3518 49.1424 30.488 49.2958 30.6695C49.7371 31.1013 49.6754 31.6706 49.5924 32.1925C49.5634 32.381 49.4874 32.5592 49.3713 32.7105C49.2552 32.8619 49.1028 32.9815 48.9282 33.0583C48.4958 33.2409 48.0145 33.2727 47.5618 33.1484C47.4301 33.1236 47.3062 33.0675 47.2005 32.985C47.0949 32.9025 47.0105 32.7958 46.9545 32.674C46.9218 32.6102 46.8785 32.5525 46.8264 32.5032C46.6177 32.2636 46.6888 31.9766 46.6746 31.7085ZM48.162 32.5791C48.2711 32.553 48.4134 32.5625 48.4846 32.4961C48.6987 32.2667 48.8189 31.9654 48.8214 31.6516C48.8214 31.5472 48.7218 31.4357 48.7052 31.3219C48.7017 31.2495 48.6822 31.1788 48.6482 31.1148C48.6142 31.0508 48.5664 30.9952 48.5083 30.9518C48.3849 30.8569 47.9058 30.8261 47.7966 30.9376C47.5851 31.1685 47.4697 31.4714 47.474 31.7845C47.474 31.9031 47.5642 32.0217 47.5998 32.1379C47.6192 32.2683 47.6877 32.3864 47.7914 32.468C47.895 32.5496 48.0259 32.5885 48.1572 32.5768L48.162 32.5791Z" fill="white"/>
<path d="M30.9187 30.9115V31.1748C31.1906 31.2103 31.4594 31.2666 31.7228 31.3432C32.0288 31.4523 32.3799 31.5211 32.5673 31.8176C32.6313 31.922 32.6053 32.0809 32.629 32.2138C32.6435 32.3619 32.6189 32.5113 32.5578 32.647C32.4966 32.7826 32.4009 32.8999 32.2803 32.9871C32.2115 33.0511 32.0929 33.0583 32.0098 33.1105C31.813 33.2338 30.7858 33.1982 30.5866 33.0867C30.3857 33.0099 30.2146 32.8711 30.0979 32.6906C30.0244 32.5663 29.9943 32.4211 30.0125 32.2778C30.0528 32.1497 30.2189 32.1165 30.3778 32.0881C30.6862 32.0311 30.7479 32.2826 30.9068 32.4202C30.973 32.4743 31.0465 32.519 31.125 32.553C31.1712 32.5627 31.2188 32.5627 31.265 32.553C31.4809 32.553 31.7015 32.572 31.8011 32.2849C31.6064 32.0779 31.3379 31.956 31.0539 31.9457C30.756 31.9249 30.4711 31.8159 30.2355 31.6326C30.1322 31.5334 30.0623 31.4045 30.0356 31.2638C30.0088 31.1232 30.0264 30.9776 30.086 30.8474C30.1117 30.7443 30.1582 30.6476 30.2226 30.5631C30.2871 30.4787 30.3681 30.4083 30.4608 30.3564C30.5894 30.3054 30.7219 30.2649 30.857 30.2354C30.9904 30.1935 31.128 30.1664 31.2674 30.1548C31.3812 30.1548 31.5046 30.2259 31.6113 30.2259C31.761 30.2307 31.9083 30.265 32.0447 30.3269C32.181 30.3888 32.3038 30.477 32.406 30.5865C32.4965 30.7132 32.5559 30.8595 32.5792 31.0135C32.5792 31.0491 32.5483 31.1202 32.5104 31.1439C32.3728 31.2365 31.7987 31.1748 31.737 31.0301C31.6493 30.8284 31.4168 30.9044 31.3172 30.7525C31.3172 30.7407 31.2436 30.7525 31.2104 30.7739L30.9187 30.9115Z" fill="white"/>
<path d="M93.7708 32.3253C93.5604 32.0951 93.2704 31.9534 92.9595 31.9291C92.7714 31.9149 92.5884 31.8616 92.4222 31.7725C92.2559 31.6835 92.1101 31.5607 91.994 31.412C91.9284 31.1737 91.9556 30.9194 92.0699 30.7004C92.1539 30.5865 92.2484 30.4809 92.3522 30.3849C92.7128 30.1216 93.135 30.2402 93.5383 30.2093C93.778 30.2191 94.0114 30.2892 94.2167 30.4133C94.3138 30.4902 94.3875 30.5927 94.4294 30.7092C94.4713 30.8258 94.4798 30.9517 94.454 31.0728C94.4425 31.1036 94.4218 31.1301 94.3946 31.1487C94.2692 31.1754 94.1395 31.1744 94.0145 31.1457C93.8896 31.117 93.7724 31.0614 93.6711 30.9826C93.5837 30.8761 93.4597 30.8059 93.3233 30.7857C93.187 30.7656 93.048 30.7969 92.9334 30.8735C92.8551 30.9352 92.8978 31.1107 92.9903 31.1582C93.2125 31.2418 93.4421 31.3045 93.6759 31.3456C93.9819 31.4476 94.3614 31.4903 94.537 31.82C94.5842 31.9324 94.6053 32.0541 94.5987 32.1758C94.614 32.3016 94.6021 32.4291 94.5638 32.5499C94.5255 32.6706 94.4616 32.7816 94.3765 32.8755C94.2915 32.9693 94.1872 33.0438 94.0708 33.0937C93.9544 33.1437 93.8286 33.168 93.702 33.165C93.4302 33.1793 93.1578 33.1793 92.886 33.165C92.7079 33.1486 92.536 33.0913 92.3837 32.9975C92.2315 32.9036 92.103 32.7759 92.0083 32.6242C91.93 32.5222 91.9845 32.3134 91.9893 32.1497C91.9893 32.1284 92.0486 32.0928 92.0818 32.0928C92.3404 32.0928 92.6084 32.0169 92.7745 32.33C92.8836 32.5435 93.4244 32.636 93.6213 32.5056C93.6806 32.4961 93.7138 32.4036 93.7708 32.3253Z" fill="white"/>
<path d="M52.8066 31.1273C52.7066 31.395 52.7066 31.6899 52.8066 31.9576C52.8066 31.9766 52.8351 32.0003 52.828 32.0121C52.707 32.2494 52.8778 32.4866 52.8469 32.7451C52.809 33.0701 52.7355 33.1816 52.4128 33.1698C52.2919 33.1621 52.1728 33.1365 52.0594 33.0938C51.9265 33.0488 51.9265 32.9302 51.9289 32.8068C51.9289 32.2897 51.9171 31.7726 51.9289 31.2554C51.9295 31.1749 51.9032 31.0964 51.8542 31.0324C51.8053 30.9684 51.7364 30.9225 51.6585 30.902C51.5824 30.8602 51.4946 30.8448 51.4088 30.8581C51.323 30.8714 51.244 30.9127 51.1841 30.9755C51.119 31.061 51.0633 31.1532 51.018 31.2507C50.7808 31.782 50.916 32.3442 50.8875 32.8922C50.8709 33.1769 50.8875 33.1769 50.6005 33.1745C50.0454 33.1745 50.0881 33.2196 50.0905 32.6526C50.0905 31.941 50.0905 31.2293 50.0905 30.5177C50.0905 30.3161 50.1688 30.2378 50.3514 30.2591C50.5341 30.2805 50.7713 30.1785 50.9374 30.3848C50.9692 30.4029 51.0051 30.4125 51.0417 30.4125C51.0783 30.4125 51.1143 30.4029 51.1461 30.3848C51.279 30.2212 51.4758 30.2876 51.6205 30.2235C51.8417 30.1582 52.0794 30.1802 52.2847 30.2852C52.3929 30.3178 52.4902 30.3791 52.5663 30.4627C52.6423 30.5463 52.6942 30.6489 52.7165 30.7596C52.7355 30.8616 52.7687 30.9826 52.8066 31.1273Z" fill="white"/>
<path d="M90.6895 32.8661C90.3005 33.3192 89.826 33.2267 89.3825 33.1532C89.2425 33.1294 89.1286 32.9397 89.01 32.8187C88.7728 32.5815 88.8582 32.266 88.8535 31.9813C88.8416 31.5069 88.8535 31.0325 88.8535 30.558C88.8535 30.2876 88.8772 30.2544 89.1405 30.2568C89.7027 30.2568 89.6481 30.1714 89.6552 30.7668C89.6552 31.1487 89.6552 31.5306 89.6552 31.9125C89.6555 32.0257 89.6813 32.1373 89.7306 32.2391C89.7798 32.3409 89.8514 32.4304 89.9399 32.5008C90.0846 32.6313 90.4618 32.5388 90.578 32.3063C90.8437 31.7654 90.68 31.2009 90.7132 30.6458C90.7393 30.2568 90.7132 30.2568 91.1046 30.2544C91.5292 30.2544 91.5126 30.2164 91.5126 30.6648C91.5126 31.4065 91.5126 32.1489 91.5126 32.8922C91.5126 33.1626 91.4984 33.1792 91.2232 33.1792H91.1426C90.9362 33.1674 90.6919 33.2409 90.6895 32.8661Z" fill="white"/>
<path d="M26.8859 31.6943C26.8859 31.2863 26.8859 30.8782 26.8859 30.4702C26.8859 30.3184 26.9404 30.233 27.1017 30.2496C27.2631 30.2662 27.3745 30.2496 27.5098 30.2496C27.5385 30.2504 27.5667 30.2573 27.5925 30.27C27.6183 30.2827 27.6411 30.3009 27.6592 30.3232C27.747 30.4892 27.8537 30.3801 27.9534 30.3516C27.9723 30.3516 27.9771 30.3018 27.9984 30.2876C28.1645 30.1547 29.0398 30.2117 29.2153 30.3421C29.3241 30.4185 29.4111 30.5219 29.4676 30.6421C29.5242 30.7623 29.5484 30.8952 29.5379 31.0277C29.5379 31.5638 29.5379 32.1023 29.5379 32.6408C29.5379 32.7238 29.5973 32.8139 29.5806 32.8898C29.5427 32.9887 29.4916 33.082 29.4288 33.1674C29.4288 33.1674 29.3885 33.1674 29.3695 33.1674C28.627 33.1484 28.7457 33.286 28.7338 32.553C28.7338 32.1711 28.7338 31.7892 28.7338 31.4072C28.7362 31.329 28.721 31.2513 28.6894 31.1797C28.6578 31.1081 28.6106 31.0445 28.5512 30.9936C28.4918 30.9426 28.4218 30.9056 28.3463 30.8853C28.2707 30.8649 28.1916 30.8617 28.1147 30.8759C28.0437 30.8894 27.9778 30.9219 27.9239 30.9699C27.87 31.018 27.8302 31.0797 27.8087 31.1487C27.5714 31.6919 27.7233 32.2565 27.69 32.8092C27.6687 33.1626 27.69 33.1674 27.3485 33.165C26.874 33.165 26.874 33.2385 26.874 32.7095C26.8883 32.3774 26.8859 32.0359 26.8859 31.6943Z" fill="white"/>
<path d="M38.9057 32.8757C38.8446 32.9672 38.7631 33.0434 38.6676 33.0981C38.5721 33.1529 38.4652 33.1847 38.3553 33.1911C38.0375 33.1911 37.7149 33.2623 37.4397 33.0441C37.3709 32.9772 37.3075 32.905 37.2499 32.8282C36.9914 32.5507 37.11 32.2067 37.0981 31.8936C37.0815 31.4192 37.0981 30.9447 37.0981 30.4703C37.0981 30.3161 37.155 30.2521 37.3116 30.2544C38.009 30.2687 37.8785 30.1738 37.888 30.8C37.888 31.208 37.888 31.616 37.888 32.0241C37.8942 32.1715 37.9586 32.3105 38.0671 32.4106C38.1756 32.5106 38.3193 32.5636 38.4668 32.5578C38.5909 32.532 38.7036 32.4676 38.7888 32.3739C38.874 32.2801 38.9274 32.1618 38.9413 32.0359C38.9413 31.5378 38.9413 31.042 38.9413 30.5462C38.9413 30.2639 38.9413 30.2568 39.2259 30.2568C39.8 30.2568 39.7312 30.2022 39.7312 30.7526C39.7312 31.4642 39.7312 32.1948 39.7312 32.916C39.7312 33.1057 39.679 33.2172 39.4631 33.184C39.416 33.1769 39.368 33.1769 39.3208 33.184C39.1168 33.1911 38.9389 33.1674 38.9057 32.8757Z" fill="white"/>
<path d="M124.026 32.4415C124.007 32.6289 123.985 32.7783 123.981 32.9159C123.976 33.0535 123.926 33.1698 123.727 33.1674C122.977 33.1674 122.228 33.1674 121.476 33.1674C121.437 33.1694 121.398 33.1633 121.362 33.1495C121.326 33.1357 121.293 33.1145 121.266 33.0873C121.238 33.06 121.217 33.0273 121.203 32.9913C121.189 32.9552 121.182 32.9166 121.184 32.878C121.184 31.7204 121.184 30.562 121.184 29.4028C121.184 29.2296 121.276 29.1656 121.44 29.1656C121.53 29.1656 121.618 29.1656 121.706 29.1656C122.123 29.1537 122.1 29.1418 122.1 29.5665C122.1 30.4181 122.1 31.2697 122.1 32.1213C122.1 32.3276 122.168 32.3964 122.37 32.3917C122.833 32.3917 123.297 32.3917 123.762 32.3917C123.851 32.4005 123.94 32.4171 124.026 32.4415V32.4415Z" fill="white"/>
<path d="M64.2873 30.1595C64.5847 30.2222 64.8766 30.3087 65.1602 30.4181C65.3121 30.4869 65.4093 30.6814 65.5208 30.8308C65.5677 30.906 65.6074 30.9854 65.6394 31.068C65.6987 31.1961 65.6394 31.3052 65.5018 31.3052C65.3115 31.3183 65.1205 31.3183 64.9302 31.3052C64.8973 31.2972 64.8666 31.2823 64.84 31.2614C64.8134 31.2406 64.7916 31.2143 64.776 31.1843C64.7506 31.0907 64.6959 31.0077 64.6199 30.9475C64.5439 30.8873 64.4506 30.853 64.3537 30.8498C64.2454 30.842 64.1371 30.865 64.0414 30.9162C63.9457 30.9674 63.8664 31.0448 63.8129 31.1392C63.5946 31.4452 63.6611 31.7678 63.6966 32.0881C63.7125 32.1735 63.7467 32.2545 63.797 32.3254C63.8472 32.3963 63.9123 32.4555 63.9876 32.4988C64.0629 32.5421 64.1468 32.5685 64.2333 32.5762C64.3199 32.584 64.4071 32.5728 64.4889 32.5435C64.6065 32.4861 64.6986 32.3873 64.7475 32.266C64.7804 32.1875 64.8322 32.1184 64.8982 32.0647C64.9642 32.0111 65.0424 31.9745 65.126 31.9583C65.2095 31.9421 65.2957 31.9468 65.377 31.9719C65.4583 31.997 65.5321 32.0418 65.592 32.1023C65.6188 32.1349 65.6372 32.1736 65.6455 32.2149C65.6537 32.2563 65.6517 32.2991 65.6394 32.3395C65.5223 32.5549 65.3789 32.7549 65.2124 32.9349C65.0767 33.067 64.9051 33.1561 64.719 33.1911C64.4226 33.2362 64.1211 33.2362 63.8247 33.1911C63.5828 33.14 63.3644 33.0108 63.2032 32.8234C63.0139 32.6034 62.8776 32.3429 62.8047 32.062C62.7604 31.9446 62.7417 31.8191 62.7499 31.6939C62.7581 31.5687 62.793 31.4467 62.8522 31.3361C62.9328 31.2009 62.9518 31.0325 63.0277 30.8949C63.1313 30.6796 63.2987 30.5015 63.5071 30.3848C63.7155 30.2681 63.9548 30.2184 64.1924 30.2425H64.2731L64.2873 30.1595Z" fill="white"/>
<path d="M41.1071 31.7085C41.1071 31.8105 41.1071 31.9125 41.1071 32.0145C41.1107 32.0923 41.1299 32.1685 41.1636 32.2387C41.1973 32.3088 41.2448 32.3715 41.3033 32.4228C41.3617 32.4742 41.43 32.5133 41.5039 32.5377C41.5778 32.5621 41.6558 32.5713 41.7334 32.5649C41.9706 32.5506 42.0679 32.3656 42.177 32.2043C42.2613 32.1022 42.3734 32.0267 42.4996 31.9867C42.6258 31.9467 42.7609 31.944 42.8886 31.9789C42.9485 32.0326 42.9852 32.1075 42.9906 32.1877C43.0238 32.4913 42.7012 32.9183 42.4308 33.063C42.0038 33.3002 41.5626 33.2338 41.1285 33.165C40.9443 33.1069 40.7799 32.9984 40.6541 32.8519C40.4817 32.6913 40.3508 32.4913 40.2728 32.269C40.1947 32.0467 40.1717 31.8088 40.2057 31.5757C40.2864 31.0111 40.526 30.5224 41.0811 30.2995C41.3357 30.2204 41.6048 30.1993 41.8686 30.2378C42.1245 30.2676 42.3751 30.3322 42.6135 30.4299C42.7405 30.5129 42.8423 30.629 42.908 30.7658C42.9737 30.9025 43.0006 31.0546 42.9859 31.2056C42.9725 31.2377 42.9518 31.2662 42.9254 31.2888C42.8991 31.3115 42.8678 31.3277 42.8341 31.3361C42.7251 31.3432 42.6157 31.3432 42.5067 31.3361C42.4329 31.3535 42.3551 31.3414 42.29 31.3024C42.2249 31.2634 42.1776 31.2006 42.158 31.1273C42.0133 30.7739 41.4819 30.7976 41.2637 31.0609C41.1277 31.2475 41.0714 31.4804 41.1071 31.7085V31.7085Z" fill="white"/>
<path d="M10.2025 31.7299C10.2025 31.5662 10.2025 31.4286 10.2025 31.2934C10.2243 31.1133 10.2858 30.9402 10.3826 30.7868C10.4794 30.6333 10.6091 30.5033 10.7624 30.4062C11.2368 30.0788 11.7777 30.1903 12.2806 30.2876C12.4103 30.3308 12.5287 30.4024 12.6272 30.4972C12.7257 30.592 12.8018 30.7076 12.8499 30.8356C12.8499 30.8593 12.8665 30.8877 12.8783 30.9115C13.0562 31.2886 13.0278 31.2886 12.6174 31.3408C12.2616 31.3859 12.1192 31.1653 11.9318 30.9637C11.8398 30.9011 11.7312 30.8677 11.6199 30.8677C11.5087 30.8677 11.4 30.9011 11.308 30.9637C10.9593 31.2483 10.9498 31.6302 11.002 32.0169C11.0276 32.1769 11.1122 32.3216 11.239 32.4226C11.3658 32.5235 11.5258 32.5734 11.6875 32.5625C11.7768 32.5576 11.8625 32.5254 11.933 32.4703C12.0034 32.4151 12.0552 32.3397 12.0813 32.2541C12.1545 32.1235 12.2751 32.0261 12.4182 31.9819C12.5612 31.9378 12.7158 31.9503 12.8499 32.0169C12.9661 32.0928 13.0373 32.209 12.9756 32.3253C12.853 32.6416 12.6273 32.9073 12.3351 33.0796C12.0346 33.2014 11.709 33.2486 11.3863 33.2172C11.1915 33.2139 11.0004 33.1642 10.8288 33.0721C10.6572 32.9801 10.51 32.8485 10.3994 32.6882C10.2985 32.5526 10.2286 32.3965 10.1945 32.2309C10.1605 32.0653 10.1632 31.8943 10.2025 31.7299V31.7299Z" fill="white"/>
<path d="M96.0504 33.2338C95.845 33.1887 95.6447 33.1227 95.4527 33.0369C95.3725 32.999 95.3051 32.9388 95.2584 32.8635C95.2117 32.7882 95.1877 32.7009 95.1894 32.6123C95.1894 32.1142 95.1894 31.616 95.1894 31.1202C95.1894 30.9447 95.149 30.8427 94.9521 30.8712C94.7552 30.8996 94.7149 30.8237 94.7292 30.6553C94.7339 30.6008 94.7339 30.5461 94.7292 30.4916C94.7149 30.3256 94.7719 30.2259 94.9664 30.2544C95.1609 30.2829 95.2154 30.1856 95.2036 30.0172C95.2036 29.8749 95.2036 29.7302 95.2036 29.5878C95.2036 29.4455 95.2748 29.3506 95.4527 29.3506C95.7183 29.3364 95.9508 29.3767 96.0694 29.6329C96.1158 29.7587 96.1336 29.8932 96.1216 30.0267C96.1216 30.2046 96.1667 30.2829 96.3588 30.2639C96.596 30.2639 96.6079 30.2639 96.596 30.5865C96.5842 30.9091 96.5818 30.8901 96.3351 30.8783C96.1619 30.8783 96.0979 30.9328 96.0979 31.0989C96.0885 31.1834 96.071 31.2668 96.0457 31.348C96.0397 31.3912 96.0397 31.4352 96.0457 31.4784C96.0457 31.4784 96.0694 31.4998 96.0694 31.5093C96.0981 31.6937 96.1021 31.8812 96.0813 32.0667C96.0656 32.1192 96.0618 32.1745 96.07 32.2286C96.0783 32.2827 96.0985 32.3343 96.1291 32.3797C96.1598 32.4251 96.2001 32.4631 96.2472 32.4911C96.2943 32.519 96.347 32.5361 96.4015 32.5412C96.5699 32.5412 96.6032 32.6028 96.5984 32.7594C96.5794 33.2338 96.6269 33.1674 96.1596 33.1959H96.0742L96.0504 33.2338Z" fill="white"/>
<path d="M125.401 31.0823C125.427 31.1795 125.486 31.2697 125.46 31.3195C125.28 31.654 125.539 31.9718 125.479 32.3039C125.451 32.4558 125.546 32.5672 125.717 32.5411C125.954 32.5103 125.968 32.6384 125.968 32.8211C125.968 33.1342 125.949 33.1769 125.714 33.184C125.489 33.1911 125.265 33.1864 125.04 33.1698C124.904 33.1424 124.781 33.0696 124.691 32.9631C124.602 32.8567 124.551 32.723 124.547 32.5838C124.547 32.1094 124.547 31.616 124.547 31.1321C124.547 30.9589 124.509 30.8569 124.31 30.8783C124.111 30.8996 124.073 30.8071 124.084 30.6411C124.084 30.5746 124.084 30.5058 124.084 30.4371C124.084 30.3137 124.141 30.2425 124.269 30.252C124.507 30.2734 124.568 30.1548 124.545 29.9436C124.539 29.8489 124.539 29.7538 124.545 29.659C124.543 29.6153 124.55 29.5718 124.567 29.5312C124.583 29.4906 124.607 29.4539 124.639 29.4235C124.67 29.393 124.707 29.3695 124.748 29.3545C124.789 29.3395 124.833 29.3333 124.877 29.3364C124.964 29.3221 125.053 29.3221 125.14 29.3364C125.18 29.3454 125.218 29.3622 125.251 29.3858C125.284 29.4094 125.313 29.4394 125.335 29.474C125.397 29.6644 125.439 29.8608 125.46 30.0599C125.477 30.1951 125.515 30.252 125.657 30.2497C125.752 30.2497 125.923 30.2734 125.928 30.3113C125.951 30.4686 125.951 30.6285 125.928 30.7858C125.928 30.819 125.819 30.8545 125.757 30.8617C125.527 30.8996 125.527 30.8949 125.401 31.0823Z" fill="white"/>
<path d="M44.912 32.451C44.9684 32.5503 45.0029 32.6605 45.0131 32.7743C45.0234 32.888 45.0091 33.0027 44.9713 33.1104C44.9713 33.1389 44.8883 33.1769 44.8432 33.1769C44.6115 33.1848 44.3795 33.1808 44.1482 33.165C44.0033 33.1292 43.8734 33.0488 43.7768 32.9351C43.6802 32.8215 43.6217 32.6803 43.6097 32.5316C43.6097 32.0691 43.6097 31.6065 43.6097 31.1416C43.6097 30.9731 43.5907 30.8569 43.3725 30.864C43.1542 30.8711 43.1353 30.7241 43.1353 30.5438C43.1353 30.3635 43.1827 30.2401 43.3725 30.2544C43.5622 30.2686 43.6097 30.1761 43.6097 30.0172C43.6097 29.9009 43.6097 29.7799 43.6097 29.6708C43.6082 29.6258 43.6162 29.5809 43.6333 29.5392C43.6505 29.4976 43.6763 29.46 43.709 29.429C43.7418 29.3981 43.7807 29.3744 43.8233 29.3597C43.8659 29.3449 43.9111 29.3394 43.956 29.3435C44.1173 29.3435 44.3047 29.2794 44.4162 29.4692C44.4555 29.5244 44.4845 29.5863 44.5016 29.6519C44.5099 29.7473 44.5099 29.8434 44.5016 29.9389C44.5016 30.2449 44.5016 30.252 44.8147 30.2496C44.9499 30.2496 44.9998 30.3042 45.0021 30.4275C45.0021 30.4821 45.0021 30.5367 45.0021 30.5912C45.0021 30.8616 44.9879 30.8901 44.7151 30.8735C44.5372 30.8735 44.4779 30.9304 44.4897 31.0917C44.4897 31.4808 44.4898 31.8674 44.5016 32.2565C44.5111 32.4842 44.7032 32.5838 44.912 32.451Z" fill="white"/>
<path d="M33.2125 30.8925C33.1804 30.885 33.148 30.8795 33.1152 30.8759C32.7736 30.8546 32.6645 30.7004 32.7713 30.3659C32.7929 30.3321 32.8228 30.3044 32.858 30.2854C32.8933 30.2663 32.9328 30.2564 32.9729 30.2568C33.1911 30.2757 33.2481 30.1737 33.2291 29.9816C33.2339 29.8868 33.2339 29.7918 33.2291 29.6969C33.2125 29.63 33.2219 29.5593 33.2553 29.499C33.2888 29.4387 33.3438 29.3933 33.4094 29.372C33.5505 29.3317 33.7 29.3317 33.8411 29.372C33.914 29.3929 33.9755 29.4419 34.0124 29.5081C34.0493 29.5743 34.0585 29.6524 34.038 29.7254C34.0321 29.7862 34.0321 29.8473 34.038 29.9081C34.038 30.1453 34.1424 30.2354 34.3701 30.2425C34.5978 30.2497 34.6358 30.2591 34.6358 30.5296C34.6358 30.8498 34.6358 30.8569 34.3748 30.8664C34.1139 30.8759 34.0356 30.9518 34.038 31.227C34.038 31.3978 34.0238 31.5686 34.038 31.737C34.0493 31.9439 34.0892 32.1483 34.1566 32.3443C34.1922 32.4344 34.3511 32.5056 34.465 32.5269C34.5789 32.5483 34.6405 32.6005 34.6358 32.7357C34.6358 33.1698 34.6192 33.1959 34.1875 33.1816C33.9502 33.1816 33.713 33.2172 33.49 33.0369C33.415 32.9897 33.3524 32.9253 33.3074 32.8489C33.2625 32.7726 33.2364 32.6866 33.2315 32.5981C33.2315 32.0936 33.2315 31.5891 33.2315 31.0846C33.2291 31.0253 33.2125 30.9589 33.2125 30.8925Z" fill="white"/>
<path d="M6.1939 30.8949C6.1939 31.3527 6.1939 31.7821 6.1939 32.2091C6.20429 32.2968 6.24511 32.378 6.30927 32.4387C6.37342 32.4994 6.45684 32.5357 6.54498 32.5412C6.79406 32.5412 6.79406 32.5412 6.79643 32.8756C6.79643 33.1413 6.77508 33.1722 6.53549 33.1793C6.34572 33.1793 6.15358 33.1793 5.96381 33.1793C5.81149 33.1697 5.6685 33.1026 5.56371 32.9916C5.45891 32.8807 5.40013 32.7341 5.39923 32.5815C5.39923 32.1071 5.39923 31.6137 5.39923 31.1297C5.39923 30.9542 5.35654 30.8569 5.16202 30.8925C4.9675 30.9281 4.9248 30.8071 4.9248 30.6553C4.9248 30.5936 4.9248 30.532 4.9248 30.4703C4.9248 30.3208 4.97936 30.2592 5.12881 30.2686C5.33044 30.2829 5.41584 30.1927 5.38975 29.9887C5.38143 29.894 5.38143 29.7988 5.38975 29.7041C5.38296 29.6567 5.38682 29.6083 5.40105 29.5626C5.41528 29.5168 5.43951 29.4748 5.47199 29.4396C5.50447 29.4044 5.54439 29.3769 5.58884 29.359C5.63328 29.3412 5.68115 29.3334 5.72896 29.3364C6.19153 29.3127 6.20339 29.315 6.19153 29.78V29.882C6.19153 30.2331 6.19153 30.2378 6.54498 30.2449C6.71815 30.2449 6.80118 30.3066 6.80355 30.4964C6.80355 30.8641 6.80355 30.8688 6.43586 30.8712C6.36233 30.8735 6.28879 30.8854 6.1939 30.8949Z" fill="white"/>
<path d="M35.7291 30.5699C36.0256 30.3754 36.2605 30.1951 36.5807 30.2117C36.742 30.2117 36.8179 30.271 36.8179 30.4489C36.8168 30.4623 36.8168 30.4758 36.8179 30.4892C36.8037 30.6434 36.8393 30.8356 36.761 30.9399C36.6827 31.0443 36.4906 30.9993 36.3482 31.0206C36.227 31.0479 36.1168 31.1112 36.0321 31.2022C35.9475 31.2932 35.8923 31.4077 35.8738 31.5306C35.8572 31.9647 35.8477 32.4012 35.8406 32.8377C35.8468 32.882 35.8429 32.9272 35.8293 32.9699C35.8157 33.0125 35.7927 33.0516 35.7619 33.0842C35.7312 33.1167 35.6935 33.142 35.6517 33.158C35.6099 33.1741 35.565 33.1805 35.5203 33.1769C34.9463 33.1769 34.9463 33.1769 34.9463 32.6218C34.9463 31.9102 34.9463 31.2199 34.9463 30.5177C34.9463 30.3232 35.0127 30.2378 35.2049 30.252H35.3282C35.5132 30.2497 35.7599 30.1832 35.7291 30.5699Z" fill="white"/>
<path d="M97.7205 30.5533C97.8676 30.4632 97.9957 30.3801 98.1261 30.3019C98.1641 30.2781 98.2044 30.2402 98.2447 30.2402C98.4108 30.2402 98.5745 30.2568 98.7405 30.2663C98.7405 30.4821 98.7405 30.698 98.7263 30.9115C98.7263 30.9494 98.5934 31.0016 98.527 30.9969C98.3174 30.9886 98.1124 31.0598 97.953 31.1962C97.9178 31.2166 97.8897 31.2472 97.8723 31.2839C97.7976 31.5162 97.7421 31.7542 97.7063 31.9956C97.6778 32.3134 97.7063 32.636 97.7063 32.9444C97.7063 33.0962 97.6517 33.1674 97.4904 33.1627C96.8025 33.1461 96.9163 33.2504 96.9116 32.6194C96.9116 31.9078 96.9116 31.1962 96.9116 30.4845C96.9116 30.2686 96.9922 30.2046 97.1868 30.2236C97.2413 30.2236 97.2959 30.2236 97.3504 30.2236C97.6446 30.2473 97.6446 30.2473 97.7205 30.5533Z" fill="white"/>
<path d="M102.953 31.1724C102.953 31.7583 102.953 32.3442 102.953 32.9301C102.953 33.1247 102.892 33.184 102.693 33.1674C102.095 33.1484 102.164 33.2314 102.164 32.6241C102.164 31.5757 102.164 30.5272 102.164 29.4787C102.164 29.1822 102.197 29.1537 102.496 29.1537C102.97 29.1537 102.956 29.1537 102.956 29.6281V31.1605L102.953 31.1724Z" fill="white"/>
<path d="M70.1656 31.7085V32.8946C70.1656 33.1176 70.111 33.1674 69.8857 33.1698H69.4777C69.4457 33.1731 69.4134 33.1693 69.383 33.1586C69.3527 33.1478 69.3252 33.1305 69.3025 33.1077C69.2798 33.085 69.2624 33.0575 69.2516 33.0272C69.2409 32.9969 69.2371 32.9645 69.2404 32.9326C69.2404 32.1094 69.2404 31.2863 69.2404 30.4632C69.2404 30.3137 69.3021 30.252 69.4468 30.252C69.5915 30.252 69.7718 30.252 69.9355 30.252C70.0992 30.252 70.1727 30.3327 70.1727 30.4892C70.1727 30.8973 70.1727 31.3053 70.1727 31.7156L70.1656 31.7085Z" fill="white"/>
<path d="M103.547 31.6896C103.547 31.3005 103.547 30.9139 103.547 30.5248C103.547 30.2876 103.573 30.2591 103.817 30.252C103.94 30.252 104.054 30.252 104.185 30.252C104.41 30.252 104.467 30.3113 104.469 30.5296V32.84C104.474 32.8848 104.468 32.9301 104.453 32.9725C104.438 33.0149 104.414 33.0534 104.382 33.0854C104.35 33.1173 104.312 33.1419 104.27 33.1573C104.227 33.1727 104.182 33.1786 104.137 33.1745C103.528 33.1745 103.539 33.222 103.547 32.5886C103.547 32.2897 103.547 31.9884 103.547 31.6896Z" fill="white"/>
<path d="M46.2189 31.6943V32.8803C46.2189 33.1365 46.1714 33.1792 45.9223 33.1745H45.6851C45.6336 33.181 45.5813 33.1757 45.5322 33.1589C45.4831 33.1422 45.4384 33.1145 45.4016 33.0779C45.3648 33.0413 45.3368 32.9968 45.3197 32.9478C45.3027 32.8988 45.297 32.8465 45.3032 32.795C45.3032 32.0675 45.3032 31.3392 45.3032 30.6102C45.3032 30.3493 45.3981 30.2496 45.6567 30.252C46.3161 30.252 46.2141 30.188 46.2236 30.819C46.2212 31.1084 46.2189 31.4001 46.2189 31.6943Z" fill="white"/>
<path d="M4.64007 31.7085V32.8946C4.64007 33.1318 4.60449 33.165 4.3649 33.165H4.03517C3.99526 33.1667 3.95544 33.1601 3.91818 33.1457C3.88092 33.1313 3.847 33.1094 3.81853 33.0814C3.79007 33.0534 3.76766 33.0198 3.7527 32.9828C3.73773 32.9458 3.73053 32.9061 3.73154 32.8661C3.73154 32.0715 3.73154 31.2744 3.73154 30.4774C3.73154 30.3113 3.79796 30.2402 3.96875 30.2402C4.79189 30.2402 4.62584 30.1382 4.64719 30.8711C4.64719 31.1439 4.64719 31.4167 4.64719 31.6895L4.64007 31.7085Z" fill="white"/>
<path d="M17.4518 31.7085C17.4518 32.1094 17.4518 32.5103 17.4518 32.9136C17.4518 33.0915 17.383 33.1792 17.198 33.1674C17.1031 33.1674 17.0082 33.1674 16.9133 33.1674C16.8653 33.1735 16.8166 33.1686 16.7708 33.153C16.725 33.1375 16.6833 33.1117 16.649 33.0776C16.6147 33.0435 16.5886 33.002 16.5728 32.9564C16.5569 32.9107 16.5517 32.862 16.5575 32.8139C16.5575 32.0596 16.5575 31.3029 16.5575 30.5485C16.5552 30.5097 16.5609 30.4708 16.5744 30.4343C16.5878 30.3978 16.6087 30.3644 16.6357 30.3364C16.6626 30.3083 16.6951 30.2861 16.731 30.2712C16.767 30.2563 16.8056 30.2489 16.8445 30.2496C17.5182 30.2496 17.4447 30.2164 17.4447 30.8166L17.4518 31.7085Z" fill="white"/>
<path d="M104.023 29.1632H104.206C104.381 29.1632 104.474 29.2509 104.467 29.4265C104.459 29.602 104.528 29.7657 104.334 29.8558C104.242 29.8992 104.143 29.9234 104.042 29.927C103.539 29.927 103.525 29.9128 103.544 29.4028C103.544 29.2509 103.613 29.1656 103.76 29.1656C103.847 29.1656 103.935 29.1656 104.023 29.1656V29.1632Z" fill="white"/>
<path d="M45.7849 29.1656C46.2166 29.1656 46.2166 29.1656 46.2143 29.5973C46.2143 29.9081 46.1905 29.9413 45.8727 29.9247C45.7137 29.9247 45.5453 29.9911 45.3983 29.8156C45.3446 29.7561 45.309 29.6826 45.2955 29.6036C45.2821 29.5246 45.2914 29.4435 45.3223 29.3696C45.3315 29.3333 45.3477 29.2991 45.3701 29.2691C45.3924 29.239 45.4205 29.2137 45.4527 29.1945C45.4849 29.1754 45.5205 29.1627 45.5576 29.1573C45.5946 29.152 45.6324 29.154 45.6687 29.1632C45.7072 29.1682 45.7462 29.169 45.7849 29.1656V29.1656Z" fill="white"/>
<path d="M69.7006 29.965C69.5839 29.938 69.4709 29.8974 69.3637 29.844C69.3003 29.7574 69.2581 29.6571 69.2404 29.5513C69.2227 29.4454 69.23 29.3369 69.2617 29.2344C69.2759 29.213 69.302 29.1869 69.321 29.1869C69.5582 29.1869 69.7954 29.1869 70.0327 29.1869C70.0611 29.1869 70.1133 29.2201 70.1133 29.2391C70.1511 29.4072 70.1599 29.5805 70.1394 29.7515C70.1166 29.8196 70.0682 29.8762 70.0045 29.9093C69.9408 29.9425 69.8667 29.9497 69.7978 29.9294C69.7711 29.9258 69.7439 29.9258 69.7172 29.9294L69.7006 29.965Z" fill="white"/>
<path d="M4.21088 29.927C3.81947 29.927 3.69375 29.8132 3.73645 29.4526C3.75542 29.2937 3.8337 29.1585 4.03297 29.1656H4.15394C4.62837 29.1656 4.74935 29.3198 4.62837 29.7918C4.61489 29.8233 4.59476 29.8514 4.56938 29.8743C4.54399 29.8973 4.51394 29.9144 4.4813 29.9247C4.39162 29.9368 4.30076 29.9376 4.21088 29.927V29.927Z" fill="white"/>
<path d="M16.9536 29.9294C16.9156 29.9421 16.8754 29.9469 16.8355 29.9436C16.7956 29.9402 16.7568 29.9288 16.7215 29.9099C16.6862 29.891 16.6551 29.8651 16.6302 29.8338C16.6052 29.8025 16.5869 29.7664 16.5764 29.7278C16.5401 29.6492 16.5292 29.5612 16.5454 29.4761C16.5615 29.391 16.6039 29.3132 16.6665 29.2534C16.7282 29.1964 17.1718 29.111 17.2596 29.1893C17.3575 29.2726 17.4229 29.3876 17.4446 29.5143C17.4707 29.8725 17.3972 29.9294 16.9536 29.9294Z" fill="white"/>
<path d="M86.6261 30.4679C86.6977 30.49 86.7599 30.5353 86.8029 30.5968C86.8459 30.6582 86.8671 30.7322 86.8633 30.8071C86.8846 30.9874 86.9771 31.1582 87.0151 31.3361C87.053 31.514 86.9866 31.6089 86.7968 31.6065C86.6071 31.6041 86.4505 31.654 86.3224 31.4974C86.2933 31.4647 86.2773 31.4225 86.2773 31.3788C86.3082 31.2744 86.3556 31.1772 86.3936 31.0775C86.4766 30.8806 86.5478 30.6814 86.6261 30.4679Z" fill="white"/>
</g>
</svg>
