<svg width="64" height="64" viewBox="0 0 64 64" fill="none" xmlns="http://www.w3.org/2000/svg">
<circle cx="32" cy="32" r="32" fill="#16263E"/>
<path d="M24.0176 46.0713H44.5176C45.8768 46.0713 47.1804 45.5313 48.1415 44.5702C49.1026 43.6091 49.6426 42.3055 49.6426 40.9463C49.6426 39.5871 49.1026 38.2835 48.1415 37.3224C47.1804 36.3612 45.8768 35.8213 44.5176 35.8213H24.0176C22.6583 35.8213 21.3548 36.3612 20.3937 37.3224C19.4325 38.2835 18.8926 39.5871 18.8926 40.9463C18.8926 42.3055 19.4325 43.6091 20.3937 44.5702C21.3548 45.5313 22.6583 46.0713 24.0176 46.0713ZM44.5176 37.2856C45.4885 37.2856 46.4196 37.6713 47.1061 38.3578C47.7926 39.0443 48.1783 39.9754 48.1783 40.9463C48.1783 41.9172 47.7926 42.8483 47.1061 43.5348C46.4196 44.2213 45.4885 44.607 44.5176 44.607H24.0176C23.0467 44.607 22.1156 44.2213 21.4291 43.5348C20.7425 42.8483 20.3569 41.9172 20.3569 40.9463C20.3569 39.9754 20.7425 39.0443 21.4291 38.3578C22.1156 37.6713 23.0467 37.2856 24.0176 37.2856H44.5176Z" fill="#70B6F9"/>
<path d="M24.0174 37.2856H44.5174C44.7115 37.2856 44.8978 37.2085 45.0351 37.0712C45.1724 36.9339 45.2495 36.7477 45.2495 36.5535V27.7678C45.2495 27.5736 45.1724 27.3874 45.0351 27.2501C44.8978 27.1128 44.7115 27.0356 44.5174 27.0356H25.4817C24.8993 27.0363 24.341 27.2679 23.9292 27.6797C23.5175 28.0914 23.2859 28.6497 23.2852 29.2321V36.5535C23.2852 36.7477 23.3624 36.9339 23.4997 37.0712C23.637 37.2085 23.8232 37.2856 24.0174 37.2856ZM43.7852 35.8214H24.7495V29.2321C24.7496 29.0379 24.8268 28.8518 24.9641 28.7145C25.1014 28.5772 25.2875 28.5 25.4817 28.4999H43.7852V35.8214Z" fill="#70B6F9"/>
<path d="M9.37465 46.0715H13.7675C14.738 46.0704 15.6685 45.6843 16.3548 44.998C17.041 44.3118 17.4271 43.3813 17.4282 42.4108V30.6965C17.4282 30.5023 17.3511 30.3161 17.2138 30.1788C17.0765 30.0415 16.8903 29.9644 16.6961 29.9644H13.7675C13.61 29.9644 13.4568 30.0152 13.3304 30.1092C13.2041 30.2033 13.1114 30.3355 13.0661 30.4863L8.67326 45.1292C8.64049 45.2385 8.63374 45.3539 8.65353 45.4663C8.67332 45.5787 8.71912 45.6849 8.78726 45.7765C8.8554 45.868 8.944 45.9424 9.04599 45.9936C9.14798 46.0448 9.26052 46.0715 9.37465 46.0715ZM15.9639 31.4286V42.4108C15.9633 42.9931 15.7317 43.5514 15.3199 43.9632C14.9081 44.375 14.3498 44.6066 13.7675 44.6072H10.3584L14.312 31.4286H15.9639Z" fill="#70B6F9"/>
<path d="M24.0174 43.1429H44.5174C45.1 43.1429 45.6586 42.9114 46.0705 42.4995C46.4825 42.0876 46.7139 41.529 46.7139 40.9464C46.7139 40.3639 46.4825 39.8052 46.0705 39.3933C45.6586 38.9814 45.1 38.75 44.5174 38.75H24.0174C23.4349 38.75 22.8762 38.9814 22.4643 39.3933C22.0524 39.8052 21.821 40.3639 21.821 40.9464C21.821 41.529 22.0524 42.0876 22.4643 42.4995C22.8762 42.9114 23.4349 43.1429 24.0174 43.1429ZM44.5174 40.2143C44.7116 40.2143 44.8978 40.2914 45.0351 40.4287C45.1724 40.566 45.2496 40.7523 45.2496 40.9464C45.2496 41.1406 45.1724 41.3268 45.0351 41.4641C44.8978 41.6014 44.7116 41.6786 44.5174 41.6786H24.0174C23.8233 41.6786 23.637 41.6014 23.4997 41.4641C23.3624 41.3268 23.2853 41.1406 23.2853 40.9464C23.2853 40.7523 23.3624 40.566 23.4997 40.4287C23.637 40.2914 23.8233 40.2143 24.0174 40.2143H44.5174Z" fill="#70B6F9"/>
<path d="M44.5174 43.1429C44.9519 43.1429 45.3765 43.014 45.7377 42.7727C46.0989 42.5313 46.3804 42.1883 46.5467 41.787C46.7129 41.3856 46.7564 40.944 46.6717 40.5179C46.5869 40.0919 46.3777 39.7005 46.0705 39.3933C45.7634 39.0861 45.372 38.877 44.9459 38.7922C44.5199 38.7075 44.0782 38.751 43.6769 38.9172C43.2756 39.0834 42.9325 39.365 42.6912 39.7262C42.4498 40.0874 42.321 40.512 42.321 40.9464C42.3216 41.5288 42.5533 42.0871 42.965 42.4988C43.3768 42.9106 43.9351 43.1422 44.5174 43.1429ZM44.5174 40.2143C44.6622 40.2143 44.8038 40.2572 44.9242 40.3377C45.0446 40.4181 45.1384 40.5325 45.1938 40.6663C45.2493 40.8 45.2638 40.9472 45.2355 41.0893C45.2073 41.2313 45.1375 41.3617 45.0351 41.4641C44.9327 41.5665 44.8023 41.6363 44.6603 41.6645C44.5182 41.6928 44.371 41.6783 44.2373 41.6228C44.1035 41.5674 43.9891 41.4736 43.9087 41.3532C43.8282 41.2328 43.7853 41.0912 43.7853 40.9464C43.7855 40.7523 43.8627 40.5662 43.9999 40.4289C44.1372 40.2917 44.3233 40.2145 44.5174 40.2143Z" fill="#70B6F9"/>
<path d="M24.0174 43.1429C24.4518 43.1429 24.8765 43.014 25.2377 42.7727C25.5989 42.5313 25.8804 42.1883 26.0467 41.787C26.2129 41.3856 26.2564 40.944 26.1717 40.5179C26.0869 40.0919 25.8777 39.7005 25.5705 39.3933C25.2634 39.0861 24.872 38.877 24.4459 38.7922C24.0199 38.7075 23.5782 38.751 23.1769 38.9172C22.7756 39.0834 22.4325 39.365 22.1912 39.7262C21.9498 40.0874 21.821 40.512 21.821 40.9464C21.8216 41.5288 22.0533 42.0871 22.465 42.4988C22.8768 42.9106 23.4351 43.1422 24.0174 43.1429ZM24.0174 40.2143C24.1622 40.2143 24.3038 40.2572 24.4242 40.3377C24.5446 40.4181 24.6384 40.5325 24.6938 40.6663C24.7493 40.8 24.7638 40.9472 24.7355 41.0893C24.7073 41.2313 24.6375 41.3617 24.5351 41.4641C24.4327 41.5665 24.3023 41.6363 24.1603 41.6645C24.0182 41.6928 23.871 41.6783 23.7373 41.6228C23.6035 41.5674 23.4891 41.4736 23.4087 41.3532C23.3282 41.2328 23.2853 41.0912 23.2853 40.9464C23.2854 40.7523 23.3626 40.5661 23.4999 40.4289C23.6371 40.2916 23.8233 40.2144 24.0174 40.2143Z" fill="#70B6F9"/>
<path d="M34.2674 43.1429C34.7019 43.1429 35.1265 43.014 35.4877 42.7727C35.8489 42.5313 36.1304 42.1883 36.2967 41.787C36.4629 41.3856 36.5064 40.944 36.4217 40.5179C36.3369 40.0919 36.1277 39.7005 35.8205 39.3933C35.5134 39.0861 35.122 38.877 34.6959 38.7922C34.2699 38.7075 33.8282 38.751 33.4269 38.9172C33.0256 39.0834 32.6825 39.365 32.4412 39.7262C32.1998 40.0874 32.071 40.512 32.071 40.9464C32.0717 41.5288 32.3033 42.0871 32.715 42.4988C33.1268 42.9106 33.6851 43.1422 34.2674 43.1429ZM34.2674 40.2143C34.4122 40.2143 34.5538 40.2572 34.6742 40.3377C34.7946 40.4181 34.8884 40.5325 34.9438 40.6663C34.9993 40.8 35.0138 40.9472 34.9855 41.0893C34.9573 41.2313 34.8875 41.3617 34.7851 41.4641C34.6827 41.5665 34.5523 41.6363 34.4103 41.6645C34.2683 41.6928 34.121 41.6783 33.9873 41.6228C33.8535 41.5674 33.7391 41.4736 33.6587 41.3532C33.5782 41.2328 33.5353 41.0912 33.5353 40.9464C33.5355 40.7523 33.6127 40.5662 33.7499 40.4289C33.8872 40.2917 34.0733 40.2145 34.2674 40.2143Z" fill="#70B6F9"/>
<path d="M16.6963 43.143H19.8811C20.0753 43.143 20.2615 43.0659 20.3988 42.9286C20.5361 42.7913 20.6133 42.605 20.6133 42.4109C20.6133 42.2167 20.5361 42.0305 20.3988 41.8931C20.2615 41.7558 20.0753 41.6787 19.8811 41.6787H16.6963C16.5021 41.6787 16.3159 41.7558 16.1786 41.8931C16.0413 42.0305 15.9642 42.2167 15.9642 42.4109C15.9642 42.605 16.0413 42.7913 16.1786 42.9286C16.3159 43.0659 16.5021 43.143 16.6963 43.143Z" fill="#70B6F9"/>
<path d="M16.6963 40.2143H19.8811C20.0753 40.2143 20.2615 40.1372 20.3988 39.9998C20.5361 39.8625 20.6133 39.6763 20.6133 39.4821C20.6133 39.288 20.5361 39.1017 20.3988 38.9644C20.2615 38.8271 20.0753 38.75 19.8811 38.75H16.6963C16.5021 38.75 16.3159 38.8271 16.1786 38.9644C16.0413 39.1017 15.9642 39.288 15.9642 39.4821C15.9642 39.6763 16.0413 39.8625 16.1786 39.9998C16.3159 40.1372 16.5021 40.2143 16.6963 40.2143Z" fill="#70B6F9"/>
<path d="M29.8748 32.8929C30.069 32.8929 30.2552 32.8158 30.3925 32.6785C30.5298 32.5412 30.6069 32.355 30.6069 32.1608V30.6965C30.6069 30.5023 30.5298 30.3161 30.3925 30.1788C30.2552 30.0415 30.069 29.9644 29.8748 29.9644C29.6806 29.9644 29.4944 30.0415 29.3571 30.1788C29.2198 30.3161 29.1426 30.5023 29.1426 30.6965V32.1608C29.1426 32.355 29.2198 32.5412 29.3571 32.6785C29.4944 32.8158 29.6806 32.8929 29.8748 32.8929Z" fill="#70B6F9"/>
<path d="M32.8035 32.8929C32.9977 32.8929 33.1839 32.8158 33.3212 32.6785C33.4585 32.5412 33.5356 32.355 33.5356 32.1608V30.6965C33.5356 30.5023 33.4585 30.3161 33.3212 30.1788C33.1839 30.0415 32.9977 29.9644 32.8035 29.9644C32.6093 29.9644 32.4231 30.0415 32.2858 30.1788C32.1485 30.3161 32.0714 30.5023 32.0714 30.6965V32.1608C32.0714 32.355 32.1485 32.5412 32.2858 32.6785C32.4231 32.8158 32.6093 32.8929 32.8035 32.8929Z" fill="#70B6F9"/>
<path d="M26.9461 32.8929C27.1403 32.8929 27.3265 32.8158 27.4638 32.6785C27.6011 32.5412 27.6782 32.355 27.6782 32.1608V30.6965C27.6782 30.5023 27.6011 30.3161 27.4638 30.1788C27.3265 30.0415 27.1403 29.9644 26.9461 29.9644C26.7519 29.9644 26.5657 30.0415 26.4284 30.1788C26.2911 30.3161 26.2139 30.5023 26.2139 30.6965V32.1608C26.2139 32.355 26.2911 32.5412 26.4284 32.6785C26.5657 32.8158 26.7519 32.8929 26.9461 32.8929Z" fill="#70B6F9"/>
<path d="M31.3388 28.4999H44.5174C44.7115 28.4999 44.8978 28.4228 45.0351 28.2855C45.1724 28.1482 45.2495 27.962 45.2495 27.7678V17.5178C45.2495 17.3236 45.1724 17.1374 45.0351 17.0001C44.8978 16.8628 44.7115 16.7856 44.5174 16.7856H34.2674C33.2968 16.7868 32.3664 17.1728 31.6801 17.8591C30.9938 18.5454 30.6078 19.4758 30.6067 20.4464V27.7678C30.6067 27.962 30.6838 28.1482 30.8211 28.2855C30.9584 28.4228 31.1446 28.4999 31.3388 28.4999ZM43.7852 27.0356H32.0709V20.4464C32.0716 19.864 32.3032 19.3057 32.715 18.894C33.1267 18.4822 33.685 18.2506 34.2674 18.2499H43.7852V27.0356Z" fill="#70B6F9"/>
<path d="M34.2677 25.5715H41.5891C41.7833 25.5715 41.9695 25.4944 42.1068 25.3571C42.2442 25.2198 42.3213 25.0335 42.3213 24.8394V20.4465C42.3213 20.2523 42.2442 20.0661 42.1068 19.9288C41.9695 19.7915 41.7833 19.7144 41.5891 19.7144H34.2677C34.0735 19.7144 33.8873 19.7915 33.75 19.9288C33.6127 20.0661 33.5356 20.2523 33.5356 20.4465V24.8394C33.5356 25.0335 33.6127 25.2198 33.75 25.3571C33.8873 25.4944 34.0735 25.5715 34.2677 25.5715ZM40.857 24.1072H34.9999V21.1786H40.857V24.1072Z" fill="#70B6F9"/>
<path d="M26.9461 28.4997C27.1403 28.4997 27.3265 28.4226 27.4638 28.2853C27.6011 28.148 27.6782 27.9618 27.6782 27.7676V24.839C27.6776 24.2567 27.446 23.6984 27.0342 23.2866C26.6224 22.8748 26.0641 22.6432 25.4818 22.6426C25.2876 22.6426 25.1014 22.7197 24.9641 22.857C24.8268 22.9943 24.7497 23.1805 24.7497 23.3747C24.7497 23.5689 24.8268 23.7551 24.9641 23.8924C25.1014 24.0297 25.2876 24.1069 25.4818 24.1069C25.6759 24.107 25.8621 24.1842 25.9994 24.3214C26.1366 24.4587 26.2138 24.6449 26.2139 24.839V27.7676C26.2139 27.9618 26.2911 28.148 26.4284 28.2853C26.5657 28.4226 26.7519 28.4997 26.9461 28.4997Z" fill="#70B6F9"/>
</svg>
