<svg width="366" height="88" viewBox="0 0 366 88" fill="none" xmlns="http://www.w3.org/2000/svg">
<path d="M20.9984 23.2205L36.2762 20.04C38.7204 17.7561 41.5393 15.9097 44.6096 14.5816C48.1942 13.0133 51.9588 11.8937 55.8179 11.2483L55.7485 11.165L60.429 5.99829C54.9768 6.32415 49.5779 7.25581 44.3318 8.77607C39.4962 10.1006 34.8651 12.082 30.5679 14.665C26.8353 16.8209 23.5796 19.7127 20.9984 23.165V23.2205ZM51.7762 47.6928C47.6012 46.6398 43.6239 44.9185 39.9984 42.5955C37.1265 40.7802 34.7612 38.2668 33.1234 35.29L50.9985 25.8455H0.567871L17.7345 31.3178C17.0971 36.0587 18.3437 40.8606 21.2068 44.6928C24.7569 49.4965 29.469 53.3198 34.9012 55.8039C42.0538 59.1553 49.7314 61.2462 57.5957 61.9844L51.7068 47.7622V47.6928H51.7762ZM132.262 25.8455H81.8457L100.568 35.4289C99.064 38.3715 96.8128 40.8669 94.0402 42.665C90.5295 45.0329 86.6263 46.7587 82.5124 47.7622L66.7624 35.2622L67.2346 49.6094L67.3735 54.79L68.304 87.7483L77.4429 61.9428C85.2679 61.2607 92.9072 59.1816 99.9985 55.8039C106.054 52.7391 110.429 49.0354 113.123 44.6928C114.447 42.7242 115.361 40.5099 115.812 38.1814C116.263 35.8528 116.241 33.4573 115.748 31.1372L132.276 25.8177L132.262 25.8455ZM76.1651 11.165C80.1366 11.8703 84.0171 13.0163 87.7346 14.5816C90.9768 15.9277 93.9716 17.8053 96.5957 20.1372L111.985 23.3316C109.18 19.8531 105.739 16.9401 101.846 14.7483C97.373 12.1652 92.5826 10.1762 87.5957 8.83163C82.2255 7.31612 76.7075 6.3848 71.1374 6.05385L65.679 0.248291L65.8457 5.80385V6.58163L66.1929 18.1511L76.1929 11.2066" fill="white"/>
<path d="M151.721 49.6233H130.582C129.05 49.5976 127.56 49.1139 126.305 48.2344C125.762 47.6874 125.336 47.0362 125.052 46.3201C124.768 45.604 124.632 44.8379 124.652 44.0678C124.724 42.4246 125.116 40.8112 125.805 39.3178C127.141 36.5905 129.034 34.173 131.36 32.2205C133.776 30.3987 136.674 29.3265 139.693 29.1372H158.693C158.693 29.1372 159.11 29.1372 159.11 29.4011C159.117 29.4425 159.117 29.4847 159.11 29.5261L157.902 32.3039C157.826 32.4244 157.719 32.5218 157.591 32.5855C157.464 32.6492 157.322 32.6767 157.18 32.665H144.68C143.401 32.6928 142.176 33.1867 141.235 34.0539C140.401 35.0221 139.738 36.126 139.277 37.3178L137.888 40.5539C137.302 41.7714 136.895 43.0672 136.68 44.4011C136.694 44.6515 136.761 44.8961 136.875 45.1193C136.99 45.3425 137.149 45.5394 137.344 45.6976C137.539 45.8557 137.764 45.9715 138.006 46.0376C138.248 46.1037 138.501 46.1187 138.749 46.0817H142.068L146.318 36.5261C146.388 36.4015 146.492 36.2991 146.617 36.2303C146.742 36.1616 146.884 36.1293 147.027 36.1372H157.693C157.693 36.1372 158.11 36.1372 158.11 36.4011C158.11 36.4011 158.11 36.4011 152.43 49.1928C152.361 49.3185 152.258 49.4219 152.132 49.4908C152.007 49.5597 151.864 49.5912 151.721 49.5817V49.6233ZM178.707 49.6233H163.43C161.931 49.5996 160.476 49.1146 159.263 48.2344C158.757 47.7064 158.361 47.0836 158.096 46.402C157.832 45.7204 157.704 44.9932 157.721 44.2622C157.804 42.5236 158.219 40.8169 158.944 39.2344L163.207 29.6233C163.28 29.4976 163.385 29.3946 163.513 29.3259C163.641 29.2572 163.785 29.2255 163.93 29.2344H174.944C174.944 29.2344 175.36 29.2344 175.36 29.4983C175.352 29.5395 175.352 29.5821 175.36 29.6233L170.43 40.665C169.862 41.8788 169.46 43.1635 169.235 44.4844C169.245 44.7128 169.302 44.9367 169.402 45.1424C169.501 45.3481 169.642 45.5313 169.815 45.6808C169.988 45.8303 170.189 45.943 170.407 46.0119C170.625 46.0808 170.855 46.1046 171.082 46.0817H180.43C180.43 46.0817 184.471 46.0817 187.707 38.8317L191.805 29.6094C191.875 29.4849 191.978 29.3824 192.103 29.3137C192.228 29.2449 192.37 29.2127 192.513 29.2205H196.402C196.402 29.2205 196.791 29.2205 196.791 29.4844C196.791 29.4844 196.791 29.5817 192.485 39.2067C191.18 41.9427 189.321 44.3783 187.027 46.3594C184.628 48.2297 181.728 49.3463 178.694 49.5678L178.707 49.6233ZM225.832 49.6233H221.082C220.464 49.581 219.857 49.4306 219.291 49.1789L198.957 41.0122L195.305 49.2344C195.235 49.359 195.131 49.4615 195.006 49.5302C194.881 49.599 194.739 49.6312 194.596 49.6233H190.499C190.499 49.6233 190.082 49.6233 190.082 49.3594C190.075 49.3181 190.075 49.2758 190.082 49.2344L198.819 29.6511C198.887 29.5254 198.99 29.422 199.116 29.3531C199.241 29.2842 199.384 29.2526 199.527 29.2622H204.096C204.62 29.3011 205.133 29.4328 205.61 29.6511L226.332 37.9844L230.069 29.6511C230.137 29.5219 230.242 29.416 230.37 29.3467C230.499 29.2775 230.645 29.2481 230.791 29.2622H234.888C234.888 29.2622 235.263 29.2622 235.263 29.5261C235.27 29.5675 235.27 29.6097 235.263 29.6511L226.541 49.2344C226.475 49.3625 226.372 49.4679 226.246 49.5372C226.12 49.6065 225.976 49.6365 225.832 49.6233ZM256.124 32.7622L248.791 49.2344C248.724 49.3557 248.625 49.4562 248.505 49.5249C248.385 49.5935 248.248 49.6276 248.11 49.6233H237.36C237.36 49.6233 237.013 49.6233 237.013 49.3594C237.013 49.3594 237.013 49.3594 244.374 32.7622H236.041C236.041 32.7622 235.624 32.7622 235.624 32.4983C235.624 32.4983 235.624 32.4983 236.874 29.7205C236.944 29.596 237.047 29.4935 237.173 29.4248C237.298 29.356 237.44 29.3238 237.582 29.3317H266.235C266.235 29.3317 266.624 29.3317 266.624 29.5955C266.624 29.5955 266.624 29.5955 265.374 32.4705C265.299 32.5889 265.194 32.6849 265.07 32.7484C264.945 32.812 264.805 32.8407 264.666 32.8317H256.124V32.7622ZM291.541 49.6233H280.832C280.832 49.6233 280.471 49.6233 280.471 49.3594C280.471 49.3594 280.471 49.3594 284.485 40.3039H275.43L271.444 49.2344C271.381 49.359 271.283 49.4624 271.162 49.5316C271.041 49.6008 270.902 49.6327 270.763 49.6233H260.041C260.041 49.6233 259.666 49.6233 259.666 49.3594C259.666 49.3594 259.666 49.3594 268.416 29.6511C268.482 29.5298 268.581 29.4293 268.701 29.3607C268.821 29.292 268.958 29.258 269.096 29.2622H279.846C279.846 29.2622 280.207 29.2622 280.207 29.5261C280.207 29.5261 280.207 29.5261 276.999 36.7761H286.027L289.194 29.6511C289.266 29.5254 289.372 29.4224 289.499 29.3537C289.627 29.285 289.771 29.2533 289.916 29.2622H300.624C300.624 29.2622 300.985 29.2622 300.985 29.5261C300.985 29.5261 300.985 29.5261 292.263 49.2344C292.191 49.3601 292.085 49.4631 291.957 49.5318C291.83 49.6005 291.685 49.6322 291.541 49.6233ZM327.263 40.3039H313.069C313.069 40.3039 312.707 40.3039 312.707 40.04C312.707 40.04 312.707 40.04 313.957 37.1511C314.023 37.0302 314.122 36.9307 314.243 36.8643C314.364 36.7978 314.501 36.7672 314.638 36.7761H328.944C328.944 36.7761 329.332 36.7761 329.332 37.0678C329.332 37.0678 329.332 37.0678 328.055 39.8455C327.992 39.9702 327.894 40.0735 327.773 40.1427C327.652 40.2119 327.513 40.2438 327.374 40.2344L327.263 40.3039ZM323.096 49.6233H303.013C301.48 49.5976 299.991 49.1139 298.735 48.2344C298.193 47.6874 297.767 47.0362 297.483 46.3201C297.199 45.604 297.063 44.8379 297.082 44.0678C297.155 42.4246 297.546 40.8112 298.235 39.3178C299.561 36.5834 301.455 34.1636 303.791 32.2205C306.207 30.3987 309.104 29.3265 312.124 29.1372H332.235C332.235 29.1372 332.61 29.1372 332.61 29.4011C332.617 29.4425 332.617 29.4847 332.61 29.5261L331.402 32.3039C331.33 32.4279 331.223 32.5281 331.095 32.5923C330.966 32.6565 330.822 32.6817 330.68 32.665H317.18C315.901 32.6928 314.676 33.1867 313.735 34.0539C312.855 35.0481 312.159 36.1909 311.68 37.4289L310.291 40.665C309.734 41.8504 309.346 43.108 309.138 44.4011C309.153 44.6488 309.219 44.8907 309.332 45.1118C309.444 45.3329 309.601 45.5284 309.793 45.6861C309.984 45.8438 310.206 45.9603 310.445 46.0284C310.684 46.0964 310.934 46.1146 311.18 46.0817H324.694C324.694 46.0817 325.11 46.0817 325.11 46.3455C325.104 46.387 325.104 46.4291 325.11 46.4705L323.888 49.2483C323.812 49.3774 323.702 49.4824 323.569 49.5512C323.437 49.62 323.287 49.6498 323.138 49.6372L323.096 49.6233ZM361.458 49.6233H350.18C350.18 49.6233 349.916 49.6233 349.819 49.4844L343.416 39.6233V39.415L344.43 37.1511C344.501 37.0291 344.606 36.9295 344.731 36.8632C344.856 36.797 344.997 36.7669 345.138 36.7761H348.971C349.739 36.7557 350.495 36.5809 351.194 36.2622C351.885 35.9424 352.459 35.4127 352.833 34.7483C352.921 34.5413 352.973 34.3204 352.985 34.0955C352.985 34.0955 352.985 32.7067 350.749 32.7067H344.666L337.332 49.1789C337.27 49.3095 337.168 49.4172 337.041 49.487C336.914 49.5567 336.768 49.585 336.624 49.5678H325.971C325.971 49.5678 325.555 49.5678 325.555 49.3039C325.555 49.3039 325.555 49.3039 334.305 29.5955C334.375 29.471 334.478 29.3685 334.603 29.2998C334.728 29.231 334.87 29.1988 335.013 29.2067H360.527C361.606 29.2137 362.67 29.4654 363.638 29.9428C364.085 30.2355 364.453 30.6325 364.712 31.0995C364.971 31.5665 365.112 32.0895 365.124 32.6233C365.103 33.2896 364.952 33.9453 364.68 34.5539C363.867 36.1201 362.649 37.4392 361.152 38.3733C359.599 39.2508 357.908 39.8567 356.152 40.165C356.152 40.165 362.277 49.04 362.277 49.1233C362.277 49.1233 362.277 49.5678 361.499 49.5678L361.458 49.6233Z" fill="white"/>
<path d="M265.262 56.6232L264.651 59.0399H268.346C268.675 59.0346 269.002 58.9832 269.318 58.8871L268.804 60.8732C268.431 60.716 268.028 60.6448 267.623 60.6649H264.221L263.54 63.2482H267.443C267.801 63.2403 268.154 63.1649 268.484 63.026L267.762 64.8871H259.04C259.365 64.3634 259.604 63.7915 259.748 63.1926L261.54 56.2482C261.603 55.9985 261.636 55.7419 261.637 55.4843C261.631 55.3 261.599 55.1175 261.54 54.9426H270.318L270.096 56.8315C269.721 56.6607 269.313 56.5753 268.901 56.5815H265.262V56.6232ZM274.262 57.6093L274.082 58.276C274.201 58.0529 274.372 57.8622 274.582 57.7204C274.811 57.6308 275.058 57.5929 275.304 57.6093H277.707C278.237 57.619 278.752 57.7938 279.179 58.1093C279.362 58.291 279.506 58.5076 279.604 58.7461C279.702 58.9847 279.751 59.2404 279.748 59.4982C279.736 59.8874 279.68 60.2741 279.582 60.651L278.804 63.5954C278.751 63.856 278.723 64.1211 278.721 64.3871C278.726 64.5613 278.754 64.7341 278.804 64.901H274.637C274.966 64.3781 275.21 63.8061 275.359 63.2065L276.193 59.9843C276.245 59.7969 276.287 59.6068 276.318 59.4148C276.313 59.3275 276.279 59.2443 276.221 59.1788C276.163 59.1133 276.084 59.0692 275.998 59.0537H274.762C274.555 59.0491 274.349 59.0969 274.165 59.1926C274.022 59.3481 273.926 59.5406 273.887 59.7482L272.887 63.6093C272.825 63.8687 272.793 64.1343 272.79 64.401C272.796 64.5762 272.829 64.7495 272.887 64.9149H268.721C269.059 64.3951 269.308 63.8223 269.457 63.2204L270.568 58.9426C270.623 58.687 270.651 58.4263 270.651 58.1649C270.645 57.9851 270.612 57.8073 270.554 57.6371H274.304L274.262 57.6093ZM287.568 57.6093H291.415C291.081 58.1315 290.833 58.7035 290.679 59.3037L289.193 65.0537C289.193 65.0537 288.929 66.0954 288.901 66.1649C288.786 66.5243 288.597 66.8555 288.346 67.1371C288.346 67.1371 287.832 67.6649 286.109 67.6649H279.346L279.457 65.9565C280.008 66.1772 280.601 66.2721 281.193 66.2343H284.318C284.318 66.2343 285.234 66.2343 285.401 65.8871C285.459 65.719 285.505 65.5473 285.54 65.3732L285.804 64.4287C285.603 64.6015 285.368 64.7313 285.115 64.8101C284.862 64.8889 284.595 64.9151 284.332 64.8871H282.832C282.364 64.8924 281.898 64.8411 281.443 64.7343C281.03 64.583 280.679 64.2999 280.443 63.9287C280.307 63.6664 280.231 63.3769 280.221 63.0815C280.231 62.8273 280.273 62.5754 280.346 62.3315L281.054 59.5537C281.206 58.9299 281.545 58.3676 282.026 57.9426C282.563 57.6563 283.168 57.5218 283.776 57.5537H286.262C286.51 57.5523 286.755 57.5995 286.984 57.6926C287.168 57.8321 287.292 58.0354 287.332 58.2621L287.526 57.5537L287.568 57.6093ZM284.512 63.4704H285.29C285.29 63.4704 285.804 63.4704 285.998 63.2343C286.125 63.0145 286.214 62.7751 286.262 62.526L286.859 60.2204C286.917 59.9921 286.959 59.7601 286.984 59.526C286.984 59.526 286.984 59.026 286.248 59.026H285.457C285.241 59.0421 285.038 59.1304 284.879 59.2766C284.72 59.4228 284.616 59.6183 284.582 59.8315L283.887 62.526C283.842 62.6767 283.805 62.8297 283.776 62.9843C283.776 62.9843 283.776 63.4704 284.484 63.4704H284.512ZM296.887 54.9843L296.401 56.9148H292.818L293.318 54.9843H296.887ZM296.207 57.6093L294.665 63.5815C294.602 63.8407 294.569 64.1064 294.568 64.3732C294.574 64.5484 294.607 64.7217 294.665 64.8871H290.498C290.829 64.3632 291.077 63.7918 291.234 63.1926L292.346 58.9149C292.401 58.6593 292.429 58.3985 292.429 58.1371C292.422 57.9574 292.39 57.7795 292.332 57.6093H296.235H296.207ZM301.248 57.6093L301.068 58.276C301.192 58.0564 301.363 57.8668 301.568 57.7204C301.798 57.6308 302.044 57.5929 302.29 57.6093H304.735C305.265 57.619 305.78 57.7938 306.207 58.1093C306.39 58.291 306.534 58.5076 306.632 58.7461C306.73 58.9847 306.779 59.2404 306.776 59.4982C306.763 59.8874 306.708 60.2741 306.61 60.651L305.832 63.5954C305.779 63.856 305.751 64.1211 305.748 64.3871C305.753 64.5613 305.782 64.7341 305.832 64.901H301.665C301.994 64.3781 302.238 63.8061 302.387 63.2065L303.221 59.9843C303.273 59.7969 303.314 59.6068 303.346 59.4148C303.341 59.3275 303.307 59.2443 303.249 59.1788C303.191 59.1133 303.112 59.0692 303.026 59.0537H301.804C301.592 59.0497 301.382 59.0974 301.193 59.1926C301.05 59.3481 300.954 59.5406 300.915 59.7482L299.915 63.6093C299.853 63.8687 299.82 64.1343 299.818 64.401C299.824 64.5762 299.857 64.7495 299.915 64.9149H295.748C296.087 64.3951 296.335 63.8223 296.484 63.2204L297.596 58.9426C297.651 58.687 297.679 58.4263 297.679 58.1649C297.672 57.9851 297.64 57.8073 297.582 57.6371H301.332L301.248 57.6093ZM316.526 63.3315L315.846 64.8871H309.512C308.956 64.8813 308.411 64.7331 307.929 64.4565C307.715 64.2926 307.54 64.0828 307.417 63.8425C307.295 63.6021 307.227 63.3373 307.221 63.0676C307.225 62.876 307.248 62.6852 307.29 62.4982L308.123 59.2898C308.273 58.7969 308.582 58.3675 309.002 58.0685C309.421 57.7696 309.928 57.6178 310.443 57.6371H314.985C315.657 57.621 316.322 57.7789 316.915 58.0954C317.288 58.4624 317.503 58.961 317.512 59.4843C317.507 59.7279 317.475 59.9702 317.415 60.2065L316.957 62.0121H310.971L310.804 62.6926C310.768 62.8196 310.745 62.9499 310.735 63.0815C310.735 63.1711 310.765 63.258 310.821 63.3284C310.876 63.3988 310.953 63.4488 311.04 63.4704C311.257 63.4983 311.476 63.4983 311.693 63.4704H315.193C315.627 63.4727 316.061 63.4261 316.485 63.3315H316.526ZM311.387 60.5537H313.79L313.998 59.7204C314.034 59.617 314.057 59.5098 314.068 59.401C314.068 59.401 314.068 59.026 313.54 59.026H312.415C312.218 59.0211 312.023 59.064 311.846 59.151C311.72 59.3194 311.635 59.5141 311.596 59.7204L311.387 60.5537ZM327.04 63.3315L326.401 64.8871H320.012C319.461 64.8808 318.92 64.7325 318.443 64.4565C318.228 64.2926 318.054 64.0828 317.931 63.8425C317.808 63.6021 317.741 63.3373 317.735 63.0676C317.739 62.876 317.762 62.6852 317.804 62.4982L318.637 59.2898C318.787 58.7969 319.096 58.3675 319.516 58.0685C319.935 57.7696 320.442 57.6178 320.957 57.6371H325.568C326.24 57.6222 326.905 57.78 327.498 58.0954C327.865 58.4655 328.074 58.9633 328.082 59.4843C328.077 59.7272 328.05 59.969 327.998 60.2065L327.54 62.0121H321.554L321.373 62.6926C321.363 62.8221 321.363 62.9521 321.373 63.0815C321.373 63.1693 321.401 63.2547 321.454 63.3249C321.507 63.3951 321.581 63.4462 321.665 63.4704C321.886 63.4987 322.11 63.4987 322.332 63.4704H325.832C326.266 63.4727 326.699 63.4261 327.123 63.3315H327.04ZM321.901 60.5537H324.304L324.512 59.7204C324.522 59.6142 324.522 59.5072 324.512 59.401C324.512 59.401 324.512 59.026 323.998 59.026H322.873C322.676 59.0211 322.481 59.064 322.304 59.151C322.169 59.3139 322.083 59.5111 322.054 59.7204L321.846 60.5537H321.901ZM332.929 57.6093C332.929 57.6093 332.929 58.026 332.846 58.8454C333.043 58.4683 333.317 58.1371 333.651 57.8732C334.029 57.6801 334.45 57.5892 334.873 57.6093H336.887L336.276 59.9704C335.921 59.7161 335.49 59.5889 335.054 59.6093H333.804C333.804 59.6093 332.971 59.6093 332.832 60.2204L331.943 63.5676C331.89 63.8283 331.862 64.0934 331.86 64.3593C331.865 64.5335 331.893 64.7063 331.943 64.8732H327.776C328.105 64.3503 328.349 63.7783 328.498 63.1787L329.623 58.901C329.679 58.6454 329.706 58.3847 329.707 58.1232C329.7 57.9435 329.667 57.7657 329.61 57.5954H332.943L332.929 57.6093ZM341.943 54.9843L341.457 56.9148H337.873L338.373 54.9843H341.943ZM341.262 57.6093L339.707 63.5815C339.652 63.8419 339.624 64.1072 339.623 64.3732C339.629 64.5474 339.657 64.7202 339.707 64.8871H335.54C335.869 64.3642 336.113 63.7922 336.262 63.1926L337.387 58.9149C337.442 58.6593 337.47 58.3985 337.471 58.1371C337.464 57.9574 337.431 57.7795 337.373 57.6093H341.276H341.262ZM346.304 57.6093L346.123 58.276C346.241 58.0559 346.407 57.8658 346.61 57.7204C346.844 57.6301 347.095 57.5922 347.346 57.6093H349.748C350.275 57.6182 350.785 57.7932 351.207 58.1093C351.39 58.291 351.534 58.5076 351.632 58.7461C351.73 58.9847 351.779 59.2404 351.776 59.4982C351.765 59.8866 351.713 60.2729 351.623 60.651L350.846 63.5954C350.793 63.856 350.765 64.1211 350.762 64.3871C350.767 64.5613 350.795 64.7341 350.846 64.901H346.679C347.008 64.3781 347.252 63.8061 347.401 63.2065L348.235 59.9843C348.235 59.9843 348.346 59.5121 348.346 59.4148C348.341 59.3294 348.309 59.2478 348.254 59.1825C348.199 59.1172 348.124 59.072 348.04 59.0537H346.804C346.596 59.0491 346.391 59.0969 346.207 59.1926C346.064 59.3481 345.968 59.5406 345.929 59.7482L344.929 63.6093C344.867 63.8687 344.834 64.1343 344.832 64.401C344.838 64.5762 344.871 64.7495 344.929 64.9149H340.762C341.093 64.391 341.341 63.8195 341.498 63.2204L342.61 58.9426C342.665 58.687 342.693 58.4263 342.693 58.1649C342.686 57.9851 342.654 57.8073 342.596 57.6371H346.346L346.304 57.6093ZM359.61 57.6093H363.443C363.117 58.134 362.874 58.7054 362.721 59.3037L361.235 65.0537C361.235 65.0537 360.971 66.0954 360.943 66.1649C360.828 66.5243 360.639 66.8555 360.387 67.1371C360.387 67.1371 359.873 67.6649 358.151 67.6649H351.387L351.498 65.9565C352.048 66.18 352.642 66.275 353.235 66.2343H356.36C356.36 66.2343 357.276 66.2343 357.443 65.8871C357.5 65.719 357.547 65.5473 357.582 65.3732L357.832 64.4287C357.634 64.6025 357.402 64.7331 357.151 64.812C356.9 64.891 356.635 64.9165 356.373 64.8871H354.873C354.406 64.8909 353.94 64.8396 353.485 64.7343C353.075 64.5841 352.727 64.3003 352.498 63.9287C352.362 63.6664 352.286 63.3769 352.276 63.0815C352.285 62.8282 352.323 62.5766 352.387 62.3315L353.11 59.5537C353.261 58.9299 353.601 58.3676 354.082 57.9426C354.619 57.6563 355.224 57.5218 355.832 57.5537H358.318C358.565 57.5523 358.811 57.5995 359.04 57.6926C359.223 57.8321 359.347 58.0354 359.387 58.2621L359.582 57.5537L359.61 57.6093ZM356.54 63.4704H357.36C357.36 63.4704 357.873 63.4704 358.068 63.2343C358.195 63.0145 358.284 62.7751 358.332 62.526L358.915 60.2204C358.979 59.9929 359.026 59.7607 359.054 59.526C359.054 59.526 359.054 59.026 358.318 59.026H357.512C357.297 59.0421 357.094 59.1304 356.935 59.2766C356.776 59.4228 356.671 59.6183 356.637 59.8315L355.943 62.526C355.898 62.6767 355.861 62.8297 355.832 62.9843C355.832 62.9843 355.832 63.4704 356.526 63.4704H356.54Z" fill="white"/>
</svg>
