<svg width="64" height="64" viewBox="0 0 64 64" fill="none" xmlns="http://www.w3.org/2000/svg">
<circle cx="32" cy="32" r="32" fill="#16263E"/>
<g clip-path="url(#clip0)">
<path d="M48.6069 42.8571C48.9026 42.8571 49.1426 42.6171 49.1426 42.3214V39.1071C49.1426 38.8114 48.9026 38.5714 48.6069 38.5714H46.6411L35.8109 30.5484C36.4157 29.9377 36.879 29.1782 37.1362 28.3152C37.2814 27.8255 37.1893 27.3096 36.8828 26.8993C36.5748 26.4868 36.1034 26.25 35.5891 26.25C34.8728 26.25 34.2551 26.7145 34.0532 27.4029C33.9036 27.8996 33.5779 28.3128 33.1585 28.5836L32.9539 28.432C32.3834 28.0141 31.6173 28.0136 31.0419 28.4346L30.8549 28.5743C30.2641 28.1837 29.8569 27.5135 29.8569 26.7857C29.8569 25.6039 30.818 24.6429 31.9998 24.6429H32.0641C32.9148 24.6429 33.6069 23.9507 33.6069 23.1V20.8929H36.2855C36.3072 20.8929 36.3284 20.8912 36.3495 20.8887C36.3553 20.888 36.361 20.887 36.3667 20.8861C36.3825 20.8837 36.3981 20.8807 36.4134 20.8769C36.4192 20.8754 36.4249 20.874 36.4305 20.8724C36.4476 20.8677 36.4642 20.8621 36.4804 20.8558C36.4836 20.8545 36.4869 20.8535 36.4901 20.8522C36.5092 20.8443 36.5276 20.8353 36.5455 20.8254C36.5505 20.8225 36.5553 20.8193 36.5603 20.8164C36.5728 20.8089 36.585 20.801 36.5968 20.7925C36.6031 20.7881 36.6093 20.7834 36.6154 20.7786C36.6263 20.7701 36.6367 20.7611 36.6468 20.7518C36.6519 20.7472 36.6572 20.7428 36.6621 20.738C36.6761 20.7241 36.6893 20.7095 36.7017 20.6942C36.7053 20.6898 36.7086 20.685 36.7121 20.6804C36.7218 20.6675 36.7311 20.6541 36.7397 20.6403C36.7413 20.6378 36.7432 20.6356 36.7447 20.633L38.3519 17.9545C38.4021 17.8709 38.4284 17.7755 38.4284 17.6786V15.5357C38.4284 15.24 38.1884 15 37.8926 15C37.5969 15 37.3569 15.24 37.3569 15.5357V17.5302L35.9818 19.8214H28.0173L26.6426 17.5302V15.5357C26.6426 15.24 26.4026 15 26.1069 15C25.8112 15 25.5712 15.24 25.5712 15.5357V17.6786C25.5712 17.7755 25.5975 17.8709 25.6478 17.9545L27.255 20.633C27.2565 20.6356 27.2585 20.6378 27.26 20.6403C27.2686 20.6541 27.2778 20.6675 27.2876 20.6804C27.2911 20.685 27.2944 20.6898 27.298 20.6942C27.3104 20.7095 27.3236 20.7242 27.3376 20.738C27.3425 20.7429 27.3478 20.7472 27.3529 20.7518C27.363 20.7611 27.3734 20.7701 27.3843 20.7786C27.3904 20.7834 27.3966 20.7881 27.4029 20.7925C27.4147 20.801 27.4269 20.809 27.4395 20.8165C27.4444 20.8194 27.4491 20.8226 27.4541 20.8254C27.472 20.8353 27.4905 20.8443 27.5096 20.8522C27.5127 20.8535 27.5161 20.8545 27.5192 20.8558C27.5355 20.8621 27.5521 20.8677 27.5691 20.8725C27.5748 20.8741 27.5805 20.8755 27.5862 20.8769C27.6015 20.8807 27.617 20.8837 27.6328 20.8862C27.6386 20.887 27.6443 20.8881 27.6501 20.8888C27.6712 20.8912 27.6924 20.8929 27.7141 20.8929H30.3921V21.6729C28.2005 22.3655 26.6475 24.4436 26.6421 26.7686C26.6394 28.2272 27.2358 29.5641 28.1974 30.5401L17.3579 38.5714H15.3926C15.0969 38.5714 14.8569 38.8114 14.8569 39.1071V42.3214C14.8569 42.6171 15.0969 42.8571 15.3926 42.8571H16.9998V45H15.3926C15.0969 45 14.8569 45.24 14.8569 45.5357V48.75C14.8569 49.0457 15.0969 49.2857 15.3926 49.2857H48.6069C48.9026 49.2857 49.1426 49.0457 49.1426 48.75V45.5357C49.1426 45.24 48.9026 45 48.6069 45H46.9998V42.8571H48.6069ZM35.0796 27.7082C35.1476 27.4768 35.3523 27.3214 35.5891 27.3214C35.7621 27.3214 35.9207 27.4012 36.0241 27.54C36.1264 27.6766 36.1569 27.848 36.1093 28.0093C35.8881 28.7508 35.4778 29.3978 34.941 29.904L34.0563 29.2487C34.5306 28.8536 34.8946 28.3236 35.0796 27.7082ZM27.7135 26.7707C27.7184 24.795 29.1198 23.0427 31.0468 22.6045C31.2905 22.5493 31.4635 22.3323 31.4635 22.0821V20.8929H32.5355V23.1C32.5355 23.3598 32.3239 23.5714 32.0641 23.5714H31.9998C30.2271 23.5714 28.7855 25.013 28.7855 26.7857C28.7855 28.5279 30.2576 30 31.9998 30C32.358 30 32.7069 29.9387 33.0349 29.8256L34.0289 30.5619C33.3857 30.9082 32.6495 31.0937 31.8797 31.0714C29.6169 31.0104 27.7087 29.0405 27.7135 26.7707ZM29.0479 31.2436C29.8576 31.7859 30.8192 32.115 31.8514 32.1429C31.8991 32.1439 31.9457 32.1445 31.9928 32.1445C33.0724 32.1445 34.097 31.8188 34.9567 31.2493L44.8408 38.5714H19.1578L29.0479 31.2436ZM15.9284 39.6429H48.0712V41.7857H46.4641H17.5355H15.9284V39.6429ZM48.0712 48.2143H15.9284V46.0714H17.5355H46.4641H48.0712V48.2143ZM45.9284 45H18.0712V42.8571H45.9284V45Z" fill="#70B6F9"/>
<path d="M28.7857 18.7498C28.925 18.7498 29.0643 18.6909 29.1661 18.5944C29.2625 18.4926 29.3214 18.3534 29.3214 18.2141C29.3214 18.0748 29.2625 17.9355 29.1661 17.8337C28.9625 17.6355 28.6036 17.6355 28.4054 17.8337C28.3089 17.9355 28.25 18.0748 28.25 18.2141C28.25 18.3593 28.3089 18.4932 28.4054 18.5944C28.5071 18.6909 28.6411 18.7498 28.7857 18.7498Z" fill="#70B6F9"/>
<path d="M35.2139 18.7498C35.3586 18.7498 35.4925 18.6909 35.5943 18.5944C35.6907 18.4926 35.7497 18.3534 35.7497 18.2141C35.7497 18.0748 35.6907 17.9355 35.5943 17.8337C35.3961 17.6355 35.0318 17.6355 34.8336 17.8337C34.7372 17.9355 34.6782 18.0748 34.6782 18.2141C34.6782 18.3534 34.7372 18.4932 34.8336 18.5944C34.9354 18.6909 35.0693 18.7498 35.2139 18.7498Z" fill="#70B6F9"/>
</g>
<defs>
<clipPath id="clip0">
<rect width="34.2857" height="34.2857" fill="white" transform="translate(14.8569 15)"/>
</clipPath>
</defs>
</svg>
