<svg width="263" height="63" viewBox="0 0 263 63" fill="none" xmlns="http://www.w3.org/2000/svg">
<path d="M14.71 16.54L25.71 14.25C27.4698 12.6056 29.4994 11.2762 31.71 10.32C34.2909 9.19077 37.0014 8.38467 39.78 7.92L39.73 7.86L43.1 4.14C39.1744 4.37462 35.2872 5.04541 31.51 6.14C28.0284 7.09362 24.694 8.52025 21.6 10.38C18.9125 11.9323 16.5684 14.0144 14.71 16.5V16.54ZM36.87 34.16C33.8639 33.4019 31.0003 32.1625 28.39 30.49C26.3222 29.1829 24.6192 27.3733 23.44 25.23L36.31 18.43H0L12.36 22.37C11.9011 25.7835 12.7986 29.2408 14.86 32C17.4161 35.4587 20.8088 38.2114 24.72 40C29.8698 42.413 35.3978 43.9185 41.06 44.45L36.82 34.21V34.16H36.87ZM94.82 18.43H58.52L72 25.33C70.9172 27.4487 69.2963 29.2454 67.3 30.54C64.7723 32.2449 61.9621 33.4875 59 34.21L47.66 25.21L48 35.54L48.1 39.27L48.77 63L55.35 44.42C60.984 43.9289 66.4843 42.4319 71.59 40C75.95 37.7933 79.1 35.1267 81.04 32C81.9926 30.5826 82.6508 28.9884 82.9754 27.3118C83.3001 25.6352 83.2846 23.9105 82.93 22.24L94.83 18.41L94.82 18.43ZM54.43 7.86C57.2895 8.36785 60.0834 9.19295 62.76 10.32C65.0944 11.2892 67.2506 12.6411 69.14 14.32L80.22 16.62C78.2009 14.1155 75.7234 12.0181 72.92 10.44C69.6996 8.58019 66.2506 7.14813 62.66 6.18C58.7935 5.08884 54.8205 4.41828 50.81 4.18L46.88 0L47 4V4.56L47.25 12.89L54.45 7.89" fill="#095AA6"/>
<path d="M108.83 35.55H93.6102C92.5068 35.5315 91.4341 35.1832 90.5302 34.55C90.1397 34.1562 89.833 33.6873 89.6285 33.1717C89.4239 32.6562 89.3259 32.1045 89.3402 31.55V31.55C89.3922 30.367 89.6742 29.2053 90.1702 28.13V28.13C91.1327 26.1664 92.4952 24.4258 94.1702 23.0201V23.0201C95.9096 21.7083 97.996 20.9363 100.17 20.8H113.85C113.85 20.8 114.15 20.8 114.15 20.99C114.155 21.0198 114.155 21.0503 114.15 21.08L113.28 23.08C113.226 23.1668 113.148 23.237 113.057 23.2828C112.965 23.3287 112.862 23.3485 112.76 23.34H103.76C102.839 23.3601 101.957 23.7157 101.28 24.34V24.34C100.68 25.0371 100.203 25.832 99.8702 26.6901L98.8702 29.0201C98.4484 29.8967 98.1553 30.8296 98.0002 31.7901V31.7901C98.0108 31.9703 98.0587 32.1464 98.1411 32.3071C98.2234 32.4679 98.3383 32.6097 98.4785 32.7235C98.6187 32.8373 98.7811 32.9207 98.9553 32.9683C99.1294 33.0159 99.3116 33.0267 99.4902 33H101.88L104.94 26.1201C104.991 26.0304 105.065 25.9566 105.155 25.9071C105.245 25.8576 105.348 25.8344 105.45 25.84H113.13C113.13 25.84 113.43 25.8401 113.43 26.0301C113.43 26.0301 113.43 26.0301 109.34 35.2401C109.291 35.3305 109.217 35.405 109.126 35.4546C109.036 35.5042 108.933 35.5269 108.83 35.5201V35.55ZM128.26 35.55H117.26C116.181 35.533 115.134 35.1838 114.26 34.55C113.896 34.1698 113.611 33.7215 113.42 33.2307C113.23 32.7399 113.138 32.2164 113.15 31.6901V31.6901C113.21 30.4383 113.508 29.2094 114.03 28.07V28.07L117.1 21.15C117.152 21.0596 117.228 20.9854 117.32 20.9359C117.412 20.8865 117.516 20.8636 117.62 20.8701H125.55C125.55 20.8701 125.85 20.87 125.85 21.06C125.844 21.0897 125.844 21.1204 125.85 21.15V21.15L122.3 29.1C121.891 29.974 121.602 30.8989 121.44 31.85V31.85C121.448 32.0145 121.488 32.1757 121.56 32.3238C121.632 32.4719 121.733 32.6038 121.858 32.7114C121.982 32.8191 122.127 32.9002 122.284 32.9498C122.441 32.9994 122.606 33.0165 122.77 33H129.5C129.5 33 132.41 33.0001 134.74 27.7801L137.69 21.14C137.741 21.0504 137.815 20.9766 137.905 20.9271C137.995 20.8776 138.098 20.8544 138.2 20.8601H141C141 20.8601 141.28 20.86 141.28 21.05C141.28 21.05 141.28 21.12 138.18 28.05C137.241 30.02 135.902 31.7737 134.25 33.2001C132.523 34.5467 130.435 35.3506 128.25 35.51L128.26 35.55ZM162.19 35.55H158.77C158.325 35.5196 157.888 35.4113 157.48 35.23L142.84 29.35L140.21 35.2701C140.16 35.3597 140.085 35.4335 139.995 35.483C139.905 35.5325 139.803 35.5557 139.7 35.55H136.75C136.75 35.55 136.45 35.5501 136.45 35.3601C136.445 35.3303 136.445 35.2998 136.45 35.2701L142.74 21.17C142.79 21.0796 142.864 21.0051 142.954 20.9555C143.045 20.9059 143.147 20.8832 143.25 20.89H146.54C146.917 20.918 147.286 21.0129 147.63 21.17V21.17L162.55 27.17L165.24 21.17C165.289 21.0771 165.365 21.0008 165.458 20.9509C165.55 20.901 165.656 20.8799 165.76 20.89H168.71C168.71 20.89 168.98 20.89 168.98 21.08C168.985 21.1098 168.985 21.1403 168.98 21.17L162.7 35.2701C162.653 35.3622 162.579 35.4382 162.488 35.4881C162.397 35.5379 162.293 35.5595 162.19 35.55V35.55ZM184 23.41L178.72 35.2701C178.672 35.3574 178.601 35.4297 178.515 35.4792C178.428 35.5286 178.33 35.5531 178.23 35.55H170.49C170.49 35.55 170.24 35.5501 170.24 35.3601C170.24 35.3601 170.24 35.36 175.54 23.41H169.54C169.54 23.41 169.24 23.41 169.24 23.22C169.24 23.22 169.24 23.22 170.14 21.22C170.191 21.1304 170.265 21.0566 170.355 21.0071C170.445 20.9576 170.548 20.9344 170.65 20.9401H191.28C191.28 20.9401 191.56 20.94 191.56 21.13C191.56 21.13 191.56 21.1301 190.66 23.2001C190.606 23.2853 190.531 23.3544 190.441 23.4001C190.351 23.4459 190.251 23.4666 190.15 23.46H184V23.41ZM209.5 35.55H201.79C201.79 35.55 201.53 35.5501 201.53 35.3601C201.53 35.3601 201.53 35.36 204.42 28.84H197.9L195.03 35.2701C194.985 35.3598 194.915 35.4342 194.827 35.484C194.74 35.5338 194.64 35.5568 194.54 35.55H186.82C186.82 35.55 186.55 35.5501 186.55 35.3601C186.55 35.3601 186.55 35.36 192.85 21.17C192.898 21.0827 192.969 21.0104 193.056 20.9609C193.142 20.9115 193.241 20.887 193.34 20.89H201.08C201.08 20.89 201.34 20.89 201.34 21.08C201.34 21.08 201.34 21.08 199.03 26.3H205.53L207.81 21.17C207.862 21.0796 207.938 21.0054 208.03 20.9559C208.122 20.9065 208.226 20.8836 208.33 20.89H216.04C216.04 20.89 216.3 20.89 216.3 21.08C216.3 21.08 216.3 21.0801 210.02 35.2701C209.968 35.3605 209.892 35.4347 209.8 35.4842C209.708 35.5336 209.604 35.5565 209.5 35.55V35.55ZM235.22 28.84H225C225 28.84 224.74 28.84 224.74 28.65C224.74 28.65 224.74 28.65 225.64 26.57C225.688 26.483 225.759 26.4114 225.846 26.3635C225.933 26.3157 226.031 26.2937 226.13 26.3H236.43C236.43 26.3 236.71 26.3 236.71 26.51C236.71 26.51 236.71 26.51 235.79 28.51C235.745 28.5998 235.675 28.6742 235.588 28.724C235.5 28.7738 235.4 28.7968 235.3 28.7901L235.22 28.84ZM232.22 35.55H217.76C216.657 35.5315 215.584 35.1832 214.68 34.55V34.55C214.29 34.1562 213.983 33.6873 213.778 33.1717C213.574 32.6562 213.476 32.1045 213.49 31.55V31.55C213.542 30.367 213.824 29.2053 214.32 28.13V28.13C215.274 26.1613 216.638 24.4191 218.32 23.0201V23.0201C220.06 21.7083 222.146 20.9363 224.32 20.8H238.8C238.8 20.8 239.07 20.8 239.07 20.99C239.075 21.0198 239.075 21.0503 239.07 21.08L238.2 23.08C238.148 23.1693 238.071 23.2415 237.979 23.2877C237.887 23.3339 237.783 23.3521 237.68 23.34H227.96C227.039 23.3601 226.157 23.7157 225.48 24.34V24.34C224.847 25.0559 224.346 25.8787 224 26.7701V26.7701L223 29.1C222.599 29.9536 222.32 30.859 222.17 31.7901V31.7901C222.181 31.9684 222.228 32.1426 222.31 32.3018C222.391 32.4609 222.504 32.6017 222.642 32.7152C222.78 32.8288 222.939 32.9127 223.111 32.9617C223.283 33.0107 223.463 33.0237 223.64 33H233.37C233.37 33 233.67 33 233.67 33.19C233.666 33.2199 233.666 33.2502 233.67 33.28V33.28L232.79 35.28C232.736 35.3729 232.656 35.4485 232.561 35.4981C232.465 35.5477 232.358 35.5691 232.25 35.5601L232.22 35.55ZM259.84 35.55H251.72C251.72 35.55 251.53 35.5501 251.46 35.4501L246.85 28.35V28.2001L247.58 26.57C247.632 26.4822 247.707 26.4105 247.797 26.3628C247.887 26.3151 247.989 26.2934 248.09 26.3H250.85C251.403 26.2853 251.947 26.1595 252.45 25.93V25.93C252.948 25.6998 253.361 25.3184 253.63 24.84V24.84C253.694 24.691 253.731 24.5319 253.74 24.3701V24.3701C253.74 24.3701 253.74 23.3701 252.13 23.3701H247.75L242.47 35.23C242.425 35.3241 242.352 35.4017 242.26 35.4519C242.169 35.5021 242.064 35.5224 241.96 35.51H234.29C234.29 35.51 233.99 35.51 233.99 35.32C233.99 35.32 233.99 35.32 240.29 21.13C240.341 21.0404 240.415 20.9666 240.505 20.9171C240.595 20.8676 240.698 20.8444 240.8 20.85H259.17C259.947 20.8551 260.713 21.0363 261.41 21.38V21.38C261.732 21.5908 261.997 21.8767 262.184 22.2129C262.37 22.5492 262.472 22.9257 262.48 23.31V23.31C262.465 23.7898 262.356 24.2619 262.16 24.7001V24.7001C261.575 25.8277 260.698 26.7775 259.62 27.4501V27.4501C258.502 28.0818 257.285 28.5181 256.02 28.74V28.74C256.02 28.74 260.43 35.13 260.43 35.19C260.43 35.19 260.43 35.51 259.87 35.51L259.84 35.55Z" fill="white"/>
<path d="M190.58 40.59L190.14 42.33H192.8C193.037 42.3262 193.273 42.2892 193.5 42.22V42.22L193.13 43.65C192.862 43.5368 192.571 43.4855 192.28 43.5H189.83L189.34 45.36H192.15C192.408 45.3543 192.662 45.3 192.9 45.2L192.38 46.54H186.1C186.334 46.163 186.506 45.7512 186.61 45.32V45.32L187.9 40.32C187.946 40.1402 187.969 39.9555 187.97 39.77V39.77C187.966 39.6373 187.942 39.5059 187.9 39.38H194.22L194.06 40.74C193.79 40.617 193.497 40.5555 193.2 40.56H190.58V40.59ZM197.06 41.3L196.93 41.78C197.016 41.6194 197.139 41.4821 197.29 41.38V41.38C197.455 41.3155 197.633 41.2882 197.81 41.3H199.54C199.922 41.307 200.293 41.4328 200.6 41.66V41.66C200.732 41.7909 200.836 41.9468 200.906 42.1185C200.977 42.2903 201.012 42.4744 201.01 42.66V42.66C201.001 42.9403 200.961 43.2186 200.89 43.49V43.49L200.33 45.61C200.292 45.7977 200.272 45.9885 200.27 46.18V46.18C200.274 46.3054 200.294 46.4298 200.33 46.55H197.33C197.567 46.1735 197.743 45.7617 197.85 45.33V45.33L198.45 43.01C198.488 42.8751 198.518 42.7382 198.54 42.6C198.537 42.5371 198.512 42.4772 198.47 42.4301C198.429 42.3829 198.372 42.3512 198.31 42.34H197.42C197.271 42.3367 197.123 42.3711 196.99 42.44V42.44C196.887 42.5519 196.818 42.6905 196.79 42.84V42.84L196.07 45.62C196.025 45.8068 196.002 45.998 196 46.19V46.19C196.004 46.3162 196.028 46.441 196.07 46.56H193.07C193.314 46.1858 193.493 45.7734 193.6 45.34V45.34L194.4 42.26C194.44 42.076 194.46 41.8883 194.46 41.7V41.7C194.455 41.5706 194.432 41.4426 194.39 41.32H197.09L197.06 41.3ZM206.64 41.3H209.41C209.17 41.676 208.991 42.0878 208.88 42.52V42.52L207.81 46.66C207.81 46.66 207.62 47.41 207.6 47.46C207.517 47.7188 207.381 47.9573 207.2 48.16V48.16C207.2 48.16 206.83 48.54 205.59 48.54H200.72L200.8 47.31C201.197 47.4689 201.624 47.5372 202.05 47.51H204.3C204.3 47.51 204.96 47.51 205.08 47.26C205.121 47.139 205.155 47.0154 205.18 46.89V46.89L205.37 46.21C205.225 46.3344 205.056 46.4278 204.874 46.4846C204.692 46.5413 204.5 46.5602 204.31 46.54H203.23C202.894 46.5438 202.558 46.5069 202.23 46.43V46.43C201.933 46.3211 201.68 46.1172 201.51 45.85C201.412 45.6611 201.357 45.4527 201.35 45.24V45.24C201.358 45.057 201.388 44.8756 201.44 44.7V44.7L201.95 42.7C202.059 42.2509 202.304 41.846 202.65 41.54V41.54C203.037 41.3338 203.472 41.237 203.91 41.26H205.7C205.878 41.2589 206.055 41.2929 206.22 41.36V41.36C206.352 41.4604 206.441 41.6068 206.47 41.77V41.77L206.61 41.26L206.64 41.3ZM204.44 45.52H205C205 45.52 205.37 45.52 205.51 45.35C205.601 45.1918 205.666 45.0194 205.7 44.84V44.84L206.13 43.18C206.172 43.0157 206.202 42.8486 206.22 42.68V42.68C206.22 42.68 206.22 42.32 205.69 42.32H205.12C204.965 42.3316 204.819 42.3952 204.704 42.5005C204.59 42.6057 204.514 42.7465 204.49 42.9L203.99 44.84C203.958 44.9485 203.931 45.0587 203.91 45.17V45.17C203.91 45.17 203.91 45.52 204.42 45.52H204.44ZM213.35 39.41L213 40.8H210.42L210.78 39.41H213.35ZM212.86 41.3L211.75 45.6C211.704 45.7866 211.681 45.9779 211.68 46.17V46.17C211.684 46.2962 211.708 46.421 211.75 46.54H208.75C208.988 46.1628 209.167 45.7514 209.28 45.32V45.32L210.08 42.24C210.12 42.056 210.14 41.8683 210.14 41.68V41.68C210.135 41.5506 210.112 41.4226 210.07 41.3H212.88H212.86ZM216.49 41.3L216.36 41.78C216.449 41.6219 216.572 41.4854 216.72 41.38V41.38C216.885 41.3155 217.063 41.2882 217.24 41.3H219C219.382 41.307 219.753 41.4328 220.06 41.66V41.66C220.192 41.7909 220.296 41.9468 220.366 42.1185C220.437 42.2903 220.472 42.4744 220.47 42.66V42.66C220.461 42.9403 220.421 43.2186 220.35 43.49V43.49L219.79 45.61C219.752 45.7977 219.732 45.9885 219.73 46.18C219.734 46.3054 219.754 46.4298 219.79 46.55H216.79C217.027 46.1735 217.203 45.7617 217.31 45.33V45.33L217.91 43.01C217.948 42.8751 217.978 42.7382 218 42.6V42.6C217.997 42.5371 217.972 42.4772 217.93 42.4301C217.889 42.3829 217.832 42.3512 217.77 42.34H216.89C216.737 42.3371 216.586 42.3714 216.45 42.44V42.44C216.347 42.5519 216.278 42.6905 216.25 42.84V42.84L215.53 45.62C215.485 45.8068 215.462 45.998 215.46 46.19C215.464 46.3162 215.488 46.441 215.53 46.56H212.53C212.774 46.1858 212.953 45.7734 213.06 45.34V45.34L213.86 42.26C213.9 42.076 213.92 41.8883 213.92 41.7C213.915 41.5706 213.892 41.4426 213.85 41.32H216.55L216.49 41.3ZM227.49 45.42L227 46.54H222.44C222.04 46.5359 221.647 46.4291 221.3 46.23V46.23C221.146 46.112 221.02 45.9609 220.932 45.7879C220.843 45.6148 220.795 45.4242 220.79 45.23V45.23C220.793 45.092 220.81 44.9547 220.84 44.82L221.44 42.51C221.548 42.1551 221.77 41.8459 222.072 41.6307C222.375 41.4154 222.739 41.3062 223.11 41.32H226.38C226.864 41.3084 227.343 41.4221 227.77 41.65V41.65C228.039 41.9142 228.193 42.2733 228.2 42.65V42.65C228.196 42.8254 228.173 42.9999 228.13 43.17L227.8 44.47H223.49L223.37 44.96C223.344 45.0514 223.327 45.1452 223.32 45.24V45.24C223.32 45.3045 223.342 45.367 223.382 45.4177C223.422 45.4685 223.478 45.5044 223.54 45.52C223.696 45.5401 223.854 45.5401 224.01 45.52H226.53C226.843 45.5217 227.155 45.4881 227.46 45.42H227.49ZM223.79 43.42H225.52L225.67 42.82C225.696 42.7456 225.713 42.6684 225.72 42.59C225.72 42.59 225.72 42.32 225.34 42.32H224.53C224.388 42.3165 224.247 42.3474 224.12 42.41V42.41C224.03 42.5313 223.968 42.6715 223.94 42.82L223.79 43.42ZM235.06 45.42L234.6 46.54H230C229.603 46.5355 229.214 46.4287 228.87 46.23C228.716 46.112 228.59 45.9609 228.502 45.7879C228.413 45.6148 228.365 45.4242 228.36 45.23C228.363 45.092 228.38 44.9547 228.41 44.82L229.01 42.51C229.118 42.1551 229.34 41.8459 229.642 41.6307C229.945 41.4154 230.309 41.3062 230.68 41.32H234C234.484 41.3093 234.963 41.4229 235.39 41.65V41.65C235.654 41.9165 235.805 42.2749 235.81 42.65C235.807 42.8249 235.787 42.999 235.75 43.17L235.42 44.47H231.11L230.98 44.96C230.973 45.0532 230.973 45.1468 230.98 45.24V45.24C230.98 45.3032 231 45.3647 231.038 45.4153C231.076 45.4658 231.129 45.5026 231.19 45.52V45.52C231.349 45.5404 231.511 45.5404 231.67 45.52H234.19C234.503 45.5217 234.815 45.4881 235.12 45.42H235.06ZM231.36 43.42H233.09L233.24 42.82C233.247 42.7435 233.247 42.6665 233.24 42.59V42.59C233.24 42.59 233.24 42.32 232.87 42.32H232.06C231.918 42.3165 231.777 42.3474 231.65 42.41C231.553 42.5273 231.491 42.6693 231.47 42.82V42.82L231.32 43.42H231.36ZM239.3 41.3C239.3 41.3 239.3 41.6 239.24 42.19C239.382 41.9185 239.58 41.68 239.82 41.49V41.49C240.092 41.351 240.395 41.2855 240.7 41.3H242.15L241.71 43C241.454 42.8169 241.144 42.7254 240.83 42.74H239.93C239.93 42.74 239.33 42.74 239.23 43.18L238.59 45.59C238.552 45.7777 238.532 45.9685 238.53 46.16V46.16C238.534 46.2854 238.554 46.4098 238.59 46.53H235.59C235.827 46.1535 236.003 45.7417 236.11 45.31V45.31L236.92 42.23C236.96 42.046 236.98 41.8583 236.98 41.67C236.975 41.5406 236.952 41.4126 236.91 41.29H239.31L239.3 41.3ZM245.79 39.41L245.44 40.8H242.86L243.22 39.41H245.79ZM245.3 41.3L244.18 45.6C244.141 45.7875 244.121 45.9785 244.12 46.17V46.17C244.124 46.2954 244.144 46.4198 244.18 46.54H241.18C241.417 46.1635 241.593 45.7517 241.7 45.32V45.32L242.51 42.24C242.55 42.056 242.57 41.8683 242.57 41.68V41.68C242.565 41.5506 242.542 41.4226 242.5 41.3H245.31H245.3ZM248.93 41.3L248.8 41.78C248.885 41.6216 249.004 41.4847 249.15 41.38V41.38C249.319 41.315 249.5 41.2877 249.68 41.3H251.41C251.789 41.3064 252.157 41.4324 252.46 41.66V41.66C252.592 41.7909 252.696 41.9468 252.766 42.1185C252.837 42.2903 252.872 42.4744 252.87 42.66C252.862 42.9397 252.825 43.2178 252.76 43.49V43.49L252.2 45.61C252.162 45.7977 252.142 45.9885 252.14 46.18C252.144 46.3054 252.164 46.4298 252.2 46.55H249.2C249.437 46.1735 249.613 45.7617 249.72 45.33V45.33L250.32 43.01C250.32 43.01 250.4 42.67 250.4 42.6C250.397 42.5385 250.374 42.4797 250.334 42.4327C250.294 42.3857 250.24 42.3531 250.18 42.34H249.29C249.141 42.3367 248.993 42.3711 248.86 42.44V42.44C248.757 42.5519 248.688 42.6905 248.66 42.84V42.84L247.94 45.62C247.895 45.8068 247.872 45.998 247.87 46.19C247.874 46.3162 247.898 46.441 247.94 46.56H244.94C245.178 46.1828 245.357 45.7714 245.47 45.34V45.34L246.27 42.26C246.31 42.076 246.33 41.8883 246.33 41.7V41.7C246.325 41.5706 246.302 41.4426 246.26 41.32H248.96L248.93 41.3ZM258.51 41.3H261.27C261.036 41.6778 260.86 42.0892 260.75 42.52V42.52L259.68 46.66C259.68 46.66 259.49 47.41 259.47 47.46C259.387 47.7188 259.251 47.9573 259.07 48.16V48.16C259.07 48.16 258.7 48.54 257.46 48.54H252.59L252.67 47.31C253.066 47.4709 253.494 47.5393 253.92 47.51H256.17C256.17 47.51 256.83 47.51 256.95 47.26C256.992 47.139 257.025 47.0154 257.05 46.89L257.23 46.21C257.088 46.3351 256.921 46.4291 256.74 46.486C256.559 46.5428 256.368 46.5612 256.18 46.54H255.1C254.764 46.5428 254.428 46.5059 254.1 46.43V46.43C253.805 46.3218 253.555 46.1175 253.39 45.85V45.85C253.292 45.6611 253.237 45.4527 253.23 45.24V45.24C253.237 45.0576 253.263 44.8765 253.31 44.7V44.7L253.83 42.7C253.939 42.2509 254.184 41.846 254.53 41.54C254.917 41.3338 255.352 41.237 255.79 41.26H257.58C257.758 41.2589 257.935 41.2929 258.1 41.36V41.36C258.232 41.4604 258.321 41.6068 258.35 41.77L258.49 41.26L258.51 41.3ZM256.3 45.52H256.89C256.89 45.52 257.26 45.52 257.4 45.35C257.491 45.1918 257.556 45.0194 257.59 44.84V44.84L258.01 43.18C258.056 43.0162 258.09 42.849 258.11 42.68V42.68C258.11 42.68 258.11 42.32 257.58 42.32H257C256.845 42.3316 256.699 42.3952 256.584 42.5005C256.47 42.6057 256.394 42.7465 256.37 42.9L255.87 44.84C255.838 44.9485 255.811 45.0587 255.79 45.17V45.17C255.79 45.17 255.79 45.52 256.29 45.52H256.3Z" fill="white"/>
</svg>
