<svg width="22" height="16" viewBox="0 0 22 16" fill="none" xmlns="http://www.w3.org/2000/svg">
<path d="M12.4668 10.4072C11.9354 10.7616 11.318 10.9489 10.6815 10.9489C10.045 10.9489 9.42767 10.7616 8.89618 10.4072L0.142239 4.57111C0.0936717 4.53873 0.046356 4.50497 0 4.47026V14.0334C0 15.1298 0.889777 16 1.9666 16H19.3963C20.4928 16 21.3629 15.1102 21.3629 14.0334V4.47021C21.3165 4.50501 21.2691 4.53885 21.2204 4.57127L12.4668 10.4072Z" fill="white"/>
<path d="M0.836578 3.52957L9.59052 9.36575C9.9219 9.58668 10.3017 9.69713 10.6815 9.69713C11.0613 9.69713 11.4411 9.58664 11.7725 9.36575L20.5264 3.52957C21.0503 3.18054 21.363 2.5964 21.363 1.96594C21.363 0.881891 20.4811 0 19.397 0H1.96594C0.881933 4.17246e-05 0 0.881932 0 1.96698C0 2.5964 0.312767 3.18054 0.836578 3.52957V3.52957Z" fill="white"/>
</svg>
