<svg width="64" height="64" viewBox="0 0 64 64" fill="none" xmlns="http://www.w3.org/2000/svg">
<circle cx="32" cy="32" r="32" fill="#16263E"/>
<g clip-path="url(#clip0)">
<path d="M49.3997 34.0005H47.5595L46.3998 17.1598C46.378 16.8445 46.1159 16.6001 45.7997 16.6006H42.1997C41.8835 16.6001 41.6214 16.8445 41.5996 17.1598L40.4399 34.0005H39.2V30.4005C39.2 30.0694 38.9313 29.8004 38.6001 29.8004C38.4635 29.8002 38.3312 29.8468 38.2249 29.9321L33.1999 33.952V30.4005C33.1999 30.0694 32.9314 29.8004 32.6001 29.8004C32.4636 29.8002 32.3313 29.8468 32.225 29.9321L27.2001 33.952V30.4005C27.2001 30.0694 26.9316 29.8004 26.6002 29.8004C26.4638 29.8002 26.3313 29.8468 26.2251 29.9321L21.2002 33.952V30.4005C21.2 30.0694 20.9313 29.8007 20.6001 29.8007C20.4909 29.8007 20.3844 29.8303 20.291 29.8864L14.2909 33.4864C14.1105 33.5949 14 33.7898 14 34.0005V48.4005C14 48.7319 14.2687 49.0004 14.6001 49.0004H49.3997C49.7311 49.0004 49.9998 48.7319 49.9998 48.4005V34.6006C49.9998 34.269 49.7311 34.0005 49.3997 34.0005ZM42.76 17.8005H45.2394L46.3569 34.0005H41.6425L42.76 17.8005ZM34.3996 47.8004V40.6004H37.9996V47.8004H34.3996ZM48.7999 47.8004H39.2V40.0004C39.2 39.6692 38.9311 39.4005 38.5997 39.4005H33.7998C33.4684 39.4005 33.1997 39.6692 33.1997 40.0004V47.8004H15.1999V34.3402L19.9999 31.4603V35.2004C19.9999 35.532 20.2684 35.8005 20.5997 35.801C20.7359 35.801 20.8684 35.7544 20.975 35.6691L25.9999 31.6492V35.2004C25.9999 35.532 26.2682 35.8005 26.5998 35.801C26.736 35.801 26.8683 35.7544 26.9749 35.6693L31.9998 31.6494V35.2007C31.9998 35.532 32.2681 35.801 32.5996 35.801C32.7359 35.801 32.8681 35.7544 32.9747 35.6693L37.9996 31.6494V34.6006C37.9996 34.9322 38.2684 35.2007 38.5997 35.2007H48.7994V47.8004H48.7999Z" fill="#70B6F9"/>
<path d="M34.3955 14.2004C34.6137 14.3173 34.8107 14.4698 34.9788 14.6515C35.3152 15.0618 35.7942 15.329 36.3196 15.4004C36.8731 15.3298 37.3785 15.051 37.7333 14.6203C37.8852 14.461 38.055 14.3202 38.2398 14.2004C38.3633 14.2059 38.6867 14.5087 38.8607 14.6713C39.1844 15.0719 39.6493 15.3327 40.1596 15.4004C40.7489 15.3257 41.2874 15.0301 41.6669 14.5735C41.8139 14.4356 42.0365 14.2262 42.0795 14.2004C42.4016 14.2004 42.4755 14.3072 42.6737 14.5929C42.934 15.0848 43.4429 15.3949 43.9997 15.4004C44.3308 15.4004 44.5996 15.1317 44.5996 14.8005C44.5996 14.469 44.3308 14.2004 43.9997 14.2004C43.8795 14.2004 43.8562 14.1921 43.6613 13.9106C43.3427 13.3382 42.7343 12.9882 42.0795 13.0003C41.5941 13.0678 41.1525 13.3174 40.8449 13.6988C40.6456 13.8867 40.3116 14.2004 40.1848 14.2033C39.9989 14.0908 39.8293 13.9537 39.6795 13.7962C39.3187 13.3567 38.8036 13.0722 38.2396 13.0003C37.7195 13.0713 37.2458 13.3363 36.9129 13.7419C36.7446 13.9225 36.5501 14.077 36.3363 14.2004C36.1364 14.0858 35.9544 13.9425 35.7964 13.7744C35.4458 13.3486 34.9465 13.0722 34.3994 13.0003C34.0683 12.9992 33.7985 13.2668 33.7974 13.5984C33.7963 13.9295 34.0641 14.1994 34.3955 14.2004Z" fill="#70B6F9"/>
<path d="M20.6002 40.6001H18.2C17.8686 40.6001 17.6001 40.8688 17.6001 41.2V44.8C17.6001 45.1315 17.8686 45.4 18.2 45.4H20.6002C20.9314 45.4 21.2001 45.1315 21.2001 44.8V41.2C21.2001 40.8688 20.9314 40.6001 20.6002 40.6001ZM19.9999 44.2001H18.8V41.8002H19.9999V44.2001Z" fill="#70B6F9"/>
<path d="M25.4 40.6001H23C22.6684 40.6001 22.3999 40.8688 22.3999 41.2V44.8C22.3999 45.1315 22.6684 45.4 23 45.4H25.4C25.7312 45.4 25.9999 45.1315 25.9999 44.8V41.2C25.9999 40.8688 25.7312 40.6001 25.4 40.6001ZM24.7998 44.2001H23.5998V41.8002H24.7998V44.2001Z" fill="#70B6F9"/>
<path d="M30.1998 40.6001H27.7998C27.4682 40.6001 27.1997 40.8688 27.1997 41.2V44.8C27.1997 45.1315 27.4682 45.4 27.7998 45.4H30.1998C30.531 45.4 30.7997 45.1315 30.7997 44.8V41.2C30.7997 40.8688 30.531 40.6001 30.1998 40.6001ZM29.5996 44.2001H28.3996V41.8002H29.5996V44.2001Z" fill="#70B6F9"/>
</g>
<defs>
<clipPath id="clip0">
<rect width="36" height="36" fill="white" transform="translate(14 13)"/>
</clipPath>
</defs>
</svg>
