<svg width="64" height="64" viewBox="0 0 64 64" fill="none" xmlns="http://www.w3.org/2000/svg">
<circle cx="32" cy="32" r="32" fill="#16263E"/>
<path d="M52.1041 40.1464H50.841L42.1389 24.4818C41.9902 24.2184 41.7196 24.0447 41.4169 24.0232C41.1176 24.0053 40.8202 24.136 40.6375 24.3797L36.024 30.5341L25.9745 15.4626C25.7971 15.1956 25.4925 15.0415 25.1736 15.0648C24.8547 15.0845 24.5716 15.2727 24.4283 15.5575L12.1339 40.1464H10.8959C10.4014 40.1464 10 40.5477 10 41.0422C10 41.5367 10.4014 41.938 10.8959 41.938H12.6875H50.3125H52.1041C52.5986 41.938 53 41.5367 53 41.0422C53 40.5477 52.5986 40.1464 52.1041 40.1464ZM14.137 40.1464L25.3403 17.7398L35.2339 32.5802C35.3951 32.822 35.6639 32.9708 35.9541 32.9797C36.2497 32.9653 36.5203 32.8543 36.6959 32.6213L41.2413 26.5601L48.7896 40.1463H14.137V40.1464Z" fill="#70B6F9"/>
<path d="M24.6005 26.0797C24.4231 26.2427 24.3335 26.4756 24.3335 26.7085C24.3335 26.9414 24.4231 27.1744 24.6005 27.3356C24.7635 27.5148 24.9965 27.6044 25.2294 27.6044C25.4622 27.6044 25.6952 27.4951 25.8565 27.3356C26.0356 27.1744 26.1252 26.9415 26.1252 26.7085C26.1252 26.4756 26.0356 26.2427 25.8565 26.0797C25.534 25.741 24.9248 25.741 24.6005 26.0797Z" fill="#70B6F9"/>
<path d="M29.9594 29.6631C29.7981 29.8441 29.7085 30.0591 29.7085 30.292C29.7085 30.5249 29.7981 30.7578 29.9755 30.9352C30.1565 31.0982 30.3715 31.1878 30.6044 31.1878C30.8372 31.1878 31.0702 31.0982 31.2315 30.9191C31.4106 30.7578 31.5002 30.5249 31.5002 30.292C31.5002 30.059 31.4106 29.8441 31.2315 29.647C30.8911 29.3245 30.3356 29.3066 29.9594 29.6631Z" fill="#70B6F9"/>
<path d="M22.809 33.2463C22.6316 33.4093 22.542 33.6225 22.542 33.8751C22.542 34.108 22.6316 34.341 22.809 34.5022C22.972 34.6814 23.205 34.771 23.4379 34.771C23.6707 34.771 23.9037 34.6814 24.0811 34.5022C24.2441 34.341 24.3337 34.1081 24.3337 33.8751C24.3337 33.6422 24.2441 33.4093 24.065 33.2301C23.7245 32.9076 23.1332 32.9076 22.809 33.2463Z" fill="#70B6F9"/>
<path d="M29.9594 36.8301C29.7981 36.9931 29.7085 37.2261 29.7085 37.459C29.7085 37.6919 29.7981 37.9248 29.9755 38.0861C30.1385 38.2652 30.3715 38.3548 30.6044 38.3548C30.8372 38.3548 31.0702 38.2652 31.2315 38.0861C31.4106 37.9248 31.5002 37.692 31.5002 37.459C31.5002 37.226 31.4106 37.0111 31.2315 36.814C30.8911 36.4915 30.3356 36.4735 29.9594 36.8301Z" fill="#70B6F9"/>
<path d="M40.458 33.8754C40.458 34.1083 40.5476 34.3413 40.725 34.5025C40.888 34.6817 41.121 34.7713 41.3539 34.7713C41.5868 34.7713 41.8197 34.6817 41.981 34.5025C42.1601 34.3413 42.2497 34.1084 42.2497 33.8754C42.2497 33.6425 42.1601 33.4096 41.981 33.2466C41.6585 32.9079 41.0672 32.89 40.7089 33.2466C40.5475 33.4096 40.458 33.6425 40.458 33.8754Z" fill="#70B6F9"/>
<path d="M37.1259 36.8302C36.9646 36.9933 36.875 37.2262 36.875 37.4591C36.875 37.692 36.9646 37.925 37.142 38.0862C37.305 38.2654 37.538 38.355 37.7709 38.355C38.0037 38.355 38.2367 38.2654 38.398 38.0862C38.5771 37.925 38.6667 37.6921 38.6667 37.4591C38.6667 37.2261 38.5771 36.9933 38.398 36.8141C38.0754 36.4916 37.4841 36.4916 37.1259 36.8302Z" fill="#70B6F9"/>
</svg>
