<svg width="64" height="64" viewBox="0 0 64 64" fill="none" xmlns="http://www.w3.org/2000/svg">
<circle cx="32" cy="32" r="32" fill="#16263E"/>
<g clip-path="url(#clip0)">
<path d="M51.4194 35.8459C50.6005 31.5968 48.7769 27.6053 46.101 24.2046L46.4664 23.8392C46.5627 23.742 46.6167 23.6107 46.6167 23.4739C46.6167 23.337 46.5627 23.2057 46.4664 23.1085L45.391 22.036L46.9319 20.495C47.0282 20.3984 47.0822 20.2676 47.0822 20.1312C47.0822 19.9948 47.0282 19.8639 46.9319 19.7673L44.233 17.0683C44.1364 16.9721 44.0055 16.918 43.8691 16.918C43.7327 16.918 43.6019 16.9721 43.5052 17.0683L41.9643 18.6093L40.8918 17.5339C40.7945 17.4376 40.6632 17.3836 40.5264 17.3836C40.3896 17.3836 40.2583 17.4376 40.161 17.5339L39.7957 17.8992C36.3956 15.2224 32.4038 13.3987 28.1544 12.5809C28.0461 12.5609 27.9342 12.5759 27.835 12.6238C27.7359 12.6716 27.6546 12.7499 27.603 12.8472C27.5513 12.9445 27.5321 13.0557 27.5481 13.1647C27.5641 13.2737 27.6144 13.3747 27.6918 13.4531L35.9683 21.7266L35.7385 21.9594C35.6845 22.0128 35.643 22.0775 35.617 22.1488C35.591 22.2201 35.5812 22.2963 35.5882 22.3719L35.8151 24.7585L13.8642 46.7094C13.7679 46.8061 13.7139 46.9369 13.7139 47.0733C13.7139 47.2097 13.7679 47.3405 13.8642 47.4372L16.5631 50.1361C16.6597 50.2324 16.7906 50.2864 16.927 50.2864C17.0634 50.2864 17.1942 50.2324 17.2909 50.1361L39.2418 28.1852L41.6284 28.4121C41.704 28.4191 41.7802 28.4092 41.8515 28.3833C41.9228 28.3573 41.9875 28.3158 42.0409 28.2618L42.2736 28.032L50.5472 36.3085C50.6449 36.404 50.7759 36.4579 50.9126 36.4588C50.997 36.4586 51.08 36.4373 51.1542 36.3969C51.2515 36.3456 51.3298 36.2643 51.3776 36.1651C51.4253 36.0659 51.44 35.9541 51.4194 35.8459ZM43.8706 18.1615L45.8388 20.1297L44.6632 21.3053L42.695 19.3371L43.8706 18.1615ZM16.9285 49.04L14.9602 47.0718L36.3513 25.6808L38.3195 27.649L16.9285 49.04ZM42.636 26.9389C42.5886 26.8906 42.5319 26.8522 42.4694 26.826C42.407 26.7998 42.3399 26.7864 42.2722 26.7864C42.2044 26.7864 42.1374 26.7998 42.0749 26.826C42.0124 26.8522 41.9558 26.8906 41.9083 26.9389L41.484 27.3632L39.283 27.154L36.8463 24.7173L36.6401 22.5163L37.0614 22.092C37.1097 22.0445 37.1481 21.9879 37.1743 21.9254C37.2004 21.8629 37.2139 21.7959 37.2139 21.7281C37.2139 21.6604 37.2004 21.5933 37.1743 21.5308C37.1481 21.4684 37.1097 21.4117 37.0614 21.3642L29.6835 13.9864C33.2773 14.9346 36.6266 16.6404 39.5069 18.9894C39.606 19.0703 39.7316 19.1118 39.8594 19.1058C39.9872 19.0998 40.1082 19.0468 40.1994 18.957L40.5264 18.627L45.3733 23.4739L45.0433 23.8009C44.9535 23.892 44.9005 24.0131 44.8945 24.1409C44.8885 24.2687 44.93 24.3942 45.0109 24.4933C47.3577 27.3755 49.0642 30.7241 50.0169 34.3167L42.636 26.9389Z" fill="#70B6F9"/>
<path d="M39.2171 21.3556C39.1692 21.4035 39.1311 21.4603 39.1052 21.5229C39.0793 21.5854 39.0659 21.6525 39.0659 21.7202C39.0659 21.788 39.0793 21.855 39.1052 21.9176C39.1311 21.9801 39.1692 22.037 39.2171 22.0848L41.9151 24.7829C42.0118 24.8796 42.143 24.9339 42.2797 24.9339C42.4165 24.9339 42.5477 24.8796 42.6444 24.7829C42.7411 24.6862 42.7954 24.555 42.7954 24.4183C42.7954 24.2815 42.7411 24.1504 42.6444 24.0537L39.946 21.3556C39.8982 21.3077 39.8414 21.2698 39.7788 21.2438C39.7163 21.2179 39.6492 21.2046 39.5816 21.2046C39.5139 21.2046 39.4468 21.2179 39.3843 21.2438C39.3218 21.2698 39.2649 21.3077 39.2171 21.3556Z" fill="#70B6F9"/>
</g>
<defs>
<clipPath id="clip0">
<rect width="37.7143" height="37.7143" fill="white" transform="translate(13.7144 12.5713)"/>
</clipPath>
</defs>
</svg>
