<svg width="16" height="16" viewBox="0 0 16 16" fill="none" xmlns="http://www.w3.org/2000/svg">
<path d="M15.9941 12.4262C15.9796 12.2982 15.9361 12.1752 15.867 12.0665C15.7979 11.9578 15.705 11.8662 15.5953 11.7987L12.7474 10.0353C12.4749 9.86565 12.1529 9.79344 11.8341 9.8305C11.5153 9.86755 11.2185 10.0117 10.9922 10.2393L10.0467 11.185C10.0116 11.2207 9.96731 11.246 9.91869 11.2581C9.87007 11.2701 9.81906 11.2685 9.77133 11.2533C9.25418 11.0787 8.18058 10.5796 6.80041 9.19957C5.42024 7.81952 4.92125 6.74543 4.74658 6.22825C4.73144 6.18056 4.72982 6.12961 4.74187 6.08105C4.75393 6.03249 4.77919 5.98821 4.81488 5.95313L5.7603 5.0077C5.98803 4.78146 6.13219 4.4846 6.1692 4.16573C6.2062 3.84687 6.13385 3.52489 5.964 3.2525L4.20094 0.404461C4.13322 0.29497 4.0416 0.202221 3.93294 0.133162C3.82429 0.0641026 3.70142 0.0205225 3.57353 0.00568577C3.44565 -0.00915095 3.31606 0.00514031 3.19448 0.0474891C3.0729 0.0898379 2.96248 0.159146 2.87149 0.250224L1.0829 2.03886C0.507272 2.61508 0.137748 3.36505 0.0315856 4.17257C-0.0745766 4.9801 0.0885508 5.8001 0.495692 6.50551C1.5524 8.37837 2.86133 10.0972 4.38577 11.6139C5.90247 13.1384 7.62138 14.4473 9.4943 15.504C10.1996 15.9113 11.0197 16.0746 11.8273 15.9684C12.6349 15.8622 13.3848 15.4926 13.9609 14.9167L15.7495 13.1282C15.8408 13.0374 15.9102 12.927 15.9526 12.8054C15.995 12.6837 16.0092 12.5541 15.9941 12.4262V12.4262Z" fill="white"/>
</svg>
