<svg width="64" height="64" viewBox="0 0 64 64" fill="none" xmlns="http://www.w3.org/2000/svg">
<circle cx="32" cy="32" r="32" fill="#16263E"/>
<g clip-path="url(#clip0)">
<path d="M43.3016 23.4498L41.5399 20.4498C41.4661 20.3241 41.3506 20.2282 41.2135 20.1786C41.0763 20.129 40.9262 20.129 40.789 20.1784C40.6519 20.2279 40.5363 20.3237 40.4624 20.4494C40.3884 20.575 40.3607 20.7226 40.3841 20.8665C40.5394 21.9187 40.485 22.9912 40.2241 24.0223C40.0713 24.4533 39.8632 24.8625 39.6049 25.2398C39.3288 23.089 38.5791 21.0261 37.4099 19.1998C35.5916 16.324 33.1539 13.8906 30.2749 12.0773C30.1585 12.0141 30.0252 11.9892 29.8939 12.0061C29.7625 12.023 29.6398 12.0809 29.5432 12.1715C29.4467 12.2624 29.3817 12.3817 29.3577 12.5121C29.3337 12.6426 29.352 12.7772 29.4099 12.8965C30.0795 14.2754 30.4848 15.7675 30.6049 17.2957C30.5557 19.0382 29.9816 20.124 27.1924 23.749C25.7883 25.7307 24.981 28.073 24.8657 30.499C23.7749 29.0065 21.1991 27.569 20.8807 27.3948C20.7667 27.3328 20.6361 27.3079 20.5072 27.3234C20.3784 27.3389 20.2575 27.3941 20.1613 27.4813C20.0652 27.5686 19.9986 27.6836 19.9707 27.8103C19.9428 27.9371 19.9551 28.0695 20.0057 28.189C20.0199 28.2215 21.3599 31.4448 19.6899 33.5223L19.4999 33.7557C17.2191 36.589 15.2499 39.034 15.7891 43.6265C16.7057 51.4315 27.4624 51.974 27.9199 51.994C28.002 51.9974 28.0839 51.9847 28.1611 51.9565C28.2382 51.9282 28.3091 51.8851 28.3695 51.8295C28.43 51.7739 28.4789 51.7069 28.5135 51.6324C28.5481 51.5579 28.5677 51.4773 28.5712 51.3952C28.5746 51.3132 28.5619 51.2312 28.5336 51.1541C28.5054 51.0769 28.4623 51.0061 28.4067 50.9456C28.3511 50.8851 28.2841 50.8362 28.2096 50.8016C28.1351 50.767 28.0545 50.7474 27.9724 50.744C27.8707 50.7398 17.8224 50.2273 17.0307 43.4798C16.5524 39.409 18.1974 37.3657 20.4741 34.539L20.6641 34.3032C21.1773 33.5914 21.5295 32.7764 21.6961 31.9149C21.8628 31.0533 21.8399 30.1658 21.6291 29.314C22.5747 29.8698 23.3932 30.6179 24.0316 31.5098C24.3963 32.1778 24.6915 32.8815 24.9124 33.6098C24.9472 33.767 25.0413 33.9048 25.1751 33.9943C25.3089 34.0838 25.4721 34.1183 25.6307 34.0905C25.7893 34.0626 25.931 33.9747 26.0263 33.8449C26.1217 33.7152 26.1632 33.5537 26.1424 33.394C26.1357 33.3407 25.4966 28.004 28.1849 24.5107C31.0182 20.8282 31.7932 19.5198 31.8557 17.3307C31.8397 16.3046 31.6567 15.288 31.3141 14.3207C33.2796 15.9013 34.9853 17.7802 36.3691 19.889C37.6724 21.9732 38.4004 24.3654 38.4791 26.8223C38.4784 26.9452 38.5139 27.0656 38.5812 27.1684C38.6484 27.2713 38.7445 27.352 38.8573 27.4006C38.9702 27.4492 39.0949 27.4635 39.2158 27.4418C39.3367 27.42 39.4486 27.3631 39.5374 27.2782C40.357 26.4677 40.995 25.4922 41.4091 24.4165C41.5424 24.0033 41.6307 23.577 41.6724 23.1448L42.2149 24.069C44.0224 27.3715 47.0532 33.6665 47.0532 38.6782C47.0532 45.9973 42.1366 48.939 38.9482 50.0782C39.9236 48.6173 40.4087 46.8839 40.3332 45.129C40.3391 41.2282 37.0832 36.1865 36.9474 35.974C36.8692 35.8543 36.7523 35.7649 36.6163 35.7209C36.4802 35.6768 36.3332 35.6807 36.1996 35.7318C36.0661 35.7829 35.9541 35.8783 35.8823 36.002C35.8104 36.1256 35.7831 36.2702 35.8049 36.4115C35.8495 36.7343 35.8565 37.0612 35.8257 37.3857C35.6312 36.6703 35.3258 35.9899 34.9207 35.369C33.9974 33.9119 32.76 32.6796 31.2991 31.7623C31.1983 31.7069 31.0841 31.6803 30.9692 31.6856C30.8542 31.6909 30.743 31.7278 30.6477 31.7922C30.5524 31.8567 30.4767 31.9462 30.429 32.0509C30.3813 32.1556 30.3635 32.2715 30.3774 32.3857C30.4982 33.4871 30.4651 34.6 30.2791 35.6923C29.8624 37.6532 28.7191 38.8057 27.1407 40.4023C26.7241 40.824 26.2816 41.2715 25.8074 41.7807C25.2166 42.4573 23.3199 44.8798 23.7049 47.614C23.7591 48.0094 23.8569 48.3976 23.9966 48.7715C24.0208 48.854 24.0619 48.9305 24.1171 48.9964C24.1723 49.0623 24.2405 49.1161 24.3174 49.1545C24.3943 49.1928 24.4784 49.2149 24.5642 49.2193C24.6501 49.2237 24.7359 49.2103 24.8164 49.18C24.8968 49.1498 24.9702 49.1032 25.0318 49.0433C25.0934 48.9834 25.1421 48.9114 25.1746 48.8318C25.2072 48.7523 25.223 48.6668 25.221 48.5809C25.2191 48.4949 25.1994 48.4103 25.1632 48.3323C25.0566 48.0435 24.9814 47.744 24.9391 47.439C24.6282 45.2298 26.2441 43.1773 26.7332 42.6165C27.1841 42.1323 27.6166 41.694 28.0257 41.2832C29.6924 39.6023 31.0016 38.2748 31.4974 35.9565C31.649 35.1785 31.7158 34.3864 31.6966 33.594C32.5354 34.3102 33.269 35.1412 33.8757 36.0623C34.4831 37.0346 34.8231 38.1499 34.8616 39.2957C34.8607 39.4186 34.896 39.539 34.9631 39.6419C35.0303 39.7448 35.1263 39.8256 35.2392 39.8743C35.352 39.9229 35.4767 39.9372 35.5976 39.9154C35.7186 39.8935 35.8304 39.8365 35.9191 39.7515C36.3265 39.3497 36.651 38.8718 36.8741 38.3448C37.8107 40.0948 39.0832 42.889 39.0799 45.1298C39.0732 49.7698 36.2924 50.7432 36.1799 50.7807C36.0391 50.8266 35.9191 50.9211 35.8414 51.0472C35.7638 51.1734 35.7334 51.323 35.7559 51.4695C35.7783 51.6159 35.852 51.7496 35.9639 51.8468C36.0757 51.9439 36.2184 51.9981 36.3666 51.9998C36.3924 51.9998 36.4182 51.9998 36.4441 51.9957C36.5624 51.9807 48.3032 50.4032 48.3032 38.6782C48.3032 33.6515 45.5891 27.6315 43.3016 23.4498Z" fill="#70B6F9"/>
</g>
<defs>
<clipPath id="clip0">
<rect width="40" height="40" fill="white" transform="translate(12 12)"/>
</clipPath>
</defs>
</svg>
