<svg width="64" height="64" viewBox="0 0 64 64" fill="none" xmlns="http://www.w3.org/2000/svg">
<circle cx="32" cy="32" r="32" fill="#16263E"/>
<path d="M49.8571 29.4288H14.1429C13.5745 29.4288 13.0295 29.203 12.6276 28.8012C12.2258 28.3993 12 27.8542 12 27.2859C12 26.7176 12.2258 26.1726 12.6276 25.7707C13.0295 25.3688 13.5745 25.1431 14.1429 25.1431H49.8571C50.4255 25.1431 50.9705 25.3688 51.3724 25.7707C51.7742 26.1726 52 26.7176 52 27.2859C52 27.8542 51.7742 28.3993 51.3724 28.8012C50.9705 29.203 50.4255 29.4288 49.8571 29.4288ZM14.1429 26.5716C13.9534 26.5716 13.7717 26.6469 13.6378 26.7808C13.5038 26.9148 13.4286 27.0965 13.4286 27.2859C13.4286 27.4754 13.5038 27.657 13.6378 27.791C13.7717 27.925 13.9534 28.0002 14.1429 28.0002H49.8571C50.0466 28.0002 50.2283 27.925 50.3622 27.791C50.4962 27.657 50.5714 27.4754 50.5714 27.2859C50.5714 27.0965 50.4962 26.9148 50.3622 26.7808C50.2283 26.6469 50.0466 26.5716 49.8571 26.5716H14.1429Z" fill="#70B6F9"/>
<path d="M45.8074 45.1428H42.7146C42.5251 45.1428 42.3434 45.0676 42.2095 44.9336C42.0755 44.7997 42.0003 44.618 42.0003 44.4286C42.0003 44.2391 42.0755 44.0574 42.2095 43.9235C42.3434 43.7895 42.5251 43.7143 42.7146 43.7143H45.8074C45.9746 43.7153 46.1367 43.6574 46.2654 43.5507C46.3941 43.4441 46.4811 43.2955 46.5112 43.1311L49.0016 29.4286H14.999L17.4889 43.1294C17.5188 43.2942 17.6057 43.4431 17.7345 43.5501C17.8633 43.6571 18.0257 43.7152 18.1931 43.7143H21.286C21.4754 43.7143 21.6571 43.7895 21.7911 43.9235C21.925 44.0574 22.0003 44.2391 22.0003 44.4286C22.0003 44.618 21.925 44.7997 21.7911 44.9336C21.6571 45.0676 21.4754 45.1428 21.286 45.1428H18.1931C17.6907 45.1442 17.2038 44.9685 16.818 44.6467C16.4321 44.3249 16.172 43.8774 16.0831 43.3829L13.4402 28.8419C13.4215 28.739 13.4257 28.6332 13.4524 28.532C13.479 28.4309 13.5276 28.3368 13.5947 28.2565C13.6617 28.1762 13.7456 28.1116 13.8404 28.0673C13.9352 28.0229 14.0385 28 14.1431 28H49.8574C49.962 28 50.0654 28.023 50.1601 28.0673C50.2549 28.1116 50.3387 28.1762 50.4058 28.2566C50.4728 28.3369 50.5214 28.4309 50.5481 28.5321C50.5748 28.6332 50.5789 28.739 50.5602 28.8419L47.9174 43.3848C47.8282 43.879 47.5679 44.326 47.1821 44.6475C46.7963 44.9689 46.3096 45.1443 45.8074 45.1428Z" fill="#70B6F9"/>
<path d="M36.9999 45.1429H26.9999C26.8105 45.1429 26.6288 45.0677 26.4949 44.9337C26.3609 44.7998 26.2856 44.6181 26.2856 44.4286C26.2856 44.2392 26.3609 44.0575 26.4949 43.9236C26.6288 43.7896 26.8105 43.7144 26.9999 43.7144H36.9999C37.1894 43.7144 37.3711 43.7896 37.505 43.9236C37.639 44.0575 37.7142 44.2392 37.7142 44.4286C37.7142 44.6181 37.639 44.7998 37.505 44.9337C37.3711 45.0677 37.1894 45.1429 36.9999 45.1429Z" fill="#70B6F9"/>
<path d="M24.1427 48.0003C23.4364 48.0003 22.7459 47.7908 22.1585 47.3984C21.5712 47.006 21.1135 46.4482 20.8431 45.7956C20.5728 45.143 20.5021 44.4249 20.6399 43.7321C20.7777 43.0393 21.1179 42.4029 21.6173 41.9035C22.1168 41.404 22.7532 41.0639 23.446 40.926C24.1388 40.7882 24.8569 40.859 25.5094 41.1293C26.162 41.3996 26.7198 41.8574 27.1123 42.4447C27.5047 43.032 27.7141 43.7225 27.7141 44.4289C27.713 45.3757 27.3364 46.2835 26.6669 46.953C25.9973 47.6225 25.0896 47.9992 24.1427 48.0003ZM24.1427 42.286C23.7189 42.286 23.3046 42.4117 22.9522 42.6471C22.5998 42.8826 22.3252 43.2173 22.163 43.6088C22.0008 44.0004 21.9584 44.4312 22.041 44.8469C22.1237 45.2626 22.3278 45.6444 22.6275 45.9441C22.9272 46.2438 23.309 46.4479 23.7247 46.5305C24.1403 46.6132 24.5712 46.5708 24.9628 46.4086C25.3543 46.2464 25.689 45.9718 25.9244 45.6194C26.1599 45.267 26.2856 44.8527 26.2856 44.4289C26.285 43.8607 26.059 43.316 25.6573 42.9143C25.2555 42.5126 24.7108 42.2866 24.1427 42.286Z" fill="#70B6F9"/>
<path d="M39.8571 48.0003C39.1507 48.0003 38.4602 47.7908 37.8729 47.3984C37.2856 47.006 36.8278 46.4482 36.5575 45.7956C36.2872 45.143 36.2165 44.4249 36.3543 43.7321C36.4921 43.0393 36.8322 42.4029 37.3317 41.9035C37.8312 41.404 38.4675 41.0639 39.1603 40.926C39.8531 40.7882 40.5712 40.859 41.2238 41.1293C41.8764 41.3996 42.4342 41.8574 42.8266 42.4447C43.219 43.032 43.4285 43.7225 43.4285 44.4289C43.4274 45.3757 43.0508 46.2835 42.3812 46.953C41.7117 47.6225 40.8039 47.9992 39.8571 48.0003ZM39.8571 42.286C39.4333 42.286 39.019 42.4117 38.6666 42.6471C38.3142 42.8826 38.0395 43.2173 37.8773 43.6088C37.7151 44.0004 37.6727 44.4312 37.7554 44.8469C37.8381 45.2626 38.0422 45.6444 38.3418 45.9441C38.6415 46.2438 39.0234 46.4479 39.439 46.5305C39.8547 46.6132 40.2856 46.5708 40.6771 46.4086C41.0687 46.2464 41.4033 45.9718 41.6388 45.6194C41.8743 45.267 41.9999 44.8527 41.9999 44.4289C41.9993 43.8607 41.7733 43.316 41.3716 42.9143C40.9699 42.5126 40.4252 42.2866 39.8571 42.286Z" fill="#70B6F9"/>
<path d="M24.143 45.1429C24.5375 45.1429 24.8573 44.8231 24.8573 44.4286C24.8573 44.0342 24.5375 43.7144 24.143 43.7144C23.7485 43.7144 23.4287 44.0342 23.4287 44.4286C23.4287 44.8231 23.7485 45.1429 24.143 45.1429Z" fill="#70B6F9"/>
<path d="M39.8574 45.1429C40.2518 45.1429 40.5716 44.8231 40.5716 44.4286C40.5716 44.0342 40.2518 43.7144 39.8574 43.7144C39.4629 43.7144 39.1431 44.0342 39.1431 44.4286C39.1431 44.8231 39.4629 45.1429 39.8574 45.1429Z" fill="#70B6F9"/>
<path d="M46.9999 26.5716H16.9999C16.8546 26.5716 16.7128 26.5273 16.5933 26.4446C16.4738 26.3619 16.3824 26.2447 16.3313 26.1087C16.2802 25.9727 16.2718 25.8243 16.3072 25.6834C16.3426 25.5424 16.4201 25.4156 16.5294 25.3199L25.2704 17.6716C27.1333 16.0416 29.5245 15.1431 31.9999 15.1431C34.4753 15.1431 36.8666 16.0416 38.7295 17.6716L47.4704 25.3199C47.5798 25.4156 47.6573 25.5424 47.6927 25.6834C47.7281 25.8243 47.7197 25.9727 47.6685 26.1087C47.6174 26.2447 47.526 26.3619 47.4065 26.4446C47.2871 26.5273 47.1452 26.5716 46.9999 26.5716ZM18.9011 25.1431H45.0988L37.7885 18.7466C36.1861 17.3445 34.1292 16.5716 31.9999 16.5716C29.8707 16.5716 27.8138 17.3445 26.2114 18.7466L18.9011 25.1431Z" fill="#70B6F9"/>
<path d="M31.2864 21.5715C31.1544 21.5717 31.0249 21.5353 30.9123 21.4662C30.7998 21.3972 30.7085 21.2983 30.6489 21.1805C30.5021 20.8974 30.288 20.6547 30.0253 20.4738C29.7627 20.2928 29.4597 20.1792 29.1429 20.1429C28.826 20.1793 28.523 20.293 28.2604 20.474C27.9978 20.655 27.7836 20.8977 27.6369 21.1809C27.5516 21.35 27.4026 21.4784 27.2227 21.5378C27.0428 21.5971 26.8467 21.5826 26.6775 21.4973C26.5084 21.4121 26.38 21.2631 26.3206 21.0832C26.2613 20.9033 26.2758 20.7072 26.3611 20.538C26.626 20.0183 27.0219 19.5766 27.5098 19.2568C27.9977 18.937 28.5606 18.75 29.1429 18.7144C29.7251 18.75 30.288 18.9369 30.7758 19.2567C31.2637 19.5765 31.6597 20.018 31.9246 20.5377C31.9791 20.6466 32.0048 20.7675 31.9994 20.8891C31.9939 21.0107 31.9575 21.1289 31.8936 21.2324C31.8297 21.336 31.7403 21.4215 31.6341 21.4808C31.5278 21.5402 31.4081 21.5714 31.2864 21.5715Z" fill="#70B6F9"/>
<path d="M38.429 23.7146C38.297 23.7148 38.1675 23.6783 38.0549 23.6093C37.9423 23.5403 37.8511 23.4413 37.7914 23.3236C37.6447 23.0405 37.4305 22.7978 37.1679 22.6168C36.9053 22.4359 36.6023 22.3223 36.2854 22.286C35.9686 22.3224 35.6655 22.4361 35.4029 22.6171C35.1403 22.798 34.9262 23.0408 34.7794 23.3239C34.6942 23.4931 34.5452 23.6215 34.3653 23.6808C34.1854 23.7402 33.9893 23.7256 33.8201 23.6404C33.6509 23.5551 33.5226 23.4062 33.4632 23.2263C33.4039 23.0464 33.4184 22.8502 33.5037 22.6811C33.7686 22.1613 34.1645 21.7197 34.6524 21.3999C35.1403 21.08 35.7032 20.8931 36.2854 20.8574C36.8677 20.893 37.4306 21.08 37.9184 21.3997C38.4063 21.7195 38.8023 22.1611 39.0672 22.6808C39.1217 22.7896 39.1474 22.9106 39.142 23.0322C39.1365 23.1538 39.1001 23.2719 39.0362 23.3755C38.9722 23.4791 38.8829 23.5646 38.7766 23.6239C38.6704 23.6833 38.5507 23.7145 38.429 23.7146Z" fill="#70B6F9"/>
</svg>
