<svg width="64" height="64" viewBox="0 0 64 64" fill="none" xmlns="http://www.w3.org/2000/svg">
<circle cx="32" cy="32" r="32" fill="#16263E"/>
<path d="M47.375 19.1875H44.25V16.625C44.25 16.2799 43.9702 16 43.625 16H39.875C39.5298 16 39.25 16.2799 39.25 16.625V19.1875H24.75V16.625C24.75 16.2799 24.4702 16 24.125 16H20.375C20.0298 16 19.75 16.2799 19.75 16.625V19.1875H16.625C16.2798 19.1875 16 19.4674 16 19.8125V25.4375C16 25.7826 16.2798 26.0625 16.625 26.0625H19.75V28.5625H16.625C16.2798 28.5625 16 28.8424 16 29.1875V34.8125C16 35.1576 16.2798 35.4375 16.625 35.4375H19.75V37.9375H16.625C16.2798 37.9375 16 38.2174 16 38.5625V44.1875C16 44.5326 16.2798 44.8125 16.625 44.8125H19.75V47.375C19.75 47.7201 20.0298 48 20.375 48H24.125C24.4702 48 24.75 47.7201 24.75 47.375V44.8125H29.1875C29.5327 44.8125 29.8125 44.5326 29.8125 44.1875C29.8125 43.8424 29.5327 43.5625 29.1875 43.5625H24.75V39.1875H39.25V43.5625H34.8125C34.4673 43.5625 34.1875 43.8424 34.1875 44.1875C34.1875 44.5326 34.4673 44.8125 34.8125 44.8125H39.25V47.375C39.25 47.7201 39.5298 48 39.875 48H43.625C43.9702 48 44.25 47.7201 44.25 47.375V44.8125H47.375C47.7202 44.8125 48 44.5326 48 44.1875V38.5625C48 38.2174 47.7202 37.9375 47.375 37.9375H44.25V35.4375H47.375C47.7202 35.4375 48 35.1576 48 34.8125V29.1875C48 28.8424 47.7202 28.5625 47.375 28.5625H44.25V26.0625H47.375C47.7202 26.0625 48 25.7826 48 25.4375V19.8125C48 19.4674 47.7202 19.1875 47.375 19.1875ZM39.25 28.5625H24.75V26.0625H39.25V28.5625ZM24.75 29.8125H39.25V34.1875H24.75V29.8125ZM39.25 20.4375V24.8125H24.75V20.4375H39.25ZM17.25 24.8125V20.4375H19.75V24.8125H17.25ZM17.25 34.1875V29.8125H19.75V34.1875H17.25ZM17.25 43.5625V39.1875H19.75V43.5625H17.25ZM23.5 46.75H21V17.25H23.5V46.75ZM24.75 37.9375V35.4375H39.25V37.9375H24.75ZM43 46.75H40.5V17.25H43V46.75ZM46.75 39.1875V43.5625H44.25V39.1875H46.75ZM46.75 29.8125V34.1875H44.25V29.8125H46.75ZM46.75 24.8125H44.25V20.4375H46.75V24.8125Z" fill="#70B6F9"/>
<path d="M32 44.8125C32.3452 44.8125 32.625 44.5327 32.625 44.1875C32.625 43.8423 32.3452 43.5625 32 43.5625C31.6548 43.5625 31.375 43.8423 31.375 44.1875C31.375 44.5327 31.6548 44.8125 32 44.8125Z" fill="#70B6F9"/>
</svg>
