<svg width="89" height="42" viewBox="0 0 89 42" fill="none" xmlns="http://www.w3.org/2000/svg">
<g opacity="0.7">
<path d="M41.5713 0.00171591C41.6498 0.324594 41.7472 0.642584 41.863 0.954045C42.0947 1.4997 42.3778 2.02477 42.6146 2.56872C42.757 2.89989 42.8394 3.25508 42.9664 3.59826C43.0607 3.84707 43.1911 4.08043 43.2924 4.32581C43.7591 5.45144 44.2155 6.58394 44.6891 7.70615C44.9191 8.24494 45.1919 8.76658 45.4253 9.30366C45.6586 9.84074 45.8903 10.4362 46.1271 11.0007C46.3278 11.4777 46.5475 11.9479 46.7414 12.4266C47.009 13.0838 47.2561 13.7496 47.5187 14.4085C47.6113 14.6419 47.7349 14.8632 47.8327 15.0949C48.1055 15.7452 48.3646 16.4024 48.646 17.051C48.8862 17.6001 49.1608 18.132 49.3976 18.6828C49.6344 19.2336 49.8472 19.8342 50.084 20.3987C50.3207 20.9633 50.585 21.5158 50.8304 22.0769C51.0431 22.5631 51.2513 23.0498 51.455 23.5371C51.6906 24.0908 51.9194 24.6456 52.1413 25.2016C52.2352 25.4728 52.362 25.7316 52.5188 25.972C52.5343 25.7712 52.56 25.5705 52.56 25.368C52.56 19.9789 52.56 14.5892 52.56 9.19899C52.56 9.04284 52.56 8.88498 52.56 8.72711C52.5497 8.32559 52.7059 8.12654 53.1451 8.13856C53.9465 8.16086 54.7478 8.15743 55.5474 8.13856C55.9198 8.12998 56.1188 8.35304 56.2938 8.61043C56.5907 9.0497 56.8652 9.5027 57.1518 9.94884C57.4383 10.395 57.6992 10.8291 57.9874 11.2598C58.5022 12.0285 59.029 12.7835 59.5317 13.5557C59.8904 14.1031 60.2181 14.6693 60.5613 15.2287C60.5836 15.2647 60.587 15.3196 60.6162 15.3437C61.2116 15.8584 61.1396 16.5448 61.131 17.2312C61.131 20.0487 61.131 22.8645 61.131 25.6803C61.131 26.3238 61.1138 26.3409 60.4927 26.3409C55.3255 26.3409 50.1589 26.3409 44.9928 26.3409C44.5622 26.3409 44.4009 26.2019 44.2722 25.7678C44.0474 25.0042 43.6767 24.2853 43.3747 23.5457C43.2027 23.1536 43.0515 22.7526 42.9217 22.3446C42.8102 21.9619 42.606 21.7646 42.2011 21.7646C39.1673 21.7646 36.133 21.7646 33.0982 21.7646C32.7035 21.7646 32.4701 21.8761 32.3964 22.3257C32.3415 22.6466 32.1098 22.9348 31.9811 23.2471C31.8524 23.5594 31.734 23.9335 31.6053 24.2647C31.3926 24.8275 31.1952 25.3972 30.9481 25.9445C30.8194 26.2311 30.5535 26.3392 30.2103 26.3375C26.9175 26.3255 23.6264 26.3375 20.3352 26.3375C19.3469 26.3375 18.3585 26.3203 17.3719 26.3461C17.203 26.354 17.0345 26.323 16.8795 26.2554C16.7245 26.1879 16.5871 26.0856 16.4779 25.9566C15.7309 25.1684 14.9753 24.3894 14.2112 23.6195C13.4441 22.8508 12.6514 22.1078 11.8844 21.3408C10.558 20.0161 9.24532 18.6777 7.91892 17.3547C7.87562 17.322 7.82566 17.2992 7.77259 17.288C7.71952 17.2767 7.66462 17.2772 7.61177 17.2895C7.54485 17.3067 7.48136 17.4285 7.46249 17.5143C7.44555 17.6417 7.44153 17.7704 7.45048 17.8986C7.45048 20.4862 7.45048 23.0738 7.45048 25.6614C7.45048 26.3358 7.45048 26.3375 6.795 26.3375C5.07909 26.3375 3.36318 26.3272 1.64727 26.3375C1.2406 26.3375 1.09647 26.2071 1.09818 25.7953C1.10848 21.0782 1.09818 16.3578 1.09818 11.6424C1.11534 11.0522 1.19599 10.9835 1.82916 10.9835H17.0287C17.6945 10.9835 17.6962 10.9835 17.6962 10.3178C17.6962 9.30194 17.6962 8.28784 17.6962 7.27202C17.6962 6.74009 17.6447 6.69033 17.099 6.69033C13.8937 6.69033 10.6867 6.65773 7.48994 6.7092C6.62169 6.72293 6.02284 6.36602 5.46689 5.81007C4.99844 5.33819 4.53515 4.86117 4.08215 4.37385C3.62915 3.88653 3.16585 3.32028 2.68025 2.81924C1.85318 1.97673 1.01067 1.15309 0.185318 0.314011C0.111623 0.217466 0.0494305 0.11266 0 0.00171591H24.2218C24.2218 5.53266 24.2218 11.0636 24.2218 16.5946C24.2218 17.3084 24.0313 17.5006 23.3055 17.5006C21.5038 17.5006 19.7021 17.5006 17.8969 17.5006C17.733 17.513 17.5701 17.5371 17.4096 17.5726C19.5494 19.7415 21.6479 21.8624 23.7585 24.0124C23.87 23.8048 23.9592 23.6504 24.0365 23.4977C24.2698 23.0052 24.5083 22.5144 24.7228 22.0134C24.8635 21.6822 24.9442 21.327 25.0866 20.9839C25.3268 20.4193 25.6014 19.8737 25.845 19.3091C26.0887 18.7446 26.2757 18.1577 26.5211 17.5932C26.8471 16.8416 27.2229 16.109 27.5506 15.354C27.8938 14.5612 28.1752 13.7444 28.5064 12.9517C28.8376 12.1589 29.1928 11.3662 29.5359 10.57C29.85 9.82529 30.1451 9.07201 30.4591 8.32559C30.5672 8.0682 30.7285 7.83312 30.8263 7.57231C30.9216 7.34964 30.9684 7.10923 30.9636 6.86707C30.9636 6.79671 30.6341 6.70577 30.4488 6.69548C29.2751 6.68175 28.1014 6.68175 26.9278 6.69548C26.5846 6.69548 26.4387 6.56507 26.4404 6.21674C26.4525 4.14392 26.4542 2.07282 26.4593 0L41.5713 0.00171591ZM37.6488 8.8661C37.5063 9.26591 37.3776 9.67944 37.2181 10.081C36.8749 10.9389 36.518 11.7969 36.1628 12.6634C36.0615 12.9088 35.9449 13.149 35.8488 13.3978C35.6051 14.0207 35.3872 14.6556 35.1178 15.2733C34.929 15.6989 34.9616 15.7881 35.4455 15.7967C36.216 15.7967 36.9898 15.7967 37.7603 15.7967C38.5033 15.7967 39.2463 15.7967 39.991 15.7967C40.2243 15.7967 40.4131 15.7297 40.3342 15.4535C40.2374 15.1468 40.1228 14.846 39.991 14.5526C39.7473 13.9658 39.4951 13.3807 39.2428 12.7972C39.1433 12.5673 39.0181 12.3494 38.9374 12.1109C38.7263 11.4932 38.5616 10.8583 38.3248 10.2508C38.1515 9.7824 37.889 9.34656 37.6488 8.8661Z" fill="white"/>
<path d="M88.9818 0.00171852C89.0588 0.736025 88.8904 1.47515 88.5031 2.10371C88.2062 2.60132 88.0741 3.19503 87.8442 3.73554C87.6142 4.27605 87.3397 4.82342 87.0892 5.36908C86.955 5.6141 86.848 5.87302 86.77 6.14124C86.6979 6.48442 86.4869 6.52389 86.2072 6.52217C85.4779 6.52217 84.747 6.52217 84.0177 6.52217C81.7287 6.52217 79.4379 6.53247 77.1541 6.52217C76.956 6.50516 76.7577 6.55064 76.5869 6.65221C76.416 6.75378 76.2814 6.90633 76.2017 7.08842C76.0387 7.39729 75.8054 7.67012 75.6132 7.96525C75.0675 8.81119 74.5321 9.66572 73.9813 10.5065C73.2332 11.6493 72.4713 12.7835 71.7163 13.9212L70.6044 15.5976C70.0296 16.4693 69.4462 17.3358 68.8885 18.2161C68.2794 19.1719 67.696 20.1465 67.0902 21.104C66.9709 21.2454 66.8363 21.3732 66.6887 21.4849C66.2271 20.7659 65.805 20.095 65.3675 19.4258C65.1067 19.0329 64.8184 18.6571 64.549 18.2676C64.3774 18.0273 64.2315 17.7751 64.072 17.5297C63.4989 16.6426 62.9309 15.7538 62.3561 14.8718C61.994 14.321 61.6062 13.7873 61.2476 13.2348C60.925 12.7355 60.6367 12.2156 60.3176 11.7128C59.836 10.9544 59.3475 10.1999 58.8522 9.44951C58.3031 8.6173 57.7282 7.79881 57.1963 6.95458C56.9715 6.59596 56.6815 6.51702 56.2938 6.51874C53.3927 6.52103 50.5003 6.52217 47.6164 6.52217C46.9146 6.52217 46.846 6.46212 46.6246 5.79463C46.568 5.62304 46.4238 5.48748 46.3535 5.31932C46.0635 4.62266 45.7993 3.91228 45.4955 3.22076C45.1524 2.44003 44.7817 1.67645 44.4317 0.899139C44.291 0.605718 44.1846 0.300287 44.061 0.00171852H60.5526C61.0794 0.830503 61.6199 1.65242 62.1313 2.4915C62.5174 3.12467 62.8554 3.78701 63.238 4.42018C63.8661 5.4646 64.5061 6.50158 65.1581 7.53113C65.6472 8.30157 66.1637 9.05314 66.7025 9.86133C66.8374 9.73659 66.9614 9.60054 67.0731 9.45466C67.394 8.96048 67.6891 8.44742 68.01 7.95324C68.2485 7.58775 68.535 7.25143 68.7598 6.87908C69.1219 6.28366 69.4342 5.65735 69.798 5.06193C70.1617 4.46651 70.5993 3.84879 70.9854 3.23449C71.3714 2.6202 71.7627 1.97673 72.1333 1.3367C72.3804 0.900855 72.6 0.447855 72.8403 0.00171852H88.9818Z" fill="white"/>
<path d="M80.9894 17.2809C80.9894 20.0126 80.9894 22.7432 80.9894 25.4727C80.9894 26.1951 80.8315 26.3512 80.1091 26.3512H73.0739C72.5025 26.3512 72.4854 26.3358 72.4854 25.7832C72.4854 22.6088 72.4854 19.4344 72.4956 16.2617C72.5092 15.985 72.5969 15.7172 72.7496 15.4861C73.1889 14.7997 73.6831 14.1528 74.1326 13.4733C74.8087 12.4438 75.471 11.4142 76.1282 10.3847C76.5624 9.69831 76.969 9.00165 77.4083 8.32559C77.4549 8.27461 77.5116 8.23394 77.5749 8.20616C77.6381 8.17838 77.7064 8.16412 77.7755 8.16429C78.6472 8.15056 79.52 8.15056 80.394 8.16429C80.7715 8.16429 80.9911 8.42168 80.9945 8.85065C80.9945 9.77896 80.9945 10.709 80.9945 11.6373L80.9894 17.2809Z" fill="white"/>
<path d="M56.9236 37.4823C56.8104 37.8375 56.7194 38.2013 56.5804 38.5445C56.5456 38.6166 56.4955 38.6802 56.4336 38.7309C56.3716 38.7815 56.2993 38.8181 56.2218 38.8379C55.8536 38.8911 55.4798 38.8911 55.1116 38.8379C54.94 38.8053 54.7478 38.5908 54.638 38.4141C54.447 38.0697 54.2751 37.7152 54.1232 37.3519C54.0792 37.5209 54.0476 37.693 54.0289 37.8667C54.0186 38.4243 54.0134 38.982 54.0289 39.5397C54.0289 39.8468 53.919 39.9824 53.6033 39.979C52.0487 39.9549 52.325 40.1814 52.3112 38.7418C52.2941 36.9693 52.3112 35.1967 52.3112 33.4225C52.3112 32.8888 52.3438 32.8631 52.8672 32.8562C53.8041 32.8425 53.986 33.0278 54.3394 33.9115C54.6929 34.7952 55.1322 35.6394 55.5406 36.5008L55.6864 36.542C55.8752 36.1902 56.0845 35.8471 56.2458 35.4816C56.4071 35.1161 56.4998 34.7403 56.6422 34.3748C56.8138 33.9613 56.9854 33.5494 57.1741 33.1514C57.2055 33.0852 57.2507 33.0264 57.3066 32.9791C57.3626 32.9317 57.4279 32.8969 57.4984 32.8768C57.8546 32.8433 58.213 32.8433 58.5692 32.8768C58.6328 32.8937 58.6916 32.9251 58.741 32.9686C58.7905 33.0121 58.8291 33.0664 58.854 33.1273C58.9089 33.3191 58.9338 33.5182 58.9278 33.7176C58.9278 35.5479 58.9278 37.3782 58.9278 39.2085C58.9278 39.9446 58.8866 39.9824 58.1522 39.9772C57.006 39.9772 57.145 40.0905 57.1347 38.9769C57.1347 38.6045 57.1347 38.2322 57.1347 37.8615C57.123 37.73 57.103 37.5993 57.0746 37.4703L56.9236 37.4823Z" fill="white"/>
<path d="M16.8362 35.7493C16.8362 34.5916 16.8362 33.4339 16.8362 32.2762C16.8362 31.7066 17.0438 31.4938 17.6032 31.4921C18.8627 31.4921 20.1222 31.4921 21.3782 31.4921C21.7643 31.4921 21.9359 31.6208 21.9101 32.0069C21.8947 32.2488 21.9101 32.4925 21.9101 32.7344C21.9101 33.1805 21.7386 33.3607 21.2924 33.3744C20.721 33.3899 20.1479 33.3933 19.5765 33.3744C19.2196 33.3641 19.0617 33.4722 19.0617 33.86C19.084 34.9737 18.988 34.8158 20.0312 34.8278C20.3881 34.8278 20.7468 34.8278 21.1037 34.8278C21.6716 34.8278 21.893 35.0938 21.893 35.7407C21.893 36.3395 21.6939 36.5454 21.1071 36.5489C20.5632 36.5489 20.0192 36.5574 19.4753 36.5489C19.1853 36.5489 19.0549 36.6587 19.0669 36.9538C19.0815 37.2396 19.0815 37.526 19.0669 37.8118C19.0463 38.1429 19.1767 38.2734 19.5147 38.2648C20.1857 38.2493 20.86 38.2562 21.5309 38.2648C21.9479 38.2648 22.1229 38.4364 22.1521 38.855C22.1624 39.0265 22.1624 39.1984 22.1521 39.3698C22.1281 39.816 21.9565 39.9807 21.5086 39.9824C20.1794 39.9824 18.849 39.9824 17.5174 39.9824C17.0284 39.9824 16.8396 39.7988 16.8311 39.308C16.8311 38.1224 16.8362 36.9349 16.8362 35.7493Z" fill="white"/>
<path d="M29.8894 36.4648C29.8894 36.9933 29.8706 37.5218 29.8894 38.0503C29.9202 38.3902 29.8476 38.7315 29.681 39.0295C29.5144 39.3274 29.2617 39.5681 28.956 39.7199C28.9077 39.7367 28.8649 39.7664 28.8323 39.8058C28.7997 39.8452 28.7786 39.8928 28.7712 39.9434C28.7637 39.994 28.7703 40.0456 28.7902 40.0928C28.8101 40.1399 28.8425 40.1806 28.8839 40.2106C29.0146 40.3403 29.159 40.4554 29.3146 40.5538C29.3881 40.5958 29.4491 40.6565 29.4916 40.7298C29.534 40.803 29.5564 40.8861 29.5564 40.9708C29.5564 41.0554 29.534 41.1385 29.4916 41.2118C29.4491 41.285 29.3881 41.3457 29.3146 41.3877C28.7089 41.7721 28.1615 41.6417 27.7548 41.1852C27.3486 40.7539 26.887 40.3783 26.3821 40.0682C26.0784 39.8709 25.6752 39.8314 25.3371 39.6787C25.0745 39.5671 24.8518 39.3784 24.6987 39.1376C24.5455 38.8968 24.4689 38.6152 24.4792 38.33C24.4586 37.1872 24.5169 36.041 24.4569 34.8982C24.414 34.0677 24.8755 33.6164 25.4641 33.208C26.3221 32.6074 27.3224 32.8047 28.2353 32.9283C28.8015 33.0038 29.469 33.2904 29.7264 33.975C29.8028 34.1376 29.8526 34.3114 29.874 34.4898C29.8929 35.147 29.874 35.8042 29.874 36.4614L29.8894 36.4648ZM26.449 36.5111C26.449 37.0379 26.449 37.5664 26.449 38.0932C26.449 38.2219 26.5263 38.4518 26.5846 38.457C26.9775 38.4947 27.4082 38.5771 27.7566 38.457C27.9556 38.3849 28.1135 37.9559 28.1341 37.6762C28.1855 36.9538 28.1203 36.2228 28.1649 35.4987C28.1924 35.0389 28.0242 34.6957 27.6639 34.4984C27.4132 34.3585 27.1183 34.3204 26.8403 34.392C26.6549 34.4589 26.4868 34.7901 26.4593 35.02C26.4277 35.5164 26.4242 36.0143 26.449 36.5111V36.5111Z" fill="white"/>
<path d="M70.0315 36.9143C70.016 37.146 70.0006 37.2816 69.9989 37.4188C69.9989 38.004 69.9989 38.5908 69.9989 39.1759C70.0159 39.3469 69.996 39.5195 69.9405 39.6821C69.6403 40.2827 69.0826 39.888 68.6519 39.9704C68.3465 40.0304 68.2778 39.7988 68.2778 39.5328C68.2778 37.5338 68.2778 35.533 68.2778 33.5271C68.2778 33.105 68.5215 32.8768 68.9419 32.8579C69.7844 32.8219 70.0933 33.0295 70.4862 33.8549C70.7007 34.2959 70.9649 34.7128 71.2086 35.1367C71.3802 35.4232 71.5518 35.7081 71.7097 35.9946H71.8504C71.901 35.8231 71.936 35.6474 71.955 35.4696C71.967 34.7712 71.9705 34.0711 71.955 33.371C71.955 33.0175 72.0614 32.8459 72.4458 32.8562C73.7516 32.8837 73.604 32.7018 73.6092 33.9819C73.6092 35.7956 73.6006 37.611 73.6092 39.4247C73.6092 39.8571 73.4685 40.0304 73.0395 39.9841C72.8401 39.9584 72.6383 39.9584 72.4389 39.9841C72.0374 40.0493 71.8263 39.8125 71.6633 39.5157C71.2498 38.7761 70.862 38.0228 70.4467 37.285C70.3953 37.1632 70.2374 37.0859 70.0315 36.9143Z" fill="white"/>
<path d="M37.7895 36.0049V38.064C37.7815 38.5655 37.5811 39.0447 37.2298 39.4027C36.8786 39.7606 36.4032 39.97 35.902 39.9875C35.3581 39.9875 34.8141 39.9704 34.2702 39.9875C33.4688 40.0253 32.9455 39.5774 32.5062 39.0009C32.416 38.8389 32.376 38.6537 32.3913 38.469C32.3833 36.8091 32.3833 35.1504 32.3913 33.4928C32.3913 32.9334 32.4839 32.8545 33.0502 32.8579C34.2136 32.8682 34.114 32.7087 34.1175 33.9029C34.1175 35.0612 34.1175 36.2194 34.1175 37.3759C34.1106 37.6462 34.1554 37.9153 34.2496 38.1687C34.3869 38.4861 34.9205 38.6337 35.3495 38.5016C35.7098 38.39 35.8299 38.1155 35.8265 37.7397C35.8128 36.4099 35.8265 35.0818 35.8265 33.7519C35.8265 33.0381 36.0101 32.9025 36.7033 32.8459C37.6162 32.7739 37.8324 33.2148 37.8015 33.9407C37.7672 34.6322 37.7895 35.3185 37.7895 36.0049Z" fill="white"/>
<path d="M44.6667 36.5592C44.6667 35.6017 44.6667 34.6442 44.6667 33.6884C44.6667 33.1068 44.9189 32.8648 45.4972 32.8648C46.2265 32.8648 46.9592 32.8271 47.685 32.8768C48.3714 32.9231 49.0474 33.093 49.533 33.6593C49.8539 34.0299 50.1147 34.4229 50.0684 34.9514C50.0478 35.1916 50.0684 35.4352 50.0684 35.6789C50.0684 36.5369 49.4833 37.1769 48.6837 37.4617C48.1551 37.6268 47.6015 37.6971 47.0484 37.6694C46.7584 37.6694 46.6314 37.7826 46.6366 38.076C46.6469 38.5616 46.6263 39.0489 46.6366 39.5328C46.6469 39.876 46.5027 39.9978 46.1767 39.9858C45.8507 39.9738 45.4903 39.9687 45.1472 39.9858C44.7662 40.0064 44.6513 39.8314 44.6564 39.4711C44.677 38.5033 44.6667 37.5304 44.6667 36.5592ZM47.3349 34.5704C46.64 34.5704 46.64 34.5704 46.6366 35.195C46.6366 36.0341 46.6366 36.0341 47.2045 36.0358C47.9836 36.0358 48.0951 35.9552 48.0985 35.3494C48.102 34.6442 48.0333 34.5739 47.3349 34.5704Z" fill="white"/>
<path d="M61.6662 36.427C61.6662 35.3975 61.6662 34.368 61.6662 33.3384C61.6662 32.9952 61.7846 32.8511 62.1433 32.8562C63.1865 32.8717 64.2298 32.8682 65.2748 32.8562C65.5837 32.8562 65.7021 32.9746 65.7175 33.2835C65.7844 34.5327 65.7621 34.5653 64.5404 34.5653C64.3534 34.5653 64.168 34.5653 63.9827 34.5653C63.6292 34.5447 63.3598 34.579 63.389 35.0526C63.4216 35.5777 63.4954 35.6789 64.0136 35.6823C64.4289 35.6823 64.8424 35.6823 65.2576 35.6823C65.5545 35.6823 65.7158 35.8059 65.7021 36.1182C65.7021 36.276 65.7021 36.4322 65.7021 36.5901C65.7021 36.9607 65.5185 37.1409 65.1478 37.1391C64.7188 37.1391 64.2899 37.1512 63.8609 37.1391C63.54 37.1288 63.3993 37.2387 63.3907 37.5801C63.3701 38.5222 63.3581 38.5205 64.2967 38.5222C64.7257 38.5222 65.1547 38.5222 65.5837 38.5222C65.8531 38.5222 65.956 38.6406 65.9715 38.9117C66.0332 39.9807 66.0401 39.9807 64.9745 39.9807C64.0308 39.9807 63.087 39.9704 62.1433 39.9807C61.7898 39.9807 61.6628 39.852 61.668 39.5037C61.6731 38.4844 61.6645 37.4549 61.6662 36.427Z" fill="white"/>
<path d="M77.3019 37.2369C77.3019 36.5231 77.2865 35.8093 77.3019 35.0955C77.3139 34.706 77.1749 34.5567 76.7871 34.5704C76.4354 34.5807 75.9789 34.7197 75.8142 34.2616C75.7021 33.9492 75.6778 33.6121 75.7439 33.2869C75.8176 32.9643 76.1231 32.8562 76.4869 32.8631C77.7292 32.8854 78.9749 32.882 80.2172 32.8631C80.6136 32.8631 80.768 33.0055 80.7406 33.3882C80.7269 33.5872 80.7406 33.788 80.7406 33.987C80.7376 34.1386 80.6768 34.2833 80.5705 34.3915C80.4643 34.4996 80.3207 34.563 80.1692 34.5687C80.0267 34.585 79.8827 34.585 79.7402 34.5687C79.3799 34.5378 79.2683 34.7094 79.2701 35.0526C79.2804 36.4253 79.2701 37.798 79.2701 39.1708C79.2701 39.8726 79.1482 39.9927 78.4464 39.9875C77.2556 39.9875 77.3002 40.1351 77.3036 38.8636C77.3105 38.3162 77.3019 37.7723 77.3019 37.2369Z" fill="white"/>
<path d="M42.0895 36.4545C42.0895 37.4686 42.0775 38.481 42.0895 39.4934C42.0895 39.8657 41.9625 39.9978 41.5902 39.9893C40.1437 39.9532 40.3667 40.1849 40.3564 38.7778C40.3444 37.0087 40.3564 35.2396 40.3564 33.4722C40.3564 32.8923 40.3856 32.8614 40.9587 32.8665C42.2268 32.8768 42.0758 32.6949 42.0844 33.9733C42.0947 34.8003 42.0895 35.6274 42.0895 36.4545Z" fill="white"/>
</g>
</svg>
