<svg width="64" height="64" viewBox="0 0 64 64" fill="none" xmlns="http://www.w3.org/2000/svg">
<circle cx="32" cy="32" r="32" fill="#16263E"/>
<g clip-path="url(#clip0)">
<path d="M45.5688 26.8772C45.4921 26.7462 45.3671 26.6505 45.2206 26.6105C45.1478 26.5909 45.0718 26.5859 44.9971 26.5957C44.9223 26.6055 44.8502 26.6299 44.7848 26.6677L38.1715 30.4863C38.0399 30.5626 37.9439 30.688 37.9046 30.835C37.8653 30.982 37.886 31.1385 37.962 31.2703L41.2382 36.9381C41.2738 37.007 41.3231 37.0678 41.3829 37.1171C41.4428 37.1663 41.512 37.2029 41.5864 37.2246C41.6608 37.2463 41.7389 37.2527 41.8158 37.2434C41.8928 37.2341 41.967 37.2092 42.0341 37.1704C42.1012 37.1315 42.1597 37.0795 42.206 37.0174C42.2524 36.9553 42.2857 36.8844 42.3039 36.809C42.3221 36.7337 42.3248 36.6554 42.3118 36.579C42.2989 36.5026 42.2706 36.4296 42.2286 36.3644L39.2374 31.1926L44.8572 27.9477L49.0614 35.2193C49.1136 35.3102 49.1411 35.4131 49.1411 35.5179C49.1411 35.6227 49.1136 35.7257 49.0614 35.8166L47.8225 37.9743H38.2332V36.9153C38.2327 36.8007 38.1978 36.6889 38.1332 36.5942C38.0685 36.4996 37.977 36.4265 37.8705 36.3844C37.7639 36.3423 37.6471 36.333 37.5353 36.3578C37.4234 36.3826 37.3215 36.4404 37.2427 36.5237L32.1334 41.9667C32.0357 42.0708 31.9804 42.2075 31.9781 42.3502C31.9758 42.493 32.0269 42.6314 32.1212 42.7385L37.2305 48.5526C37.2844 48.6137 37.3506 48.6626 37.4249 48.6961C37.4991 48.7296 37.5796 48.7469 37.661 48.7469C37.7316 48.7456 37.8013 48.7314 37.8667 48.705C37.9752 48.664 38.0688 48.5911 38.135 48.4959C38.2013 48.4007 38.2371 48.2876 38.2378 48.1717V46.7461L43.773 46.7537C43.8738 46.7537 43.9727 46.7271 44.0599 46.6767C44.1471 46.6263 44.2195 46.5538 44.2698 46.4665L50.0603 36.3903C50.2127 36.1253 50.2929 35.8248 50.2929 35.5191C50.2929 35.2133 50.2127 34.9129 50.0603 34.6478L45.5688 26.8772ZM43.4355 45.6071L37.6587 45.5995C37.5834 45.5993 37.5088 45.6139 37.4391 45.6427C37.3695 45.6714 37.3062 45.7135 37.2529 45.7668C37.1996 45.82 37.1573 45.8833 37.1285 45.9529C37.0997 46.0225 37.0849 46.0971 37.085 46.1724V46.6478L33.3212 42.3705L37.085 38.3614V38.5465C37.0852 38.6985 37.1458 38.8443 37.2533 38.9517C37.3609 39.0591 37.5067 39.1195 37.6587 39.1195H47.162L43.4355 45.6071Z" fill="#70B6F9"/>
<path d="M20.8113 24.1362L27.4285 27.9541C27.516 28.0039 27.615 28.0302 27.7157 28.0303C27.8163 28.0299 27.915 28.0032 28.002 27.9528C28.0891 27.9024 28.1614 27.8301 28.2117 27.743L31.4818 22.0691C31.5243 22.0039 31.5531 21.9308 31.5665 21.8541C31.5798 21.7774 31.5773 21.6988 31.5593 21.6231C31.5412 21.5474 31.5079 21.4762 31.4614 21.4138C31.4149 21.3513 31.3562 21.2991 31.2888 21.2601C31.2215 21.2211 31.1469 21.1963 31.0696 21.1871C30.9923 21.1779 30.914 21.1846 30.8393 21.2067C30.7647 21.2287 30.6953 21.2658 30.6355 21.3156C30.5757 21.3654 30.5266 21.4268 30.4913 21.4962L27.5077 26.6771L21.8871 23.4322L26.0799 16.156C26.1327 16.0654 26.2083 15.9903 26.2992 15.938C26.3901 15.8857 26.4931 15.8582 26.598 15.8581L29.0864 15.8527L33.8803 24.1575L33.0506 24.6375C32.9617 24.668 32.8819 24.7203 32.8186 24.7897C32.7552 24.859 32.7103 24.9432 32.6879 25.0345C32.6868 25.053 32.6868 25.0716 32.6879 25.0901C32.6857 25.1503 32.6857 25.2105 32.6879 25.2707C32.7053 25.3837 32.7561 25.489 32.8338 25.573C32.9114 25.6571 33.0124 25.716 33.1237 25.7423L40.3892 27.4474C40.5293 27.4801 40.6766 27.4591 40.802 27.3886C40.9273 27.3181 41.0217 27.2032 41.0666 27.0665L43.5412 19.7354C43.5786 19.625 43.5814 19.5059 43.5493 19.3939C43.5172 19.2818 43.4517 19.1823 43.3616 19.1084C43.2715 19.0346 43.1609 18.99 43.0448 18.9806C42.9286 18.9712 42.8124 18.9974 42.7115 19.0558L41.4788 19.7674L38.7176 14.9674C38.6674 14.88 38.5951 14.8075 38.5078 14.757C38.4206 14.7066 38.3216 14.6801 38.2208 14.6802L26.6018 14.7061C26.296 14.7069 25.9957 14.7876 25.7308 14.9404C25.4659 15.0932 25.2455 15.3126 25.0917 15.5769L20.6018 23.3522C20.564 23.4174 20.5394 23.4894 20.5294 23.5641C20.5195 23.6389 20.5244 23.7148 20.5438 23.7877C20.5633 23.8605 20.597 23.9288 20.6429 23.9886C20.6888 24.0484 20.746 24.0985 20.8113 24.1362ZM37.8864 15.8314L40.7679 20.8379C40.8056 20.9031 40.8558 20.9603 40.9156 21.0062C40.9754 21.052 41.0437 21.0856 41.1165 21.1051C41.1893 21.1245 41.2652 21.1295 41.3399 21.1196C41.4146 21.1097 41.4867 21.0852 41.5519 21.0474L41.9656 20.8082L40.1523 26.1941L34.8128 24.943L34.9538 24.8615C35.0852 24.7852 35.181 24.66 35.2203 24.5132C35.2596 24.3664 35.2391 24.21 35.1633 24.0783L30.4128 15.8497L37.8864 15.8314Z" fill="#70B6F9"/>
<path d="M19.622 45.955C19.7752 46.2197 19.9952 46.4396 20.2601 46.5926C20.525 46.7455 20.8254 46.8263 21.1313 46.8266H30.1035C30.2554 46.8266 30.4012 46.7663 30.5086 46.6588C30.6161 46.5514 30.6764 46.4056 30.6764 46.2537V38.6171C30.6762 38.4652 30.6158 38.3196 30.5084 38.2122C30.401 38.1048 30.2554 38.0443 30.1035 38.0441L23.5511 38.0487C23.474 38.0459 23.3972 38.0587 23.3252 38.0862C23.2532 38.1138 23.1875 38.1555 23.132 38.209C23.0765 38.2626 23.0323 38.3267 23.0022 38.3977C22.972 38.4686 22.9565 38.5449 22.9565 38.622C22.9565 38.6992 22.972 38.7755 23.0022 38.8464C23.0323 38.9174 23.0765 38.9815 23.132 39.0351C23.1875 39.0886 23.2532 39.1303 23.3252 39.1579C23.3972 39.1854 23.474 39.1982 23.5511 39.1954L29.526 39.1908V45.6807H21.1313C21.0265 45.6805 20.9236 45.6527 20.8329 45.6002C20.7422 45.5476 20.667 45.4721 20.6147 45.3813L19.3652 43.2289L24.1591 34.9241L25.0772 35.4529C25.1768 35.5115 25.2918 35.5387 25.4071 35.5308C25.5224 35.5228 25.6326 35.4802 25.7233 35.4085C25.8139 35.3368 25.8808 35.2394 25.9151 35.129C25.9493 35.0186 25.9494 34.9005 25.9153 34.79L23.756 27.6434C23.7156 27.5064 23.6252 27.3897 23.5027 27.3163C23.3802 27.2429 23.2345 27.2182 23.0947 27.2472L15.5084 28.771C15.3942 28.794 15.2897 28.8513 15.2089 28.9352C15.128 29.019 15.0746 29.1256 15.0557 29.2405C15.0369 29.3555 15.0535 29.4735 15.1033 29.5788C15.1531 29.6841 15.2339 29.7717 15.3347 29.83L16.5675 30.5417L13.7903 35.331C13.7396 35.4182 13.7129 35.5173 13.7129 35.6182C13.7129 35.7191 13.7396 35.8182 13.7903 35.9055L19.622 45.955ZM17.8437 30.6186C17.8814 30.5534 17.9059 30.4814 17.9158 30.4067C17.9257 30.3319 17.9208 30.256 17.9013 30.1832C17.8819 30.1104 17.8483 30.0421 17.8024 29.9823C17.7566 29.9225 17.6994 29.8723 17.6341 29.8346L17.2189 29.5961L22.8044 28.4754L24.3945 33.7386L24.2338 33.6464C24.1021 33.5706 23.9457 33.5501 23.799 33.5895C23.6522 33.629 23.5272 33.7251 23.4513 33.8567L18.7 42.0853L14.9484 35.6175L17.8437 30.6186Z" fill="#70B6F9"/>
</g>
<defs>
<clipPath id="clip0">
<rect width="36.5714" height="36.5714" fill="white" transform="translate(13.7144 13.4287)"/>
</clipPath>
</defs>
</svg>
