<svg width="166" height="46" viewBox="0 0 166 46" fill="none" xmlns="http://www.w3.org/2000/svg">
<g opacity="0.7">
<path d="M158.282 0C158.428 0.0932895 158.574 0.250716 158.726 0.271123C159.068 0.314852 159.422 0.271123 159.764 0.303191C159.989 0.359085 160.207 0.442303 160.412 0.550991C160.51 0.605 160.616 0.644295 160.725 0.667603C161.362 0.693841 161.871 1.05242 162.373 1.36727C162.915 1.71393 163.421 2.11334 163.884 2.55963C164.126 2.85433 164.343 3.16829 164.533 3.49836C164.954 4.06101 165.117 4.71695 165.383 5.3554C165.705 6.16003 165.675 6.94716 165.737 7.75178C165.766 8.08121 166.064 8.43687 165.988 8.71091C165.678 9.82456 165.786 10.9761 165.588 12.0897C165.415 12.9784 165.185 13.8549 164.898 14.7135C164.702 15.2195 164.474 15.7123 164.214 16.1887C164.181 16.2454 164.162 16.3095 164.159 16.3752C164.197 17.0166 163.75 17.4714 163.533 18.0136C163.367 18.4393 163.218 18.8882 163.019 19.2818C162.852 19.62 162.616 19.9202 162.435 20.2438C162.246 20.517 162.09 20.8104 161.967 21.1184C161.724 21.8363 161.343 22.4998 160.845 23.0717C160.422 23.6627 160.037 24.28 159.693 24.92C159.284 25.5759 158.896 26.2523 158.44 26.8761C158.107 27.3338 157.648 27.6983 157.303 28.1472C156.903 28.669 156.564 29.2404 156.195 29.7885C155.728 30.5707 155.21 31.3216 154.644 32.0362C154.243 32.4823 153.615 32.7242 153.101 33.077C152.873 33.2002 152.679 33.3761 152.534 33.5901C152.11 34.4355 151.751 35.313 151.342 36.1672C151.166 36.5316 150.912 36.861 150.719 37.2225C150.526 37.584 150.371 37.998 150.173 38.3712C149.913 38.8551 149.615 39.3215 149.349 39.8026C149.118 40.2107 148.907 40.6305 148.691 41.0474C148.416 41.5867 148.156 42.1348 147.861 42.6625C147.818 42.7165 147.762 42.7589 147.698 42.786C147.635 42.8131 147.565 42.8239 147.496 42.8176C147.427 42.8112 147.361 42.7878 147.303 42.7496C147.245 42.7113 147.198 42.6593 147.166 42.5983C147.126 42.5065 147.111 42.4061 147.122 42.3068C147.271 41.1407 146.716 40.0387 146.695 38.8843C146.695 38.8434 146.648 38.8026 146.587 38.7006C146.003 39.1204 145.471 39.5519 144.892 39.9308C144.512 40.1845 144.077 40.3506 143.676 40.578C143.527 40.6626 143.425 40.8346 143.276 40.922C142.636 41.3039 141.993 41.6829 141.333 42.0357C140.328 42.575 139.305 43.0881 138.291 43.6158C137.619 43.9687 136.895 44.2119 136.146 44.3359C135.631 44.4726 135.131 44.6621 134.655 44.9014C134.585 44.9434 134.509 44.9767 134.43 45.0005C133.673 45.169 132.906 45.2917 132.134 45.3679C130.9 45.4291 129.658 45.4087 128.422 45.3679C127.667 45.3697 126.928 45.1552 126.292 44.7498C126.033 44.5707 125.75 44.4303 125.45 44.3329C124.696 44.1143 124.281 43.4584 123.744 43.0065C123.206 42.5546 122.958 41.7675 122.575 41.1436C122.283 40.6772 122.391 40.1932 122.207 39.7851C121.467 38.1234 122.022 36.3975 121.865 34.7154C121.887 34.5131 121.943 34.316 122.031 34.1323C122.114 33.9408 122.158 33.7346 122.16 33.5259C122.145 33.4385 121.835 33.3452 121.663 33.3452C118.89 33.3452 116.111 33.3452 113.343 33.3452C113.112 33.3452 112.882 33.3277 112.651 33.3452C112.177 33.3889 112.02 33.1848 112.02 32.7184C112.02 24.9929 112.02 17.2663 112.02 9.53886C112.02 9.11905 112.154 8.9558 112.589 8.9558C116.499 8.96746 120.41 8.96746 124.322 8.9558C124.778 8.9558 124.93 9.12488 124.907 9.56801C124.88 10.4222 124.883 11.2793 124.907 12.1335C124.907 12.5795 124.749 12.7399 124.299 12.7369C121.961 12.7369 119.647 12.7369 117.318 12.7369C116.602 12.7369 116.599 12.7369 116.599 13.4483C116.599 14.8768 116.613 16.3082 116.599 17.7367C116.599 18.2119 116.751 18.3693 117.224 18.3664C119.287 18.3489 121.35 18.3664 123.413 18.3664C124.083 18.3664 124.191 18.4568 124.202 19.1273C124.22 19.9465 124.202 20.7715 124.202 21.5907C124.217 22.0746 124.01 22.2146 123.551 22.2117C121.473 22.1971 119.392 22.2117 117.315 22.2117C116.599 22.2117 116.593 22.2117 116.593 22.9259V28.465C116.593 29.2463 116.666 29.3396 117.47 29.3396C118.855 29.3396 120.243 29.3396 121.628 29.3396C122.022 29.3396 122.42 29.3396 122.817 29.3396C123.323 29.3571 123.525 29.0335 123.694 28.6311C123.96 28.0881 124.195 27.5303 124.398 26.9607C124.65 26.0569 125.275 25.3194 125.222 24.2611C125.111 21.7335 125.184 19.2002 125.193 16.6668C125.193 16.0516 125.193 15.4423 125.515 14.8593C125.667 14.5911 125.535 14.18 125.591 13.8418C125.653 13.5873 125.742 13.3401 125.856 13.1043C125.877 13.043 125.927 12.9935 125.947 12.9352C126.099 12.4542 126.137 11.8944 126.42 11.5096C127.005 10.705 127.47 9.76042 128.522 9.3756C128.989 9.1747 129.442 8.94291 129.878 8.68176C129.921 8.65762 129.968 8.64273 130.018 8.63803C131.163 8.50101 132.306 8.3465 133.457 8.24738C133.75 8.22406 134.042 8.40772 134.334 8.49518C134.435 8.54585 134.543 8.57935 134.655 8.5943C135.769 8.50393 136.555 9.29106 137.531 9.59425C138.498 8.12202 138.957 6.32037 140.076 4.88312L140.301 4.91811C140.33 5.74022 140.36 6.56234 140.392 7.4894L140.769 7.23869C141.441 6.79265 142.122 6.3641 142.785 5.89473C143.39 5.47201 143.954 4.97933 144.577 4.58868C145.295 4.14264 146.067 3.77823 146.812 3.36717C147.195 3.15727 147.557 2.90655 147.949 2.70831C148.34 2.51007 148.752 2.33224 149.132 2.16607C149.635 1.95617 150.138 1.74626 150.643 1.55094C150.991 1.41684 151.342 1.29439 151.698 1.18361C152.283 1.00869 152.847 0.845436 153.422 0.68218C153.501 0.661773 153.606 0.699672 153.665 0.661773C154.541 0.078713 155.518 0.370243 156.45 0.271123C156.608 0.253631 156.742 0.0932895 156.894 0L158.282 0ZM143.232 32.2257C142.844 31.6426 142.516 31.1062 142.163 30.6019C141.719 29.9576 141.339 29.3017 141.426 28.4766C141.44 28.3945 141.422 28.3103 141.377 28.2405C140.994 27.8353 141.052 27.3309 141.049 26.8412C141.049 26.0015 141.049 25.1649 141.049 24.3253C141.049 24.1766 141.087 23.9871 141.011 23.8909C140.617 23.3749 140.775 22.786 140.763 22.2262C140.743 21.4041 140.763 20.582 140.763 19.7599C140.764 19.5964 140.78 19.4333 140.813 19.273C140.912 18.9226 140.989 18.5662 141.044 18.206C141.095 17.665 141.095 17.1203 141.044 16.5793C140.906 15.3782 141.356 14.2675 141.505 13.1101C141.514 13.0451 141.534 12.9821 141.564 12.9235C141.882 12.3026 142.209 11.6874 142.513 11.0606C142.582 10.9149 142.597 10.7496 142.554 10.5942C142.534 10.5359 142.291 10.5038 142.163 10.5301C141.517 10.6729 140.903 10.9761 140.214 10.8886C140.158 10.8886 140.097 10.944 140.035 10.9674C139.793 11.0636 139.55 11.1656 139.305 11.2589C139.209 11.2898 139.111 11.3151 139.013 11.3347C139.118 11.737 139.197 12.0635 139.29 12.3871C139.329 12.4914 139.374 12.5936 139.425 12.6932C139.528 12.8834 139.607 13.0863 139.658 13.2967C139.705 13.6669 139.571 14.1188 139.737 14.4103C140.029 14.9176 139.933 15.4219 139.974 15.935C140.009 16.3286 139.848 16.5181 139.439 16.5181C138.185 16.5064 136.93 16.5064 135.675 16.5181C135.246 16.5181 135.091 16.3344 135.091 15.9204C135.071 15.5083 135.028 15.0975 134.962 14.6902L134.781 14.6406C133.858 15.7368 132.928 16.8242 132.014 17.9291C131.581 18.4509 131.216 19.034 130.754 19.5296C130.563 19.7044 130.41 19.9164 130.304 20.1526C130.198 20.3887 130.141 20.644 130.138 20.9027C130.167 22.8734 130.138 24.8471 130.176 26.8207C130.217 27.167 130.316 27.5039 130.468 27.8178C130.605 28.1676 130.783 28.5029 130.935 28.8469C130.997 29.0447 131.111 29.2224 131.265 29.3609C131.419 29.4995 131.608 29.5939 131.812 29.634C132.028 29.669 132.224 29.8468 132.44 29.876C132.873 29.9343 133.402 30.0975 133.726 29.9197C134.052 29.7531 134.333 29.5111 134.546 29.2139C134.759 28.9167 134.898 28.5729 134.951 28.2113C135.019 27.0793 135.16 25.9527 135.371 24.8383C135.436 24.5468 135.5 24.3836 135.821 24.3836C137.043 24.3836 138.264 24.3836 139.486 24.3836C139.778 24.3836 139.918 24.5118 139.954 24.8208C140.111 26.2377 139.705 27.5991 139.571 28.9839C139.537 29.0928 139.489 29.1967 139.427 29.2929C139.363 29.4387 139.308 29.5844 139.252 29.736C139.086 30.1937 139.042 30.7739 138.729 31.08C138.247 31.5552 138.01 32.2199 137.361 32.5785C136.713 32.937 136.178 33.4297 135.406 33.4793C135.326 33.4945 135.248 33.518 135.173 33.5493C134.814 33.6846 134.442 33.7823 134.062 33.8408C133.186 33.8816 132.309 33.8612 131.432 33.8408C131.185 33.839 130.939 33.7987 130.705 33.7213C130.155 33.5288 129.615 33.3044 129.074 33.0799C128.694 32.9254 128.247 32.835 127.958 32.5755C127.037 31.7534 126.093 30.9226 125.93 29.5728C125.915 29.4591 125.693 29.3337 125.544 29.2813C125.494 29.2638 125.336 29.4649 125.292 29.5903C125.24 29.7949 125.198 30.0022 125.167 30.2112C125.082 30.564 124.951 30.908 124.895 31.2637C124.79 31.9458 125.123 32.7213 124.518 33.3044C124.471 33.3481 124.48 33.4647 124.489 33.5434C124.65 34.9632 124.22 36.3946 124.813 37.8347C125.143 38.5921 125.568 39.3051 126.076 39.9571C126.21 40.1407 126.578 40.1495 126.724 40.3302C127.218 40.9512 127.984 41.1232 128.63 41.2048C130.015 41.3506 131.423 41.2515 132.823 41.2456C132.923 41.2381 133.022 41.2155 133.115 41.1786C133.793 40.9716 134.471 40.7704 135.143 40.5518C135.614 40.3973 136.087 40.2369 136.543 40.0445C136.999 39.8521 137.499 39.6218 137.963 39.3857C138.738 38.995 139.518 38.6102 140.272 38.1817C140.783 37.8901 141.254 37.5286 141.748 37.2021C142.61 36.6366 143.478 36.0768 144.419 35.4529L139.568 33.3131L139.6 33.1644C140.097 32.9983 140.608 32.663 141.087 32.7009C141.908 32.7592 142.467 32.1091 143.232 32.2257ZM141.511 8.8421C141.803 8.9383 141.976 8.9937 142.151 9.06366C142.63 9.25607 143.101 9.46014 143.58 9.64672C143.626 9.66826 143.676 9.67944 143.726 9.67944C143.777 9.67944 143.827 9.66826 143.872 9.64672C144.342 9.25896 144.895 8.98372 145.488 8.8421C145.806 8.71851 146.136 8.63051 146.473 8.57972C146.654 8.57972 146.879 8.62345 147.008 8.53599C147.592 8.14243 148.253 8.27362 148.872 8.21823C149.509 8.16746 150.149 8.26735 150.74 8.50976C151.245 8.71091 151.909 8.54182 152.373 8.95871C152.402 8.98495 152.47 8.97329 152.519 8.95871C153.121 8.93247 153.563 9.27356 153.98 9.62632C154.468 10.0403 154.956 10.4164 155.249 11.0577C155.447 11.495 155.713 11.909 155.912 12.3725C156.119 12.8464 156.227 13.3571 156.231 13.8739C156.231 13.9497 156.251 14.0663 156.304 14.0984C156.666 14.3316 156.596 14.6814 156.596 15.0284C156.596 15.7193 156.596 16.4102 156.596 17.0982C156.601 17.2609 156.626 17.4223 156.669 17.5792C156.8 17.9587 156.898 18.3489 156.961 18.7454C157.008 19.448 156.961 20.1564 156.979 20.8648C156.991 21.0259 157.017 21.1858 157.055 21.3429L157.204 21.3691C157.481 20.9202 157.768 20.4741 158.034 20.0194C158.185 19.7593 158.32 19.4906 158.44 19.2147C158.673 18.5974 158.939 17.993 159.238 17.4043C159.553 16.8533 159.936 16.3519 159.962 15.6872C159.968 15.6215 159.992 15.5589 160.032 15.5065C160.411 15.0255 160.63 14.4384 160.658 13.8273C160.671 13.7318 160.698 13.6386 160.737 13.5503C160.839 13.2588 160.95 12.9672 161.029 12.6757C161.082 12.5037 161.046 12.2763 161.152 12.1568C161.467 11.7895 161.391 11.3638 161.423 10.944C161.479 10.256 161.239 9.51845 161.745 8.90332C161.76 8.86719 161.765 8.82791 161.76 8.78915C161.756 8.7504 161.741 8.71344 161.719 8.68176C161.28 8.36691 161.426 7.90337 161.426 7.49815C161.454 6.59406 161.156 5.70996 160.588 5.00557C160.243 4.5347 159.807 4.13808 159.305 3.83945C158.823 3.59165 158.308 3.20974 157.674 3.37009C157.634 3.3745 157.593 3.36942 157.555 3.35524C157.517 3.34107 157.483 3.31819 157.455 3.28846C157.253 2.94737 156.926 2.99693 156.619 2.99693C155.941 2.99693 155.266 2.99693 154.588 2.99693C154.414 3.01616 154.244 3.06136 154.083 3.13103C153.866 3.22309 153.643 3.30194 153.416 3.36717C152.657 3.5246 151.888 3.6587 151.125 3.80155C151.08 3.81865 151.037 3.84116 150.997 3.8686C150.488 4.09308 149.986 4.32922 149.468 4.53912C149.112 4.68488 148.723 4.75485 148.378 4.92394C147.733 5.23879 147.104 5.59446 146.473 5.94138C145.649 6.39908 144.72 6.68478 144.001 7.32906C143.727 7.53523 143.436 7.71669 143.13 7.87131L141.511 8.8421ZM152.031 21.2117C152.031 19.8794 152.031 18.5471 152.031 17.2178C152.031 16.6522 152.227 16.0254 151.698 15.5531C151.68 15.5255 151.668 15.4944 151.662 15.4617C151.657 15.4291 151.658 15.3957 151.666 15.3636C151.75 14.7593 151.591 14.1464 151.225 13.6582C150.807 13.0605 150.348 12.4163 149.498 12.3521C149.055 12.2952 148.607 12.2952 148.165 12.3521C147.713 12.3978 147.282 12.565 146.917 12.8361C146.534 13.2131 146.251 13.6803 146.096 14.1946C145.873 14.919 145.748 15.6701 145.725 16.4277C145.687 19.4859 145.707 22.5498 145.71 25.5992C145.712 25.7629 145.729 25.926 145.763 26.0861C145.839 26.4418 145.924 26.7974 146.017 27.1502C146.16 27.6895 146.181 28.3396 146.505 28.7361C146.941 29.2674 147.514 29.6705 148.162 29.9022C148.581 30.0245 149.023 30.0397 149.449 29.9465C149.875 29.8532 150.271 29.6545 150.599 29.3687C150.937 29.1122 151.21 28.7797 151.395 28.3982C151.58 28.0167 151.672 27.5971 151.663 27.1735C151.679 26.9988 151.723 26.8276 151.792 26.6662C151.9 26.4626 151.978 26.2447 152.025 26.019C152.037 24.4331 152.028 22.821 152.028 21.2117H152.031ZM130.243 17.4918C130.871 16.7834 131.444 16.1245 132.037 15.4802C132.376 15.11 132.762 14.7864 133.092 14.4074C133.422 14.0284 133.752 13.5765 134.065 13.1451C134.167 13.0022 134.302 12.7865 134.258 12.6641C134.21 12.5855 134.145 12.5187 134.067 12.4683C133.99 12.4179 133.902 12.3852 133.811 12.3725C132.782 12.2443 131.803 12.2443 131.044 13.1684C130.615 13.649 130.324 14.2362 130.202 14.868C130.129 15.6199 130.114 16.3762 130.158 17.1303C130.173 17.2536 130.201 17.3748 130.243 17.4918V17.4918Z" fill="white"/>
<path d="M0.00876681 8.9762C3.57394 8.9762 7.1391 8.94705 10.7043 8.99661C11.2887 8.99661 11.9082 9.31729 12.4956 9.53011C12.8124 9.67679 13.1216 9.83928 13.422 10.017C14.3454 10.4543 14.7808 11.2589 15.2104 12.1335C15.6692 13.0576 15.3828 14.0022 15.5026 14.9292C15.5757 15.4744 15.4647 16.0429 15.4763 16.5997C15.4939 17.3256 15.1841 17.9116 14.8919 18.5471C14.5997 19.1827 14.0824 19.6141 13.5944 20.0689C13.4775 20.1739 13.3022 20.2147 13.1765 20.3109C13.0509 20.4071 12.9281 20.512 12.9281 20.6024C12.9375 20.6702 12.9638 20.7346 13.0047 20.7897C13.0455 20.8447 13.0996 20.8886 13.1619 20.9173C14.1292 21.133 14.6669 21.8677 15.0848 22.6373C15.3353 23.1625 15.4623 23.7378 15.4559 24.3194C15.5056 26.1269 15.4559 27.9344 15.4968 29.7448C15.55 29.9835 15.6304 30.2153 15.7364 30.4357C15.8185 30.6628 15.859 30.9027 15.8562 31.1441C15.7959 31.4619 15.8394 31.7907 15.9804 32.082C16.1214 32.3732 16.3524 32.6117 16.6394 32.7621C16.4027 33.1003 16.1748 33.3452 15.7627 33.3452C14.4594 33.3452 13.1561 33.3452 11.8527 33.3452C11.5254 33.3452 11.4319 33.179 11.2683 32.9108C10.7978 32.1761 10.9556 31.3919 10.9147 30.6223C10.9147 30.3745 10.9147 30.1296 10.9147 29.8818C10.9147 28.2696 10.9147 26.675 10.5874 25.0716C10.453 24.4389 10.3565 23.8734 9.82175 23.4681C9.77207 23.4302 9.737 23.3486 9.68148 23.334C9.08363 23.1533 8.47447 23.0121 7.85798 22.9113C7.19072 22.8657 6.52136 22.8589 5.85331 22.8909C4.95033 22.8909 4.95033 22.8909 4.95033 23.7655V32.3015C4.95033 33.0945 4.69609 33.3423 3.88077 33.3452C3.55056 33.3452 3.22034 33.3627 2.89012 33.3452C1.92285 33.2927 0.923437 33.5434 0 33.0537L0.00876681 8.9762ZM4.95909 15.9234V18.6317C4.95909 18.8736 4.97955 19.1477 5.301 19.1098C6.62186 18.9524 7.95734 19.4188 9.29574 18.8182C9.60549 18.6956 9.87699 18.4931 10.0824 18.2313C10.2878 17.9695 10.4197 17.6579 10.4646 17.3285C10.5816 16.2725 10.5816 15.2069 10.4646 14.1509C10.3974 13.3754 9.58797 12.8069 8.8574 12.7661C7.7557 12.7078 6.65109 12.7661 5.54647 12.7399C5.10521 12.7399 4.92403 12.8681 4.93571 13.3229C4.97663 14.1829 4.95909 15.0546 4.95909 15.9234Z" fill="white"/>
<path d="M92.437 20.5178C92.7789 20.719 93.0507 20.8473 93.2903 21.0222C93.6147 21.2583 94.0384 21.4682 94.1991 21.7977C94.6316 22.6722 95.1985 23.5119 95.1255 24.6138C95.0261 26.0715 95.0933 27.5291 95.1255 28.9868C95.1631 29.217 95.2382 29.4395 95.3476 29.6456C95.4023 29.7613 95.4472 29.8812 95.482 30.0042C95.5097 30.1663 95.5097 30.3319 95.482 30.494C95.3301 31.2461 95.6924 31.8788 95.9554 32.5347C96.1483 33.0099 95.9817 33.316 95.4411 33.3306C94.7807 33.3481 94.1202 33.3306 93.4598 33.3306C92.7994 33.3306 92.1068 33.3306 91.4142 33.3306C91.2652 33.3306 91.0226 33.2664 90.9905 33.1732C90.7593 32.6729 90.6075 32.1398 90.5404 31.5931C90.4849 29.6544 90.52 27.7128 90.4937 25.7625C90.448 25.5184 90.3684 25.2819 90.257 25.0599C90.1948 24.8943 90.1516 24.7221 90.1284 24.5468C90.0846 23.9375 89.544 23.5177 89.0092 23.2378C87.7526 22.5731 86.4376 23.0279 85.1635 22.8734C84.7076 22.818 84.5644 23.0279 84.579 23.4565C84.579 26.4009 84.579 29.3424 84.579 32.2869C84.5817 32.4816 84.5729 32.6763 84.5527 32.87C84.5528 32.9322 84.5395 32.9938 84.514 33.0506C84.4884 33.1074 84.4511 33.1581 84.4044 33.1994C84.3577 33.2407 84.3028 33.2717 84.2432 33.2903C84.1837 33.3089 84.1208 33.3147 84.0589 33.3073C82.8549 33.3073 81.6499 33.3073 80.444 33.3073C80.3821 33.3137 80.3195 33.3073 80.2602 33.2884C80.2008 33.2695 80.1461 33.2385 80.0994 33.1974C80.0527 33.1563 80.0151 33.106 79.9889 33.0496C79.9627 32.9932 79.9485 32.9321 79.9472 32.87C79.9277 32.6899 79.9199 32.5088 79.9238 32.3277V9.72541C79.9238 8.9616 79.9238 8.9616 80.6924 8.9616C83.977 8.9616 87.2646 8.92079 90.5463 9.00533C91.398 8.99076 92.2227 9.30396 92.849 9.87992C93.0741 10.1044 93.4832 10.1714 93.6819 10.4018C94.0764 10.8799 94.354 11.4513 94.7339 11.941C95.1138 12.4308 94.8946 13.1567 95.1693 13.5911C95.5872 14.247 95.4148 14.8797 95.4616 15.5239C95.4616 15.7076 95.3184 15.8971 95.2599 16.0895C95.1721 16.3092 95.1199 16.5414 95.105 16.7775C95.1372 17.7396 94.6433 18.4451 94.1436 19.2147C93.7403 19.8619 93.1237 20.0631 92.437 20.5178ZM84.5907 15.9321C84.5907 16.8067 84.5907 17.7046 84.5907 18.5937C84.5907 18.9582 84.7018 19.136 85.0992 19.1302C86.122 19.1127 87.1448 19.1914 88.1617 19.0923C88.6505 18.9909 89.1057 18.7683 89.4855 18.4451C89.9092 18.139 90.2482 17.7308 90.1752 17.1274C90.1752 17.0457 90.3038 16.9524 90.3564 16.8562C90.409 16.76 90.5258 16.623 90.5112 16.5181C90.4236 15.8184 90.821 15.0429 90.1956 14.422C90.1459 14.3724 90.1576 14.2645 90.1489 14.1829C90.086 13.7979 89.8938 13.4457 89.6039 13.184C89.314 12.9224 88.9435 12.7668 88.5533 12.7427C87.4165 12.7253 86.2798 12.7427 85.143 12.7253C84.7368 12.7253 84.5819 12.8681 84.5907 13.2733C84.6024 14.1596 84.5907 15.0458 84.5907 15.9321Z" fill="white"/>
<path d="M61.5171 21.3925C61.5171 23.2991 61.5171 25.2057 61.5171 27.1123C61.4804 27.3427 61.4053 27.5654 61.295 27.7711C61.2599 27.8615 61.1605 27.949 61.1693 28.0277C61.2541 28.6836 60.9911 29.2696 60.8011 29.8672C60.5242 30.8241 59.9309 31.6594 59.1179 32.2374C58.6313 32.5552 58.1214 32.8358 57.5925 33.077C57.0986 33.316 56.5843 33.5172 56.0729 33.7242C55.9367 33.7819 55.7911 33.8145 55.6433 33.8204C54.2757 33.8058 52.8993 33.8554 51.5521 33.7271C50.8949 33.7141 50.2555 33.5116 49.7111 33.144C49.3984 32.9021 48.9338 32.8525 48.6006 32.6368C48.2187 32.3903 47.8825 32.0796 47.6071 31.7185C47.2652 31.2549 47.0489 30.7039 46.745 30.2113C46.1459 29.2434 46.1956 28.1297 45.9355 27.0861C45.5235 25.4185 45.7573 23.7714 45.6959 22.13C45.5891 20.4568 45.6038 18.7781 45.7397 17.107C45.8508 16.1012 45.9414 15.0663 46.105 14.078C46.1715 13.62 46.2691 13.1671 46.3972 12.7224C46.5054 12.3746 46.6545 12.0409 46.8414 11.7283C47.2655 10.9119 47.864 10.1984 48.5948 9.63799C49.0098 9.34646 49.5504 9.24734 49.9712 8.96456C50.8683 8.36109 51.9349 8.59432 52.8934 8.30279C53.6746 8.08693 54.5084 8.17012 55.2313 8.53601C55.4814 8.62597 55.752 8.64316 56.0115 8.58557C56.6836 8.46896 57.1541 8.94707 57.724 9.12782C58.1365 9.27319 58.5225 9.48492 58.8666 9.75461C59.1561 10.0137 59.4203 10.2998 59.6556 10.6088C59.7286 10.6904 59.7783 10.7925 59.8572 10.8682C60.3861 11.3959 60.6053 12.0635 60.8654 12.7486C61.105 13.3725 60.9472 14.0488 61.2044 14.5911C61.7304 15.7018 61.4645 16.8417 61.5171 17.967C61.5697 19.0923 61.5171 20.2672 61.5171 21.4158V21.3925ZM56.9466 21.2351C56.9466 20.101 56.9466 18.9669 56.9466 17.8329C56.93 17.6429 56.8857 17.4563 56.8151 17.279C56.7167 17.0678 56.6403 16.847 56.5872 16.6201C56.5331 16.1621 56.5331 15.6993 56.5872 15.2412C56.6866 14.5794 56.3242 14.0576 56.0437 13.5824C55.5615 12.7632 54.8338 12.1626 53.7468 12.3288C53.5978 12.3376 53.4486 12.3376 53.2996 12.3288C52.347 12.3492 51.6573 12.6903 51.2541 13.6524C50.8508 14.6144 50.5586 15.4861 50.617 16.5006C50.6462 16.9758 50.5995 17.4539 50.617 17.9291C50.7953 21.2846 50.1962 24.6722 51.0057 28.0015C51.0395 28.1888 51.1111 28.3673 51.2161 28.5262C51.5711 29.027 52.049 29.4286 52.6041 29.6923C53.4808 30.0976 54.7608 30.0742 55.3861 29.4649C56.0933 28.7711 56.669 28.0073 56.5551 26.9053C56.5244 26.4792 56.5244 26.0515 56.5551 25.6255C56.5811 25.4692 56.6283 25.3172 56.6953 25.1736C56.799 24.9849 56.8729 24.7813 56.9145 24.5702C56.9554 23.4682 56.9437 22.3516 56.9466 21.2351V21.2351Z" fill="white"/>
<path d="M62.9865 18.9319V9.66129C62.9865 8.97328 62.9865 8.96162 63.6674 8.96162C64.7574 8.96162 65.8474 8.98203 66.9345 8.96162C67.4459 8.94705 67.5803 9.13654 67.5803 9.62048C67.5666 15.1285 67.5666 20.6354 67.5803 26.1415C67.5803 26.5059 67.4809 26.9053 67.8725 27.1647C67.8997 27.1954 67.9197 27.2317 67.9308 27.2711C67.9419 27.3105 67.944 27.3519 67.9368 27.3921C67.7995 28.016 68.1326 28.5174 68.3985 29.016C68.5066 29.2142 68.8106 29.3075 69.0239 29.4445C69.7165 29.8993 70.5201 30.2258 71.2857 29.9459C72.0514 29.6661 72.9134 29.392 73.2583 28.3688C73.4981 27.5943 73.6067 26.7854 73.5797 25.9753C73.5972 20.5674 73.5797 15.1595 73.5797 9.75167C73.5797 8.98495 73.5797 8.97328 74.3453 8.97328C75.5142 8.97328 76.6568 8.97328 77.8111 8.97328C78.2612 8.97328 78.4599 9.09573 78.4599 9.5855C78.4443 15.455 78.4385 21.3235 78.4424 27.191C78.0741 27.8994 78.3488 28.7536 78.0654 29.4124C77.7819 30.0713 77.7732 30.8205 77.0835 31.3395C76.7913 31.5639 76.6159 32.1266 76.2302 32.3948C75.8399 32.6568 75.4272 32.8841 74.997 33.0741C74.5143 33.3024 74.0163 33.4972 73.5066 33.6571C73.1271 33.7708 72.7339 33.8325 72.3377 33.8408C71.1513 33.8612 69.9619 33.8641 68.7726 33.8408C68.47 33.7938 68.1752 33.7065 67.8959 33.5813C67.8199 33.558 67.7439 33.4851 67.6738 33.488C66.7708 33.5609 66.0607 33.007 65.4149 32.5814C64.6405 32.0741 63.8339 31.4444 63.6411 30.3628C63.5476 29.8264 63.2378 29.3279 63.0566 28.8031C62.9992 28.5984 62.9756 28.3857 62.9865 28.1734C62.9865 25.1007 62.9865 22.027 62.9865 18.9524V18.9319Z" fill="white"/>
<path d="M37.3352 33.8379C36.9231 33.8379 36.5111 33.8379 36.0991 33.8379C35.253 33.8231 34.4201 33.6261 33.6574 33.2603C32.8948 32.8945 32.2205 32.3685 31.6806 31.7184C31.2536 31.2568 30.8999 30.7328 30.6315 30.1646C30.3643 29.5218 30.2006 28.841 30.1464 28.1472C30.0675 27.1502 30.1113 26.1415 30.1259 25.1386C30.1259 24.4623 30.2428 24.3748 30.912 24.3719C31.967 24.3719 33.0248 24.3923 34.0798 24.3719C34.559 24.3719 34.7373 24.573 34.7636 24.9987C34.7796 25.1625 34.7796 25.3275 34.7636 25.4914C34.5999 26.5554 34.9302 27.5641 35.2078 28.5524C35.3188 28.9547 35.7484 29.3075 36.102 29.5961C36.7975 30.1792 37.6537 30.0072 38.4632 29.9751C38.9804 29.9547 39.9594 28.8644 39.9886 28.293C40.0368 27.6866 40.0368 27.0773 39.9886 26.4709C39.9089 25.8389 39.5965 25.259 39.1119 24.8442C38.3755 24.1941 37.6186 23.5614 36.8238 22.9871C36.2393 22.5557 35.5526 22.2408 34.9331 21.8443C33.4281 20.891 32.2241 19.6025 31.0435 18.2964C30.8316 18.0145 30.6804 17.6919 30.5993 17.3489C30.3071 16.4015 30.0149 15.4423 30.1347 14.4336C30.2274 13.6826 30.3611 12.9371 30.5351 12.2005C30.6353 11.9012 30.7737 11.6161 30.9471 11.3522C31.4686 10.3455 32.3018 9.53369 33.3229 9.03742C33.4475 8.99726 33.5777 8.97661 33.7086 8.9762C33.8401 8.95871 34.0301 8.99369 34.0915 8.92081C34.5152 8.40772 35.0938 8.65552 35.6052 8.57097C36.3241 8.45145 37.0137 8.17158 37.7648 8.27944C38.5158 8.38731 39.3399 8.37856 40.0587 8.62928C41.3416 9.07823 42.5368 9.76916 43.2732 10.9615C43.5129 11.3463 43.9249 11.7516 43.7963 12.3171C43.7817 12.3929 43.7963 12.5183 43.8402 12.5533C44.3428 12.9323 44.1178 13.4803 44.185 13.9614C44.2668 14.5444 44.4246 15.1275 44.4597 15.7105C44.5064 16.4598 44.4597 16.4802 43.694 16.4831C42.5251 16.4831 41.3825 16.4831 40.2282 16.4831C39.7928 16.4831 39.5824 16.3432 39.6146 15.8825C39.6409 15.5065 39.5766 15.1216 39.6146 14.7485C39.7519 13.7136 39.2347 13.0139 38.3989 12.5883C37.9143 12.3972 37.3936 12.3146 36.8735 12.3463C35.7279 12.3259 35.1201 12.9614 35.0529 14.1188C35.0293 14.8677 35.1888 15.6111 35.5175 16.2849C35.6286 16.5268 35.9617 16.6697 36.1984 16.8679C36.2364 16.8941 36.3036 16.8679 36.3416 16.9058C36.9261 17.2906 37.4901 17.6842 38.0687 18.0719C38.6473 18.4597 39.1616 18.7803 39.7081 19.1302C39.8085 19.1833 39.9061 19.2417 40.0003 19.3051C40.7601 19.9173 41.5111 20.5354 42.2738 21.1447C42.5485 21.3662 42.9079 21.5091 43.1213 21.7773C43.5187 22.2787 43.8226 22.853 44.1937 23.3778C45.3071 24.952 45.0061 26.7245 44.825 28.4358C44.7607 29.0189 44.673 29.7244 44.2171 30.2725C43.7613 30.8205 43.5479 31.4823 43.0658 31.9283C42.5836 32.3744 42.0196 32.905 41.2832 33.0945C40.7862 33.274 40.2985 33.4783 39.822 33.7067C39.6111 33.7779 39.3901 33.8153 39.1674 33.8175C38.5567 33.8175 37.9459 33.8175 37.3352 33.8175V33.8379Z" fill="white"/>
<path d="M96.5721 21.3429C96.5721 19.4684 96.5721 17.5938 96.5721 15.7222C96.61 15.4397 96.6846 15.1634 96.7942 14.9001C96.8411 14.7781 96.8811 14.6535 96.914 14.527C97.0455 13.8156 97.1185 13.0868 97.3172 12.3959C97.4833 11.9499 97.7105 11.529 97.9923 11.1452C98.217 10.7638 98.4815 10.4071 98.7813 10.0811C99.072 9.80366 99.3994 9.56726 99.7544 9.37854C100.254 9.08701 100.78 8.87419 101.297 8.62639C101.343 8.60756 101.391 8.59577 101.441 8.59141C102.39 8.46313 103.334 8.28239 104.287 8.227C104.772 8.19784 105.269 8.39317 105.748 8.48937C105.842 8.52483 105.94 8.54928 106.04 8.56225C107.142 8.52727 108.03 9.07826 108.843 9.69048C109.705 10.3526 110.334 11.2716 110.637 12.3142C110.827 12.9448 110.933 13.5976 110.953 14.2558C110.953 14.32 110.953 14.4133 110.993 14.4453C111.557 14.8914 111.256 15.5094 111.321 16.0517C111.353 16.3432 111.192 16.4773 110.906 16.4773H106.803C106.745 16.4857 106.686 16.4805 106.631 16.462C106.575 16.4436 106.525 16.4124 106.484 16.371C106.442 16.3296 106.411 16.2792 106.393 16.2237C106.375 16.1682 106.37 16.1093 106.379 16.0517C106.363 15.8382 106.363 15.6238 106.379 15.4103C106.543 14.5357 106.183 13.7427 105.917 12.9585C105.827 12.6961 105.391 12.4483 105.076 12.3755C104.556 12.2778 104.023 12.2778 103.504 12.3755C102.753 12.5241 102.335 13.1393 101.932 13.7398C101.347 14.5882 101.525 15.5415 101.522 16.4656C101.522 19.8707 101.552 23.2729 101.499 26.6692C101.499 27.3601 101.861 27.8557 102.037 28.4446C102.127 28.7231 102.281 28.9767 102.487 29.1851C102.787 29.5222 103.177 29.7685 103.611 29.8958C104.045 30.0231 104.506 30.0263 104.941 29.9052C105.345 29.7915 105.669 29.2929 105.958 28.9169C106.598 28.0802 106.327 27.0861 106.376 26.1473C106.391 25.8558 106.376 25.5643 106.376 25.2727C106.377 25.1515 106.401 25.0316 106.448 24.9199C106.496 24.8083 106.565 24.707 106.651 24.6221C106.738 24.5373 106.841 24.4704 106.954 24.4254C107.066 24.3805 107.187 24.3583 107.308 24.3603C108.477 24.3603 109.62 24.3603 110.774 24.3603C111.18 24.3603 111.344 24.5089 111.332 24.9083C111.312 25.4914 111.332 26.0745 111.309 26.6342C111.262 26.8696 111.189 27.0992 111.093 27.3193C111.027 27.5321 110.977 27.7494 110.944 27.9694C110.891 28.4592 111.078 28.9985 110.602 29.3862C110.57 29.4125 110.567 29.4795 110.564 29.5262C110.491 30.7506 109.769 31.5669 108.854 32.2782C108.39 32.6339 107.931 32.9954 107.469 33.351C107.444 33.3722 107.415 33.389 107.384 33.4006C106.687 33.5776 105.981 33.7167 105.269 33.8175C104.491 33.8793 103.709 33.8793 102.931 33.8175C102.52 33.7582 102.116 33.6606 101.724 33.526C101.677 33.526 101.631 33.4764 101.587 33.4764C100.879 33.4764 100.368 33.007 99.7661 32.7417C99.0233 32.3815 98.3869 31.835 97.9192 31.1558C97.6273 30.7071 97.4084 30.2151 97.2705 29.6982C97.0221 28.9898 96.8175 28.2668 96.6101 27.5467C96.5694 27.3709 96.5536 27.1904 96.5633 27.0103C96.5691 25.1231 96.5721 23.234 96.5721 21.3429Z" fill="white"/>
<path d="M16.9575 21.028V9.6846C16.9575 9.00242 16.9925 8.96452 17.6851 8.96161C21.5279 8.96161 25.3736 8.96161 29.2193 8.96161C29.6839 8.96161 29.8681 9.09863 29.8534 9.57965C29.8213 10.4163 29.8242 11.2559 29.8534 12.0926C29.8534 12.5795 29.7015 12.7544 29.1989 12.7486C27.0042 12.7282 24.8154 12.7486 22.615 12.7486C21.9224 12.7486 21.9136 12.7486 21.9136 13.4308V17.6521C21.9136 18.3372 21.9136 18.3518 22.6004 18.3518H28.3806C29.0761 18.3518 29.4209 18.7016 29.4239 19.4013C29.4268 20.101 29.4005 20.8152 29.4239 21.5207C29.4443 21.9755 29.2368 22.1504 28.8394 22.1767C28.6582 22.1767 28.4771 22.1767 28.2959 22.1767H22.5478C21.9282 22.1767 21.9049 22.2029 21.9019 22.8151V28.6457C21.9019 29.2637 21.9312 29.29 22.5419 29.2929C24.7375 29.2929 26.9321 29.2929 29.1258 29.2929C29.7921 29.2929 29.8301 29.3308 29.833 29.9867C29.833 30.9225 29.833 31.8584 29.833 32.7971C29.833 33.1965 29.6723 33.3452 29.2719 33.3452C25.473 33.3452 21.674 33.3452 17.8751 33.3452C17.2205 33.3452 16.937 33.0536 16.937 32.3715L16.9575 21.028Z" fill="white"/>
</g>
</svg>
