<svg width="38" height="38" viewBox="0 0 38 38" fill="none" xmlns="http://www.w3.org/2000/svg">
<g clip-path="url(#clip0)">
<path d="M19.4964 20.7388C19.4261 20.7236 19.3539 20.7208 19.2827 20.7315C18.569 20.6484 18.0306 20.0446 18.0294 19.3263C18.0294 18.9821 17.7503 18.703 17.4061 18.703C17.0619 18.703 16.7828 18.9821 16.7828 19.3263C16.7846 20.5258 17.5869 21.5764 18.7434 21.8938V22.5171C18.7434 22.8613 19.0225 23.1404 19.3667 23.1404C19.7109 23.1404 19.99 22.8613 19.99 22.5171V21.9316C21.3249 21.6522 22.2322 20.4089 22.0919 19.0524C21.9513 17.6959 20.8084 16.6651 19.4446 16.6648C18.6631 16.6648 18.0294 16.0311 18.0294 15.2495C18.0294 14.468 18.6631 13.8343 19.4446 13.8343C20.2262 13.8343 20.8599 14.468 20.8599 15.2495C20.8599 15.5938 21.1389 15.8728 21.4832 15.8728C21.8274 15.8728 22.1065 15.5938 22.1065 15.2495C22.1046 13.9901 21.2223 12.9039 19.99 12.644V12.0767C19.99 11.7325 19.7109 11.4534 19.3667 11.4534C19.0225 11.4534 18.7434 11.7325 18.7434 12.0767V12.682C17.4572 13.0333 16.6294 14.282 16.8065 15.6035C16.9837 16.925 18.1113 17.9114 19.4446 17.9111C20.2159 17.9111 20.8449 18.5286 20.8589 19.2995C20.8732 20.0704 20.267 20.7108 19.4964 20.7388Z" fill="#70B6F9"/>
<path d="M10.4058 17.336C10.4058 22.3279 14.4524 26.3745 19.4444 26.3745C24.4363 26.3745 28.483 22.3279 28.483 17.336C28.483 12.344 24.4363 8.29736 19.4444 8.29736C14.4548 8.30284 10.4115 12.3464 10.4058 17.336ZM19.4444 9.54398C23.7479 9.54398 27.2363 13.0324 27.2363 17.336C27.2363 21.6395 23.7479 25.1279 19.4444 25.1279C15.1408 25.1279 11.6524 21.6395 11.6524 17.336C11.6573 13.0346 15.143 9.54885 19.4444 9.54398Z" fill="#70B6F9"/>
<path d="M31.5555 27.9112L26.6728 30.2181C25.9987 28.9642 24.7055 28.1662 23.2824 28.126L18.7749 28.0022C18.0612 27.9818 17.3609 27.801 16.7264 27.4732L16.2677 27.2355C13.9193 26.0114 11.1202 26.0145 8.77429 27.2434L8.8029 26.2044C8.81233 25.8602 8.54116 25.5735 8.19694 25.564L3.25429 25.428C2.91007 25.4185 2.62367 25.6897 2.61424 26.0339L2.31567 36.8804C2.30623 37.2246 2.57741 37.5113 2.92163 37.5207L7.86428 37.6568H7.88133C8.21915 37.6568 8.4955 37.388 8.50464 37.0505L8.51894 36.5316L9.80299 35.8441C10.307 35.5729 10.8962 35.5084 11.4468 35.6642L19.1146 37.8163C19.128 37.8202 19.1414 37.8233 19.1551 37.8263C19.7093 37.9423 20.2742 38.0004 20.8403 38.0001C22.0394 38.0007 23.2245 37.7423 24.3144 37.2419C24.3412 37.2298 24.3671 37.2155 24.3917 37.1993L35.5093 30.0081C35.7863 29.8289 35.8758 29.4652 35.7136 29.1779C34.8882 27.7133 33.0575 27.1555 31.5555 27.9112ZM3.57903 36.2918L3.8432 26.6913L7.53954 26.793L7.27536 36.3937L3.57903 36.2918ZM23.7529 36.1286C22.3988 36.7398 20.8865 36.9084 19.4311 36.611L11.784 34.4644C10.9233 34.2213 10.002 34.322 9.21468 34.7454L8.55851 35.0969L8.73412 28.7137C10.8134 27.3308 13.4802 27.1886 15.6946 28.3424L16.1533 28.5801C16.9549 28.994 17.8391 29.2223 18.7409 29.2485L23.2486 29.3724C24.5147 29.4089 25.59 30.3104 25.8468 31.5509L19.1326 31.3655C18.7883 31.3561 18.5019 31.6276 18.4922 31.9715C18.4828 32.3157 18.7542 32.6024 19.0982 32.6119L26.5079 32.8158H26.5252C26.8627 32.8155 27.1388 32.5467 27.1479 32.2095C27.1555 31.9386 27.1354 31.6675 27.0877 31.4009L32.0958 29.0345C32.1006 29.0324 32.1055 29.03 32.1104 29.0275C32.8207 28.6681 33.6796 28.7883 34.2639 29.3291L23.7529 36.1286Z" fill="#70B6F9"/>
<path d="M20.0679 6.54475V0.62331C20.0679 0.279089 19.7888 0 19.4446 0C19.1004 0 18.8213 0.279089 18.8213 0.62331V6.54475C18.8213 6.88897 19.1004 7.16806 19.4446 7.16806C19.7888 7.16806 20.0679 6.88897 20.0679 6.54475Z" fill="#70B6F9"/>
<path d="M24.7422 6.5449V3.74001C24.7422 3.39579 24.4631 3.1167 24.1189 3.1167C23.7747 3.1167 23.4956 3.39579 23.4956 3.74001V6.5449C23.4956 6.88912 23.7747 7.16821 24.1189 7.16821C24.4631 7.16821 24.7422 6.88912 24.7422 6.5449Z" fill="#70B6F9"/>
<path d="M15.3931 6.5449V3.74001C15.3931 3.39579 15.114 3.1167 14.7698 3.1167C14.4256 3.1167 14.1465 3.39579 14.1465 3.74001V6.5449C14.1465 6.88912 14.4256 7.16821 14.7698 7.16821C15.114 7.16821 15.3931 6.88912 15.3931 6.5449Z" fill="#70B6F9"/>
</g>
<defs>
<clipPath id="clip0">
<rect width="38" height="38" fill="white"/>
</clipPath>
</defs>
</svg>
