<svg width="114" height="38" viewBox="0 0 114 38" fill="none" xmlns="http://www.w3.org/2000/svg">
<g opacity="0.7">
<path d="M14.8032 0C16.6503 0.139075 18.3453 0.252073 20.0185 0.651913C21.7851 1.05775 23.4789 1.73276 25.0404 2.65328C26.8397 3.73981 28.35 5.10882 29.2105 7.07543C30.1058 9.1246 29.9754 11.1368 28.8715 13.0643C27.6524 15.1896 25.7662 16.5629 23.591 17.5886C22.1255 18.267 20.5785 18.7534 18.9885 19.0359C17.3863 19.3557 15.7495 19.4675 14.1187 19.3683C12.9128 19.2948 11.7116 19.1577 10.5201 18.9576C7.33229 18.3731 4.43562 17.1236 2.16914 14.7484C0.743625 13.2621 -0.119073 11.4889 0.020002 9.35277C0.154731 7.29708 1.13912 5.63905 2.62765 4.26568C4.44214 2.5794 6.59997 1.50375 8.97946 0.858351C10.3735 0.44599 11.814 0.211615 13.2669 0.160805C13.8275 0.152113 14.3838 0.0456339 14.8032 0ZM13.5754 18.2383C13.1973 17.6907 12.7888 17.2192 12.5128 16.6824C11.674 15.057 11.3655 13.2925 11.2633 11.4867C11.2351 10.9956 11.2633 10.5001 11.2329 10.0112C11.2197 9.92918 11.1897 9.85076 11.1449 9.78084C11.1 9.71092 11.0412 9.65101 10.9721 9.60485C10.7847 9.51001 10.5814 9.45035 10.3724 9.42883C9.04861 9.19201 7.76287 8.77756 6.54999 8.19672C5.62862 7.76211 4.76593 7.24058 4.15965 6.3844C3.98856 6.09787 3.83684 5.80023 3.70548 5.49345C2.95902 6.38668 2.47862 7.47172 2.31908 8.6248C2.0937 10.1647 2.43583 11.7341 3.28174 13.0404C3.97817 14.132 4.90535 15.0577 5.99804 15.7524C7.41125 16.7221 8.99952 17.4077 10.6744 17.7711C11.5067 17.9472 12.3455 18.0862 13.1843 18.2362C13.3144 18.2477 13.4452 18.2485 13.5754 18.2383V18.2383ZM16.1701 18.2622C16.446 18.2405 16.6286 18.2405 16.8046 18.2101C17.3283 18.1253 17.8585 18.0602 18.3692 17.9276C19.3405 17.6799 20.3379 17.493 21.2528 17.0931C22.2767 16.64 23.259 16.0983 24.1886 15.4742C25.3233 14.7096 26.2465 13.6706 26.8723 12.4537C27.5242 11.2607 27.5242 9.98296 27.4786 8.6813C27.4422 7.95087 27.2345 7.23923 26.8723 6.60388C26.6482 6.24185 26.4037 5.89288 26.14 5.55864C26.0313 5.65208 25.9835 5.67381 25.9705 5.70858C25.5772 6.82335 24.6666 7.44702 23.704 7.96855C22.2133 8.77692 20.5944 9.21153 18.9494 9.56573C18.6886 9.62006 18.58 9.71567 18.5908 9.97426C18.6185 11.1976 18.5129 12.4202 18.2757 13.6206C18.0584 14.8875 17.6955 16.1066 17.0023 17.204C16.7829 17.5495 16.4938 17.8537 16.1701 18.2622V18.2622ZM14.2143 1.40596C13.9296 1.43855 13.4842 1.50592 13.0365 1.53851C11.1973 1.67136 9.40008 2.15292 7.74082 2.95751C6.437 3.59204 6.10452 4.80242 7.40183 5.78247C7.48006 5.84114 7.56046 5.89764 7.64303 5.94762C8.65785 6.56911 9.77479 6.91027 10.9243 7.18625C11.3329 7.28404 11.4589 7.16887 11.535 6.81466C11.6588 6.22577 11.787 5.63904 11.9457 5.05884C12.2012 4.07679 12.6668 3.16188 13.3103 2.37731C14.1795 1.33207 15.403 1.2495 16.333 2.24258C16.7488 2.65778 17.0808 3.14913 17.3109 3.68983C17.702 4.73289 17.9628 5.82375 18.2714 6.89941C18.3431 7.15583 18.4322 7.3036 18.7342 7.2145C19.0841 7.11454 19.447 7.05369 19.7969 6.95156C20.74 6.67341 21.6679 6.34746 22.4523 5.73466C23.5019 4.91542 23.5041 3.85715 22.3567 3.14005C21.8046 2.80858 21.2162 2.54172 20.6031 2.34471C18.5908 1.6602 16.5069 1.38857 14.223 1.40596H14.2143ZM12.867 9.86344C12.867 9.96557 12.8366 10.1003 12.8323 10.235C12.7953 11.3846 13.0735 12.4711 13.4059 13.5359C13.569 14.1498 13.9155 14.6994 14.399 15.1113C14.6989 15.3525 15.0314 15.4199 15.316 15.1548C15.6407 14.8968 15.9091 14.5751 16.1049 14.2095C16.3983 13.4844 16.6295 12.7356 16.7959 11.9713C16.9012 11.3794 16.9673 10.7813 16.9936 10.1807C17.0197 9.9069 16.9002 9.84605 16.6112 9.85475C15.3921 9.883 14.173 9.86344 12.867 9.86344ZM14.8684 7.56001C15.4051 7.53394 15.9245 7.50134 16.446 7.48613C16.8024 7.48613 16.8806 7.26883 16.8068 6.98199C16.7611 6.77772 16.7111 6.57345 16.6503 6.37353C16.433 5.63904 16.2331 4.88935 15.6703 4.31566C15.1835 3.82238 14.6402 3.80065 14.1643 4.2961C13.4103 5.08275 13.2038 6.10408 13.0148 7.12106C12.9735 7.33836 13.0995 7.46223 13.3255 7.47309L14.8684 7.56001Z" fill="white"/>
<path d="M80.8594 2.62719C84.8491 2.43596 88.1804 5.99323 88.0956 9.7678C88.0109 13.5424 84.8578 16.6846 80.9941 16.7672C77.0348 16.8541 73.7057 13.6749 73.6058 9.83734C73.5058 5.99975 76.748 2.47508 80.8594 2.62719ZM80.8594 14.3616C81.195 14.3508 81.5286 14.3049 81.8546 14.2247C82.4948 14.0164 83.0734 13.6528 83.5387 13.1663C84.004 12.6797 84.3414 12.0855 84.521 11.4367C85.0229 9.74607 84.8556 8.14237 83.7039 6.70599C82.6043 5.33697 80.8377 4.87411 79.3035 5.64554C77.7693 6.41697 77.0739 7.81859 76.9392 9.46141C76.8805 10.1633 77.0631 10.9087 77.2587 11.5997C77.6346 12.9274 79.1231 14.4485 80.8637 14.3508L80.8594 14.3616Z" fill="white"/>
<path d="M52.8401 2.62723C56.7842 2.43383 60.0741 6.02153 60.0676 9.6592C60.0676 13.5185 56.6386 16.7607 52.8966 16.7781C48.8873 16.7955 45.5213 13.4859 45.5604 9.61791C45.6017 5.92157 48.8113 2.45122 52.8401 2.62723ZM56.7516 9.25936C56.7755 8.53791 56.3756 7.43183 55.5238 6.52133C54.2395 5.15014 52.5685 4.85026 50.9604 5.82378C49.6848 6.59738 49.0742 7.85775 48.9025 9.28761C48.827 9.9236 48.8786 10.5683 49.0543 11.1842C49.23 11.8 49.5263 12.3749 49.926 12.8753C51.0886 14.3964 53.2052 14.831 54.7632 13.7597C56.1453 12.8058 56.7277 11.4389 56.7472 9.25936H56.7516Z" fill="white"/>
<path d="M106.579 3.00751C107.057 3.00751 107.537 3.0249 108.013 3.00751C108.161 2.99116 108.31 3.02724 108.434 3.10945C108.558 3.19167 108.649 3.31479 108.691 3.45733C109.416 5.24792 110.14 7.03706 110.864 8.82475C111.388 10.109 111.922 11.3889 112.446 12.6754C112.916 13.8271 113.376 14.9831 113.846 16.1349C113.965 16.426 113.893 16.5695 113.574 16.5695C112.705 16.5695 111.857 16.5695 110.999 16.5695C110.88 16.5713 110.764 16.5322 110.671 16.4585C110.577 16.3849 110.512 16.2814 110.486 16.1653C110.188 15.3982 109.906 14.6224 109.582 13.8662C109.537 13.7876 109.474 13.7203 109.399 13.6695C109.323 13.6187 109.237 13.5856 109.148 13.5728C107.418 13.554 105.687 13.554 103.956 13.5728C103.862 13.5943 103.774 13.6367 103.699 13.6969C103.624 13.7571 103.563 13.8335 103.522 13.9205C103.185 14.6746 102.885 15.4417 102.574 16.2131C102.539 16.3272 102.466 16.4258 102.366 16.4919C102.267 16.5581 102.147 16.5878 102.029 16.576C101.199 16.5608 100.366 16.576 99.5361 16.576C99.1254 16.576 99.0624 16.4717 99.2232 16.0849C99.8078 14.6724 100.403 13.2599 100.983 11.8518C101.84 9.76567 102.685 7.67738 103.537 5.58909C103.826 4.8785 104.108 4.16574 104.406 3.45733C104.451 3.32279 104.539 3.20705 104.657 3.12836C104.775 3.04967 104.916 3.01251 105.058 3.02272C105.566 3.01838 106.073 3.00751 106.579 3.00751ZM106.579 6.32357C106.49 6.46414 106.409 6.60921 106.336 6.75818C105.838 8.06201 105.351 9.37887 104.849 10.6849C104.697 11.0847 104.715 11.1369 105.162 11.139C106.088 11.139 107.016 11.139 107.941 11.139C108.304 11.139 108.376 11.0304 108.25 10.6849C107.894 9.77654 107.566 8.85517 107.22 7.94032C107.027 7.44921 106.822 6.94724 106.577 6.32357H106.579Z" fill="white"/>
<path d="M59.9868 3.15523C60.1373 3.0885 60.2958 3.04174 60.4584 3.01615C61.4015 3.00312 62.3446 2.99008 63.2833 3.01615C63.3888 3.02995 63.49 3.06643 63.58 3.12307C63.6701 3.17971 63.7468 3.25518 63.8049 3.34428C64.7349 4.96103 65.6367 6.59081 66.5451 8.21624C66.7732 8.6226 66.8602 8.65085 67.0992 8.2597C67.7511 7.22751 68.3878 6.18879 69.0267 5.14791C69.3917 4.55032 69.722 3.931 70.1132 3.35732C70.1894 3.26298 70.284 3.18507 70.3912 3.1283C70.4984 3.07152 70.616 3.03707 70.7369 3.02702C71.5778 2.9879 72.4253 3.00529 73.2684 3.01181C73.6661 3.01181 73.7357 3.16827 73.5205 3.51378C72.0124 5.92586 70.5413 8.36184 68.9789 10.7391C68.5384 11.3847 68.3244 12.1581 68.3704 12.9383C68.4052 13.977 68.3704 15.02 68.3835 16.0588C68.3835 16.4477 68.2422 16.5825 67.8619 16.5716C67.21 16.5499 66.5385 16.5716 65.8779 16.5716C65.3803 16.5716 65.3347 16.5281 65.3325 16.0066C65.3325 14.7832 65.3064 13.5598 65.3477 12.3363C65.3651 11.7583 65.1304 11.3128 64.8414 10.8565C63.3434 8.48353 61.8477 6.11057 60.3541 3.7376L59.9868 3.15523Z" fill="white"/>
<path d="M39.239 3.00751C40.9774 3.00751 42.7093 3.00751 44.4347 3.00751C44.9693 3.00751 45.0388 3.08356 45.0388 3.62248C45.0388 4.16139 45.0258 4.69379 45.0388 5.22618C45.0541 5.60864 44.8998 5.75858 44.5195 5.75423C43.4221 5.74337 42.3225 5.75423 41.2252 5.75423C40.6928 5.75423 40.6754 5.77162 40.6775 6.29967L40.7232 15.8784C40.7232 16.5564 40.7101 16.5651 40.043 16.5629H38.2698C37.7179 16.5629 37.6961 16.5434 37.6961 15.9958V6.41049C37.6961 5.75858 37.6961 5.75858 37.0181 5.75858C36.0185 5.75858 35.0189 5.75858 34.0193 5.75858C33.4609 5.75858 33.3935 5.6847 33.3892 5.10667C33.3892 4.64164 33.3892 4.17878 33.3892 3.71375C33.3892 3.06183 33.437 3.00751 34.078 3.00751H39.2325H39.239Z" fill="white"/>
<path d="M94.4209 3.00753H99.6144C100.121 3.00753 100.201 3.08576 100.203 3.59425C100.206 4.10274 100.203 4.63514 100.203 5.15667C100.203 5.6782 100.147 5.74773 99.5862 5.74773C98.4997 5.74773 97.4131 5.74773 96.3266 5.74773C95.955 5.74773 95.842 5.86291 95.8551 6.23884C95.8833 7.02331 95.8551 7.81212 95.8551 8.59877C95.8551 10.8327 95.8551 13.0665 95.8551 15.3004C95.8551 15.5655 95.8833 15.8328 95.8898 16.1001C95.9007 16.4239 95.7682 16.5847 95.4118 16.5717C94.7381 16.5521 94.0601 16.5456 93.3865 16.5717C92.9823 16.5869 92.8519 16.4478 92.8541 16.0414C92.8693 12.834 92.8541 9.62879 92.8541 6.42355C92.8541 5.75208 92.8541 5.75425 92.1848 5.75425H89.1425C88.6145 5.75425 88.5515 5.69124 88.5493 5.1784C88.5471 4.66556 88.5493 4.10926 88.5493 3.57469C88.5493 3.10532 88.6406 3.01405 89.1252 3.01405C90.8969 3.0068 92.6621 3.00463 94.4209 3.00753Z" fill="white"/>
<path d="M57.0511 23.4797C75.8493 23.4797 94.6483 23.4797 113.448 23.4797C113.883 23.4797 114 23.621 114 24.0339C113.987 28.3799 113.987 32.726 114 37.0721C114 37.4806 113.891 37.6371 113.45 37.6349C111.201 37.6154 108.952 37.6197 106.701 37.6349C105.614 37.6349 104.508 37.6762 103.413 37.6806C102.737 37.6806 102.061 37.6328 101.388 37.6349C100.036 37.6349 98.6844 37.6806 97.3328 37.6827C94.2224 37.6914 91.1121 37.6914 88.0017 37.6827C86.5806 37.6827 85.1616 37.6393 83.7404 37.6349C80.843 37.6262 77.9456 37.6262 75.0482 37.6349C70.9933 37.6458 66.9406 37.6697 62.8792 37.6849C60.993 37.6849 59.1068 37.6849 57.2293 37.6849C55.3865 37.6849 53.5351 37.6849 51.6989 37.6849C49.5889 37.6849 47.4788 37.648 45.3688 37.6371C43.7941 37.6284 42.2186 37.6284 40.6424 37.6371C38.6432 37.6371 36.644 37.6827 34.6448 37.6871C33.4062 37.6871 32.1676 37.6436 30.9311 37.6436C29.9163 37.6436 28.9037 37.6893 27.8888 37.6871C26.1026 37.6871 24.3164 37.6393 22.5301 37.6415C20.6722 37.6415 18.8164 37.6871 16.9606 37.6849C14.7224 37.6849 12.4842 37.6436 10.2459 37.6393C8.62918 37.6393 7.01026 37.6806 5.39352 37.6806C3.77677 37.6806 2.13395 37.6458 0.495479 37.6415C0.134754 37.6415 -0.00214762 37.5219 2.54251e-05 37.1525C2.54251e-05 32.763 2.54251e-05 28.3734 2.54251e-05 23.9839C2.54251e-05 23.5493 0.202118 23.4906 0.569363 23.4906C10.3002 23.4906 20.0311 23.4906 29.762 23.4906L57.0511 23.4797ZM10.7653 29.1449L10.8957 29.1796C10.8957 29.3426 10.9217 29.5056 10.9217 29.6686C10.9217 30.7355 10.9217 31.8047 10.9217 32.8738C10.9217 33.8625 10.6914 33.8126 11.917 33.8082C12.2104 33.8082 12.3516 33.6996 12.3516 33.3866C12.3516 31.6728 12.3516 29.9576 12.3516 28.2409C12.3516 27.9366 12.2343 27.8063 11.917 27.8063C11.3542 27.8171 10.7914 27.8215 10.2285 27.8063C10.1626 27.7949 10.0951 27.7973 10.0302 27.8134C9.96532 27.8295 9.90448 27.8589 9.85156 27.8998C9.79864 27.9407 9.75479 27.9921 9.7228 28.0508C9.69081 28.1095 9.67137 28.1742 9.66572 28.2409C9.44841 29.2535 9.20069 30.264 8.96383 31.2831C8.9334 31.4135 8.87908 31.5374 8.81389 31.7286C8.72044 31.6069 8.66829 31.5678 8.65743 31.5113C8.41622 30.49 8.16632 29.4686 7.94901 28.443C7.84036 27.9301 7.74692 27.8128 7.24278 27.8128C6.73863 27.8128 6.23014 27.8128 5.72165 27.8128C5.15666 27.8128 5.14796 27.8128 5.14796 28.3713C5.14796 29.8895 5.14796 31.4106 5.14796 32.9346C5.14796 33.8712 5.02627 33.8147 6.03891 33.8039C6.54523 33.8039 6.58 33.7647 6.58 33.2432C6.58 32.0611 6.58 30.8811 6.58 29.699C6.58 29.5317 6.6039 29.3622 6.61477 29.1927L6.78426 29.1775C6.85597 29.4904 6.92551 29.8055 7.00157 30.1184C7.26668 31.1875 7.5231 32.261 7.81211 33.3258C7.85775 33.4996 8.02942 33.7604 8.17066 33.7604C8.60744 33.7602 9.04347 33.7246 9.47449 33.6539C9.50274 33.6539 9.52012 33.5301 9.53968 33.4627C9.68745 32.9368 9.84825 32.4153 9.97429 31.8872C10.1916 31.0897 10.3676 30.2857 10.5719 29.4969C10.6239 29.3736 10.688 29.2556 10.7631 29.1449H10.7653ZM100.025 32.0589L99.8948 32.0763C99.8144 31.9177 99.7296 31.759 99.6579 31.5982C99.1473 30.4617 98.6344 29.3274 98.1368 28.1865C98.0967 28.0664 98.0166 27.9637 97.9097 27.8956C97.8029 27.8275 97.6759 27.7983 97.5501 27.8128C97.0872 27.8258 96.6222 27.8323 96.1572 27.8128C95.7682 27.7932 95.6508 27.9432 95.6552 28.3278C95.6747 29.8598 95.6552 31.3918 95.6682 32.926C95.6682 33.8408 95.49 33.7952 96.5874 33.8169C96.972 33.8169 97.1111 33.6822 97.1046 33.2997C97.0872 32.1741 97.1046 31.0506 97.1046 29.925C97.1046 29.7794 97.1198 29.636 97.1285 29.4904L97.2393 29.4599C97.3199 29.5744 97.3925 29.6942 97.4566 29.8185C97.9999 31.0311 98.5388 32.2451 99.0734 33.4605C99.1103 33.5741 99.1855 33.6713 99.2862 33.7355C99.3869 33.7997 99.5068 33.827 99.6253 33.8126C100.075 33.7995 100.525 33.8126 100.975 33.8126C101.503 33.8126 101.564 33.7539 101.566 33.2367C101.566 31.746 101.566 30.256 101.566 28.7667C101.566 27.7889 101.566 27.7997 100.577 27.8171C100.203 27.8171 100.053 27.9497 100.06 28.3408C100.082 29.4274 100.071 30.5139 100.06 31.5874C100.06 31.7416 100.036 31.9003 100.023 32.0589H100.025ZM73.7683 29.5034L73.9161 29.4556C73.9948 29.5757 74.0673 29.6997 74.1334 29.8272C74.6679 31.0419 75.1895 32.2653 75.7479 33.4714C75.8058 33.5585 75.8817 33.6321 75.9706 33.6872C76.0595 33.7424 76.1592 33.7777 76.2629 33.7908C76.6969 33.8207 77.1322 33.8258 77.5668 33.806C78.1535 33.806 78.2187 33.7365 78.2187 33.1541C78.2187 31.6917 78.2187 30.227 78.2187 28.7646C78.2187 27.8193 78.1904 27.8063 77.2539 27.8084C76.8562 27.8084 76.7063 27.9453 76.7149 28.3539C76.7367 29.4643 76.7149 30.5747 76.7149 31.6873C76.7034 31.8628 76.6831 32.0376 76.6541 32.211C76.5711 32.0986 76.4942 31.9818 76.4238 31.8612C75.924 30.7355 75.4155 29.6121 74.9352 28.4777C74.6918 27.8975 74.618 27.8258 73.9813 27.8258C73.601 27.8258 73.2207 27.8454 72.8426 27.8258C72.4645 27.8063 72.2993 27.9345 72.3037 28.3495C72.3276 29.8707 72.3037 31.3918 72.3167 32.9129C72.3167 33.8777 72.1407 33.8147 73.2533 33.8321C73.6488 33.8321 73.7661 33.6756 73.7618 33.3041C73.7444 32.1936 73.7509 31.081 73.7487 29.9706L73.7683 29.5034ZM79.6833 30.8072C79.6833 31.6352 79.6985 32.4653 79.6833 33.2932C79.6833 33.6735 79.7941 33.8278 80.1853 33.8191C81.0002 33.8017 81.8172 33.8495 82.63 33.7995C83.1629 33.7849 83.6892 33.6783 84.1859 33.4844C85.77 32.7804 85.883 31.0941 85.4897 29.6403C85.1789 28.4756 84.2119 27.9931 83.0993 27.9019C82.0932 27.8106 81.0762 27.8541 80.0571 27.8302C79.7572 27.8302 79.6725 27.9714 79.6746 28.2474C79.6898 29.0862 79.6833 29.9445 79.6833 30.8007V30.8072ZM108.865 32.1111C108.865 31.6765 108.865 31.2418 108.865 30.8072C108.865 30.5639 108.754 30.44 108.507 30.4422C107.774 30.4422 107.042 30.4422 106.312 30.4552C106.248 30.4651 106.187 30.4899 106.135 30.5277C106.082 30.5654 106.039 30.6151 106.01 30.6725C105.812 31.2788 106.01 31.5287 106.629 31.5417C106.803 31.5417 107.035 31.5417 107.138 31.6504C107.224 31.7471 107.284 31.8654 107.31 31.9929C107.335 32.1204 107.326 32.2524 107.284 32.3753C107.241 32.4982 107.167 32.6075 107.067 32.6917C106.968 32.7759 106.848 32.832 106.72 32.8542C105.925 33.015 105.006 32.6369 104.741 31.8655C104.558 31.3105 104.504 30.7213 104.582 30.1423C104.614 29.801 104.765 29.4818 105.009 29.241C105.253 29.0002 105.575 28.853 105.916 28.8254C106.158 28.7805 106.408 28.8111 106.632 28.9129C106.856 29.0148 107.043 29.183 107.168 29.3948C107.256 29.4976 107.381 29.5622 107.516 29.5751C107.822 29.599 108.133 29.5751 108.444 29.5751C108.704 29.5751 108.793 29.4513 108.769 29.2057C108.75 28.9516 108.661 28.7077 108.513 28.5007C108.364 28.2937 108.161 28.1316 107.926 28.0323C107.033 27.5977 106.092 27.6411 105.154 27.7824C104.645 27.8387 104.166 28.0472 103.778 28.3807C103.39 28.7142 103.112 29.157 102.981 29.6512C102.86 30.1545 102.813 30.6728 102.841 31.1897C102.856 31.8835 103.124 32.5478 103.597 33.056C104.069 33.5642 104.713 33.8807 105.403 33.9451C106.458 33.9966 107.516 33.9089 108.548 33.6843C108.6 33.6814 108.65 33.6673 108.696 33.6429C108.742 33.6186 108.782 33.5846 108.814 33.5434C108.845 33.5021 108.868 33.4545 108.879 33.4038C108.891 33.3531 108.891 33.3006 108.88 33.2497C108.848 32.8651 108.865 32.4827 108.865 32.1045V32.1111ZM36.4615 30.8072C36.6549 30.716 36.7679 30.6682 36.8722 30.6095C37.3698 30.3313 37.7067 29.9402 37.6914 29.3404C37.6957 29.0778 37.618 28.8203 37.4693 28.6038C37.3205 28.3873 37.1081 28.2225 36.8613 28.1322C36.445 27.9665 36.0048 27.8682 35.5575 27.841C34.7426 27.7954 33.9256 27.841 33.1107 27.8215C32.7021 27.8215 32.5326 27.9475 32.537 28.3799C32.5565 29.812 32.537 31.2462 32.537 32.6804C32.537 33.9495 32.3197 33.8212 33.7778 33.8169C33.8371 33.8267 33.8978 33.8222 33.955 33.8038C34.0122 33.7854 34.0642 33.7537 34.1067 33.7112C34.1492 33.6687 34.1809 33.6167 34.1993 33.5595C34.2177 33.5023 34.2222 33.4416 34.2124 33.3823C34.2015 32.9042 34.2015 32.4262 34.2124 31.9503C34.2069 31.815 34.2518 31.6826 34.3384 31.5787C34.5862 31.3809 35.4532 31.5439 35.5988 31.8394C35.7223 32.114 35.7958 32.4083 35.8161 32.7086C35.9139 33.8169 35.9117 33.8256 37.0048 33.8212H37.3829C37.6176 33.8212 37.7153 33.6996 37.6806 33.4714C37.6176 33.0368 37.5784 32.6022 37.4807 32.1893C37.4173 31.8744 37.2981 31.5734 37.1286 31.3005C37.0091 31.0919 36.7353 30.9919 36.4615 30.7964V30.8072ZM63.4746 30.8529C63.4746 30.2205 63.4855 29.586 63.4746 28.9536C63.4463 27.6498 63.7223 27.8497 62.2925 27.8258C61.9817 27.8258 61.8579 27.9584 61.8709 28.2604C61.8709 28.7537 61.8709 29.2448 61.8709 29.7381C61.8709 30.1162 61.7101 30.2748 61.3363 30.2618C60.9626 30.2488 60.5475 30.2618 60.1542 30.2618C60.0907 30.27 60.0261 30.2636 59.9655 30.2428C59.905 30.2221 59.8499 30.1878 59.8048 30.1424C59.7596 30.097 59.7255 30.0418 59.7051 29.9811C59.6846 29.9205 59.6784 29.8559 59.687 29.7924C59.687 29.4969 59.687 29.2014 59.687 28.9058C59.6696 27.6889 59.8739 27.8562 58.6005 27.8323C58.205 27.8323 58.0529 27.9605 58.0594 28.3713C58.0768 29.8207 58.0594 31.2679 58.0594 32.7173C58.0594 33.9603 57.8421 33.8169 59.2328 33.8321C59.5696 33.8321 59.6674 33.6909 59.6674 33.3736C59.6544 32.8542 59.6674 32.3327 59.6674 31.8134C59.6674 31.4809 59.8043 31.357 60.1216 31.3635C60.5562 31.3635 60.9908 31.3635 61.4254 31.3635C61.7383 31.3635 61.8991 31.4722 61.8709 31.8134C61.8448 32.1067 61.8513 32.4044 61.8535 32.6978C61.8709 33.9668 61.6362 33.8212 63.053 33.8321C63.3659 33.8321 63.4659 33.6952 63.4616 33.3975C63.4637 32.5283 63.4746 31.6851 63.4746 30.842V30.8529ZM16.8867 27.815C16.6694 27.815 16.4652 27.828 16.2544 27.815C16.1373 27.795 16.017 27.8199 15.9175 27.8847C15.818 27.9496 15.7466 28.0496 15.7176 28.1648C15.0657 29.8055 14.3834 31.4244 13.7358 33.0759C13.4512 33.7995 13.4772 33.8104 14.266 33.8082C15.0549 33.806 15.0788 33.8082 15.3526 33.0433C15.3742 32.9324 15.4367 32.8335 15.5276 32.7664C15.6185 32.6992 15.7313 32.6685 15.8437 32.6804C16.337 32.6956 16.8281 32.6804 17.3213 32.6804C18.0254 32.6804 18.0689 32.7 18.2471 33.3801C18.2613 33.5066 18.3251 33.6223 18.4245 33.7017C18.5239 33.7812 18.6508 33.8179 18.7773 33.8039C19.1293 33.8039 19.4814 33.8039 19.8312 33.8039C20.142 33.8039 20.1919 33.6604 20.0876 33.3997C19.4618 31.8307 18.8367 30.2611 18.2123 28.6907C17.8581 27.8128 17.8516 27.815 16.8867 27.815ZM44.9624 32.6804H45.6448C46.2272 32.6804 46.2967 32.7239 46.4097 33.2888C46.4814 33.6583 46.6661 33.8299 47.0464 33.8017C47.2137 33.7886 47.3832 33.8017 47.5527 33.8017C48.4719 33.8017 48.4741 33.8017 48.1264 32.9325C47.4962 31.3722 46.866 29.812 46.2489 28.2474C46.1315 27.9497 45.9729 27.7802 45.6296 27.8128C45.3362 27.8345 45.0385 27.8128 44.743 27.8128C44.0628 27.8128 44.0519 27.8128 43.7933 28.4538C43.2262 29.8641 42.6612 31.2788 42.1092 32.6956C41.6138 33.9712 41.5508 33.7821 42.8937 33.8104C43.013 33.8206 43.1321 33.7892 43.2308 33.7214C43.3294 33.6537 43.4015 33.5538 43.4348 33.4388C43.739 32.6761 43.7412 32.6782 44.5474 32.6826L44.9624 32.6804ZM64.535 33.7995C65.0044 33.7995 65.3651 33.7995 65.7259 33.7995C65.7916 33.8099 65.8588 33.8067 65.9233 33.7902C65.9878 33.7737 66.0483 33.7442 66.101 33.7035C66.1537 33.6629 66.1975 33.6118 66.2298 33.5536C66.2621 33.4954 66.2821 33.4312 66.2887 33.3649C66.3647 33.0737 66.4039 32.6652 66.8798 32.6695C67.4991 32.6695 68.1184 32.65 68.7355 32.6891C68.8307 32.7072 68.9204 32.747 68.9976 32.8055C69.0749 32.8639 69.1376 32.9393 69.181 33.0259C69.4939 33.8604 69.3635 33.7821 70.2675 33.7886H70.6478C71.2237 33.7886 71.2649 33.7213 71.0476 33.1824C70.3783 31.507 69.7177 29.8272 69.0289 28.1605C68.9778 28.0709 68.9078 27.9936 68.8237 27.9339C68.7396 27.8743 68.6435 27.8337 68.5421 27.815C68.1553 27.7628 67.7555 27.815 67.3622 27.7954C67.23 27.7751 67.0949 27.8033 66.9819 27.8748C66.8689 27.9463 66.7855 28.0562 66.7472 28.1844C66.1387 29.7446 65.5129 31.2983 64.8936 32.8542C64.7936 33.1411 64.6893 33.4105 64.535 33.806V33.7995ZM26.6285 30.8007C26.6285 31.6439 26.6285 32.4877 26.6285 33.3323C26.6285 33.5757 26.6546 33.8017 26.9697 33.8017C28.2735 33.8017 29.5882 33.8147 30.8963 33.8017C31.3918 33.8017 31.2288 33.3801 31.2614 33.0976C31.294 32.8151 31.1462 32.7 30.8637 32.7043C30.314 32.7043 29.7664 32.7043 29.2166 32.7043C28.1909 32.6891 28.3278 32.8542 28.3061 31.7699C28.3061 31.4635 28.4147 31.3353 28.7255 31.3483C29.3448 31.3635 29.9641 31.3483 30.5834 31.3483C31.018 31.3483 30.9615 31.0702 30.955 30.8029C30.9485 30.5356 31.0202 30.2401 30.5856 30.2531C30.151 30.2661 29.6577 30.2531 29.1927 30.2531C28.2213 30.2422 28.3235 30.3705 28.3039 29.3252C28.3039 29.0145 28.4191 28.9015 28.7255 28.9058C29.4165 28.9189 30.1054 28.8928 30.7964 28.9058C31.181 28.9058 31.2745 28.7515 31.2701 28.3995C31.2658 28.0475 31.244 27.7932 30.7877 27.7997C29.5491 27.815 28.3104 27.7997 27.0718 27.7997C26.7437 27.7997 26.6241 27.9366 26.6372 28.2561C26.635 29.1123 26.6285 29.9576 26.6285 30.8007ZM22.8778 27.815C22.102 27.815 21.3284 27.815 20.5548 27.815C20.1202 27.815 20.1485 28.0996 20.1463 28.393C20.1441 28.6863 20.1615 28.9362 20.557 28.9189C20.8938 28.9036 21.235 28.9341 21.5696 28.9189C21.9369 28.8928 22.0694 29.0319 22.0629 29.4013C22.0455 30.54 22.0629 31.6808 22.0629 32.8195C22.0629 33.9581 21.913 33.8126 23.0843 33.8147C23.6471 33.8147 23.6753 33.7843 23.6775 33.215C23.6775 31.9481 23.6775 30.6834 23.6775 29.4187C23.6775 29.0601 23.8166 28.8993 24.1816 28.921C24.4902 28.9384 24.8031 28.9036 25.1095 28.921C25.5268 28.9558 25.5659 28.7211 25.5441 28.3995C25.5224 28.0779 25.5833 27.7997 25.1095 27.815C24.3707 27.8323 23.6232 27.815 22.8778 27.815V27.815ZM86.9826 30.8051V33.2519C86.9826 33.7452 87.0391 33.8039 87.5454 33.806C88.6993 33.806 89.8532 33.7952 91.0049 33.8191C91.4069 33.8191 91.4395 33.6018 91.4395 33.3149C91.4395 33.0281 91.5416 32.6869 91.0462 32.6978C90.442 32.713 89.8358 32.6978 89.2317 32.6978C88.6949 32.6978 88.6688 32.6695 88.6688 32.1176C88.6688 31.0767 88.6688 30.038 88.6688 28.9971C88.6688 27.6172 88.8166 27.8389 87.4302 27.8128C87.1086 27.8128 86.9804 27.9497 86.9956 28.2735C86.9934 29.1188 86.9847 29.9619 86.9847 30.8051H86.9826ZM51.1274 30.2835C51.1274 29.8337 51.1274 29.3817 51.1274 28.9319C51.11 27.6998 51.3447 27.8323 50.0017 27.8128C49.6214 27.8128 49.4585 27.9584 49.4585 28.3278C49.4585 30.0141 49.4585 31.6996 49.4585 33.3845C49.4585 33.6583 49.5693 33.806 49.8583 33.806C51.0817 33.806 52.3052 33.806 53.5308 33.806C54.0414 33.806 53.885 33.4105 53.9154 33.128C53.9458 32.8455 53.8306 32.6934 53.5112 32.6934C52.8593 32.7086 52.2074 32.6934 51.5685 32.6934C51.2404 32.6934 51.1143 32.587 51.123 32.2588C51.1339 31.6047 51.1208 30.942 51.1208 30.2901L51.1274 30.2835ZM40.6468 30.8333V29.9054C40.6468 29.5838 40.6468 29.2535 40.6468 28.9384C40.6468 27.6802 40.7989 27.8345 39.5233 27.8106C39.13 27.8106 38.9735 27.9366 38.9779 28.3473C38.9953 29.7924 38.9779 31.2375 38.9779 32.6826C38.9779 33.9299 38.7736 33.793 40.1383 33.8126C40.5294 33.8126 40.6533 33.6452 40.6446 33.2736C40.6251 32.4631 40.6468 31.646 40.6468 30.8333ZM92.5434 30.7964C92.5434 31.4483 92.5434 32.0872 92.5434 32.7326C92.5629 33.9321 92.3065 33.7865 93.6516 33.8191C94.0471 33.8191 94.1623 33.667 94.158 33.2932C94.1449 31.8481 94.158 30.4009 94.158 28.9471C94.158 27.6433 94.3514 27.828 92.9736 27.8106C92.6346 27.8106 92.539 27.9497 92.539 28.2669C92.5434 29.1101 92.5325 29.9532 92.5325 30.7964H92.5434Z" fill="white"/>
<path d="M81.9495 32.6934C81.8277 32.7167 81.7021 32.7123 81.5823 32.6804C81.4584 32.6261 81.2954 32.4631 81.2954 32.3523C81.2954 31.3382 81.3186 30.3292 81.3649 29.3252C81.3649 29.1861 81.5062 28.9493 81.6062 28.9362C82.8969 28.7711 83.9965 29.4469 83.9682 30.918C83.9661 31.1718 83.9104 31.4222 83.8049 31.6529C83.6993 31.8836 83.5463 32.0895 83.3558 32.2571C83.1653 32.4246 82.9415 32.5501 82.6992 32.6253C82.4569 32.7005 82.2014 32.7237 81.9495 32.6934V32.6934Z" fill="white"/>
<path d="M34.2104 29.6599C34.2104 28.9124 34.2104 28.9124 34.7667 28.9145C35.5251 28.9145 35.9923 29.2014 35.9836 29.6621C35.975 30.1227 35.4817 30.4183 34.7602 30.4183C34.217 30.4183 34.2104 30.4096 34.2104 29.6599Z" fill="white"/>
<path d="M16.8279 29.1144C16.9366 29.4274 17.0453 29.7403 17.1539 30.0554C17.2698 30.4132 17.3806 30.7754 17.4864 31.1419C17.5581 31.3874 17.4647 31.5222 17.2017 31.5243H16.8214C15.9109 31.5243 15.9066 31.5243 16.1695 30.6834C16.2499 30.4183 16.3673 30.164 16.4542 29.8989C16.5411 29.6338 16.5998 29.3948 16.6715 29.1427L16.8279 29.1144Z" fill="white"/>
<path d="M44.9011 29.0319C45.0445 29.2035 45.1423 29.2731 45.1705 29.3665C45.3552 29.9619 45.5291 30.5595 45.6964 31.1593C45.7572 31.3766 45.6834 31.52 45.4335 31.52C45.112 31.5363 44.79 31.5363 44.4686 31.52C44.3752 31.52 44.2035 31.3375 44.2187 31.281C44.4208 30.5508 44.649 29.8402 44.9011 29.0319Z" fill="white"/>
<path d="M67.8988 29.1209C67.9835 29.3622 68.0748 29.6012 68.153 29.8446C68.2747 30.2292 68.3877 30.6182 68.5029 31.0072C68.618 31.3961 68.5398 31.5156 68.1226 31.5222C67.8423 31.5374 67.5613 31.533 67.2816 31.5091C67.1882 31.4961 67.0274 31.3092 67.0448 31.2462C67.2382 30.5747 67.4598 29.9119 67.6771 29.247C67.6986 29.1951 67.724 29.145 67.7532 29.097L67.8988 29.1209Z" fill="white"/>
</g>
</svg>
