<svg width="64" height="64" viewBox="0 0 64 64" fill="none" xmlns="http://www.w3.org/2000/svg">
<circle cx="32" cy="32" r="32" fill="#16263E"/>
<path d="M45.2456 43.0348H32.7456V40.817C32.7456 40.2304 31.8081 40.2037 31.8081 40.817V43.0348H29.058C28.8462 40.7224 26.8954 38.9049 24.5268 38.9049C22.1582 38.9049 20.2074 40.7224 19.9956 43.0348H19.3412C19.3727 42.9234 19.3907 42.8064 19.3907 42.6851V40.2433C19.3907 39.5335 18.8133 38.956 18.1035 38.956H15.9019V38.1052H16.7973C17.6013 38.1052 18.3478 37.6378 18.699 36.9146L19.1764 35.9316C19.4684 35.3301 19.0117 34.5938 18.3389 34.5938H15.9019C15.9019 34.3139 15.8962 34.0333 15.9033 33.7536H23.0699C24.9933 33.7536 26.5582 32.1887 26.5582 30.2653V22.9098H31.8082V38.1365C31.8082 38.7231 32.7457 38.7498 32.7457 38.1365V16.9375H45.2457C45.8323 16.9375 45.859 16 45.2457 16H32.2769C32.018 16 31.8082 16.2098 31.8082 16.4688V19.2812H25.1201C23.8132 19.2812 22.6665 20.1172 22.2665 21.3614L22.0702 21.9722C20.2955 21.9324 18.6385 22.9968 18.0305 24.6857C17.8028 25.3182 18.7211 25.5351 18.9126 25.0032C19.3634 23.7511 20.5604 22.9097 21.8912 22.9097H25.6205V30.2653C25.6205 31.6718 24.4762 32.816 23.0697 32.816H16.1L18.0352 27.4406C18.2339 26.8888 17.3607 26.5461 17.1531 27.1231L15.1732 32.6227C15.0346 33.0078 14.9644 33.4105 14.9644 33.8196V38.9578C14.2719 38.9778 13.7144 39.5459 13.7144 40.2432V42.6849C13.7144 43.3947 14.2918 43.9722 15.0016 43.9722H20.0062C20.2654 46.2358 22.1933 48 24.5268 48C26.8603 48 28.7882 46.2358 29.0473 43.9723H32.2768H45.2455C45.8322 43.9723 45.8589 43.0348 45.2456 43.0348ZM15.9322 35.5312L18.3285 35.5313L17.8556 36.5051C17.6602 36.9076 17.2447 37.1677 16.7972 37.1677H15.9322V35.5312ZM23.055 21.9723L23.1591 21.6483C23.4339 20.7933 24.222 20.2188 25.1201 20.2188H31.8081V21.9723H26.0894H23.055ZM14.6519 42.6851V40.2433C14.6519 40.0504 14.8087 39.8935 15.0016 39.8935H18.1035C18.2964 39.8935 18.4532 40.0504 18.4532 40.2433V42.6851C18.4532 42.8779 18.2964 43.0348 18.1035 43.0348H15.0016C14.8087 43.0348 14.6519 42.8779 14.6519 42.6851ZM24.5268 47.0625C22.5342 47.0625 20.9131 45.4431 20.9131 43.4524C20.9131 41.4618 22.5342 39.8423 24.5268 39.8423C26.5194 39.8423 28.1404 41.4618 28.1404 43.4524C28.1404 45.4431 26.5194 47.0625 24.5268 47.0625Z" fill="#70B6F9"/>
<path d="M24.5265 40.8706C23.1019 40.8706 21.9429 42.0288 21.9429 43.4524C21.9429 44.876 23.1019 46.0342 24.5265 46.0342C25.9511 46.0342 27.1101 44.876 27.1101 43.4524C27.1101 42.0288 25.9511 40.8706 24.5265 40.8706ZM24.5265 45.0966C23.6188 45.0966 22.8804 44.359 22.8804 43.4524C22.8804 42.5457 23.6188 41.808 24.5265 41.808C25.4342 41.808 26.1726 42.5457 26.1726 43.4524C26.1726 44.359 25.4342 45.0966 24.5265 45.0966Z" fill="#70B6F9"/>
</svg>
