<svg width="747" height="497" viewBox="0 0 747 497" fill="none" xmlns="http://www.w3.org/2000/svg">
<path opacity="0.05" d="M115.874 130.482L202.524 112.417C216.387 99.4443 232.374 88.9569 249.788 81.4133C270.118 72.505 291.47 66.1457 313.357 62.48L312.963 62.0067L339.51 32.66C308.587 34.5109 277.966 39.8027 248.212 48.4378C220.786 55.9608 194.521 67.2153 170.149 81.8867C148.979 94.1322 130.514 110.558 115.874 130.167V130.482ZM290.434 269.484C266.755 263.504 244.197 253.727 223.635 240.532C207.346 230.221 193.932 215.945 184.643 199.037L286.023 145.392H0L97.3629 176.474C93.7477 203.403 100.818 230.678 117.056 252.444C137.191 279.73 163.916 301.446 194.726 315.556C235.292 334.592 278.837 346.468 323.44 350.661L290.04 269.879V269.484H290.434ZM746.921 145.392H460.977L567.162 199.826C558.633 216.54 545.865 230.714 530.139 240.927C510.228 254.376 488.091 264.179 464.758 269.879L375.43 198.879L378.108 280.371L378.896 309.797L384.174 497L436.006 350.424C480.386 346.551 523.714 334.741 563.933 315.556C598.277 298.147 623.091 277.11 638.373 252.444C645.877 241.263 651.061 228.686 653.619 215.46C656.176 202.233 656.054 188.627 653.261 175.449L747 145.234L746.921 145.392ZM428.759 62.0067C451.284 66.0131 473.292 72.5222 494.376 81.4133C512.765 89.059 529.75 99.724 544.633 112.969L631.913 131.113C616.008 111.355 596.493 94.8097 574.409 82.36C549.042 67.6882 521.873 56.3908 493.589 48.7533C463.131 40.1453 431.835 34.8553 400.243 32.9756L369.286 0L370.231 31.5556V35.9733L372.2 101.688L428.916 62.2433" fill="white"/>
</svg>
