<svg width="39" height="39" viewBox="0 0 39 39" fill="none" xmlns="http://www.w3.org/2000/svg">
<g clip-path="url(#clip0)">
<path d="M38.9404 36.1212L32.828 10.4503C32.5482 9.27411 31.5085 8.45302 30.2997 8.45302H22.3924C23.0118 7.7626 23.3922 6.85356 23.3922 5.85513C23.3922 3.70528 21.6433 1.95642 19.4935 1.95642C17.3436 1.95642 15.5948 3.70528 15.5948 5.85513C15.5948 6.85356 15.9752 7.76252 16.5946 8.45302H8.68736C7.47854 8.45302 6.43883 9.27411 6.15899 10.4503L0.0176934 36.2433C-0.0282992 36.4365 0.0163989 36.6406 0.139832 36.7963C0.262962 36.9524 0.450739 37.0435 0.64971 37.0435H38.3372C38.3416 37.0435 38.3454 37.0432 38.3502 37.0435C38.7091 37.0435 39 36.7525 39 36.3937C39 36.2963 38.9788 36.2043 38.9404 36.1212ZM19.4935 3.25601C20.9266 3.25601 22.0926 4.42205 22.0926 5.85513C22.0926 7.28402 20.9333 8.44609 19.506 8.45302H19.4809C18.0536 8.44609 16.8943 7.28402 16.8943 5.85513C16.8944 4.42197 18.0603 3.25601 19.4935 3.25601ZM1.47247 35.744L7.42303 10.751C7.56298 10.1631 8.08299 9.75261 8.68736 9.75261H19.4684C19.4769 9.75269 19.485 9.75391 19.4935 9.75391C19.5019 9.75391 19.5101 9.75269 19.5185 9.75261H30.2996C30.904 9.75261 31.4241 10.1632 31.5639 10.751L37.5145 35.744H1.47247Z" fill="#70B6F9"/>
<path d="M13.7291 25.1854L18.692 19.2672C18.9227 18.992 18.8868 18.5825 18.6118 18.3518C18.336 18.1202 17.9261 18.157 17.6964 18.4321L11.0466 26.3621V18.8497C11.0466 18.4908 10.7556 18.1999 10.3968 18.1999C10.038 18.1999 9.74707 18.4909 9.74707 18.8497V30.5458C9.74707 30.9047 10.038 31.1955 10.3968 31.1955C10.7556 31.1955 11.0466 30.9046 11.0466 30.5458V28.3844L12.8909 26.1852L17.7358 31.0065C17.8627 31.1325 18.0283 31.1956 18.1942 31.1956C18.3612 31.1956 18.5277 31.1319 18.6549 31.0043C18.9081 30.7498 18.9068 30.3383 18.6527 30.0851L13.7291 25.1854Z" fill="#70B6F9"/>
<path d="M26.4461 19.4993C27.0661 19.4993 27.7015 19.6364 28.3348 19.907C28.6648 20.0469 29.0465 19.8947 29.1877 19.5649C29.3289 19.235 29.1757 18.853 28.8456 18.7121C28.0499 18.372 27.2427 18.1997 26.4461 18.1997C22.9706 18.1997 20.1431 21.1145 20.1431 24.6975C20.1431 28.2805 22.9706 31.1954 26.4461 31.1954C27.2777 31.1954 28.0849 31.0306 28.8456 30.7055C29.0849 30.6033 29.24 30.3682 29.24 30.1081V25.3473C29.24 24.9884 28.949 24.6975 28.5902 24.6975H24.6915C24.3327 24.6975 24.0418 24.9885 24.0418 25.3473C24.0418 25.7062 24.3327 25.997 24.6915 25.997H27.9405V29.6591C27.4601 29.8165 26.9592 29.8958 26.4461 29.8958C23.6871 29.8958 21.4427 27.5638 21.4427 24.6975C21.4427 21.8313 23.6871 19.4993 26.4461 19.4993Z" fill="#70B6F9"/>
</g>
<defs>
<clipPath id="clip0">
<rect width="39" height="39" fill="white"/>
</clipPath>
</defs>
</svg>
