<svg width="64" height="65" viewBox="0 0 64 65" fill="none" xmlns="http://www.w3.org/2000/svg">
<circle cx="32" cy="32.1431" r="32" fill="#16263E"/>
<g clip-path="url(#clip0)">
<path d="M47.1413 32.1328C47.1413 29.0556 44.9344 26.5264 42.1407 26.2906C42.1625 26.0772 42.1748 25.8607 42.1748 25.6411C42.1748 22.4088 39.7403 19.7792 36.748 19.7792C35.4747 19.7792 34.3033 20.2566 33.3766 21.0528C33.5485 19.9139 34.1122 18.8423 34.9162 18.0226C35.4276 17.5013 36.0815 17.0067 36.7987 16.7623C36.5129 17.9818 37.3581 19.2905 38.7047 19.0769C40.551 18.7841 40.3491 16.3376 38.8871 15.6832C39.6615 15.1438 40.711 14.9762 41.6063 15.2385C42.3108 15.4449 42.6118 14.3466 41.909 14.1406C40.3257 13.6767 38.5229 14.2093 37.4687 15.4708C36.0433 15.5984 34.7293 16.4854 33.8168 17.5472L34.2999 14.1451C34.4445 13.1264 33.317 12.3653 32.426 12.8793L30.6717 13.8908C29.8018 14.3924 29.365 15.433 29.5733 16.4075C28.6541 15.6448 27.4662 15.0404 26.0622 14.6297C24.5283 14.181 23.2796 14.1161 23.2272 14.1135C22.985 14.1012 22.7622 14.2446 22.6716 14.4694C22.6522 14.5173 22.1951 15.6623 21.9469 17.2324C21.6275 19.252 21.8087 21.059 22.4679 22.4778C21.7848 23.624 21.5024 24.9888 21.6431 26.3132C18.9522 26.6573 16.8579 29.1351 16.8579 32.1328C16.8579 35.1553 18.9866 37.6503 21.7095 37.9616C21.5232 38.9821 21.5921 40.0681 21.9146 41.0549C22.1391 41.7419 23.2256 41.4014 22.9968 40.7012C22.7113 39.8274 22.6688 38.8569 22.8711 37.96C24.7448 37.7415 26.3348 36.4886 27.1421 34.7421C27.9283 36.4428 29.4569 37.6746 31.2666 37.9399C31.2847 37.9426 31.303 37.945 31.3213 37.9474V39.1025C31.3213 41.707 29.3976 43.8259 27.033 43.8259C26.2778 43.8259 25.5409 43.6083 24.8919 43.1952C24.2488 42.786 23.4096 43.558 24.1088 44.0419C24.8648 44.565 25.7253 44.874 26.6188 44.9471C26.2294 48.1845 28.5635 51.5714 31.9996 51.5714C35.4448 51.5714 37.7796 48.168 37.3773 44.9238C40.074 44.5856 42.1747 42.1047 42.1747 39.1024C42.1747 38.7234 42.1406 38.3483 42.0746 37.9804C44.8996 37.7795 47.1413 35.2344 47.1413 32.1328ZM38.0513 16.6273C38.5164 16.6951 39.005 16.9742 38.9385 17.5309C38.8931 17.9106 38.4211 18.0813 38.1199 17.8776C37.7169 17.605 37.8769 16.9683 38.0513 16.6273ZM31.2404 14.8771L32.9947 13.8656C33.071 13.8216 33.1876 13.8792 33.1727 13.985L31.8886 23.0277C31.8701 22.9877 31.8514 22.9479 31.8321 22.9085L30.673 16.0825C30.5917 15.6042 30.8198 15.1198 31.2404 14.8771ZM23.0675 17.4356C23.2122 16.5083 23.4405 15.7311 23.5872 15.2893C25.8136 15.5457 28.6411 16.3732 29.9109 18.396L30.3549 21.0107C28.2483 19.2433 25.1677 19.4483 23.2711 21.4224C22.815 20.0458 22.8959 18.5351 23.0675 17.4356ZM22.2847 36.8564C19.9202 36.8564 17.9964 34.7374 17.9964 32.1329C17.9964 29.6839 19.6974 27.6647 21.8663 27.4323C22.231 28.6567 22.9873 29.7428 24.0163 30.5034C25.3581 31.4953 26.6004 31.5426 26.6004 31.5426C26.6433 34.114 25.3572 36.8564 22.2847 36.8564ZM26.8276 30.3589C24.5582 30.2403 22.7449 28.1698 22.7449 25.6411C22.7449 23.0366 24.6686 20.9177 27.0331 20.9177C29.8199 20.9177 31.6178 23.7383 31.2759 26.3246C29.1771 26.6283 27.4544 28.2314 26.8276 30.3589ZM27.7115 32.1328C27.7115 29.5283 29.6352 27.4094 31.9997 27.4094C32.5249 27.4094 33.0376 27.5127 33.5236 27.7166C34.2027 28.0005 34.6427 26.9512 33.9639 26.6666C33.4936 26.4694 33.0037 26.3453 32.5021 26.2956C32.176 23.7172 33.9727 20.9177 36.7481 20.9177C39.1126 20.9177 41.0363 23.0366 41.0363 25.6411C41.0363 28.0901 39.3356 30.1091 37.1669 30.3418C37.0507 29.9495 36.897 29.5703 36.706 29.2119C36.3599 28.5624 35.3551 29.0976 35.7012 29.7472C36.085 30.4676 36.2878 31.2925 36.2878 32.1329C36.2878 34.7374 34.3642 36.8564 31.9997 36.8564C29.6352 36.8564 27.7115 34.7374 27.7115 32.1328ZM31.9997 50.433C29.169 50.433 27.3697 47.5206 27.7748 44.9083C29.5934 44.6385 31.1282 43.361 31.8906 41.7118C32.6851 43.4305 34.3186 44.7402 36.2288 44.937C36.6177 47.5424 34.8181 50.433 31.9997 50.433ZM36.7481 43.826C34.3836 43.826 32.4599 41.7071 32.4599 39.1026C32.4599 39.102 32.4599 39.1016 32.4599 39.1011V37.9724C34.3881 37.7965 36.0318 36.5277 36.8572 34.7423C37.6082 36.3668 39.1154 37.6382 40.9026 37.9291C40.9911 38.3106 41.0363 38.7038 41.0363 39.1026C41.0363 41.7071 39.1126 43.826 36.7481 43.826ZM41.7146 36.8564C39.3501 36.8564 37.4264 34.7374 37.4264 32.1329C37.4274 31.9079 37.4153 31.6838 37.3899 31.4607C39.5674 31.1817 41.3105 29.484 41.9201 27.4152C44.1896 27.5338 46.0028 29.6042 46.0028 32.1329C46.0028 34.7374 44.0792 36.8564 41.7146 36.8564Z" fill="#70B6F9"/>
<path d="M44.0619 31.7988C43.7474 31.7988 43.4926 32.0536 43.4926 32.3681C43.4926 33.4386 42.7143 34.3096 41.7576 34.3096C41.0216 34.3096 41.0216 35.4481 41.7576 35.4481C43.3421 35.4481 44.6312 34.0664 44.6312 32.3681C44.6312 32.0536 44.3764 31.7988 44.0619 31.7988Z" fill="#70B6F9"/>
<path d="M34.3041 45.5708C33.9896 45.5708 33.7348 45.8256 33.7348 46.1401C33.7348 47.2106 32.9564 48.0816 31.9998 48.0816C31.2637 48.0816 31.2637 49.2201 31.9998 49.2201C33.5843 49.2201 34.8734 47.8384 34.8734 46.1401C34.8734 45.8257 34.6185 45.5708 34.3041 45.5708Z" fill="#70B6F9"/>
</g>
<defs>
<clipPath id="clip0">
<rect width="38.8571" height="38.8571" fill="white" transform="translate(12.5713 12.7144)"/>
</clipPath>
</defs>
</svg>
