<svg width="62" height="62" viewBox="0 0 62 62" fill="none" xmlns="http://www.w3.org/2000/svg">
<circle cx="31" cy="31" r="30" stroke="#70B6F9" stroke-width="2"/>
<path d="M30.4999 44.625C31.1037 44.625 31.5937 44.135 31.5937 43.5312V21.7115L39.5518 30.0666C39.7667 30.2925 40.0549 30.4062 40.3437 30.4062C40.6144 30.4062 40.8862 30.3062 41.0978 30.1044C41.5353 29.6877 41.5523 28.9953 41.1355 28.5578L32.047 19.0159C31.6336 18.603 31.0845 18.375 30.4999 18.375C29.9153 18.375 29.3662 18.603 28.9348 19.0351L19.8643 28.5584C19.4476 28.9959 19.4645 29.6882 19.902 30.1049C20.3395 30.5216 21.0324 30.5047 21.4486 30.0672L29.4062 21.677V43.5312C29.4062 44.135 29.8962 44.625 30.4999 44.625Z" fill="#70B6F9"/>
</svg>
