<svg width="40" height="40" viewBox="0 0 40 40" fill="none" xmlns="http://www.w3.org/2000/svg">
<g clip-path="url(#clip0)">
<path d="M34.4148 36.3818H1.17188V34.397H1.81359C2.13727 34.397 2.39953 34.1347 2.39953 33.811C2.39953 33.4874 2.13727 33.2251 1.81359 33.2251H0.585938C0.262266 33.2251 0 33.4874 0 33.811V36.9678C0 37.2914 0.262266 37.5537 0.585938 37.5537H34.4148C34.7384 37.5537 35.0007 37.2914 35.0007 36.9678C35.0007 36.6441 34.7384 36.3818 34.4148 36.3818Z" fill="#70B6F9"/>
<path d="M39.414 33.2251H34.6212C34.49 29.9569 33.2659 26.8152 31.1399 24.3219C29.0206 21.8363 26.1284 20.1292 22.9531 19.4773V17.8698C22.9531 17.5462 22.6908 17.2839 22.3671 17.2839H21.7697V14.7994C21.7697 14.4757 21.5074 14.2134 21.1838 14.2134C20.8601 14.2134 20.5978 14.4757 20.5978 14.7994V17.2839H19.4021V9.88482C19.5951 9.91568 19.7927 9.93217 19.9943 9.93217C20.1998 9.93217 20.4012 9.91482 20.5978 9.88279V12.0497C20.5978 12.3733 20.8601 12.6356 21.1838 12.6356C21.5074 12.6356 21.7697 12.3733 21.7697 12.0497V9.48342C22.9402 8.85006 23.737 7.61115 23.737 6.18943C23.737 4.12568 22.0581 2.44678 19.9944 2.44678C17.9306 2.44678 16.2517 4.12568 16.2517 6.18943C16.2517 7.6156 17.0538 8.85771 18.2303 9.4892V17.2839H17.6327C17.3091 17.2839 17.0468 17.5462 17.0468 17.8698V19.4773C13.8714 20.1292 10.9793 21.8362 8.85993 24.3219C6.73392 26.8152 5.50985 29.9569 5.37868 33.2251H4.55493C4.23126 33.2251 3.96899 33.4874 3.96899 33.8111C3.96899 34.1347 4.23126 34.397 4.55493 34.397H38.8281V36.3819H37.1539C36.8302 36.3819 36.568 36.6441 36.568 36.9678C36.568 37.2915 36.8302 37.5537 37.1539 37.5537H39.414C39.7377 37.5537 39.9999 37.2915 39.9999 36.9678V33.8111C39.9999 33.4875 39.7377 33.2251 39.414 33.2251ZM17.4234 6.18951C17.4234 4.77193 18.5767 3.61873 19.9942 3.61873C21.4117 3.61873 22.565 4.77201 22.565 6.18951C22.565 7.60701 21.4117 8.76029 19.9942 8.76029C18.5767 8.76029 17.4234 7.60701 17.4234 6.18951ZM33.4488 33.2251H31.7768C31.6509 30.7238 30.7236 28.3052 29.1326 26.359C27.543 24.4146 25.3627 23.0191 22.953 22.3938V20.6751C28.8934 21.9969 33.1891 27.1252 33.4488 33.2251ZM17.0468 24.8617C13.3999 26.0665 10.835 29.4007 10.5953 33.2251H9.39657C9.64728 28.7469 12.7495 24.8569 17.0468 23.609V24.8617ZM17.0468 26.1061V29.3847C15.7407 30.2576 14.8856 31.6716 14.712 33.2251H11.7692C11.9976 30.0365 14.072 27.2486 17.0468 26.1061ZM17.9264 30.2168C18.5531 29.8538 19.27 29.662 19.9999 29.662C20.7299 29.662 21.4469 29.8538 22.074 30.217C23.1827 30.8576 23.9274 31.9769 24.1068 33.2251H15.8931C16.0725 31.9769 16.8172 30.8576 17.9264 30.2168ZM22.9531 29.3847V26.1061C25.9278 27.2486 28.0023 30.0365 28.2306 33.2251H25.2878C25.1142 31.6715 24.259 30.2574 22.9531 29.3847ZM22.9531 24.8617V23.609C27.2504 24.8569 30.3526 28.7469 30.6033 33.2252H29.4045C29.1649 29.4007 26.5999 26.0665 22.9531 24.8617ZM21.7812 18.4558V28.7971C21.2124 28.5953 20.6096 28.4901 19.9999 28.4901C19.3902 28.4901 18.7874 28.5954 18.2187 28.7971V18.4558H21.7812ZM17.0468 20.6751V22.3939C14.637 23.0192 12.4568 24.4147 10.8672 26.359C9.27618 28.3053 8.34884 30.7238 8.22298 33.2252H6.55102C6.81071 27.1252 11.1065 21.9969 17.0468 20.6751Z" fill="#70B6F9"/>
</g>
<defs>
<clipPath id="clip0">
<rect width="40" height="40" fill="white"/>
</clipPath>
</defs>
</svg>
