<svg width="40" height="40" viewBox="0 0 40 40" fill="none" xmlns="http://www.w3.org/2000/svg">
<g clip-path="url(#clip0)">
<path d="M39.333 23.3337H37.2883L35.9998 4.62183C35.9756 4.27149 35.6843 4 35.333 4.00049H31.333C30.9817 4 30.6904 4.27149 30.6663 4.62183L29.3777 23.3337H28V19.3337C28 18.9658 27.7014 18.667 27.3335 18.667C27.1816 18.6667 27.0347 18.7185 26.9165 18.8132L21.3333 23.2798V19.3337C21.3333 18.9658 21.0349 18.667 20.6667 18.667C20.5151 18.6667 20.3682 18.7185 20.25 18.8132L14.6667 23.2798V19.3337C14.6667 18.9658 14.3684 18.667 14.0002 18.667C13.8486 18.6667 13.7014 18.7185 13.5835 18.8132L8.00025 23.2798V19.3337C8 18.9658 7.70142 18.6672 7.3335 18.6672C7.21216 18.6672 7.09375 18.7002 6.98999 18.7625L0.323242 22.7625C0.122803 22.8831 0 23.0996 0 23.3337V39.3337C0 39.7019 0.298584 40.0002 0.666748 40.0002H39.333C39.7012 40.0002 39.9998 39.7019 39.9998 39.3337V24.0005C39.9998 23.6321 39.7012 23.3337 39.333 23.3337ZM31.9556 5.33374H34.7105L35.9522 23.3337H30.7139L31.9556 5.33374ZM22.6663 38.667V30.667H26.6663V38.667H22.6663ZM38.6665 38.667H28V30.0002C28 29.6323 27.7012 29.3337 27.333 29.3337H21.9998C21.6316 29.3337 21.333 29.6323 21.333 30.0002V38.667H1.33325V23.7112L6.6665 20.5112V24.667C6.6665 25.0354 6.96484 25.3337 7.33301 25.3342C7.48438 25.3342 7.63159 25.2825 7.75 25.1877L13.3333 20.7212V24.667C13.3333 25.0354 13.6313 25.3337 13.9998 25.3342C14.1511 25.3342 14.2981 25.2825 14.4165 25.188L19.9998 20.7214V24.6672C19.9998 25.0354 20.2979 25.3342 20.6663 25.3342C20.8176 25.3342 20.9646 25.2825 21.083 25.188L26.6663 20.7214V24.0005C26.6663 24.3689 26.9648 24.6672 27.333 24.6672H38.666V38.667H38.6665Z" fill="#70B6F9"/>
<path d="M22.6616 1.33383C22.9041 1.46372 23.1231 1.63315 23.3098 1.83505C23.6836 2.29086 24.2158 2.58774 24.7996 2.66709C25.4146 2.58872 25.9761 2.2789 26.3704 1.80039C26.5391 1.62338 26.7278 1.46689 26.9331 1.33383C27.0703 1.33994 27.4297 1.67636 27.6231 1.85703C27.9827 2.30209 28.4993 2.59189 29.0662 2.66709C29.721 2.58408 30.3193 2.25571 30.741 1.74838C30.9043 1.59506 31.1516 1.3624 31.1995 1.33383C31.5574 1.33383 31.6394 1.45249 31.8596 1.76987C32.1489 2.3165 32.7144 2.66098 33.333 2.66709C33.7009 2.66709 33.9995 2.3685 33.9995 2.00058C33.9995 1.63217 33.7009 1.33383 33.333 1.33383C33.1995 1.33383 33.1736 1.32456 32.957 1.01181C32.603 0.375825 31.927 -0.0130909 31.1995 0.000336827C30.6602 0.075288 30.1694 0.352632 29.8276 0.77646C29.6062 0.9852 29.2351 1.33383 29.0942 1.33701C28.8877 1.21201 28.6992 1.05966 28.5327 0.884614C28.1318 0.396333 27.5596 0.0801708 26.9329 0.000336827C26.355 0.0791943 25.8286 0.373628 25.4587 0.824312C25.2717 1.025 25.0557 1.19663 24.8181 1.33383C24.596 1.20639 24.3938 1.04721 24.2183 0.860444C23.8286 0.3873 23.2739 0.0801708 22.666 0.000336827C22.2981 -0.000883876 21.9983 0.296479 21.9971 0.664888C21.9959 1.03281 22.2935 1.33261 22.6616 1.33383Z" fill="#70B6F9"/>
<path d="M7.33349 30.667H4.6665C4.29834 30.667 4 30.9656 4 31.3335V35.3335C4 35.7019 4.29834 36.0002 4.6665 36.0002H7.33349C7.70141 36.0002 8 35.7019 8 35.3335V31.3335C8 30.9656 7.70141 30.667 7.33349 30.667ZM6.6665 34.667H5.33325V32.0005H6.6665V34.667Z" fill="#70B6F9"/>
<path d="M12.6667 30.667H10C9.63159 30.667 9.33325 30.9656 9.33325 31.3335V35.3335C9.33325 35.7019 9.63159 36.0002 10 36.0002H12.6667C13.0347 36.0002 13.3333 35.7019 13.3333 35.3335V31.3335C13.3333 30.9656 13.0347 30.667 12.6667 30.667ZM11.9998 34.667H10.6665V32.0005H11.9998V34.667Z" fill="#70B6F9"/>
<path d="M18 30.667H15.3333C14.9648 30.667 14.6665 30.9656 14.6665 31.3335V35.3335C14.6665 35.7019 14.9648 36.0002 15.3333 36.0002H18C18.3679 36.0002 18.6665 35.7019 18.6665 35.3335V31.3335C18.6665 30.9656 18.3679 30.667 18 30.667ZM17.333 34.667H15.9998V32.0005H17.333V34.667Z" fill="#70B6F9"/>
</g>
<defs>
<clipPath id="clip0">
<rect width="40" height="40" fill="white"/>
</clipPath>
</defs>
</svg>
