<svg width="38" height="38" viewBox="0 0 38 38" fill="none" xmlns="http://www.w3.org/2000/svg">
<g clip-path="url(#clip0)">
<path d="M37.3962 0.00108999C37.3428 0.000301992 37.2896 0.00634331 37.2379 0.0193453L29.8087 1.87679C29.3466 1.99249 29.1873 2.56773 29.5239 2.9046L31.8456 5.22656L25.1025 11.9697C24.4579 12.5887 25.4122 13.5428 26.031 12.8982L32.7742 6.15509L35.0961 8.47679C35.433 8.8134 36.0082 8.65409 36.1239 8.19206L37.9814 0.762821C38.077 0.379723 37.791 0.00726264 37.3962 0.00108999ZM0.640801 0.00161532C0.231042 -0.0167713 -0.0807422 0.364751 0.0188081 0.76269L1.87625 8.19206C1.99195 8.65409 2.56719 8.8134 2.90406 8.47679L5.22603 6.15509L11.9692 12.8982C12.5882 13.5428 13.5423 12.5886 12.8977 11.9697L6.15455 5.22656L8.47625 2.9046C8.81286 2.56773 8.65355 1.99249 8.19153 1.87679L0.76189 0.0193453C0.722227 0.0094953 0.681645 0.00345398 0.640801 0.00161532ZM1.45572 1.45639L6.84392 2.80334L2.80267 6.84459L1.45572 1.45639ZM36.5442 1.45639L35.1973 6.84459L31.156 2.80334L36.5442 1.45639ZM35.1719 2.51336C35.1422 2.51257 35.1127 2.51572 35.0839 2.52281L32.6694 3.07993C32.2427 3.17843 32.3904 3.81841 32.8171 3.71991L35.2317 3.16254C35.611 3.08085 35.5597 2.52452 35.1719 2.51336ZM2.85113 2.51362C2.45017 2.4976 2.37623 3.0773 2.76826 3.16254L5.18282 3.71991C5.60952 3.81841 5.75727 3.17843 5.33057 3.07993L2.91601 2.52281C2.89487 2.51769 2.87307 2.51454 2.85113 2.51362ZM25.5598 24.9039C24.9704 24.9043 24.6798 25.6207 25.1025 26.0315L31.8456 32.775L29.5239 35.0967C29.1873 35.4335 29.3466 36.0088 29.8087 36.1245L37.2379 37.9819C37.6867 38.0941 38.0933 37.6877 37.9813 37.2388L36.1238 29.8096C36.057 29.5425 35.8202 29.3526 35.5449 29.3456C35.377 29.3414 35.2147 29.4061 35.096 29.5249L32.7743 31.8466L26.0309 25.1031C25.9073 24.9756 25.7372 24.9038 25.5598 24.9039ZM12.4206 24.9042C12.25 24.9093 12.088 24.9806 11.9691 25.103L5.22577 31.8463L2.90406 29.5246C2.78691 29.4075 2.62747 29.3427 2.46186 29.3451C2.18396 29.3491 1.94362 29.5397 1.87625 29.8093L0.0188081 37.2387C-0.0932189 37.6875 0.313125 38.0938 0.76189 37.9818L8.19139 36.1243C8.65342 36.0086 8.81273 35.4334 8.47612 35.0965L6.15442 32.7748L12.8976 26.0314C13.3272 25.614 13.0193 24.8864 12.4206 24.9042ZM2.80267 31.1568L6.84392 35.1979L1.45572 36.5449L2.80267 31.1568ZM35.1973 31.1568L36.5442 36.5447L31.156 35.1978L35.1973 31.1568ZM5.27081 34.2719C5.24113 34.2711 5.21158 34.2743 5.18282 34.2813L2.76826 34.8385C2.33014 34.9296 2.48235 35.5884 2.91601 35.4782L5.33057 34.9211C5.70999 34.8394 5.65877 34.2829 5.27081 34.2719ZM32.7522 34.2722C32.3513 34.2561 32.2773 34.8358 32.6694 34.9211L35.0839 35.4782C35.5176 35.5884 35.6698 34.9296 35.2317 34.8385L32.8171 34.2813C32.7958 34.2761 32.7742 34.2731 32.7522 34.2722Z" fill="#70B6F9"/>
</g>
<defs>
<clipPath id="clip0">
<rect width="38" height="38" fill="white"/>
</clipPath>
</defs>
</svg>
