<svg width="37" height="37" viewBox="0 0 37 37" fill="none" xmlns="http://www.w3.org/2000/svg">
<path d="M18.5 30.6406C17.5438 30.6406 16.7656 31.4188 16.7656 32.375C16.7656 33.3312 17.5438 34.1094 18.5 34.1094C19.4562 34.1094 20.2344 33.3312 20.2344 32.375C20.2344 31.4188 19.4562 30.6406 18.5 30.6406ZM18.5 32.9531C18.1815 32.9531 17.9219 32.6935 17.9219 32.375C17.9219 32.0565 18.1815 31.7969 18.5 31.7969C18.8185 31.7969 19.0781 32.0565 19.0781 32.375C19.0781 32.6935 18.8185 32.9531 18.5 32.9531Z" fill="#70B6F9"/>
<path d="M32.375 34.1094C33.3312 34.1094 34.1094 33.3312 34.1094 32.375C34.1094 31.4188 33.3312 30.6406 32.375 30.6406C31.4188 30.6406 30.6406 31.4188 30.6406 32.375C30.6406 33.3312 31.4188 34.1094 32.375 34.1094ZM32.375 31.7969C32.6935 31.7969 32.9531 32.0565 32.9531 32.375C32.9531 32.6935 32.6935 32.9531 32.375 32.9531C32.0565 32.9531 31.7969 32.6935 31.7969 32.375C31.7969 32.0565 32.0565 31.7969 32.375 31.7969Z" fill="#70B6F9"/>
<path d="M34.6875 27.1719C35.6437 27.1719 36.4219 26.3937 36.4219 25.4375V19.0781C36.4219 18.4405 35.9033 17.9219 35.2656 17.9219H33.9481C33.4497 17.9219 33.0086 18.2393 32.8514 18.7122L31.9582 21.3906H26.7793L19.0741 15.8869L31.3685 10.9693C32.8913 10.8896 34.1094 9.63619 34.1094 8.09375V6.9375C34.1094 5.34361 32.8126 4.04688 31.2188 4.04688C30.7655 4.04688 30.3556 4.22552 30.0463 4.51111L11.8013 1.29153C11.485 0.861406 10.9797 0.578125 10.4062 0.578125H9.25C8.49728 0.578125 7.86134 1.06317 7.622 1.73438H1.73438C1.0967 1.73438 0.578125 2.25295 0.578125 2.89062V4.625L1.61239 12.9338C1.7205 13.7998 2.4605 14.4531 3.33347 14.4531H7.07336C7.94633 14.4531 8.68633 13.7998 8.79444 12.9338L9.76048 5.20312H10.4062C10.8595 5.20312 11.2694 5.02448 11.5787 4.73889L28.1408 7.66189L16.1303 12.4661C15.8296 12.2562 15.4753 12.1406 15.1012 12.1406C14.1062 12.1406 13.2969 12.95 13.2969 13.945V18.43C13.2969 19.3071 13.9265 20.0384 14.7572 20.1997L21.3906 26.8331V28.3281H18.5C16.2684 28.3281 14.4531 30.1434 14.4531 32.375C14.4531 33.507 14.9214 34.5303 15.673 35.2656H13.2969V36.4219H36.4219V35.2656H35.202C35.9536 34.5303 36.4219 33.507 36.4219 32.375C36.4219 30.1434 34.6066 28.3281 32.375 28.3281H31.7969V27.1719H34.6875ZM34.6875 26.0156H31.7969V22.5469H35.2656V25.4375C35.2656 25.756 35.006 26.0156 34.6875 26.0156ZM21.5461 25.3537L16.1147 19.9222C16.2077 19.8586 16.2962 19.7875 16.3771 19.706L18.5 17.5831C18.6347 17.449 18.7388 17.294 18.8278 17.1322L25.0993 21.612C23.347 22.1387 21.9861 23.5661 21.5461 25.3537ZM12.1406 3.46875V2.52583L29.504 5.58989C29.4965 5.65348 29.4844 5.71592 29.4844 5.78125V6.72475L12.121 3.66069C12.1285 3.59652 12.1406 3.53408 12.1406 3.46875ZM29.8677 10.3242L18.5491 14.8515C18.5318 14.8324 18.5185 14.8104 18.5 14.7919L17.0512 13.3431L29.4844 8.36952V9.25C29.4844 9.65758 29.6312 10.0276 29.8677 10.3242ZM30.6406 23.7031H27.1719V22.5469H30.6406V23.7031ZM27.1719 24.8594H30.6406V26.0156H27.1719V24.8594ZM33.9481 19.0781H35.2656V21.3906H33.1774L33.9481 19.0781ZM30.6406 5.78125C30.6406 5.4627 30.9002 5.20312 31.2188 5.20312C32.175 5.20312 32.9531 5.98128 32.9531 6.9375V8.09375C32.9531 9.04997 32.175 9.82812 31.2188 9.82812C30.9002 9.82812 30.6406 9.56855 30.6406 9.25V5.78125ZM1.81127 5.20312H4.625V7.51562H2.10033L1.81127 5.20312ZM2.24486 8.67188H4.625V10.9844H2.53392L2.24486 8.67188ZM5.78125 8.67188H8.16139L7.87233 10.9844H5.78125V8.67188ZM5.78125 7.51562V5.20312H8.59498L8.30592 7.51562H5.78125ZM7.51562 2.89062V3.46875C7.51562 3.67225 7.55725 3.86534 7.622 4.04688H1.73438V2.89062H7.51562ZM7.07278 13.2969H3.33347C3.04267 13.2969 2.79581 13.0795 2.75997 12.7904L2.67845 12.1406H7.7278L7.64628 12.7904C7.61044 13.0795 7.36416 13.2969 7.07278 13.2969ZM10.9844 3.46875C10.9844 3.7873 10.7248 4.04688 10.4062 4.04688H9.25C8.93145 4.04688 8.67188 3.7873 8.67188 3.46875V2.3125C8.67188 1.99395 8.93145 1.73438 9.25 1.73438H10.4062C10.7248 1.73438 10.9844 1.99395 10.9844 2.3125V3.46875ZM14.4531 13.945C14.4531 13.5877 14.7439 13.2969 15.1012 13.2969C15.2746 13.2969 15.4371 13.3645 15.5597 13.4865L17.6825 15.6094C17.8346 15.7614 17.9219 15.9724 17.9219 16.1875C17.9219 16.4026 17.8346 16.6136 17.6825 16.7656L15.5597 18.8885C15.4371 19.0105 15.2746 19.0781 15.1012 19.0781C14.7439 19.0781 14.4531 18.7873 14.4531 18.43V13.945ZM22.5469 26.5938C22.5469 24.5593 24.0575 22.8753 26.0156 22.5931V28.3281H22.5469V26.5938ZM29.548 29.4844C28.9271 30.092 28.5039 30.8967 28.3738 31.7969H22.5006C22.3711 30.8967 21.9479 30.092 21.3265 29.4844H29.548ZM15.6094 32.375C15.6094 30.7811 16.9061 29.4844 18.5 29.4844C20.0939 29.4844 21.3906 30.7811 21.3906 32.375C21.3906 33.9689 20.0939 35.2656 18.5 35.2656C16.9061 35.2656 15.6094 33.9689 15.6094 32.375ZM21.327 35.2656C21.9479 34.658 22.3711 33.8533 22.5012 32.9531H28.375C28.5045 33.8533 28.9276 34.658 29.5491 35.2656H21.327ZM35.2656 32.375C35.2656 33.9689 33.9689 35.2656 32.375 35.2656C30.7811 35.2656 29.4844 33.9689 29.4844 32.375C29.4844 30.7811 30.7811 29.4844 32.375 29.4844C33.9689 29.4844 35.2656 30.7811 35.2656 32.375ZM30.6406 28.3281H27.1719V27.1719H30.6406V28.3281Z" fill="#70B6F9"/>
<path d="M16.1875 16.7656C16.5068 16.7656 16.7656 16.5068 16.7656 16.1875C16.7656 15.8682 16.5068 15.6094 16.1875 15.6094C15.8682 15.6094 15.6094 15.8682 15.6094 16.1875C15.6094 16.5068 15.8682 16.7656 16.1875 16.7656Z" fill="#70B6F9"/>
<path d="M9.82812 35.2656H12.1406V36.4219H9.82812V35.2656Z" fill="#70B6F9"/>
<path d="M0.578125 35.2656H8.67188V36.4219H0.578125V35.2656Z" fill="#70B6F9"/>
</svg>
