<svg width="392" height="23" viewBox="0 0 392 23" fill="none" xmlns="http://www.w3.org/2000/svg">
<path opacity="0.7" d="M3.88672 0.9375L9.46484 14.8594L15.043 0.9375H17.9609V18H15.7109V11.3555L15.9219 4.18359L10.3203 18H8.59766L3.00781 4.21875L3.23047 11.3555V18H0.980469V0.9375H3.88672ZM29.4219 18C29.2969 17.75 29.1953 17.3047 29.1172 16.6641C28.1094 17.7109 26.9062 18.2344 25.5078 18.2344C24.2578 18.2344 23.2305 17.8828 22.4258 17.1797C21.6289 16.4688 21.2305 15.5703 21.2305 14.4844C21.2305 13.1641 21.7305 12.1406 22.7305 11.4141C23.7383 10.6797 25.1523 10.3125 26.9727 10.3125H29.082V9.31641C29.082 8.55859 28.8555 7.95703 28.4023 7.51172C27.9492 7.05859 27.2812 6.83203 26.3984 6.83203C25.625 6.83203 24.9766 7.02734 24.4531 7.41797C23.9297 7.80859 23.668 8.28125 23.668 8.83594H21.4883C21.4883 8.20312 21.7109 7.59375 22.1562 7.00781C22.6094 6.41406 23.2188 5.94531 23.9844 5.60156C24.7578 5.25781 25.6055 5.08594 26.5273 5.08594C27.9883 5.08594 29.1328 5.45312 29.9609 6.1875C30.7891 6.91406 31.2188 7.91797 31.25 9.19922V15.0352C31.25 16.1992 31.3984 17.125 31.6953 17.8125V18H29.4219ZM25.8242 16.3477C26.5039 16.3477 27.1484 16.1719 27.7578 15.8203C28.3672 15.4688 28.8086 15.0117 29.082 14.4492V11.8477H27.3828C24.7266 11.8477 23.3984 12.625 23.3984 14.1797C23.3984 14.8594 23.625 15.3906 24.0781 15.7734C24.5312 16.1562 25.1133 16.3477 25.8242 16.3477ZM36.6992 5.32031L36.7695 6.91406C37.7383 5.69531 39.0039 5.08594 40.5664 5.08594C43.2461 5.08594 44.5977 6.59766 44.6211 9.62109V18H42.4531V9.60938C42.4453 8.69531 42.2344 8.01953 41.8203 7.58203C41.4141 7.14453 40.7773 6.92578 39.9102 6.92578C39.207 6.92578 38.5898 7.11328 38.0586 7.48828C37.5273 7.86328 37.1133 8.35547 36.8164 8.96484V18H34.6484V5.32031H36.6992ZM55.7188 16.7461C54.875 17.7383 53.6367 18.2344 52.0039 18.2344C50.6523 18.2344 49.6211 17.8438 48.9102 17.0625C48.207 16.2734 47.8516 15.1094 47.8438 13.5703V5.32031H50.0117V13.5117C50.0117 15.4336 50.793 16.3945 52.3555 16.3945C54.0117 16.3945 55.1133 15.7773 55.6602 14.543V5.32031H57.8281V18H55.7656L55.7188 16.7461ZM68.9609 18C68.8359 17.75 68.7344 17.3047 68.6562 16.6641C67.6484 17.7109 66.4453 18.2344 65.0469 18.2344C63.7969 18.2344 62.7695 17.8828 61.9648 17.1797C61.168 16.4688 60.7695 15.5703 60.7695 14.4844C60.7695 13.1641 61.2695 12.1406 62.2695 11.4141C63.2773 10.6797 64.6914 10.3125 66.5117 10.3125H68.6211V9.31641C68.6211 8.55859 68.3945 7.95703 67.9414 7.51172C67.4883 7.05859 66.8203 6.83203 65.9375 6.83203C65.1641 6.83203 64.5156 7.02734 63.9922 7.41797C63.4688 7.80859 63.207 8.28125 63.207 8.83594H61.0273C61.0273 8.20312 61.25 7.59375 61.6953 7.00781C62.1484 6.41406 62.7578 5.94531 63.5234 5.60156C64.2969 5.25781 65.1445 5.08594 66.0664 5.08594C67.5273 5.08594 68.6719 5.45312 69.5 6.1875C70.3281 6.91406 70.7578 7.91797 70.7891 9.19922V15.0352C70.7891 16.1992 70.9375 17.125 71.2344 17.8125V18H68.9609ZM65.3633 16.3477C66.043 16.3477 66.6875 16.1719 67.2969 15.8203C67.9062 15.4688 68.3477 15.0117 68.6211 14.4492V11.8477H66.9219C64.2656 11.8477 62.9375 12.625 62.9375 14.1797C62.9375 14.8594 63.1641 15.3906 63.6172 15.7734C64.0703 16.1562 64.6523 16.3477 65.3633 16.3477ZM76.543 18H74.375V0H76.543V18ZM97.6367 2.78906H92.1523V18H89.9141V2.78906H84.4414V0.9375H97.6367V2.78906ZM106.531 16.7461C105.688 17.7383 104.449 18.2344 102.816 18.2344C101.465 18.2344 100.434 17.8438 99.7227 17.0625C99.0195 16.2734 98.6641 15.1094 98.6562 13.5703V5.32031H100.824V13.5117C100.824 15.4336 101.605 16.3945 103.168 16.3945C104.824 16.3945 105.926 15.7773 106.473 14.543V5.32031H108.641V18H106.578L106.531 16.7461ZM118.074 7.26562C117.746 7.21094 117.391 7.18359 117.008 7.18359C115.586 7.18359 114.621 7.78906 114.113 9V18H111.945V5.32031H114.055L114.09 6.78516C114.801 5.65234 115.809 5.08594 117.113 5.08594C117.535 5.08594 117.855 5.14062 118.074 5.25V7.26562ZM122.129 5.32031L122.199 6.91406C123.168 5.69531 124.434 5.08594 125.996 5.08594C128.676 5.08594 130.027 6.59766 130.051 9.62109V18H127.883V9.60938C127.875 8.69531 127.664 8.01953 127.25 7.58203C126.844 7.14453 126.207 6.92578 125.34 6.92578C124.637 6.92578 124.02 7.11328 123.488 7.48828C122.957 7.86328 122.543 8.35547 122.246 8.96484V18H120.078V5.32031H122.129ZM135.676 18H133.508V5.32031H135.676V18ZM133.332 1.95703C133.332 1.60547 133.438 1.30859 133.648 1.06641C133.867 0.824219 134.188 0.703125 134.609 0.703125C135.031 0.703125 135.352 0.824219 135.57 1.06641C135.789 1.30859 135.898 1.60547 135.898 1.95703C135.898 2.30859 135.789 2.60156 135.57 2.83594C135.352 3.07031 135.031 3.1875 134.609 3.1875C134.188 3.1875 133.867 3.07031 133.648 2.83594C133.438 2.60156 133.332 2.30859 133.332 1.95703ZM141.207 5.32031L141.277 6.91406C142.246 5.69531 143.512 5.08594 145.074 5.08594C147.754 5.08594 149.105 6.59766 149.129 9.62109V18H146.961V9.60938C146.953 8.69531 146.742 8.01953 146.328 7.58203C145.922 7.14453 145.285 6.92578 144.418 6.92578C143.715 6.92578 143.098 7.11328 142.566 7.48828C142.035 7.86328 141.621 8.35547 141.324 8.96484V18H139.156V5.32031H141.207ZM151.883 11.5547C151.883 9.57812 152.34 8.00781 153.254 6.84375C154.168 5.67188 155.379 5.08594 156.887 5.08594C158.434 5.08594 159.641 5.63281 160.508 6.72656L160.613 5.32031H162.594V17.6953C162.594 19.3359 162.105 20.6289 161.129 21.5742C160.16 22.5195 158.855 22.9922 157.215 22.9922C156.301 22.9922 155.406 22.7969 154.531 22.4062C153.656 22.0156 152.988 21.4805 152.527 20.8008L153.652 19.5C154.582 20.6484 155.719 21.2227 157.062 21.2227C158.117 21.2227 158.938 20.9258 159.523 20.332C160.117 19.7383 160.414 18.9023 160.414 17.8242V16.7344C159.547 17.7344 158.363 18.2344 156.863 18.2344C155.379 18.2344 154.176 17.6367 153.254 16.4414C152.34 15.2461 151.883 13.6172 151.883 11.5547ZM154.062 11.8008C154.062 13.2305 154.355 14.3555 154.941 15.1758C155.527 15.9883 156.348 16.3945 157.402 16.3945C158.77 16.3945 159.773 15.7734 160.414 14.5312V8.74219C159.75 7.53125 158.754 6.92578 157.426 6.92578C156.371 6.92578 155.547 7.33594 154.953 8.15625C154.359 8.97656 154.062 10.1914 154.062 11.8008ZM174.758 8.41406H176.387C177.41 8.39844 178.215 8.12891 178.801 7.60547C179.387 7.08203 179.68 6.375 179.68 5.48438C179.68 3.48438 178.684 2.48438 176.691 2.48438C175.754 2.48438 175.004 2.75391 174.441 3.29297C173.887 3.82422 173.609 4.53125 173.609 5.41406H171.441C171.441 4.0625 171.934 2.94141 172.918 2.05078C173.91 1.15234 175.168 0.703125 176.691 0.703125C178.301 0.703125 179.562 1.12891 180.477 1.98047C181.391 2.83203 181.848 4.01562 181.848 5.53125C181.848 6.27344 181.605 6.99219 181.121 7.6875C180.645 8.38281 179.992 8.90234 179.164 9.24609C180.102 9.54297 180.824 10.0352 181.332 10.7227C181.848 11.4102 182.105 12.25 182.105 13.2422C182.105 14.7734 181.605 15.9883 180.605 16.8867C179.605 17.7852 178.305 18.2344 176.703 18.2344C175.102 18.2344 173.797 17.8008 172.789 16.9336C171.789 16.0664 171.289 14.9219 171.289 13.5H173.469C173.469 14.3984 173.762 15.1172 174.348 15.6562C174.934 16.1953 175.719 16.4648 176.703 16.4648C177.75 16.4648 178.551 16.1914 179.105 15.6445C179.66 15.0977 179.938 14.3125 179.938 13.2891C179.938 12.2969 179.633 11.5352 179.023 11.0039C178.414 10.4727 177.535 10.1992 176.387 10.1836H174.758V8.41406ZM195.781 10.7227C195.781 13.2617 195.348 15.1484 194.48 16.3828C193.613 17.6172 192.258 18.2344 190.414 18.2344C188.594 18.2344 187.246 17.6328 186.371 16.4297C185.496 15.2188 185.043 13.4141 185.012 11.0156V8.12109C185.012 5.61328 185.445 3.75 186.312 2.53125C187.18 1.3125 188.539 0.703125 190.391 0.703125C192.227 0.703125 193.578 1.29297 194.445 2.47266C195.312 3.64453 195.758 5.45703 195.781 7.91016V10.7227ZM193.613 7.75781C193.613 5.92188 193.355 4.58594 192.84 3.75C192.324 2.90625 191.508 2.48438 190.391 2.48438C189.281 2.48438 188.473 2.90234 187.965 3.73828C187.457 4.57422 187.195 5.85938 187.18 7.59375V11.0625C187.18 12.9062 187.445 14.2695 187.977 15.1523C188.516 16.0273 189.328 16.4648 190.414 16.4648C191.484 16.4648 192.277 16.0508 192.793 15.2227C193.316 14.3945 193.59 13.0898 193.613 11.3086V7.75781ZM209.258 10.7227C209.258 13.2617 208.824 15.1484 207.957 16.3828C207.09 17.6172 205.734 18.2344 203.891 18.2344C202.07 18.2344 200.723 17.6328 199.848 16.4297C198.973 15.2188 198.52 13.4141 198.488 11.0156V8.12109C198.488 5.61328 198.922 3.75 199.789 2.53125C200.656 1.3125 202.016 0.703125 203.867 0.703125C205.703 0.703125 207.055 1.29297 207.922 2.47266C208.789 3.64453 209.234 5.45703 209.258 7.91016V10.7227ZM207.09 7.75781C207.09 5.92188 206.832 4.58594 206.316 3.75C205.801 2.90625 204.984 2.48438 203.867 2.48438C202.758 2.48438 201.949 2.90234 201.441 3.73828C200.934 4.57422 200.672 5.85938 200.656 7.59375V11.0625C200.656 12.9062 200.922 14.2695 201.453 15.1523C201.992 16.0273 202.805 16.4648 203.891 16.4648C204.961 16.4648 205.754 16.0508 206.27 15.2227C206.793 14.3945 207.066 13.0898 207.09 11.3086V7.75781ZM222.734 10.7227C222.734 13.2617 222.301 15.1484 221.434 16.3828C220.566 17.6172 219.211 18.2344 217.367 18.2344C215.547 18.2344 214.199 17.6328 213.324 16.4297C212.449 15.2188 211.996 13.4141 211.965 11.0156V8.12109C211.965 5.61328 212.398 3.75 213.266 2.53125C214.133 1.3125 215.492 0.703125 217.344 0.703125C219.18 0.703125 220.531 1.29297 221.398 2.47266C222.266 3.64453 222.711 5.45703 222.734 7.91016V10.7227ZM220.566 7.75781C220.566 5.92188 220.309 4.58594 219.793 3.75C219.277 2.90625 218.461 2.48438 217.344 2.48438C216.234 2.48438 215.426 2.90234 214.918 3.73828C214.41 4.57422 214.148 5.85938 214.133 7.59375V11.0625C214.133 12.9062 214.398 14.2695 214.93 15.1523C215.469 16.0273 216.281 16.4648 217.367 16.4648C218.438 16.4648 219.23 16.0508 219.746 15.2227C220.27 14.3945 220.543 13.0898 220.566 11.3086V7.75781ZM235.941 9.94922L238.754 5.32031H241.285L237.137 11.5898L241.414 18H238.906L235.977 13.2539L233.047 18H230.527L234.805 11.5898L230.656 5.32031H233.164L235.941 9.94922ZM257.633 10.5C257.18 11.0391 256.637 11.4727 256.004 11.8008C255.379 12.1289 254.691 12.293 253.941 12.293C252.957 12.293 252.098 12.0508 251.363 11.5664C250.637 11.082 250.074 10.4023 249.676 9.52734C249.277 8.64453 249.078 7.67188 249.078 6.60938C249.078 5.46875 249.293 4.44141 249.723 3.52734C250.16 2.61328 250.777 1.91406 251.574 1.42969C252.371 0.945312 253.301 0.703125 254.363 0.703125C256.051 0.703125 257.379 1.33594 258.348 2.60156C259.324 3.85938 259.812 5.57812 259.812 7.75781V8.39062C259.812 11.7109 259.156 14.1367 257.844 15.668C256.531 17.1914 254.551 17.9727 251.902 18.0117H251.48V16.1836H251.938C253.727 16.1523 255.102 15.6875 256.062 14.7891C257.023 13.8828 257.547 12.4531 257.633 10.5ZM254.293 10.5C255.02 10.5 255.688 10.2773 256.297 9.83203C256.914 9.38672 257.363 8.83594 257.645 8.17969V7.3125C257.645 5.89062 257.336 4.73438 256.719 3.84375C256.102 2.95312 255.32 2.50781 254.375 2.50781C253.422 2.50781 252.656 2.875 252.078 3.60938C251.5 4.33594 251.211 5.29688 251.211 6.49219C251.211 7.65625 251.488 8.61719 252.043 9.375C252.605 10.125 253.355 10.5 254.293 10.5ZM271.309 0.925781V2.76562H270.91C269.223 2.79688 267.879 3.29688 266.879 4.26562C265.879 5.23438 265.301 6.59766 265.145 8.35547C266.043 7.32422 267.27 6.80859 268.824 6.80859C270.309 6.80859 271.492 7.33203 272.375 8.37891C273.266 9.42578 273.711 10.7773 273.711 12.4336C273.711 14.1914 273.23 15.5977 272.27 16.6523C271.316 17.707 270.035 18.2344 268.426 18.2344C266.793 18.2344 265.469 17.6094 264.453 16.3594C263.438 15.1016 262.93 13.4844 262.93 11.5078V10.6758C262.93 7.53516 263.598 5.13672 264.934 3.48047C266.277 1.81641 268.273 0.964844 270.922 0.925781H271.309ZM268.461 8.61328C267.719 8.61328 267.035 8.83594 266.41 9.28125C265.785 9.72656 265.352 10.2852 265.109 10.957V11.7539C265.109 13.1602 265.426 14.293 266.059 15.1523C266.691 16.0117 267.48 16.4414 268.426 16.4414C269.402 16.4414 270.168 16.082 270.723 15.3633C271.285 14.6445 271.566 13.7031 271.566 12.5391C271.566 11.3672 271.281 10.4219 270.711 9.70312C270.148 8.97656 269.398 8.61328 268.461 8.61328ZM286.977 10.7227C286.977 13.2617 286.543 15.1484 285.676 16.3828C284.809 17.6172 283.453 18.2344 281.609 18.2344C279.789 18.2344 278.441 17.6328 277.566 16.4297C276.691 15.2188 276.238 13.4141 276.207 11.0156V8.12109C276.207 5.61328 276.641 3.75 277.508 2.53125C278.375 1.3125 279.734 0.703125 281.586 0.703125C283.422 0.703125 284.773 1.29297 285.641 2.47266C286.508 3.64453 286.953 5.45703 286.977 7.91016V10.7227ZM284.809 7.75781C284.809 5.92188 284.551 4.58594 284.035 3.75C283.52 2.90625 282.703 2.48438 281.586 2.48438C280.477 2.48438 279.668 2.90234 279.16 3.73828C278.652 4.57422 278.391 5.85938 278.375 7.59375V11.0625C278.375 12.9062 278.641 14.2695 279.172 15.1523C279.711 16.0273 280.523 16.4648 281.609 16.4648C282.68 16.4648 283.473 16.0508 283.988 15.2227C284.512 14.3945 284.785 13.0898 284.809 11.3086V7.75781ZM296.27 18V0.9375H301.086C302.57 0.9375 303.883 1.26562 305.023 1.92188C306.164 2.57812 307.043 3.51172 307.66 4.72266C308.285 5.93359 308.602 7.32422 308.609 8.89453V9.98438C308.609 11.5938 308.297 13.0039 307.672 14.2148C307.055 15.4258 306.168 16.3555 305.012 17.0039C303.863 17.6523 302.523 17.9844 300.992 18H296.27ZM298.52 2.78906V16.1602H300.887C302.621 16.1602 303.969 15.6211 304.93 14.543C305.898 13.4648 306.383 11.9297 306.383 9.9375V8.94141C306.383 7.00391 305.926 5.5 305.012 4.42969C304.105 3.35156 302.816 2.80469 301.145 2.78906H298.52ZM314.035 18H311.867V5.32031H314.035V18ZM311.691 1.95703C311.691 1.60547 311.797 1.30859 312.008 1.06641C312.227 0.824219 312.547 0.703125 312.969 0.703125C313.391 0.703125 313.711 0.824219 313.93 1.06641C314.148 1.30859 314.258 1.60547 314.258 1.95703C314.258 2.30859 314.148 2.60156 313.93 2.83594C313.711 3.07031 313.391 3.1875 312.969 3.1875C312.547 3.1875 312.227 3.07031 312.008 2.83594C311.797 2.60156 311.691 2.30859 311.691 1.95703ZM325.344 18C325.219 17.75 325.117 17.3047 325.039 16.6641C324.031 17.7109 322.828 18.2344 321.43 18.2344C320.18 18.2344 319.152 17.8828 318.348 17.1797C317.551 16.4688 317.152 15.5703 317.152 14.4844C317.152 13.1641 317.652 12.1406 318.652 11.4141C319.66 10.6797 321.074 10.3125 322.895 10.3125H325.004V9.31641C325.004 8.55859 324.777 7.95703 324.324 7.51172C323.871 7.05859 323.203 6.83203 322.32 6.83203C321.547 6.83203 320.898 7.02734 320.375 7.41797C319.852 7.80859 319.59 8.28125 319.59 8.83594H317.41C317.41 8.20312 317.633 7.59375 318.078 7.00781C318.531 6.41406 319.141 5.94531 319.906 5.60156C320.68 5.25781 321.527 5.08594 322.449 5.08594C323.91 5.08594 325.055 5.45312 325.883 6.1875C326.711 6.91406 327.141 7.91797 327.172 9.19922V15.0352C327.172 16.1992 327.32 17.125 327.617 17.8125V18H325.344ZM321.746 16.3477C322.426 16.3477 323.07 16.1719 323.68 15.8203C324.289 15.4688 324.73 15.0117 325.004 14.4492V11.8477H323.305C320.648 11.8477 319.32 12.625 319.32 14.1797C319.32 14.8594 319.547 15.3906 320 15.7734C320.453 16.1562 321.035 16.3477 321.746 16.3477ZM332.609 5.32031L332.668 6.72656C333.598 5.63281 334.852 5.08594 336.43 5.08594C338.203 5.08594 339.41 5.76562 340.051 7.125C340.473 6.51562 341.02 6.02344 341.691 5.64844C342.371 5.27344 343.172 5.08594 344.094 5.08594C346.875 5.08594 348.289 6.55859 348.336 9.50391V18H346.168V9.63281C346.168 8.72656 345.961 8.05078 345.547 7.60547C345.133 7.15234 344.438 6.92578 343.461 6.92578C342.656 6.92578 341.988 7.16797 341.457 7.65234C340.926 8.12891 340.617 8.77344 340.531 9.58594V18H338.352V9.69141C338.352 7.84766 337.449 6.92578 335.645 6.92578C334.223 6.92578 333.25 7.53125 332.727 8.74219V18H330.559V5.32031H332.609ZM356.879 18.2344C355.16 18.2344 353.762 17.6719 352.684 16.5469C351.605 15.4141 351.066 13.9023 351.066 12.0117V11.6133C351.066 10.3555 351.305 9.23438 351.781 8.25C352.266 7.25781 352.938 6.48438 353.797 5.92969C354.664 5.36719 355.602 5.08594 356.609 5.08594C358.258 5.08594 359.539 5.62891 360.453 6.71484C361.367 7.80078 361.824 9.35547 361.824 11.3789V12.2812H353.234C353.266 13.5312 353.629 14.543 354.324 15.3164C355.027 16.082 355.918 16.4648 356.996 16.4648C357.762 16.4648 358.41 16.3086 358.941 15.9961C359.473 15.6836 359.938 15.2695 360.336 14.7539L361.66 15.7852C360.598 17.418 359.004 18.2344 356.879 18.2344ZM356.609 6.86719C355.734 6.86719 355 7.1875 354.406 7.82812C353.812 8.46094 353.445 9.35156 353.305 10.5H359.656V10.3359C359.594 9.23438 359.297 8.38281 358.766 7.78125C358.234 7.17188 357.516 6.86719 356.609 6.86719ZM367.285 2.25V5.32031H369.652V6.99609H367.285V14.8594C367.285 15.3672 367.391 15.75 367.602 16.0078C367.812 16.2578 368.172 16.3828 368.68 16.3828C368.93 16.3828 369.273 16.3359 369.711 16.2422V18C369.141 18.1562 368.586 18.2344 368.047 18.2344C367.078 18.2344 366.348 17.9414 365.855 17.3555C365.363 16.7695 365.117 15.9375 365.117 14.8594V6.99609H362.809V5.32031H365.117V2.25H367.285ZM377.457 18.2344C375.738 18.2344 374.34 17.6719 373.262 16.5469C372.184 15.4141 371.645 13.9023 371.645 12.0117V11.6133C371.645 10.3555 371.883 9.23438 372.359 8.25C372.844 7.25781 373.516 6.48438 374.375 5.92969C375.242 5.36719 376.18 5.08594 377.188 5.08594C378.836 5.08594 380.117 5.62891 381.031 6.71484C381.945 7.80078 382.402 9.35547 382.402 11.3789V12.2812H373.812C373.844 13.5312 374.207 14.543 374.902 15.3164C375.605 16.082 376.496 16.4648 377.574 16.4648C378.34 16.4648 378.988 16.3086 379.52 15.9961C380.051 15.6836 380.516 15.2695 380.914 14.7539L382.238 15.7852C381.176 17.418 379.582 18.2344 377.457 18.2344ZM377.188 6.86719C376.312 6.86719 375.578 7.1875 374.984 7.82812C374.391 8.46094 374.023 9.35156 373.883 10.5H380.234V10.3359C380.172 9.23438 379.875 8.38281 379.344 7.78125C378.812 7.17188 378.094 6.86719 377.188 6.86719ZM391.051 7.26562C390.723 7.21094 390.367 7.18359 389.984 7.18359C388.562 7.18359 387.598 7.78906 387.09 9V18H384.922V5.32031H387.031L387.066 6.78516C387.777 5.65234 388.785 5.08594 390.09 5.08594C390.512 5.08594 390.832 5.14062 391.051 5.25V7.26562Z" fill="white"/>
</svg>
