<svg width="62" height="62" viewBox="0 0 62 62" fill="none" xmlns="http://www.w3.org/2000/svg">
<circle cx="31" cy="31" r="30" stroke="#70B6F9" stroke-width="2"/>
<g clip-path="url(#clip0)">
<path d="M18.5491 27.2808C20.1921 21.776 25.2539 18.0025 30.9988 18C35.3756 18.0177 39.4537 20.2227 41.8654 23.8752C42.0896 24.2782 42.2255 24.7242 42.264 25.1837V20.5997H43.9971V27.5321H37.0646V25.799H40.9815C39.041 22.066 35.2055 19.7021 30.9988 19.6465C24.747 19.689 19.6894 24.7465 19.6469 30.9983C19.6894 37.25 24.747 42.3076 30.9988 42.3501C35.9877 42.2921 40.3606 39.0002 41.796 34.2219L43.4598 34.7158C41.4067 41.5947 34.1659 45.5068 27.287 43.4536C20.408 41.4005 16.496 34.1597 18.5491 27.2808Z" fill="#70B6F9"/>
</g>
<defs>
<clipPath id="clip0">
<rect width="26" height="26" fill="white" transform="matrix(-1 0 0 1 44 18)"/>
</clipPath>
</defs>
</svg>
