<svg width="62" height="62" viewBox="0 0 62 62" fill="none" xmlns="http://www.w3.org/2000/svg">
<circle cx="31" cy="31" r="30" stroke="#70B6F9" stroke-width="2"/>
<path d="M26.1728 37.6486C25.3134 37.7994 24.5102 37.9904 23.7851 38.2163C23.4555 38.3194 23.2718 38.6698 23.3744 38.9994C23.458 39.2667 23.7045 39.4382 23.9713 39.4382C24.033 39.4382 24.0952 39.4291 24.1575 39.4102C24.8313 39.2002 25.5821 39.022 26.3889 38.8804C26.7289 38.8205 26.9559 38.4965 26.8967 38.1565C26.8363 37.8164 26.5121 37.5882 26.1728 37.6486Z" fill="#70B6F9"/>
<path d="M35.629 38.8821C36.4396 39.0261 37.1903 39.2056 37.8605 39.4149C37.9228 39.4344 37.9856 39.4436 38.0473 39.4436C38.3134 39.4436 38.56 39.2727 38.6436 39.0054C38.7467 38.6758 38.563 38.3255 38.234 38.2223C37.5132 37.9965 36.7106 37.8048 35.8475 37.6516C35.4996 37.5875 35.1835 37.8176 35.123 38.1576C35.0626 38.4975 35.2891 38.8217 35.629 38.8821Z" fill="#70B6F9"/>
<path d="M29.1982 37.9214C29.2111 38.2662 29.4937 38.5586 29.8465 38.522C30.6125 38.4933 31.4114 38.4945 32.1731 38.5232C32.1816 38.5238 32.1896 38.5238 32.1981 38.5238C32.532 38.5238 32.8091 38.2596 32.8219 37.9232C32.8353 37.5784 32.5668 37.2878 32.2219 37.2744C31.4266 37.2421 30.5947 37.2414 29.7988 37.2732C29.454 37.286 29.1848 37.5766 29.1982 37.9214Z" fill="#70B6F9"/>
<path d="M31 16C25.5465 16 19.75 17.5332 19.75 20.375V41.625C19.75 44.4668 25.5465 46 31 46C36.4535 46 42.25 44.4668 42.25 41.625V20.375C42.25 17.5332 36.4535 16 31 16ZM41 39.9024C40.9019 39.9254 40.807 39.9638 40.7266 40.0357C40.4684 40.2652 40.4452 40.6601 40.6741 40.9183C40.8902 41.1618 41 41.3992 41 41.6251C41 42.93 37.1957 44.7501 31 44.7501C24.8043 44.7501 21 42.9299 21 41.625C21 41.3992 21.1098 41.1617 21.3259 40.9182C21.5548 40.66 21.5316 40.2651 21.2734 40.0356C21.1929 39.9639 21.0979 39.9254 21 39.9024V22.4526C22.9942 23.9538 27.0797 24.75 31 24.75C34.9203 24.75 39.0058 23.9538 41 22.4526V39.9024ZM31 23.5C24.8043 23.5 21 21.68 21 20.375C21 19.0701 24.8043 17.25 31 17.25C37.1957 17.25 41 19.0701 41 20.375C41 21.68 37.1957 23.5 31 23.5Z" fill="#70B6F9"/>
</svg>
