<svg width="39" height="39" viewBox="0 0 39 39" fill="none" xmlns="http://www.w3.org/2000/svg">
<g clip-path="url(#clip0)">
<path d="M8.1486 5.71131C15.7533 -1.89335 28.1264 -1.89335 35.7311 5.71131C36.048 6.02824 36.048 6.54347 35.7311 6.8604C35.4141 7.17733 34.8989 7.17733 34.582 6.8604C27.6128 -0.110407 16.2684 -0.110407 9.29762 6.8604C5.92028 10.2377 4.061 14.7284 4.061 19.5034C4.061 19.9519 3.69691 20.316 3.24834 20.316C2.79976 20.316 2.43568 19.9536 2.43568 19.5034C2.43575 14.2927 4.46409 9.39582 8.1486 5.71131Z" fill="#70B6F9"/>
<path d="M3.24686 18.6904C3.69543 18.6904 4.05952 19.0545 4.05952 19.5031C4.05952 20.5368 4.15056 21.5802 4.32929 22.5992C4.4057 23.0413 4.10988 23.4623 3.66778 23.5403C3.6223 23.5484 3.57354 23.5516 3.52798 23.5516C3.14119 23.5516 2.79821 23.2753 2.72675 22.8788C2.53332 21.7687 2.4342 20.631 2.4342 19.5031C2.4342 19.0545 2.79829 18.6904 3.24686 18.6904Z" fill="#70B6F9"/>
<path d="M12.4356 34.6489C14.1307 35.7134 15.9803 36.4806 17.9355 36.9275C18.3727 37.0283 18.6473 37.4638 18.5465 37.9011C18.4604 38.2781 18.1256 38.5333 17.7551 38.5333C17.695 38.5333 17.6348 38.5268 17.5731 38.5105C15.4407 38.023 13.4205 37.1859 11.5709 36.0239C11.1906 35.785 11.0769 35.2843 11.3158 34.904C11.5547 34.5237 12.0569 34.41 12.4356 34.6489Z" fill="#70B6F9"/>
<path d="M22.3873 37.3761C24.3946 37.3257 26.3611 36.9454 28.2318 36.2416C28.6528 36.084 29.1208 36.2953 29.2785 36.7162C29.4362 37.1371 29.2233 37.6052 28.804 37.7629C26.7626 38.5284 24.6173 38.9444 22.428 38.9998C22.4215 38.9998 22.415 38.9998 22.4085 38.9998C21.9697 38.9998 21.6073 38.6487 21.5943 38.2083C21.5828 37.7596 21.9388 37.3875 22.3873 37.3761Z" fill="#70B6F9"/>
<path d="M4.56962 26.4673C4.97919 26.282 5.46029 26.4657 5.64557 26.8736C6.46798 28.6939 7.58774 30.3549 8.97247 31.8112C9.28124 32.1363 9.26829 32.6514 8.94321 32.9603C8.78719 33.1114 8.58568 33.1846 8.3841 33.1846C8.16956 33.1846 7.95503 33.1001 7.79253 32.9294C6.28263 31.3399 5.06207 29.5277 4.16333 27.5432C3.97964 27.1337 4.16165 26.6526 4.56962 26.4673Z" fill="#70B6F9"/>
<path d="M32.2026 34.1451C33.0461 33.5535 33.8473 32.879 34.582 32.1444C34.8989 31.8275 35.4141 31.8275 35.7311 32.1444C36.048 32.4614 36.048 32.9766 35.7311 33.2935C34.9298 34.0948 34.0554 34.8294 33.1355 35.4746C32.9925 35.5754 32.8299 35.6225 32.669 35.6225C32.4139 35.6225 32.162 35.5022 32.0043 35.2763C31.7459 34.9106 31.8353 34.4035 32.2026 34.1451Z" fill="#70B6F9"/>
<path d="M29.2522 6.50105H34.9407V0.81266C34.9407 0.364086 35.3048 0 35.7533 0C36.2019 0 36.5659 0.364086 36.5659 0.81266V7.31371C36.5659 7.76229 36.2018 8.12638 35.7533 8.12638H29.2522C28.8036 8.12638 28.4395 7.76229 28.4395 7.31371C28.4395 6.86514 28.8036 6.50105 29.2522 6.50105Z" fill="#70B6F9"/>
<circle cx="21" cy="19" r="5" stroke="#70B6F9" stroke-width="2"/>
</g>
<defs>
<clipPath id="clip0">
<rect width="39" height="39" fill="white" transform="matrix(-1 0 0 1 39 0)"/>
</clipPath>
</defs>
</svg>
